<svg xmlns="http://www.w3.org/2000/svg" xml:space="preserve" id="Layer_1" x="0" y="0" version="1.1" viewBox="0 0 342 74"><style>.st2{fill:#fff}.st3{fill:#1d1d1d}</style><switch><g><path id="Line_00000090263027738006522490000013051533578474245535_" fill="#b2b2b2" d="M87.4 1.8h1V73h-1z"/><path fill="#901a1e" d="M73.3 37c0 20.2-16.4 36.5-36.5 36.5C16.6 73.5.3 57.1.3 37 .3 16.8 16.6.5 36.8.5 56.9.5 73.3 16.8 73.3 37z"/><path d="M60.4 35.5v-.2c0-.2.1-.4.5-.4h.6v.8h.3c0-.1-.1-.7-.1-.8.1 0 .8-.1.9-.1.1 0 .1 0 .1.1v.7c0 .5-.5.5-.6.5-.1.1 0 .2 0 .3.2 0 .7-.1.9-.1 0-1.1-.1-1.7-.2-2.6h-.2v.1c0 .3-.2.3-.6.4-.2 0-.7.1-1.2.1-.6.1-.6 0-.6-.3v-.1H60c.1.5.1 1 .1 1.5.1.1.2.1.3.1zM19.4 52.8l.1.1c.1.2.2.3-.1.6l-.4.4-.6-.6c-.1 0-.2.1-.2.2.1 0 .5.5.6.6l-.6.6c-.1.1-.1.1-.2 0s-.3-.3-.4-.5c-.3-.4 0-.7.1-.8 0-.1-.1-.2-.2-.2l-.6.6c.8.9 1.1 1.3 1.8 1.9.1 0 .2-.1.2-.2l-.1-.1c-.2-.2 0-.4.2-.6.2-.2.5-.5.9-.8.4-.4.5-.4.7-.2l.1.1c.1 0 .2-.1.2-.2l-1.1-1.1c-.3.1-.4.2-.4.2zM60.6 39.1c1-.2 1.1-.3 1.8-.4.3-.1.4-.1.4.2v.1h.2c0-.4.1-.9.1-1.4-.1-.1-.2-.1-.3 0v.2c-.1.2-.1.3-.5.4-.2.1-2.3.6-2.4.6-.1 0 0 0 0 .1 0 0 .1.4.1.5.7.3 1.7.8 2.1 1.1.4.2.4.4.4.5v.2c0 .1.2.1.2 0 0-.3.1-.9.2-1.2 0-.1-.2-.1-.2 0v.1c0 .2-.1.2-.4.1-.5-.5-1.2-.8-1.7-1.1zM54.7 21.9c0-.1.1-.2.2-.2l.1.1c.2.2.3.2.7-.1.3-.2.8-.6.9-.8.2-.2.5-.3.3-.6l-.1-.1c0-.1.1-.2.2-.2.3.4.7.9.9 1.2 0 .1-.1.2-.2.1-.1 0-.1-.1-.1-.1-.2-.2-.4-.1-.7.1-.3.3-.8.6-1 .8-.3.3-.4.4-.3.6 0 0 .1.1.1.2s-.1.1-.2.1c-.1-.3-.5-.8-.8-1.1zM14.7 29.3c-.1 0-.2 0-.2-.1s0-.2.1-.2c0-.3 0-.3-.5-.5-.3-.1-.9-.3-1.1-.4-.2-.1-.5-.2-.7.1 0 0 0 .1-.1.2-.1 0-.2 0-.2-.1.2-.6.4-1.1.5-1.4.1 0 .2 0 .2.1v.2c-.1.3.2.4.4.5.4.2.9.4 1.2.4.4.2.5.2.7-.1l.1-.2c.1 0 .2 0 .2.1-.1.3-.4 1-.6 1.4zM56.8 24.7c0-.1.1-.2.2-.2 0 0 0 .1.1.1 0 .1.1.2.3.1.2-.1.3-.2.4-.2-.1-.2-.4-.7-.7-1.1 0-.1.1-.2.1-.2.1 0 2.8.4 3 .4.1.1 0 .3 0 .4-.1 0-2.4-.3-2.5-.4.2.3.4.7.5.8.1-.1.4-.2.6-.3h.1c.1.1.2.2.3.4v.1c-.2.1-.6.3-.7.4.1.1.2.4.2.4 0 .1-.2.2-.3.2 0 0-.2-.3-.2-.4-.1 0-.3.1-.4.2-.1.1 0 .2 0 .3 0 .1.1.1.1.2s-.1.1-.2.1c-.5-.5-.7-.8-.9-1.3zM57.8 27.4c-.1-.1-.1-.3 0-.4.1 0 2.7.1 3 .1-.1-.3-.3-.8-.4-1-.1-.1-.3-.1-.4-.2h-.1c-.1 0-.1-.2 0-.3.1 0 .7-.1.9-.1 0 .1.1.2.1.3 0 .1.4 1 .5 1.2.1.1.2.3.2.5 0 .1-.1.1-.1.2-.2-.1-.4-.1-.5-.1-.2-.1-2.9-.2-3.2-.2zM19 22.4c0 .1-.2.2-.3.2-.1-.1-1.2-2.4-1.3-2.7-.2.3-.6.7-.7.8-.1.2-.1.3 0 .5 0 .1 0 .1.1.1 0 .1-.1.2-.2.1s-.4-.6-.5-.7c.1-.1.2-.2.2-.3.1-.1.7-.9.8-1 .1-.1.2-.3.3-.4h.2c0 .2.1.4.2.5-.1.2 1.1 2.6 1.2 2.9zM58.8 29.8c0-.1.1-.1.2-.1.2.3.4.7.8.9.4.2.9.3 1.4.2.5-.1 1-.5.8-.9-.2-.4-.6-.3-.7-.3-.5.2-.5.6-.4.9 0 .1-.1.2-.2.1s-.3-.2-.3-.5c-.1-.6.4-.9.6-1 .7-.2 1.1.2 1.3.7.2.6 0 1.4-1 1.6-1.1.2-2.2-.6-2.5-1.6zM60.2 48.4s0 .1-.1.2c-.3.7-1 1-1.6.6-.6-.3-.7-.6-.7-.9 0-.2 0-.4.1-.7.1-.2.1-.3.2-.3s.3 0 .5.1c0 0 1.5.7 1.5.8.1 0 .1 0 .1.2zm.5-1.1s0 .1-.1.2-.2.2-.6 0l-1.3-.6c-.4-.2-.4-.2-.3-.5v-.1c0-.1-.1-.1-.2-.1l-.2.6-.3.7c-.4.6-.5 1.6.4 2.2.8.5 1.7.3 2.3-1 .2-.5.4-.9.6-1.2 0-.2-.2-.2-.3-.2zM55.1 54.6c.1.1.1.2.1.3 0 .1 0 .3-.2.5-.1 0-.2.1-.3.3 0 0-1-1.1-1.2-1.3-.3-.4-.4-.4-.2-.7 0 0 0-.1.1-.1 0-.1-.1-.2-.2-.2-.3.3-.8.7-1 1 0 .1.1.2.2.2l.1-.1c.2-.1.3-.1.6.2.2.2 1.2 1.3 1.2 1.3l-.4.4c-.2.2-.4.1-.5 0-.1 0-.1-.1-.2-.2-.1 0-.2.1-.2.2l.6.6c.8-.7 1.3-1.2 2-1.9 0 0-.4-.6-.4-.7.1.1 0 .1-.1.2zM57.2 52.6l-1.2-.4.5-.7.7 1.1zm-1.6-1.8c0 .1.1.2.2.2l.1-.1c.2-.2.2-.1.4.2.1.2.2.2.2.3-.1.1-.6.7-.7.8-.1 0-.1 0-.3-.1-.2-.1-.4-.1-.2-.3 0-.1.1-.1.1-.1 0-.1-.1-.2-.2-.2-.1.2-.4.5-.8 1 0 .1.1.2.2.2l.1-.1c.2-.2.5-.1.7 0 .2.1 2.3.8 2.3.8h.1s.1-.3.1-.4c-.1-.1-1-1.7-1.2-2.1-.2-.4-.2-.5-.2-.6 0-.1.1-.1.1-.1 0-.1-.1-.1-.2-.1-.3-.1-.7.6-.8.7zM11.3 37.6c-.1 0-.2-.1-.3-.1-.1-.1-.2-.3-.2-.5v-.4h1.8c.5 0 .6 0 .6.3v.1h.2v-1.4c-.1 0-.2-.1-.2 0v.1c0 .3-.2.3-.6.3h-1.8v-.5c0-.3.3-.3.3-.4h.2c.1-.1 0-.2 0-.2h-.8c-.1 1.1-.1 1.8-.1 2.8.1 0 .7.2.8.2.2-.1.2-.3.1-.3zM11.2 39.7l1.1-.5.1.9-1.2-.4zm2.5.2c-.1-.1-.2 0-.2 0v.1c0 .2-.1.2-.4.1-.2-.1-.3-.1-.3-.1 0-.2-.1-.9-.1-1.1.1-.1.1-.1.3-.2.2-.1.3-.2.4.1v.1c.1.1.2 0 .2 0 0-.2-.1-.7-.1-1.3-.1-.1-.2 0-.3 0v.2c0 .3-.3.4-.5.5-.2.1-2.2 1-2.2 1.1-.1 0-.1 0 0 .1l.2.3c.1 0 1.8.5 2.3.6.5.1.5.2.6.4v.1c.1.1.2 0 .2 0 0-.1-.1-.9-.1-1zM17 52c-.4.2-.7.3-1 .3-.2 0-.4-.2-.6-.4-.1-.2-.2-.4-.1-.7.1-.3.3-.7.7-1 .6-.4 1.2-.4 1.5.1.4.7 0 1.3-.5 1.7zm.8-1.8c-.3-.4-.7-.7-1.1-.8-.4-.1-.8 0-1.2.3-.4.2-.6.6-.7 1-.1.4 0 .9.3 1.3.6.8 1.5 1 2.3.5.4-.2.6-.6.7-1 .1-.4 0-.9-.3-1.3zM23.2 55.9c0 .1-.1.2-.1.2H23c-.2-.1-.3-.1-.7.3-.2.3-.5.7-.7 1-.2.3-.4.4-.1.6l.1.1c0 .1-.1.2-.2.2-.5-.3-1.2-.9-2-1.6.1-.2.3-.5.5-.6.1 0 .2.1.2.1 0 .1-.1.1-.1.2s-.1.3.1.5.4.4.5.4c.1.1.2.1.2 0 .1-.1.5-.6.6-.7-.1-.1-.6-.5-.7-.5 0-.1.1-.2.2-.2.1.1.6.5.6.5s.3-.4.4-.5c.3-.4.2-.4 0-.7-.1-.1-.2-.1-.2-.2-.2-.2-.4-.1-.6 0-.1.1-.1.1-.2.1s-.2-.1-.2-.2c.1-.1.5-.5.7-.5.4.4 1.1 1 1.8 1.5zM14.4 44.3c0-.1.2-.1.2-.1.2.5.2.7.4 1.1 0 .1-.1.1-.2.1 0 0 0-.1-.1-.1-.1-.1-.1-.2-.6-.2-.3 0-1.2.2-1.3.3-.3.1-.6.2-.5.5 0 .1 0 .1.1.1 0 .1-.1.1-.2.1-.1-.4-.3-.7-.4-1.1.1 0 .3-.1.5-.3.3-.2 1-.8 1.3-1.1-.3-.1-1.6-.3-1.7-.3-.2 0-.4-.1-.6 0-.1-.2-.2-.8-.3-1.1 0-.1.2-.1.2 0v.1c.1.2.1.3.5.2.4-.1 1-.3 1.3-.5.4-.2.6-.2.5-.4v-.2c0-.1.2-.1.2-.1.1.7.2 1 .3 1.4 0 .1-.2.1-.2.1v-.1c-.1-.2-.1-.3-.6-.2-.4.1-1.3.5-1.6.5.3.1 1.3.2 1.8.3.5.1.7.1.8.1 0 0 .1.1.1.2-.1 0-.3.2-.7.5-.3.3-1.1 1-1.3 1.1.4-.1 1.2-.3 1.4-.3.3-.1.6-.1.5-.4M59.7 41.6c.1-.1.2 0 .2 0v.1c0 .2.1.3.5.4.4.1.9.2 1.2.2.3.1.6.2.6-.1v-.1h.2c0 .2-.1.6-.2.9v.1c-.1 0-.1 0-.3.1-.1 0-2.1 1-2.3 1.1.2.1 1 .4 1.2.4.4.1.5.2.7-.1 0 0 0-.1.1-.1s.2 0 .2.1c-.1.4-.3.9-.4 1.2-.1 0-.2 0-.2-.1v-.1c.1-.2 0-.3-.5-.5-.3-.1-1.8-.7-2-.7 0 0-.1-.1 0-.2l3-1.5c-.2-.1-1.2-.3-1.5-.3-.5-.1-.6-.1-.7.2v.1c-.1 0-.2 0-.2-.1.2-.1.4-.8.4-1zM11.1 32.9l.1-.1c.1 0 1 .1 1.1.1 0 .2-.1.7-.1.8-.2-.2-1-.6-1.1-.7v-.1zm-.3.4c.1 0 .4.1.6.2 0 0 1.4.9 1.7 1.1.2.2.2.3.3.3v.1c.1.1.2.1.3 0 0-.1 0-.6.1-1 0-.1-.2-.1-.2 0v.2c0 .1-.1.1-.2 0s-.5-.3-.6-.4c0-.1.1-.8.1-.9h.6c.3.1.3.3.3.3v.1c.1.1.2.1.2 0 .1-.8.2-1.4.5-2.3-.3-.2-.7-.3-.8-.3-.1 0-.2.2-.1.3.1 0 .1.1.2.1.3.2.3.4.3.6 0 .1 0 .2-.1.4-.1.3-.2.3-.5.3h-.6l.1-.8c-.1 0-.2-.1-.3 0l-.1.8c-.1 0-.9-.1-1-.1-.1 0-.1-.1-.1-.1 0-.1 0-.3.1-.6s.2-.4.3-.4h.3c.1-.1.1-.2 0-.3h-.8c-.2.7-.2 1.1-.3 1.7-.3.2-.3.3-.3.7-.1 0-.1 0 0 0zM51.4 58.5h-.1c-.1-.1-.6-.8-.7-.9.2-.1.6-.4.7-.5.1.3.2 1.2.2 1.3-.1 0-.1.1-.1.1zm.5-.1c-.1-.1-.2-.3-.2-.6 0-.1-.3-1.7-.3-1.9 0-.3 0-.4.1-.4l.1-.1c0-.1-.1-.2-.2-.2-.1.1-.5.4-.8.6 0 .1 0 .2.1.2s.1 0 .1-.1c.1 0 .2 0 .2.1s.1.6.1.7c-.1.1-.7.5-.8.6l-.4-.4c-.2-.3 0-.4.1-.4l.1-.1c0-.1-.1-.2-.1-.2-.7.4-1.2.8-2 1.3.1.4.3.7.3.8.1.1.2 0 .2-.1V58c-.1-.3.1-.5.3-.6.1-.1.2-.1.3-.2.2-.1.3 0 .5.2.1.1.3.4.4.5-.1.1-.6.4-.7.5 0 .1.1.2.2.2.1-.1.5-.4.7-.5.1.1.5.7.6.8.1.1 0 .1-.1.1s-.2.2-.5.3c-.3.2-.4.1-.5 0-.1 0-.1-.1-.2-.2-.2 0-.2.1-.2.2.1.2.3.4.5.6.6-.3 1-.6 1.5-.9l.6-.6c.1.1.1.1 0 0z" class="st2"/><path d="M13.6 48.8c.5-.3 1.4-.7 1.6-.9.4-.2.5-.3.4-.5 0-.1 0-.1-.1-.2 0-.1.2-.1.2-.1.2.4.5.9.6 1.2 0 .1-.2.1-.2.1l-.1-.1c-.2-.2-.2-.2-.7 0-.3.2-.9.5-1.1.6-.4.2-.5.3-.4.5 0 .1 0 .1.1.1 0 .1-.2.1-.2.1-.3-.5-.6-1.1-.7-1.2-.1-.1-.1-.3-.2-.4-.1-.3-.2-.9.4-1.1.4-.2.7 0 .9.2.2-.3.3-.6.5-.9.1-.3.2-.4.1-.6v-.1c0-.1.2-.1.2-.1 0 .1.2.4.3.8-.1.3-.7 1.4-.8 1.6h-.1c-.1-.2-.2-.3-.5-.4-.2 0-.3.1-.4.1-.1 0-.2.2-.3.3-.1.2 0 .4 0 .5 0 .1.1.2.1.3.4.1.4.2.4.2zM24.1 59.6c.3-.5.7-1.4.9-1.6.2-.4.2-.5 0-.7l-.1-.1c0-.1.1-.2.1-.2.3.2.9.5 1.2.7 0 .1-.1.2-.1.2s-.1 0-.1-.1c-.2-.1-.3 0-.5.4-.2.3-.5.9-.6 1.1-.2.4-.2.5 0 .7 0 0 .1 0 .1.1s-.1.2-.1.2c-.5-.2-1.1-.6-1.2-.7-.1-.1-.2-.2-.4-.2-.3-.2-.7-.6-.3-1.2.2-.4.6-.4.9-.3 0-.3 0-.7-.1-1-.1-.3-.1-.4-.3-.6l-.1-.1c0-.1.1-.2.1-.2.1 0 .4.3.7.5.1.3.2 1.5.2 1.7 0 0-.1 0-.1.1-.1-.1-.4-.2-.6-.1-.2.1-.2.2-.3.3-.1.1-.1.3-.1.4 0 .2.2.3.3.4.1.1.2.1.3.1.1.2.2.2.2.2zM15.6 27.2c0-.1.5-.9-.2-1.4-.6-.5-1.1.1-1.4.8-.2-.2-.9-.8-1-1 0-.1.4-1.4.5-1.5.2 0 .3.2.4.3-.1.2-.4 1.1-.4 1.2l.3.3c.1-.3.5-.9 1.1-.9 1 0 1.5 1 1 2.3-.1.1-.2.1-.3-.1zM14.6 23.4c0-.1-.2-.5.1-1 .1-.2.3-.4.6-.4.2 0 .7.2.7.8.2-.3.4-.3.7-.3.1 0 .7.1.9 1.1.1.6-.2 1.3-.5 1.4-.3.1-.6-.3-.3-.5.1-.1.3 0 .4-.1.1-.2.2-.7-.2-1-.2-.2-.6-.3-.9 0-.1.1-.1.3-.1.6-.1.2-.3.1-.4 0 0-.2.2-.6.1-1-.1-.3-.4-.5-.6-.2-.2.2-.1.6-.1.7-.2-.1-.3-.1-.4-.1zM49 10.7c0-.1.1-.3.2-.4.1 0 .2.1.2.1.4.1.5.1.9-.7.2-.4.7-1.3.9-1.7.2-.4.5-.8 0-1.1-.1 0-.1-.1-.2-.1 0-.1.1-.3.2-.4.8.4 1.5.8 2 1 0 .1-.1.3-.2.3s-.1-.1-.2-.1c-.4 0-.6.4-.8.8-.3.6-.7 1.4-.9 1.7-.3.6-.4.8 0 1.1.1 0 .1.1.2.1 0 .1-.1.3-.2.3-.6-.2-1.5-.6-2.1-.9zM57.3 16.6c0-.1.2-.3.3-.3l.2.2c.3.2.4.3 1.1-.3.4-.4 1.1-1.1 1.4-1.3.3-.3.7-.6.4-1-.1-.1-.1-.1-.1-.2s.2-.3.3-.3c.6.6 1.2 1.3 1.5 1.7 0 .1-.2.3-.3.3l-.1-.1c-.4-.3-.7 0-1 .3-.5.5-1.2 1-1.5 1.3-.5.5-.6.6-.4 1 0 .1.1.1.2.2 0 .1-.2.2-.3.2-.5-.5-1.2-1.3-1.7-1.7zM59.7 54.6c.1 0 .3.1.3.2s-.1.1-.1.2c-.2.4-.2.5.4 1 .4.3 1.2 1 1.5 1.3.3.3.7.6 1 .3l.2-.2c.1 0 .3.1.3.2-.6.7-1.1 1.4-1.5 1.8-.1 0-.3-.1-.3-.3.1-.1.1-.1.1-.2.3-.4 0-.7-.4-1-.5-.5-1.2-1-1.5-1.3-.5-.5-.7-.5-1-.3-.1 0-.1.1-.2.2-.1 0-.3-.2-.3-.3.4-.3 1.1-1.1 1.5-1.6zM37.1 65.8c.1.1.1.3 0 .4h-.3c-.4.1-.5.1-.5 1v2c0 .4-.1.9.4 1h.2c.1.1.1.3 0 .4-.9 0-1.7 0-2.3-.1-.1-.1-.1-.3 0-.4h.2c.5 0 .5-.4.5-1 0-.7.1-1.6.1-2 0-.7 0-.9-.4-1h-.3c-.1-.1 0-.3 0-.4.7.1 1.8.1 2.4.1zM18.7 59.4c0 .1-.2.3-.2.3-.1 0-.1-.1-.2-.1-.4-.2-.5-.2-1 .4-.4.4-1 1.2-1.3 1.5-.3.3-.6.7-.3 1 .1.1.1.1.1.2s-.1.3-.2.3c-.7-.6-1.3-1.1-1.7-1.5 0-.1.2-.3.3-.3l.1.1c.4.3.7 0 1-.4.5-.5 1-1.2 1.3-1.5.5-.5.6-.7.3-1 0-.1-.1-.1-.2-.2 0-.1.2-.3.3-.3.4.4 1.2 1.1 1.7 1.5zM9.4 27.8c-.1 0-.3 0-.4-.1 0-.1 0-.2.1-.2.1-.4 0-.5-.8-.8-.5-.2-1.5-.5-1.8-.7-.4-.1-.8-.4-1.1.1 0 .1-.1.1-.1.2-.1.1-.3 0-.4-.1.3-.9.6-1.6.8-2.2.1-.1.3 0 .4.2 0 .1 0 .1-.1.2-.1.5.3.6.7.8.7.3 1.5.6 1.8.7.8.1 1 .1 1.2-.2 0-.1.1-.2.1-.2.1 0 .3.1.4.2-.2.4-.6 1.4-.8 2.1zM62 22.7c-.7-1.3-1.7-2.6-2.1-3.2 0-.1.2-.2.3-.3.1.1.1.1.1.2.3.3.4.3 1.1-.2.4-.3 1.3-.9 1.6-1.1.3-.2.8-.5.5-.9 0-.1-.1-.1-.1-.2s.2-.3.3-.2c.5.7 1 1.4 1.3 1.9 0 .1-.2.2-.3.2-.1-.1-.1-.1-.1-.2-.3-.4-.7-.1-1.1.2-.6.4-1.1.8-1.6 1.1-.6.4-.7.5-.5.9 0 .1.1.3.2.4.1.2.3.4.5.5.2.1.5.1.6.1.1 0 .3-.1.4-.1.1 0 .2.1.1.4-.2.1-.6.3-1.2.5zM64.1 27.5c-.5-1.4-1.2-2.9-1.5-3.5.1-.1.3-.2.4-.2 0 .1.1.1.1.2.2.3.4.3 1.1 0 .5-.2 1.5-.7 1.8-.8.4-.2.9-.3.7-.8 0-.1 0-.1-.1-.2 0-.1.2-.2.3-.2.4.8.7 1.6.9 2.1 0 .1-.2.2-.4.2 0-.1-.1-.1-.1-.2-.2-.4-.7-.2-1.1 0-.6.3-1.2.6-1.8.8-.6.3-.8.3-.7.8 0 .1.1.3.2.5s.2.5.4.6c.2.1.5.2.6.2h.4c.1.1.2.2.1.4-.1-.1-.7 0-1.3.1zM44.7 8.8c0-.4.1-.9.2-1.2.1 0 .3 0 .4.1 0 .4-.1 1.1.7 1.5.6.2.9 0 1-.3.2-.4 0-.8-.6-1.3-.8-.7-.9-1.2-.8-1.6.1-.5.6-1.5 2-1 .7.3 1 .5 1.2.6 0 .1-.1.8-.2 1.1-.1.1-.3 0-.4-.1 0-.1.2-.8-.6-1.1-.7-.3-1 .1-1.1.4-.1.4.1.5.7 1.1.5.5 1.1 1 .8 1.9-.3.8-1.1 1.1-2.1.8-.9-.4-1.2-.9-1.2-.9zM41.9 65.6c.2.4.3.9.3 1.1-.1.1-.3.1-.4.1-.2-.4-.4-1.1-1.3-1-.6.1-.8.4-.8.8 0 .5.4.7 1.1.9 1 .3 1.3.6 1.5 1 .2.5.2 1.6-1.4 1.8-.7.1-1.1 0-1.4 0-.1-.1-.2-.8-.3-1.1.1-.1.2-.2.4-.1 0 .1.2.8 1 .7.8-.1.8-.6.8-.8-.1-.4-.3-.4-1.1-.7-.6-.2-1.4-.4-1.5-1.3-.1-.8.5-1.5 1.5-1.7 1 0 1.6.3 1.6.3zM15.5 56.7c-.2.4-.5.7-.8.9-.1 0-.3-.2-.3-.3.2-.4.7-.9.1-1.6-.4-.4-.8-.4-1.1-.2-.4.3-.4.7-.1 1.4.3 1 .2 1.5 0 1.8-.3.4-1.3 1-2.3-.1-.5-.6-.7-.9-.8-1.1.1-.1.5-.6.7-.8.2 0 .3.1.3.3-.1.1-.6.6 0 1.3.5.6.9.4 1.1.2.3-.3.2-.5 0-1.3-.2-.7-.4-1.4.2-2 .6-.5 1.6-.4 2.2.3.8.6.8 1.2.8 1.2zM22.4 11.8c-.1-.1-.2-.2-.2-.3.1 0 .1-.1.2-.1.3-.3.4-.4 0-1.1-.3-.5-.7-1.4-.9-1.7-.2-.4-.4-.8-.9-.6-.1 0-.1.1-.2.1s-.2-.2-.2-.3c.8-.4 1.5-.8 2-1.1.1 0 .2.3.2.4l-.1-.1c-.4.3-.2.6 0 1.1l.9 1.8c.3.6.5.8.9.6.1 0 .2-.1.2-.1.1 0 .2.2.2.4-.6.2-1.5.7-2.1 1zM26 9.8c-.3-.3-.5-.8-.6-1 .1-.1.3-.2.4-.2.3.4.6 1 1.5.7.6-.3.7-.7.6-1-.1-.5-.5-.6-1.3-.6-1.1-.1-1.4-.4-1.6-.7-.3-.5-.5-1.5 1-2 .7-.2 1.1-.3 1.3-.3.1.1.4.7.5 1-.1.1-.2.2-.4.2-.1-.1-.4-.8-1.2-.5-.7.2-.7.7-.6 1 .1.3.4.4 1.2.5.7.1 1.5.1 1.8 1 .3.8-.2 1.6-1.1 1.9-.9.2-1.5 0-1.5 0zM18.4 14.3c-.4-.2-.7-.6-.9-.8 0-.1.2-.3.3-.3.4.3.9.8 1.6.2.5-.3.5-.7.3-1-.2-.4-.7-.4-1.4-.3-1.1.2-1.5.1-1.8-.2-.4-.4-.9-1.3.4-2.2.6-.4 1-.6 1.2-.7.1.1.6.6.7.8 0 .2-.1.2-.3.3 0-.1-.5-.7-1.2-.2-.6.4-.5.9-.3 1.1.2.3.5.2 1.3.1.7-.1 1.4-.3 2 .4.5.7.3 1.6-.5 2.2-.8.6-1.4.6-1.4.6zM63.2 48.6c.1-.1.3 0 .4.1l-.1.2c-.1.3 0 .5.7.8.6.3 1.3.6 1.8.8.5.2.8.4 1 0 0-.1.1-.1.1-.2.1 0 .3 0 .4.2-.1.2-.4.9-.6 1.3 0 .1-.1.1-.1.2h-.5c-.1 0-3.6.8-4 .9.3.2 1.4.9 1.7 1.1.6.4.8.5 1.1.1 0-.1.1-.1.1-.2.1 0 .3.1.3.2-.3.6-.8 1.2-1.1 1.6-.1 0-.3-.1-.3-.2 0 0 .1-.1.1-.2.2-.3.1-.5-.6-.9-.5-.3-2.6-1.7-2.8-1.8 0-.1-.1-.2 0-.3.7-.2 5-1.2 5.2-1.2-.3-.1-1.7-.8-2.2-1-.7-.3-.9-.3-1.1 0-.1.1-.1.1-.1.2-.1 0-.3 0-.3-.2.4-.3.8-1.3.9-1.5zM8 34.5c-.1.1-.3.1-.4 0v-.2c0-.3-.2-.5-.9-.6-.7-.1-1.4-.1-1.9-.2s-.9-.2-1 .3v.2c-.1.1-.3.1-.4 0 0-.3.1-1 .1-1.4v-.2c.1 0 .2-.1.5-.2 0-.2 3.1-2 3.4-2.3l-2-.5c-.7-.2-.9-.2-1.1.3 0 .1 0 .2-.1.2-.1.1-.3 0-.4-.1.1-.7.3-1.4.5-1.9.1-.1.3 0 .4.1v.2c0 .3.1.5.8.7.5.1 3 .8 3.2.8.1.1.1.2.1.3-.6.4-4.3 2.7-4.5 2.9.3 0 1.9.2 2.4.2.8 0 .9 0 1-.4v-.2c.1-.1.3 0 .4.1.1.4-.1 1.5-.1 1.9zM13.7 19.5c-.2 0-.3-.1-.3-.2 0 0 .1-.1.1-.2.2-.3.1-.5-.5-1-.5-.4-1.1-.9-1.5-1.2-.4-.3-.7-.6-1-.3 0 .1-.1.1-.2.2-.1 0-.3-.1-.3-.2.1-.2.6-.8.9-1.1 0 0 .1-.1.1-.2.1.1.2.1.5.1h4.1c-.2-.3-1.1-1.2-1.4-1.5-.5-.5-.7-.7-1-.3-.1 0-.1.1-.2.2-.1 0-.3-.1-.3-.3.5-.5 1-1 1.4-1.3.1 0 .3.2.3.3 0 0-.1.1-.2.1-.2.3-.2.4.4 1 .4.4 2.1 2.3 2.3 2.4 0 .1 0 .2-.1.3h-5.4c.3.2 1.5 1.2 1.9 1.5.6.5.8.5 1.1.3l.2-.2c.1 0 .3.1.3.3-.3.2-1 1-1.2 1.3zM10.8 49.4c-.1 0-.3.1-.4.2 0 .1.1.2.1.2.1.4 0 .5-.6.9-.2.1-.4.2-.7.4l-1-2.3c.3-.1.6-.2.8-.3.8-.3.9-.3 1.1.1 0 0 .1.1.1.2.1 0 .3-.1.4-.2-.3-.6-.6-1.5-.8-2-.1 0-.3 0-.4.1 0 .1 0 .2.1.2.1.4-.1.5-.7.8-.4.1-1.2.5-1.8.7-.4.2-.8.4-1-.1 0 0 0-.1-.1-.2-.1 0-.3 0-.4.2.2.5.5 1.3.8 2.1.1 0 .3 0 .4-.2 0-.1 0-.1-.1-.2-.1-.4.2-.6.7-.8.1-.1.4-.2.6-.3L9 51.2l-.6.3c-.4.2-.8.5-1.1 0 0 0 0-.1-.1-.2-.1 0-.3.1-.4.2.2.5.6 1.2 1 2 .1 0 .3-.1.3-.2s0-.1-.1-.2c-.2-.4.1-.6.6-.9.3-.2 1.3-.7 1.7-.9.7-.4.8-.4 1.1-.1 0 .1.1.1.1.2.1 0 .3-.1.3-.2-.3-.4-.8-1.3-1-1.8zM56.5 14.7c-.1.2-.2.3-.4.5-.4-.2-.9-.4-1.6-1-.6-.5-1.2-1.2-1.2-2.3.1-1 .7-1.9 1.5-2.2 1-.4 2 0 2.8.5.9.7 1.1 1.1 1.2 1.2-.3.3-.5.7-.7 1.1-.1 0-.3-.1-.4-.2.1-.2.2-.5.2-.8 0-.3-.2-.7-.6-1-.5-.4-1.8-.8-2.8.7-.9 1.4-.1 2.3.2 2.5.2.1.2.2.4.3.3.2.4.2.6-.1.1-.1.1-.2.3-.3.2-.3.3-.3 0-.6l-.3-.3c0-.1.1-.3.3-.3.6.5 1.2 1 1.7 1.3 0 .1-.1.3-.2.3s-.1-.1-.2-.1c-.2.1-.3.1-.6.4-.1.2-.2.3-.2.4zM10.9 24.2c-.1 0-.3-.1-.3-.2s0-.1.1-.1c.1-.4.1-.6-.6-1-.6-.3-1.3-.7-1.7-.9-.5-.3-.8-.5-1.1 0h-.2c-.1 0-.3-.1-.3-.2.4-.8 1.2-2.2 2-3.5.3.1.8.4 1.1.6 0 .2 0 .3-.2.4-.1 0-.2-.1-.4-.1s-.5-.1-.7.3c-.2.3-.5.8-.6 1-.1.2 0 .3.1.3.1.1 1.1.6 1.2.7l.7-1.2c.2 0 .3.1.4.3l-.7 1.2s.7.4.8.5c.6.4.7.2 1-.2.1-.2.2-.3.2-.4.2-.4.1-.7-.1-1l-.2-.2c0-.1.1-.3.3-.3.1.1.9.7 1 .9-.5.6-1.3 1.9-1.8 3.1zM52.7 61c.1 0 .2.2.2.3l-.1.1c-.3.3-.4.4 0 1.2.3.6.7 1.2 1 1.7.3.5.4.8.9.6.1 0 .1-.1.2-.1s.2.2.2.3c-.8.5-2.1 1.3-3.6 2-.2-.3-.5-.8-.6-1 .1-.2.2-.3.4-.3l.3.3c.1.1.4.3.8.1.4-.1.8-.4 1-.5.2-.1.2-.2.1-.3-.1-.1-.6-1.1-.7-1.2l-1.2.7c-.1-.1-.2-.3-.2-.4l1.2-.7s-.4-.7-.5-.8c-.4-.7-.5-.6-1-.3-.2.1-.3.2-.4.2-.4.2-.5.5-.4 1v.3c-.1.1-.3.2-.4.1-.1-.2-.3-1-.4-1.3.8-.5 2-1.2 3.2-2zM65.8 30.4c1.3-.9 1.5-1 2.6-1.6.4-.2.5-.3.7 0 0 .1 0 .1.1.2s.3 0 .4-.1c-.2-.7-.4-1.4-.6-2.2-.1-.1-.3 0-.4.1 0 .1 0 .2.1.3 0 .4-.1.5-.5.8-.3.2-3.3 2.1-3.3 2.1-.1.1-.1.1 0 .2 0 0 .3.4.4.6 1.2.2 3 .5 3.7.6.7.1.8.3.9.5v.2c.1.1.3.1.4 0-.1-.5-.2-1.3-.3-1.8-.1-.1-.3-.1-.4 0v.2c0 .3 0 .4-.6.3-1.1-.1-2.2-.3-3.2-.4zM65.2 45.7c1.6-.1 1.8-.1 3-.1.4 0 .6 0 .6.4v.2c.1.1.3.2.4.1.2-.7.4-1.4.6-2.2-.1-.1-.3-.1-.4-.1 0 .1 0 .2-.1.2-.2.4-.3.4-.9.5-.3 0-3.9.2-3.9.2-.1 0-.1.1-.1.1v.7c1 .8 2.4 1.9 3 2.4.5.5.6.7.5.9 0 .1-.1.2-.1.2.1.1.3.2.4.2.2-.5.5-1.3.6-1.8-.1-.1-.3-.2-.4-.1 0 .1 0 .1-.1.2-.1.2-.2.4-.7 0-.7-.6-1.7-1.4-2.4-2zM55.9 59.6c1.4.8 1.5.9 2.6 1.5.4.2.5.3.3.6l-.1.1c0 .2.2.3.3.3.6-.5 1.1-1 1.7-1.6 0-.2-.2-.3-.3-.3-.1 0-.1.1-.2.2-.3.2-.5.2-1-.1-.3-.2-3.3-1.9-3.4-1.9h-.2s-.3.5-.4.6c.4 1.2 1 2.9 1.2 3.6.2.7.1.9 0 1-.1.1-.1.1-.2.1 0 .1.1.3.2.3.4-.3 1.1-.8 1.5-1.1 0-.1-.1-.3-.2-.3s-.1.1-.2.1c-.2.1-.4.2-.6-.4-.3-.7-.6-1.8-1-2.7zM47.8 68.2c-.3-.9-.8-2.4-1-2.7-.2-.7-.4-.8-.8-.7-.1 0-.2 0-.3.1-.1-.1-.2-.3-.1-.4.7-.2 1.5-.5 2.1-.8.1.1.2.3.2.4-.1 0-.1.1-.2.1-.4.2-.4.4-.1 1.1.2.5.6 1.5.7 1.8.3.8.4.9.8.7h.2c.1 0 .2.3.1.4-1.2.5-1.9.7-2.1.8-.2.1-.4.1-.6.2-.6.1-1.4.1-1.7-.9-.2-.7.1-1.1.6-1.4-.4-.3-.9-.7-1.3-.9-.5-.3-.6-.3-1-.3h-.2c-.1-.1-.1-.3-.1-.4.1 0 .7-.2 1.3-.3.3.2 2 1.3 2.3 1.5l-.1.2c-.2.1-.6.3-.6.6-.1.3 0 .5.1.7 0 .2.2.4.4.6.3.1.6.1.7 0 .2-.1.3-.1.5-.2.1-.1.1-.2.2-.2zM25.3 67.5l.1-2 1.3.5-1.4 1.5zm2-3.3c-.2.1-.2.3-.2.3.1 0 .1 0 .2.1.3.2.3.3-.1.6-.2.2-.3.3-.3.4-.2-.1-1.3-.5-1.5-.6v-.5c0-.3 0-.6.4-.5.1 0 .1 0 .2.1.1-.1.2-.3.1-.4-.3-.1-1-.4-1.9-.8-.2.1-.2.3-.2.3.1 0 .1.1.2.1.4.3.3.7.3 1 0 .3-.1 3.9-.1 3.9 0 .1 0 .1.1.1h.6c.2-.2 2.1-2.3 2.5-2.8.5-.6.7-.6.9-.5h.2c.1-.1.2-.3.1-.4-.5-.1-1.3-.3-1.5-.4zM4.9 44l1.8-1 .3 1.3-2.1-.3zm3.9-.1c-.1-.1-.3 0-.4.1v.2c0 .4-.1.4-.6.3-.3-.1-.4-.1-.5-.1 0-.3-.3-1.5-.3-1.7.1-.1.2-.1.5-.3.3-.2.5-.3.6 0v.2c.1.1.3 0 .4-.1-.1-.3-.2-1-.3-2-.1-.1-.3 0-.4 0v.3c0 .5-.4.6-.7.8-.3.2-3.3 2-3.4 2-.1.1-.1.1 0 .1 0 0 .3.4.4.5.3 0 3 .5 3.7.6.8.1.8.3 1 .5.1.1.1.2.1.2.1.1.3 0 .4-.1-.2-.1-.5-1.3-.5-1.5zM66.1 35.5c-.1.1-.3.1-.4 0-.1-.8-.1-1.2-.1-1.8.1-.1.2-.2.4-.1v.2c.1.3.1.4.8.5.5 0 1.9.1 2.2.1.5 0 1 0 .9-.5v-.2c.1-.1.3-.1.4 0 .1.7.1 1.1.1 1.8-.2 0-.5 0-.9.2-.5.3-1.9 1-2.4 1.3.4.2 2.3 1.1 2.4 1.2.3.1.6.3 1 .4 0 .5-.1 1.2-.1 1.8-.1.1-.3.1-.4 0v-.2c0-.3 0-.4-.6-.4h-2.3c-.7.1-1 .1-1 .4v.3c-.1.1-.3 0-.4-.1.1-1.1.1-1.5.2-2.1.1-.1.3-.1.4 0v.2c0 .3 0 .4.8.4.7 0 2.2 0 2.6-.1-.4-.2-1.8-.9-2.6-1.2-.7-.4-1-.5-1.2-.6-.1-.1-.1-.2 0-.3.1 0 .6-.2 1.3-.5.6-.3 2.2-1 2.5-1.1-.6 0-2-.1-2.4-.1-.5 0-1 0-1 .4M32.7 68.9c0 .1-.1.3-.3.5-.1.2-.5.3-.8.2-.1 0-.3-.1-.6-.1 0 0 .4-2.3.5-2.8.2-.8.2-.9.6-.9h.2c.1-.1.1-.3.1-.4-.6-.1-1.7-.3-2.2-.4-.1.1-.2.3-.1.4.1 0 .2.1.2.1.4.2.4.4.3 1-.1.4-.6 2.8-.6 2.8-.3-.1-.7-.1-.8-.2-.4-.1-.4-.5-.5-.6v-.4c-.1-.1-.3-.1-.4-.1 0 .2-.2 1.1-.3 1.3 1.7.4 2.7.7 4.4.9 0-.1.5-1 .5-1.1.1-.1-.1-.2-.2-.2zM21.7 65.5l-.4.4c-.2.1-.5.1-.8-.1-.1-.1-.3-.2-.5-.3 0 0 1.2-2 1.5-2.4.4-.7.5-.8.9-.6 0 0 .1 0 .2.1.1-.1.2-.2.2-.3-.6-.3-1.4-.9-1.9-1.2-.1 0-.3.2-.2.3.1 0 .1.1.2.2.3.3.2.5-.1 1.1-.2.3-1.5 2.4-1.5 2.4-.3-.2-.6-.4-.7-.4-.3-.2-.3-.6-.2-.7 0-.1.1-.2.1-.4-.1-.1-.3-.2-.3-.2-.1.2-.6.9-.7 1.1 1.4 1 2.3 1.6 3.8 2.4.1 0 .8-.8.9-.9-.2-.4-.3-.5-.5-.5zM7.5 37.1v.2c0 .4-.1.6-.8.7h-.9v-1.3c-.1-.1-.3-.1-.5 0V38c-.1 0-1.3.1-1.5.1-.1 0-.2 0-.2-.2v-1c0-.8 1-.9 1.3-.9.1-.2.1-.4-.1-.5-.4 0-1.3.1-1.6.2-.1 1.8 0 2.8.1 4.1.1.1.3.1.4 0v-.2c0-.6.4-.6 1-.6.4 0 1.2 0 2-.1.9-.1.9.1 1 .5v.2h.4c-.1-.8-.1-1.7-.1-2.4-.2-.2-.4-.2-.5-.1zM23.3 15.3c-.4.1-.5.8-.6 1 0 .3-.1.7-.1.7 0 .1-.1.1-.3 0-.2 0-.4-.4-.4-.6 0-.2 0-.4-.1-.5.1 0 .2.1.2 0 .2-.1.2-.3.2-.6 0-.1-.1-.3-.2-.3h-.2v-.2c0-.1-.1-.1-.2-.2-.1 0-.2-.1-.4 0-.1 0-.3.1-.3.1-.1.1-.1.1-.1.2s0 .2.1.2c-.1 0-.2 0-.2.1-.1.1-.1.2-.1.4.1.3.2.5.4.5.1 0 .2 0 .2-.1 0 .1.1.2.1.5 0 .2 0 .6-.2.7-.1 0-.1.1-.2 0l-.4-.6c-.3-.4-.5-.8-.8-.8-.1 0-.3.1-.3.2-.1.2-.1.5.1.7.2.2.4.2.6.2.2.4.3.5.5 1.1.1.3.3.7.4 1 .1.3.4.4.7.5 0 0 .2 2.6 1 7.7 0 .2.5.2.7.2.2 0 .6-.2.6-.5-.8-5.2-1.4-7.6-1.3-7.5.3-.2.5-.4.5-.7v-1.2c0-.5 0-.8.1-1.2.2 0 .4-.1.5-.3.1-.3.1-.6-.1-.7h-.4zM22.6 33.3c.2.2.7.6 1.5.4.7-.1 1.1-.5 1.3-.9.2.2.6 2.1-1 2.3-1.6.3-1.9-1.3-1.8-1.8zM24.4 31.4c-.1.1-.3.1-.3.1 0 .1.1.3.1.3s-.3.1-.4 0c-.1-.1-.1-.2-.1-.3-.1 0-.2.1-.3 0-.1 0-.2-.4-.1-.5.1-.1.2 0 .3-.1-.1-.1-.1-.3-.1-.3s.3-.1.4 0c.1.1.1.2.1.3.1 0 .3-.1.4 0-.1.1.1.4 0 .5zm1.6-1.3c-.1-.1-.2-.2-.3-.2.1-.2.1-.2.2-.3.1-.2.1-.4 0-.7-.1-.2-.3-.2-.4-.3 0-.1.1-.1.1-.3.1-.2 0-.4-.1-.5-.2-.2-.8-.3-.9-.1-.2.3-.6.5-1 .6-.4.1-.8 0-1.2-.2-.3-.2-.4-.2-.6 0-.2.2-.3.5-.3.8 0 .4.3.5.3.7.1.3-.1.5-.1.7.1.2.3.4.3.6.1.2 0 .3 0 .6s.3.4.3.6c.1.1 0 .5.1.6.1.2.3.2.6.2.5.1 1.1.1 1.8-.2.4-.2.8-.4 1-.8.1-.2 0-.5-.1-.7.2-.1.3-.2.3-.4.1-.3.1-.6 0-.7zM30.5 22.2c-.2.4-.7 1.4-1 1.4-.3-.1-.5-1.3-.4-1.8.1-.3.1-.4.2-.4s.2.4.2 1h.3c.2-.6.5-.8.6-.8.2 0 .2.3.1.6zM29.1 17c.1-.2.1-.4.2-.3.1 0 .2.3.1.8h.3c.2-.5.5-.7.5-.6.1.1.1.3 0 .5-.1.4-.7 1.2-.9 1.1-.2-.1-.2-1.1-.2-1.5zm-1.4 2.9c-.1.4-.5 1.4-.8 1.3-.3 0-.5-1.1-.5-1.6 0-.3.1-.4.2-.4s.2.4.3.9h.3c.1-.6.4-.8.5-.8.1.1.1.3 0 .6zm4.2-2.8c.1-.8.4-1.5.6-1.9 0-.1-.2-.3-.2-.3-.1 0-4.1 1-7.3 3-.6.4-.1 1.8.3 2.9 1.4 3.5 3.1 3 3.7 5.7.2.9 1 4.2 1.1 4.7.3.9 1.1 1.5 2.1 1.4-.3-4.4-.7-11.5-.3-15.5zM47.1 21.4c-.2 0-.7-.9-.7-1.3-.1-.3 0-.5.1-.5s.4.2.5.8h.3c0-.5.2-.9.3-.9.1 0 .2.2.2.4-.2.4-.4 1.5-.7 1.5zm-2.7 2.8c-.3.1-.9-.9-1-1.4-.1-.3-.1-.5 0-.6.1 0 .4.2.6.8h.3c0-.6.1-1 .2-1s.2.2.2.5c.2.4 0 1.6-.3 1.7zm-.9-7.3c.1 0 .4.1.5.6h.3c-.1-.5 0-.8.1-.8s.2.1.2.3c.1.4 0 1.4-.2 1.5-.2.1-.8-.7-.9-1.1-.1-.2-.1-.4 0-.5zm5.7 1.1c-3.6-2.2-7.6-3.1-7.6-3.1-.1 0-.3.2-.2.3.1.4.5 1 .6 1.8.4 4 0 11.1-.3 15.5 1 .1 1.8-.5 2.1-1.4.2-.4.9-3.8 1.1-4.7.6-2.2 3.3-3.1 4.1-5.5.3-1.1.8-2.5.2-2.9zM39.9 10.1s0-.7-.6-.9V9s.7-.1 1 .2v.3c.5 1.1-.3 1.5-.3 2.4-.9-.6-1.7-.6-1.7-.6l-.5-1.2s.2-.1.6-.1c.5 0 1 0 1.5.1zM36.8 6.4c-1.3 0-2.7.1-3.5.5-.1-.4-.5-2-1-2.6-.1-.1-.3-.4-.4-.4-.1 0-.1-.1 0-.2.1 0 .2-.1.4 0 .2 0 .3.1.3.4h.1v-.3c0-.1.2-.1.4.1.1.1.1.2.2.3.1.1.1.2 0 .3H33v.1c.1.2.5.5.9.4.5-.1.6-.4.6-.7 0 0-.1.1-.2.1s-.2 0-.4-.2c-.1-.2-.1-.3 0-.4 0-.1.2-.1.4 0v-.1c-.2-.2-.3-.4-.3-.5 0-.1.1-.2.4-.3.3-.1.5.1.5.2s0 .3-.2.4h.1c.1 0 .1-.1.1-.1l.1-.1c.1 0 .2 0 .3.3.1.4-.1.4-.2.4s-.2 0-.2-.1c.2.4.5.6 1 .6.4 0 .8-.3.8-.8 0 0-.1.1-.2.1s-.2-.1-.3-.3c-.1-.2 0-.4.1-.4.1-.1.3 0 .3.1-.1-.1-.2-.2-.1-.3 0-.1.2-.2.5-.2s.4.1.5.2c0 .1-.1.2-.1.3 0 0 .2-.1.3-.1.1 0 .2.2.1.4 0 .2-.2.3-.3.3-.2 0-.2-.1-.2-.1 0 .5.3.8.8.8s.8-.2 1-.6c-.1 0-.2.1-.2.1-.1 0-.3-.1-.2-.4.1-.3.2-.3.3-.3 0 0 .1 0 .1.1l.1.1h.1c-.2-.1-.2-.3-.2-.4 0-.1.2-.2.5-.2.3.1.4.2.4.3 0 .1-.1.3-.3.4v.1c.2-.1.3 0 .4 0 0 .1.1.2 0 .4-.1.3-.3.2-.4.2-.1 0-.1-.1-.2-.1 0 .3.1.6.6.7.4.1.8-.2.9-.4v-.1c-.1.1-.2.1-.3 0-.1-.1-.1-.2 0-.3 0-.1.1-.2.2-.3.2-.2.4-.1.4-.1 0 .1.1.2 0 .3h.1c0-.2.1-.3.3-.4h.4c.1 0 .1.1 0 .2-.1 0-.3.3-.4.4-.5.6-.9 2.2-1 2.6-1.2-.3-2.6-.4-3.9-.4" class="st2"/><path d="M36.5 8.9c-.1.7-.3 1.3-.3 1.3s-.2-.1-.8-.2H34c0-.3.2-.8.8-.9l-.8-.2c.7-1.4 2.2-.2 2.5 0zm-.5 4.4c.3 0 .6-.5.6-.5h.3s.2.4.5.5c1.3.1 2.3.4 2.7.6.3-.4.2-1-.5-1.4-.2-.1-1-.4-2.1-.4-.7.7-1.4-.2-2.2.1.3-.3.7-.7 1-.7l.4.2c.2.1.7 0 .8-.2.1-.1-.3-2.6-.3-2.6s1.1-.6 2-.6c.8 0 1.1.6 1.1.6.4-1.7-1.8-1.6-3.4-1.6-4.3 0-3.2.9-3.1 2.3 0 .4-.6.8 0 2.2.1.2.2.5.2.8-.6.4-.7.9-.5 1.4.5-.5 1.7-.6 2.5-.7M36.8 15.6c-1 0-1.3-.3-1.3-.9 0 0 .3.2 1.3.2s1.2-.2 1.2-.2c.1.6-.3.9-1.2.9zm3.1-1.2c-2.1-.4-4-.4-6.1 0-.4 1.5-.8 4.6-.1 5.5.2.2 1.3.7 2.5.4.3-.2.3-1.6.4-2.2.1-.9.1-1 .2-1h.4c.2.1.1 2.9.5 3.2 1 .4 2.5-.1 2.7-.4.4-.8-.2-4.6-.5-5.5zM36.8 42c-3.2 0-7 .3-8.5.7-.4-.8-1.3-3.1-2.6-4.5l-.9-.9c-.1-.1-.2-.3 0-.4.2-.1.5-.1.9-.1.5.1.7.3.8.8l.2.1c-.1-.3-.1-.6.1-.7.1-.1.5-.3 1 .2.2.2.4.5.4.7.1.3.2.6-.1.7-.2.1-.4.1-.7 0v.2c.3.5 1.3 1 2.3.9 1.2-.2 1.5-.8 1.4-1.6L31 38c-.1.1-.2.2-.4.2s-.6 0-.9-.5c-.2-.4-.2-.7-.1-.9.1-.1.4-.2 1-.1v-.1c-.6-.2-.8-.6-.7-.8 0-.2.2-.6.9-.7.8-.1 1.1.2 1.2.4 0 .2 0 .6-.4.9l.1.1c.1-.1.2-.2.3-.2.1-.1.3-.1.4-.1.2 0 .5.1.6.7.2.8-.3.9-.5.9-.1 0-.4 0-.6-.1l-.1.1c.4.9 1.2 1.4 2.4 1.3 1.1-.1 1.9-.7 1.9-1.9H36s-.2.3-.6.3c-.4 0-.6-.3-.7-.7-.2-.5.1-.8.3-.9.3-.1.6.1.8.2l.1-.1c-.2-.2-.4-.5-.4-.7.1-.3.4-.5 1.1-.5.7 0 1 .2 1.1.5.1.2-.1.5-.3.7l.1.1c.1-.1.4-.3.7-.2.3.1.5.4.3.9-.1.4-.4.7-.8.7s-.5-.2-.6-.3H37c0 1.2.8 1.8 1.9 1.9 1.2.1 1.9-.4 2.4-1.3 0 0 0-.1-.1-.1-.1.1-.4.1-.6.1-.2 0-.7-.2-.5-.9.1-.6.4-.7.6-.7.1 0 .3.1.4.1.1.1.2.1.3.2l.1-.1c-.4-.3-.4-.7-.4-.9.1-.2.4-.6 1.2-.4.7.1.9.5.9.7 0 .2-.1.6-.7.8v.1c.6-.1.9-.1 1 .1.1.1.1.4-.1.9-.3.6-.7.6-.9.5-.2 0-.3-.2-.4-.2 0 0-.1 0-.1.1-.1.7.2 1.4 1.5 1.6 1 .2 1.9-.4 2.3-.9v-.2c-.3.1-.5.1-.7 0-.3-.2-.2-.4-.1-.7.1-.2.2-.5.4-.7.5-.5.9-.3 1-.2.1.1.1.5.1.7 0 0 .1-.1.2-.1.1-.5.4-.7.8-.8.3-.1.6 0 .9.1.2.1.1.3 0 .4l-.9.9c-1.3 1.4-2.2 3.6-2.6 4.5-1-.3-4.9-.7-8.1-.7zM34.3 56.9c.2 0 .3-.1.4-.3h-.6c0 .2.1.3.2.3zM34.4 50.8h-.7c0 .2.1.3.2.3.3 0 .4-.1.5-.3zM40.5 52.7h.1c.4 0 .8-.3.8-.8 0-.6-.5-.7-.8-.7-1 0-.9 1-1.9 1.2h.5c.7 0 1 .1 1.3.3z" class="st2"/><path d="M43.4 47.5h-.1c-.2-.2-.9-.3-.9-.7 0-.1 0-.3.4-.3.3 0 .4.2.4.3h.3c0-.1 0-.3.4-.3s.4.2.4.3c0 .4-.6.6-.9.7zm0 5.7h-.1c-.2-.1-.9-.3-.9-.7 0-.1 0-.3.4-.3.3 0 .4.2.4.3h.3c0-.1 0-.3.4-.3s.4.2.4.3c-.1.5-.7.6-.9.7zm-.4 6h-.1c-.2-.2-.9-.3-.9-.7 0-.1 0-.3.4-.3.3 0 .4.2.4.3h.3c0-.1 0-.3.4-.3.5 0 .5.2.5.3-.1.4-.8.5-1 .7zm-.1 1.6v-.1c-.1 0-.1 0-.2-.1-.1.1-.1.1-.1.2s0 .1.1.1c0 .1-.1.2-.1.3v.2c-.1 0-.2 0-.3-.2v-.1c0-.1 0 0-.1 0h-.1c0 .1 0 .2-.1.3h-.2v.2c-.1 0-.1-.1-.1-.2-.1-.2.1-.2.1-.4h-.4v.2c-.1-.1-.1-.1-.1-.2s.1-.3.3-.4h.2c.1 0 .2-.3.2-.4-.3.1-1.4.8-2.3.8-1.3 0-.2-2.2-1.3-2.2-1 0-1.4 1.3-2.5 1.3-.6-.1-.9-.1-1.1-.1 0 .4 0 .6-.3.6s-.6.1-2.1.1c-.1.5-.2.6-.4.6-.1 0-.2 0-.2-.1.1 0 .2 0 .2-.1l-.1-.1s0-.1.1-.1h-.1c-.2 0-.4.3-.6.3-.1 0-.2-.1-.2-.2-.1 0-.1.1-.2.1 0-.2.1-.3.3-.4.2 0 .2 0 .2-.1v-.1h-.2c-.1 0-.2-.1-.2-.2 0 0-.1 0-.2.1 0-.2.2-.3.3-.3.1 0 .2 0 .3.1v-.1c0-.1-.1-.1-.3-.2-.1 0-.1-.2-.2-.2s-.2.1-.2.1c0-.1.2-.4.5-.4.4 0 .4.5 1 .5.7 0 1.2-.1 1.4-.2-.1-.2-.3-.3-.3-.6 0-.2.2-.7.3-.8h-.2c-.1 0-.3 0-.3-.2s.1-.3.1-.3h.2c0 .1.1.2.4.2.3 0 .4-.1.4-.4 0-.4-.2-.5-.5-.5s-.3 0-.3.1h-.2c-.1-.2-.2-.4-.2-.5 0-.2.1-.3.5-.3h.3l-.1-.9h.1c.2.2.3.5.3.5h.1c0-.2.2-.4.2-.4h.1c.1.2.1.5.1.5h.1s.1-.3.3-.4h.1l-.1.7c.3 0 .9 1.1.9 1.9.3-.1 1.4-.1 1.6-.1-.8-.1-1.4-.5-1.4-1.8h.2c.5.1.7.4.7.7 0 .2-.1.3-.2.3 0 .2.3.5.9.5 1.2 0 1.3-1.4 2.8-1.4.5 0 1.3.2 1.3 1.2s-1.1 1.2-1.3 1.2c.2.2-.3 1.1.2.9.5-.2 1.1-.5 1.3-.6.4-.1.3.5.7.8.3.2.4.3.4.4-.1.2-.1.3-.2.4zm-4.9-.5c-.1.2.1.5.1.7 0 .2-.1.2-.2.3-.1 0-.3.1-.6.2 0 0 .1.1.1.3 0 .2-.3.3-.5.3l.1-.1c-.2-.1 0-.2 0-.2h-.1c-.3.1-.1.6-.6.4-.1.1 0 .1 0 .2-.1 0-.2-.2-.2-.3.1-.1.3-.3.2-.3 0 0 0-.1-.1 0-.1 0-.2.3-.4.2 0 0-.1 0-.1.1 0-.1 0-.2.1-.3.1-.1.3-.1.3-.2-.1-.1-.2.1-.3 0-.1 0-.1.1-.2.1 0-.2.1-.3.3-.4.2-.1.5.1.8 0 .1 0 .3-.1.3-.1.1 0 .1 0 .2-.1.2 0 .1-.1 0-.3-.2-.4.1-1.2.4-1.4.2-.1.5-.2.8-.1.1.1.1.2.1.3 0 .2 0 .3.1.6-.2-.2-.4-.1-.6.1zm-8.1-1.8c0-.1 0-.3.4-.3.3 0 .4.2.4.3h.3c0-.1.1-.3.4-.3.4 0 .4.2.4.3 0 .4-.6.6-.9.7h-.1c-.3-.2-.9-.3-.9-.7zm2.4-1.6h.2c.4 0 .4.6 1 .6.3 0 .3-.1.4-.1.1 0 .2 0 .2.2 0 .1-.1.2-.4.2-1.1 0-.8-.7-1.4-.9zm.8 2.7c-.1-.1-.2-.1-.3-.2-.3-.3-.5-.9-.7-1.2-.2-.3-.4-.5-.5-.6h-.4c-.1 0-.4 0-.5-.3.1 0 .1.1.2.1 0-.1.1-.1.1-.1h.1v-.1c0-.1-.1-.2-.2-.2-.2 0-.3-.2-.3-.3h-.2c.1-.1.2-.2.4-.2.1 0 .2 0 .4.2l.1-.1s-.1-.1-.2-.1l-.1-.1v-.1c-.1-.1-.1-.1-.2-.1.2-.1.2-.1.3-.1.3 0 .4.3.5.4.1 0 .1 0 .1-.1v-.1c0-.1 0-.1.1-.2 0-.1-.1-.1-.2-.1h.2c.1 0 .3.1.3.3 0 .2-.1.4-.1.6 0 .2.8 1.4 1.2 1.7-.1.2-.3.7-.1 1zm4.5-3.4c.3 0 .4.2.4.3h.3c0-.1.1-.3.4-.3.4 0 .4.2.4.3 0 .4-.6.6-.9.7H38c-.2-.1-.9-.3-.9-.7.1-.1.1-.3.5-.3zm-.9-.7h-.1c-.3 0-.3.6-.7.3-.1 0-.1.1 0 .2-.1 0-.2-.2-.1-.3.1-.1.3-.2.3-.2l-.1-.1c-.2 0-.3.3-.5.1v-.1s-.1 0-.2.1c0-.1.1-.2.2-.3.1 0 .4 0 .4-.1-.1-.1-.3.1-.3-.1-.1 0-.1 0-.2.1 0-.2.2-.3.4-.3s.5.2.8.3h.6c.2 0 .1-.1.1-.3-.1-.4 0-.9.4-1.1.2-.1.5-.2.8-.1.1.1.1.2.1.3 0 .2 0 .3.1.6-.2 0-.5.1-.6.3-.1.2.1.4.1.6 0 .2-.1.2-.3.2h-.7v.1c0 .1-.1.2-.2.3-.2.1-.3.1-.4.1.1 0 .1-.1.1-.1-.2-.4 0-.5 0-.5zm-6.6-.6c.2 0 .2 0 .2-.1v-.1h-.2c-.1 0-.2 0-.2-.1 0 0-.1.1-.2.1 0-.2.2-.3.3-.3.1 0 .2 0 .4.1v-.1c0-.1-.1-.1-.3-.2-.1 0-.1-.2-.2-.2s-.2.1-.2.1c0-.1.2-.4.5-.4.4 0 .5.5 1 .5.7 0 1.7-.1 1.9-.2-.1-.2-.3-.3-.3-.6 0-.2.3-.7.3-.8H33c-.1 0-.2 0-.2-.2s.1-.3.1-.3h.2c0 .1.1.2.5.2s.5-.2.5-.4c0-.4-.2-.5-.6-.5-.3 0-.3 0-.3.1H33c-.1-.2-.2-.4-.2-.5 0-.2.1-.3.5-.3h.3l-.2-.9h.1l.4.4h.1c0-.2.2-.4.2-.4h.1c.1.2.1.5.1.5h.1s.1-.3.3-.4h.1l-.1.7c.3 0 1 1.1 1 1.9.3-.1 1.6-.1 1.7-.1-.9-.1-1.6-.5-1.6-1.8h.3c.5.1.7.4.7.7 0 .2-.1.3-.2.4 0 .2.3.5 1 .5 1.4 0 1.1-1.5 2.9-1.5.7 0 1.6.3 1.6 1.3 0 1.1-1.1 1.2-1.4 1.2.2.2-.2.9.4.8.6-.1 1.2-.4 1.5-.4.5-.1.2.5.7.9.3.2.4.3.4.4 0 .1 0 .3-.2.3V55h-.1s-.1 0-.2-.2c-.1.1-.2.1-.2.2s.1.1.1.2-.1.2-.2.2v.2c-.1 0-.2-.1-.2-.2v-.2s0-.1-.1-.1c0 0-.1 0-.1.1 0 0 0 .2-.2.3h-.2l-.1.1v.1c-.1-.1-.1-.1-.1-.2 0-.2.2-.2.1-.3 0 0-.1-.1-.1 0-.1 0-.1 0-.2.1h-.1c-.1.1-.1.1-.1.2-.1-.1-.1-.1-.1-.2 0-.2.2-.3.4-.4h.2c.2 0 .3-.2.3-.4-.4.1-1.6.5-2.7.5-1.5 0-.3-2-1.6-2-1.2 0-1.5 1.3-2.8 1.3-.4 0-.8-.1-.9-.1 0 .4 0 .6-.4.6-.3 0-1 .1-2.7.1-.1.5-.3.6-.5.6-.1 0-.2 0-.3-.1.1 0 .2 0 .2-.1l-.1-.1s0-.1.1-.2h-.1c-.2 0-.4.3-.7.3-.1 0-.2-.1-.2-.2-.1 0-.1.1-.2.2.3-.2.4-.4.6-.4zm-.7-2.4c0-.1 0-.3.4-.3.3 0 .4.2.4.3h.3c0-.1.1-.3.4-.3.4 0 .4.2.4.3 0 .4-.6.6-.9.7h-.1c-.2-.1-.9-.2-.9-.7zm.5-6c.3 0 .4.2.4.3h.3c0-.1.1-.3.4-.3.4 0 .4.2.4.3 0 .4-.6.6-.9.7h-.1c-.2-.2-.9-.3-.9-.7-.1-.1-.1-.3.4-.3zm.5-1.7c.2 0 .4.3.4.3.1 0 .1-.1.1-.1 0-.1-.1-.1-.2-.2l-.1-.1v-.1c-.1-.1-.1-.1-.2-.1.2-.1.3-.1.3-.1.3 0 .5.3.5.4.1 0 .1 0 .1-.1v-.1c0-.1 0-.2.1-.2 0-.1-.1-.1-.2-.1h.2c.1 0 .3.1.3.3 0 .2-.1.4-.1.6 0 .2.8 1.5 1.2 1.8-.1.2-.4.7-.1 1-.2-.1-.2-.1-.4-.3-.3-.3-.5-.9-.7-1.2-.3-.3-.4-.6-.5-.6h-.4c-.1 0-.4 0-.5-.4.1 0 .1.1.2.1 0-.1.1-.1.1-.1.1 0 .1.1.2.1h.1c0-.2-.1-.2-.3-.2-.3 0-.3-.2-.3-.3 0 0 0-.1-.1-.1H30c.1-.1.2-.2.4-.2zm1.7.4c.5 0 .5.7 1 .7.3 0 .3-.1.5-.1.1 0 .2 0 .2.2s-.1.2-.4.2c-1.1 0-.9-.7-1.5-1 0 .1.1 0 .2 0zm-.2 5.8s.1-.1.2-.1c.5 0 .5.7 1 .7.3 0 .3-.1.5-.1.1 0 .2 0 .2.2s-.1.2-.4.2c-1.2.1-.9-.6-1.5-.9zm.8 2.8c-.2-.1-.2-.1-.4-.3-.3-.3-.5-.9-.7-1.2-.3-.3-.4-.6-.5-.6h-.4c-.1 0-.4 0-.5-.4.1.1.1.1.2.1 0-.1.1-.1.1-.1.1 0 .1.1.2.1h.1v-.1c0-.2-.1-.2-.3-.2-.3 0-.3-.2-.3-.3 0 0 0-.1-.1-.1H30c.1-.1.3-.2.4-.2.2 0 .4.3.4.3.1 0 .1-.1.1-.1 0-.1-.1-.1-.2-.2l-.1-.1v-.1c-.1-.1-.1-.1-.2-.1.2-.1.3-.1.3-.1.3 0 .5.3.5.4.1 0 .1 0 .1-.1v-.1c0-.1 0-.1.1-.2 0-.1-.1-.1-.2-.1h.2c.1 0 .3.1.3.3 0 .2-.1.4-.1.6 0 .2.8 1.5 1.2 1.8-.1.3-.4.8-.1 1.1zm4.9-3.4c.3 0 .4.2.4.3h.3c0-.1.1-.3.4-.3.4 0 .4.2.4.3 0 .4-.6.6-.9.7H38c-.2-.2-.9-.3-.9-.7.1-.1.1-.3.5-.3zm-.9-.6h-.1c-.3 0-.3.6-.7.3-.1 0-.1.1 0 .2-.1-.1-.2-.2-.1-.3.1-.1.3-.2.3-.2s0-.1-.1-.1c-.2 0-.3.3-.5.1v-.1s-.1 0-.2.1c0-.1.1-.2.2-.3.1 0 .4 0 .4-.1-.1-.1-.3.1-.3-.1-.1 0-.1 0-.2.1 0-.2.2-.3.4-.3s.5.2.8.3h.6c.2 0 .1-.1.1-.3-.1-.4 0-.9.4-1.1.2-.1.5-.2.8-.1.1.1.1.2.1.3 0 .2 0 .3.1.6-.2 0-.5.1-.6.3-.1.2.1.4.1.6 0 .2-.1.2-.3.2h-.7v.1c0 .1-.1.2-.2.3-.2.1-.3.1-.4.1.1 0 .1-.1.1-.1-.2-.4 0-.5 0-.5zM33.3 45h.3l-.2-.9h.1c.2.2.4.5.4.5h.1c0-.2.2-.4.2-.4h.1c.1.2.1.5.1.5h.1s.1-.3.3-.4h.1l-.1.7c.3 0 1 1 1 1.9.3-.1 1.6-.1 1.7-.1-.9-.1-1.6-.5-1.6-1.8h.3c.5.1.7.4.7.7 0 .2-.1.3-.2.4 0 .2.3.5 1 .5 1.4 0 1.3-1.5 3.1-1.5.7 0 1.5.2 1.5 1.3s-1.3 1.2-1.5 1.2c.2.2-.1.6.5.6s1.3-.2 1.5-.2c.5 0 .2.6.6 1 .3.3.3.4.3.5 0 .1-.1.3-.2.3v-.2h-.1s-.1 0-.2-.2c-.1 0-.2.1-.2.1v.2c0 .2-.2.2-.2.2v.2c-.1 0-.2-.1-.2-.2v-.2s0-.1-.1-.1h-.1s0 .3-.2.3H42l-.1.1v.1c.1-.2.1-.3.1-.4 0-.2.2-.2.2-.3 0-.1-.1-.1-.1-.1H41.8c-.1.1-.1.1-.1.2 0-.1-.1-.2-.1-.2 0-.2.2-.3.4-.3h.2c.2 0 .3-.2.3-.3-.4 0-1.7.4-2.7.4-1.5 0-.3-1.9-1.6-1.9-1.2 0-1.5 1.3-2.8 1.3-.4 0-.8-.1-.9-.1 0 .4 0 .6-.4.6-.3 0-1.2.1-2.9.1-.1.5-.2.6-.5.6-.1 0-.2 0-.3-.1.1 0 .2 0 .2-.1l-.1-.1s0-.1.1-.1h-.1c-.2 0-.4.3-.6.3-.1 0-.2-.1-.2-.2-.1 0-.1.1-.2.1 0-.2.1-.4.3-.4.2 0 .2 0 .2-.1v-.1h-.2c-.1 0-.2-.1-.2-.2 0 0-.1 0-.2.1 0-.2.2-.3.3-.3.2 0 .2 0 .3.1v-.1c0-.1-.1-.1-.3-.2-.1 0-.1-.2-.2-.2s-.2.1-.2.1c0-.2.2-.4.5-.4.4 0 .5.5 1 .5.7 0 1.9-.1 2.1-.2-.1-.1-.3-.3-.3-.6s.3-.7.3-.8h-.1c-.1 0-.2 0-.2-.2s.1-.3.1-.3h.2c0 .1.1.2.5.2s.5-.2.5-.4c0-.4-.2-.5-.6-.5-.3 0-.3 0-.3.1-.1-.2-.2-.4-.2-.5 0 0 .1-.1.5-.1zm4.3-.4c.3 0 .4.2.4.3h.3c0-.1.1-.3.4-.3.4 0 .4.2.4.3 0 .4-.6.6-.9.7H38c-.2-.2-.9-.3-.9-.7.1-.1.1-.3.5-.3zm-.8-1.4c-4.5 0-7.3.5-8.3.6 0 .8.2 7.1.5 12 .3 5.9 3.4 7.7 7.8 7.7 4.2 0 7.5-.9 7.8-7.7.2-4.9.4-11.2.5-12-1-.2-3.8-.6-8.3-.6z" class="st2"/><path d="M41.1 57.8c0-.5-.4-.7-.7-.7-.8 0-1 .9-1.9 1.1h.5c.6 0 .9.1 1.1.3h.1c.5 0 .9-.3.9-.7zM40.5 47h.1c.4 0 .9-.3.9-.8 0-.6-.5-.8-.8-.8-.9 0-1 1.1-2.1 1.2h.5c.8.1 1.1.1 1.4.4zM33.9 45.4c.2 0 .3-.1.5-.3h-.7c0 .1.1.3.2.3zM55.4 28.3c.3 0 .6.1.6.7 0 .7-.3.9-.6.9s-.9-.1-.9-.9c0-.6.7-.7.9-.7zM51.8 28.6c.3 0 .6.3.7.5 0-.3.3-.4.6-.4.4 0 .6.3.8.7.2.4.5.8 1 .9 0 .7-.2 1.2-.8 1.2-.3 0-.5-.1-.6-.1-.1.2-.2.4-.7.4-.3 0-.6-.2-.8-.4-.2.2-.4.3-.7.3-.3 0-.6-.2-.7-.4-.2 0-.3.1-.5.1-.5 0-.8-1-.8-1.3 0-.3.2-.6.6-.6.1 0 .2.1.3.1 0-.2.1-.7.5-.7.2 0 .4.1.5.2.1-.2.2-.5.6-.5z" class="st2"/><path d="M51.7 24.4c-.8 0-2.9 1-2.9 3.1 0 .4 0 1 .1 1.3 0 0 .1-.1.3-.1.1 0 .4.1.5.3 0-.3.1-.7.6-.7.3 0 .4.1.5.2.1-.4.5-.6.8-.6.3 0 .7.2.8.5 0-.3.3-.5.6-.5.6 0 .8.4 1 .8 0-.6.8-.8 1.4-.8h.2c0-1.7-.8-3-2.5-3.4.3-2.7.2-2.9.1-3-.1-.1-.2-.1-.3-.2v-.4c.3 0 .5-.3.5-.5s-.2-1.5-.2-1.5c0-.1.1-.3.2-.2.1 0 1.2.5 1.4.5.3 0 .5-.2.6-.6 0-.3-.2-.6-.5-.7-.1 0-1.2.3-1.5.3-.1 0-.2-.1-.2-.3 0 0 .4-1.3.4-1.4 0-.3-.2-.5-.6-.5-.3-.1-.6.1-.6.4 0 .2.2 1.5.2 1.5 0 .1-.1.2-.3.2-.3-.1-1.3-.5-1.4-.5-.3 0-.5.2-.6.6 0 .3.2.6.5.7.2 0 1.4-.3 1.5-.3.1 0 .2.1.2.3 0 0-.4 1.3-.4 1.4 0 .3.1.5.4.6v.4c-.1 0-.3 0-.3.1-.3 0-.4.2-.5 3z" class="st2"/><g id="Group_69_00000063617472429256820110000012466888906110634645_" transform="translate(-306.742 -224.006)"><g id="Group_64" transform="translate(412.6 238.291)"><g id="Group_3"><path id="Path_104" d="M-1 3.2C-1 .6-1.2.5-2.8.2l-.5-.1c-.3-.2-.2-.8.1-.9 1.3.1 2.4.1 3.6.1s2.4 0 3.8-.1c.3.1.3.7.1.9l-.7.1c-1.6.3-1.7.4-1.7 3v5.3c0 3.7 1.2 6.3 4.9 6.3 3.4 0 4.8-2.5 4.8-6.2V5c0-3.7-.2-4.6-1.8-4.8L8.9.1c-.2-.2-.2-.6.1-.9h.1c1.2.1 2.1.1 3.1.1s1.9 0 3.1-.1c.3.2.3.6.1.9v.1l-1.1.1C13.3.4 13 1.4 13 5.1v3.7c0 4.8-2.2 7.3-6.9 7.3-2.4 0-4.2-.5-5.3-1.6C-.5 13.3-1 11.6-1 9.2v-6z" class="st3"/><path id="Path_105" d="M35.6 5c0-3.7-.2-4.7-1.6-4.8L32.8.1c-.2-.2-.2-.6 0-.9h.1c1.4.1 2.2.1 3.3.1s1.9 0 3.1-.1c.3.2.3.6.1.9l-1.1.1C37.3.3 37 1.3 37 5v6.3c0 .7 0 3.8.1 4.3-.2.3-.5.4-.8.3-.4-.5-1.2-1.3-3.5-3.8L27.1 6c-1.4-1.5-2.4-2.5-2.9-2.9-.2 0-.2.4-.2 1.6v4.9c0 3.7.2 4.7 1.6 4.8l1.2.1c.2.2.3.6 0 .8l-.1.1c-1.4-.1-2.2-.1-3.3-.1-1.1 0-1.8 0-3.1.1-.3-.2-.3-.6-.1-.9v-.1l1.1-.1c1-.1 1.3-1.1 1.3-4.8V3c0-1.2 0-1.8-.8-2.3-.4-.3-.9-.4-1.4-.5l-.6-.1c-.2-.2-.3-.6 0-.8l.1-.1c1.4.1 2.4.1 3.2.1.5 0 1 0 1.5-.1 1 1.7 2.2 3.2 3.7 4.6L32 7.4c.8.8 3 3.2 3.4 3.5.2-.1.2-.6.2-1.5V5z" class="st3"/><path id="Path_106" d="M46.9 3.2c0-2.6-.1-2.7-1.8-3l-.7-.1c-.3-.2-.2-.8.1-.9 1.5.1 2.6.1 3.8.1 1.2 0 2.4 0 3.8-.1.3.1.3.7.1.9l-.7.1c-1.6.3-1.8.4-1.8 3v8.4c0 2.6.1 2.7 1.8 3l.7.1c.3.2.2.8-.1.9-1.4-.1-2.7-.1-3.8-.1-1.2 0-2.4 0-3.8.1-.3-.1-.3-.7-.1-.9l.7-.1c1.6-.3 1.8-.4 1.8-3V3.2z" class="st3"/><path id="Path_107" d="M60 3.3C58.9.8 58.7.6 57.8.4L56.6.1c-.2-.3-.2-.7 0-.9 1 .1 2.2.1 3.4.1 1.3 0 2.4 0 3.6-.1.3.2.4.5.2.8l-.1.1-.8.1c-1 .1-1 .6-.2 2.5l1.8 4.1c.9 2.1 1.6 3.5 2.1 4.7.7-1.6 1.4-3.1 2.1-4.7.8-1.7 1.8-4.3 2.2-5.4.3-.8.2-1-.9-1.3l-.6-.1c-.2-.2-.3-.6-.1-.8l.1-.1c1.1.1 2.1.1 3.1.1.9 0 1.8 0 2.7-.1.3.1.4.5.3.8 0 .1-.1.1-.1.1l-1 .2c-1.1.2-1.3.6-2.5 3.1L69 9.5c-1.1 2.4-2.2 5.1-2.7 6.3 0 .2-.2.2-.3.2-.2 0-.3-.1-.4-.1-.3-1-.7-2.2-1.2-3.2L60 3.3z" class="st3"/><path id="Path_108" d="M82 3.2c0-2.6-.1-2.7-1.6-3l-.5-.1c-.2-.3-.2-.6 0-.9h.1c1.1.1 2.2.1 3.5.1h5.3c1.2 0 2.3 0 3.5-.1l.4 3.8c-.2.3-.7.3-.9.1-.1-.6-.3-1.2-.7-1.8-.6-.9-2.3-.9-3.2-.9h-1.6C85 .4 85 .4 85 1.6v4.1c0 .7 0 .7.7.7h1.8c2 0 2.2-.3 2.5-1.4v-.7c.3-.2.6-.2.9 0v.1c-.1 1.1-.1 1.8-.1 2.6 0 .9 0 1.6.1 2.7-.2.3-.6.3-.9.1h-.1l-.2-.7c-.3-1.1-.5-1.4-2.5-1.4h-1.8c-.7 0-.7.1-.7.9v2.7c-.1.9.1 1.8.4 2.7.3.4 1 .5 3.1.5 2.4 0 3.8-.1 4.9-3.1.3-.2.7-.2.9.1l.1.1c-.2 1.4-.5 2.8-1.1 4.1-2.4-.1-4.3-.1-6.3-.1h-3.3c-1.2 0-2.4 0-4.1.1-.3-.1-.3-.7-.1-.9l1-.1c1.6-.2 1.8-.4 1.8-3V3.2z" class="st3"/><path id="Path_109" d="M101.1 3.6c0-2.4 0-3.1-.9-3.2l-1-.2c-.3 0-.4-.8 0-.9 2.1-.2 4.1-.2 6.2-.2 3.5 0 7.2.6 7.2 4.5 0 2.4-1.9 3.5-3.3 4-.1.2-.1.4 0 .6 1.2 2.2 2.8 4.3 4.7 6 .6.5 1.3.7 2 .8.2.2.2.4 0 .6-.5.1-1 .2-1.6.2-2.2 0-3.6-.7-5.2-2.8-.9-1.2-1.9-2.8-2.7-4-.4-.4-.9-.7-1.5-.6-1 0-1 .1-1 .6v2.7c0 2.6.1 2.8 1.8 3l.9.1c.3.2.2.8-.1.9-1.6-.1-2.8-.1-4-.1-1.2 0-2.4 0-3.7.1-.3-.1-.4-.5-.2-.7 0-.1.1-.2.2-.2l.6-.1c1.6-.3 1.8-.4 1.8-3l-.2-8.1zm2.8 2.8c0 .9 0 .9 1.9.9 2.4 0 3.7-1 3.7-3.5 0-1.9-1.3-3.5-3.9-3.5-1.4 0-1.6.1-1.6 1l-.1 5.1z" class="st3"/><path id="Path_110" d="M124 7.9c-1.8-.9-3.3-2.4-3.3-4.5 0-2.7 2.1-4.6 5.9-4.6 1.2.1 2.3.3 3.5.6.4 1.2.6 2.4.5 3.7-.1.3-.8.3-1 .1-.3-1.3-1.3-3.2-3.5-3.2s-3 1.3-3 2.5c0 1.3 1 2.2 2.5 2.9l2.3 1.2c1.8.9 3 2.7 3 4.7 0 2.9-2.4 4.7-6.1 4.7-1.5 0-3-.4-4.3-1.1-.6-1.2-.9-2.5-.8-3.8.1-.3.5-.4.8-.2.1 0 .1.1.2.2.3 1.3 1.9 4 4.4 4 1.9 0 3.1-1 3.1-2.7 0-1.2-.5-2.4-2.6-3.5l-1.6-1z" class="st3"/><path id="Path_111" d="M138.2 3.2c0-2.6-.1-2.7-1.8-3l-.7-.1c-.3-.2-.2-.8.1-.9 1.5.1 2.6.1 3.8.1 1.2 0 2.4 0 3.8-.1.3.1.3.7.1.9l-.7.1c-1.6.3-1.8.4-1.8 3v8.4c0 2.6.1 2.7 1.8 3l.7.1c.3.2.2.8-.1.9-1.4-.1-2.7-.1-3.8-.1-1.2 0-2.4 0-3.8.1-.3-.1-.3-.7-.1-.9l.7-.1c1.6-.3 1.8-.4 1.8-3V3.2z" class="st3"/><path id="Path_112" d="M154.8 1.3c0-1 0-1-.8-1h-1.2c-2.3 0-3.2.2-4.1 2.8-.3.2-.7.1-.9-.1.4-1.6.8-3.5 1-4.4.2-.1.5-.1.7 0 0 .7.6.7 2.1.7H162c1.4 0 1.6 0 1.9-.7.2-.1.5-.1.7.1-.3 1.4-.5 2.9-.4 4.4-.2.3-.8.3-.9 0-.3-2.4-1.2-2.7-3.5-2.7h-1.3c-.7 0-.8 0-.8 1v10.2c0 2.6.1 2.8 1.8 3l1 .1c.3.2.2.8-.1.9-1.5-.1-2.9-.1-4.1-.1-1.2 0-2.5 0-4.1.1-.3-.1-.3-.7-.1-.9l1-.1c1.6-.2 1.8-.4 1.8-3l-.1-10.3z" class="st3"/><path id="Path_113" d="M175.2 10.5c0-1.2-.1-1.5-1-3.2l-2.7-5c-.8-1.5-1.2-1.8-2.1-2l-1-.2c-.2-.3-.2-.7 0-.9l.1-.1c1.2.1 2.1.1 3.4.1 1.1 0 2 0 3.2-.1.3.2.3.5.2.8 0 .1-.1.1-.2.2l-.5.1c-.8.2-.9.4-.3 1.6l1.4 2.7c.6 1.1 1.1 2.1 1.7 3.1.6-1 1.2-1.9 1.8-3.1l1.5-2.7c.6-1 .6-1.4-.3-1.5l-.8-.1c-.2-.2-.3-.5-.1-.8l.2-.2c1.1.1 2 .1 2.8.1.8 0 1.6 0 2.7-.1.3.2.3.6.2.8l-.1.1-.9.2c-1.2.2-1.3.4-2.5 2.3l-2.3 3.7c-1.3 2.1-1.4 2.5-1.4 3.6v2c0 2.2.1 2.4 1.8 2.6l.9.1c.3.2.2.8-.1.9-1.6-.1-2.9-.1-4-.1-1.2 0-2.4 0-4 .1-.3-.1-.3-.7-.1-.9l.9-.1c1.6-.2 1.8-.4 1.8-2.6l-.2-1.4z" class="st3"/><path id="Path_114" d="M216.9 7.3c0 5-3.8 8.7-9.1 8.7-5.8 0-9.2-3.8-9.2-8.5 0-5 3.8-8.8 9.2-8.8 6 .1 9.1 4 9.1 8.6zm-15-.4c0 3.8 1.8 8 6.1 8 2.8 0 5.6-1.9 5.6-7.1 0-4-1.9-8-6-8-2.7 0-5.7 1.9-5.7 7.1z" class="st3"/><path id="Path_115" d="M223.6 3.2c0-2.6-.2-2.7-1.6-3l-.4-.1c-.3-.2-.2-.8.1-.9 1 .1 2.2.1 3.4.1h5.2c1.6 0 3.1 0 3.6-.1 0 .4.1 2.2.2 3.8-.2.3-.5.4-.8.2-.1 0-.1-.1-.2-.2-.1-.6-.3-1.2-.7-1.8-.6-.9-2.3-.9-3.2-.9h-1.5c-1.2 0-1.3 0-1.3 1.3V6c0 .7 0 .7.7.7h2c2 0 2.2-.3 2.5-1.4l.2-.7c.3-.2.6-.2.9 0v.1c-.1 1.1-.1 1.8-.1 2.6 0 .9 0 1.6.1 2.7-.2.3-.6.3-.9.1h-.1l-.2-.7C231.2 8.3 231 8 229 8h-2c-.7 0-.7.1-.7.9v2.8c0 2.6.1 2.8 1.8 3l1.2.1c.3.2.2.8-.1.9-1.9-.1-3.1-.1-4.3-.1-1.2 0-2.4 0-3.8.1-.3-.1-.3-.7-.1-.9l.7-.1c1.6-.3 1.8-.4 1.8-3l.1-8.5z" class="st3"/><path id="Path_116" d="M14.1 28.9c0 1.5.2 3 .4 4.5-.2.3-.7.4-1 .2l-.1-.1c-.6-2.3-2-4.2-5.7-4.2-3.5 0-7 2.4-7 8 0 5.5 3.5 8.6 7.4 8.6 2.6 0 5-1.7 5.9-4.2.2-.3.6-.4.9-.2l.2.2c-.2 1.6-.6 3.1-1.4 4.4-1.8.5-3.7.8-5.5.9-2.5.1-5.1-.5-7.2-1.9-2.5-1.5-4-4.2-4-7.2-.1-2.9 1.2-5.6 3.5-7.4 2.3-1.7 5.2-2.5 8-2.4 1.9.1 3.8.4 5.6.8z" class="st3"/><path id="Path_117" d="M41 37.5c0 5.5-4.2 9.6-10 9.6-6.4 0-10.2-4.2-10.2-9.3 0-5.5 4.2-9.7 10.2-9.7 6.6 0 10 4.4 10 9.4zm-16.5-.4c0 4.2 1.9 8.8 6.7 8.8 3.1 0 6.1-2.1 6.1-7.8 0-4.4-2.1-8.8-6.6-8.8-3 0-6.2 2-6.2 7.8z" class="st3"/><path id="Path_118" d="M49.2 33.5c0-2.7 0-3.3-1-3.5l-1.2-.1c-.4-.1-.3-.9 0-1 2.3-.2 4.4-.2 6.6-.2 1.7-.1 3.3.2 4.9.7 2 .7 3.4 2.7 3.3 4.8.1 2.2-1.3 4.1-3.4 4.7-1.2.4-2.5.6-3.7.6-.2-.2-.2-.5 0-.7 2.3-.3 4-2.3 3.8-4.7 0-2.7-1.7-4.2-4.5-4.2-1.7 0-1.7.2-1.7 1.4v11.1c0 2.8.2 3 1.9 3.3l.9.1c.3.2.2.9-.1 1-1.7-.1-3.1-.1-4.4-.1-1.3 0-2.6 0-4 .1-.3-.1-.4-.8-.1-1l.6-.1c1.8-.4 1.9-.5 1.9-3.3l.2-8.9z" class="st3"/><path id="Path_119" d="M69.8 33c0-2.8-.2-3-1.7-3.3l-.6-.1c-.3-.3-.3-.7 0-1h.1c1.2.1 2.5.1 3.8.1h5.8c1.3 0 2.6 0 3.8-.1l.5 4.2c-.3.3-.7.4-1 .1-.1-.7-.4-1.4-.7-2-.7-1-2.5-1-3.5-1h-1.8c-1.4 0-1.5 0-1.5 1.3v4.6c0 .7 0 .8.8.8h1.9c2.2 0 2.4-.3 2.7-1.6l.2-.8c.3-.3.7-.3 1 0l.1.1c-.1 1.2-.1 1.9-.1 2.9s0 1.8.1 3c-.2.3-.7.4-1 .1h-.1l-.2-.8c-.3-1.2-.5-1.6-2.7-1.6h-1.9c-.8 0-.8.1-.8 1v2.9c-.1 1 .1 2 .5 3 .4.4 1.1.6 3.5.6 2.6 0 4.2-.1 5.3-3.4.3-.3.7-.2 1 .1l.1.1c-.2 1.6-.6 3.1-1.2 4.6-2.6-.1-4.8-.1-7-.1h-3.6c-1.3 0-2.6 0-4.6.1-.3-.1-.4-.8-.1-1l1.1-.1c1.8-.2 1.9-.5 1.9-3.3l-.1-9.4z" class="st3"/><path id="Path_120" d="M105.8 35c0-4.1-.2-5.2-1.8-5.3l-1.3-.1c-.3-.3-.3-.7 0-1l.1-.1c1.5.1 2.5.1 3.7.1 1.2 0 2.1 0 3.4-.1.3.2.3.7.1 1l-.1.1-1.2.1c-1.1.1-1.4 1.2-1.4 5.3v6.9c0 .8 0 4.2.1 4.8-.2.3-.5.4-.9.4-.5-.6-1.3-1.4-3.8-4.2l-6.2-6.7c-1.6-1.6-2.6-2.7-3.2-3.2-.2 0-.2.5-.2 1.7v5.4c0 4.1.2 5.2 1.8 5.3l1.3.1c.3.3.3.7 0 .9l-.1.1c-1.5-.1-2.5-.1-3.7-.1-1.2 0-2 0-3.4.1-.3-.2-.3-.7-.1-1l.1-.1 1.2-.1c1.1-.1 1.4-1.2 1.4-5.3v-7.4c0-1.4 0-1.9-.9-2.5-.5-.3-1-.5-1.5-.6l-.6-.1c-.3-.2-.3-.7 0-.9l.1-.1c1.6.1 2.7.1 3.5.1.6 0 1.1 0 1.6-.1 1.1 1.9 2.5 3.6 4 5.1l3.9 4c.9.9 3.3 3.5 3.7 3.8.2-.1.2-.7.2-1.6l.2-4.7z" class="st3"/><path id="Path_121" d="M130.9 36.6c1.3 0 1.5 0 1.5-1.1V33c0-2.8-.2-3-1.9-3.3l-.8-.1c-.3-.2-.2-.9.1-1 1.6.1 2.9.1 4.2.1 1.3 0 2.6 0 4.2-.1.3.1.4.8.1 1l-.8.1c-1.8.3-1.9.5-1.9 3.3v9.2c0 2.8.2 3 1.9 3.3l.9.1c.3.2.2.9-.1 1-1.7-.1-3.1-.1-4.4-.1-1.3 0-2.6 0-4.2.1-.3-.1-.4-.8-.1-1l.8-.1c1.8-.3 1.9-.5 1.9-3.3V39c0-1-.1-1.1-1.5-1.1h-7.2c-1.4 0-1.5 0-1.5 1.1v3.2c0 2.8.2 3.1 1.9 3.3l1.1.1c.3.2.2.9-.1 1-1.9-.1-3.2-.1-4.5-.1-1.3 0-2.6 0-3.9.1-.3-.1-.4-.8-.1-1l.5-.1c1.7-.5 1.9-.5 1.9-3.3V33c0-2.8-.2-3-1.9-3.3l-.9-.1c-.3-.2-.2-.9.1-1 1.8.1 3 .1 4.4.1s2.6 0 4-.1c.3.1.4.8.1 1l-.6.1c-1.7.3-1.9.5-1.9 3.3v2.5c0 1.1.2 1.1 1.5 1.1h7.2z" class="st3"/><path id="Path_122" d="M151.1 40.2c-.9 0-1.1 0-1.4 1l-.9 2.6c-.5 1.3-.3 1.5.5 1.6l1.1.2c.3.2.3.9-.1 1-1-.1-2.1-.1-3.2-.1-1.2 0-2.1.1-2.9.1-.3-.2-.4-.6-.2-.9l.1-.1.9-.2c1.3-.3 1.7-.7 2.5-2.7l3.9-9.5c.5-1.1.9-2.3 1.1-3.5.7-.3 1.3-.9 1.7-1.6.3-.1.6 0 .7.2.2.4.8 2.5 1.8 5.1l3.7 9.8c.5 1.4.9 1.9 2.3 2.2l.7.1c.3.2.3.6.1.8l-.2.2c-1.1-.1-2-.1-3.4-.1-1.5 0-2.7 0-3.7.1-.3-.1-.4-.5-.3-.8 0-.1.1-.2.2-.2l.8-.1c1.1-.2 1-.4.5-1.7l-1-2.7c-.3-.9-.5-1-1.4-1l-3.9.2zm3.2-1.3c1.1 0 1.2-.1.7-1.3l-1.3-3.5-.6-1.5h-.1c-.3.4-.5.9-.7 1.4l-1.5 3.7c-.5 1.1-.4 1.2.5 1.2h3z" class="st3"/><path id="Path_123" d="M181.4 42.8c0-1.9 0-2.1-1.9-2.5l-1.3-.2c-.3-.3-.3-.7 0-1l.1-.1c1.6.1 3.5.1 4.6.1 1.2 0 2.5 0 3.5-.1.3.2.4.7.1 1l-.7.2c-1.1.2-1.2.5-1.2 2.3v1.2c0 1 .1 1.6.7 1.9.2.1.2.5 0 .6-.5 0-1.3.2-2.5.5-1.4.3-2.7.5-4.1.5-3.7 0-6.7-.9-8.8-3-1.6-1.7-2.5-3.9-2.5-6.2 0-2.4.9-4.7 2.6-6.5 1.9-1.9 4.7-3.2 9.1-3.2 1.9.1 3.7.3 5.5.8 0 .8.1 2.5.4 4.6-.2.3-.6.4-.9.2-.1 0-.1-.1-.2-.2-1.1-3.2-2.8-4.3-5.8-4.3-4.3 0-7 3.3-7 8.1 0 5.1 3.1 8.5 8.1 8.5 2.2 0 2.5-.4 2.5-2.1l-.3-1.1z" class="st3"/><path id="Path_124" d="M194.9 33c0-2.8-.2-3-1.7-3.3l-.6-.1c-.3-.3-.3-.7 0-1h.1c1.2.1 2.5.1 3.8.1h5.8c1.3 0 2.6 0 3.8-.1l.5 4.2c-.3.3-.7.4-1 .1-.1-.7-.4-1.4-.7-2-.7-1-2.5-1-3.5-1h-1.8c-1.4 0-1.5 0-1.5 1.3v4.6c0 .7 0 .8.8.8h1.9c2.2 0 2.4-.3 2.7-1.6l.2-.8c.3-.3.7-.3 1 0l.1.1c-.1 1.2-.1 1.9-.1 2.9s0 1.8.1 3c-.2.3-.7.4-1 .1h-.1l-.2-.8c-.3-1.2-.5-1.6-2.7-1.6h-1.9c-.8 0-.8.1-.8.9v2.9c-.1 1 .1 2 .5 3 .4.4 1.1.6 3.5.6 2.6 0 4.2-.1 5.3-3.4.3-.3.7-.2 1 .1l.1.1c-.2 1.6-.6 3.1-1.2 4.6-2.6-.1-4.8-.1-7-.1h-3.6c-1.3 0-2.6 0-4.6.1-.3-.1-.4-.8-.1-1l1.1-.1c1.8-.2 1.9-.5 1.9-3.3V33z" class="st3"/><path id="Path_125" d="M230.8 35c0-4.1-.2-5.2-1.8-5.3l-1.3-.1c-.3-.3-.3-.7 0-1l.1-.1c1.5.1 2.5.1 3.7.1 1.2 0 2.1 0 3.4-.1.3.2.3.7.1 1l-.1.1-1.2.1c-1.1.1-1.4 1.2-1.4 5.3v6.9c0 .8 0 4.2.1 4.8-.2.3-.5.4-.9.4-.5-.6-1.3-1.4-3.8-4.2l-6.2-6.7c-1.6-1.6-2.6-2.7-3.2-3.2-.2 0-.2.5-.2 1.7v5.4c0 4.1.2 5.2 1.8 5.3l1.3.1c.3.3.3.7 0 .9l-.1.1c-1.5-.1-2.5-.1-3.7-.1-1.2 0-2 0-3.4.1-.3-.2-.3-.7-.1-1l.1-.1 1.2-.1c1.1-.1 1.4-1.2 1.4-5.3v-7.4c0-1.4 0-1.9-.9-2.5-.5-.3-1-.5-1.5-.6l-.6-.1c-.3-.2-.3-.7 0-.9l.1-.1c1.6.1 2.7.1 3.5.1.6 0 1.1 0 1.6-.1 1.1 1.9 2.5 3.6 4 5.1l3.9 4c.9.9 3.3 3.5 3.7 3.8.2-.1.2-.7.2-1.6l.2-4.7z" class="st3"/></g></g></g></g></switch></svg>