<svg xmlns="http://www.w3.org/2000/svg" xml:space="preserve" id="Layer_1" x="0" y="0" version="1.1" viewBox="0 0 38 52"><style>.st1{fill:#fff}</style><switch><g><g id="Group_39"><g id="Group_38" transform="translate(0 .001)"><g id="Group_37"><path id="Path_312" fill="#901a1e" d="M18.9 37.4C8.5 37.4.2 29 .2 18.7.2 8.4 8.5 0 18.9 0c10.3 0 18.7 8.4 18.7 18.7-.1 10.3-8.4 18.6-18.7 18.7"/><path id="Path_318" d="M30.9 18c0-.2 0-.3.2-.3h.3v.4h.2v-.4h.5s.1 0 .1.1v.3c0 .2-.2.3-.3.3v.2h.5c0-.4 0-.9-.1-1.3h-.1v.1c0 .2-.1.2-.3.2-.1 0-.4 0-.6.1-.3 0-.3 0-.3-.1h-.1c0 .2.1.5.1.8-.2-.3-.2-.3-.1-.4" class="st1"/><path id="Path_319" d="M10 26.9c.1.2.2.2 0 .4l-.2.2-.3-.3c-.1 0-.1.1-.1.1l.3.3-.3.3h-.1l-.2-.2c-.2-.2 0-.4.1-.4 0-.1-.1-.1-.1-.1l-.3.3c.3.3.6.7.9 1 0 0 .1 0 .1-.1-.1-.1 0-.2.1-.3l.4-.4c.2-.2.2-.2.3-.1l.1-.1c-.2-.3-.4-.5-.7-.6.1-.1 0-.1 0 0" class="st1"/><path id="Path_320" d="M31 19.9c.5-.1.5-.1.9-.2.1 0 .2 0 .2.1v.1h.1v-.7h-.1v.1c0 .1-.1.1-.2.2-.1 0-1.2.3-1.2.3s0 .2.1.3c.3.2.9.4 1.1.5.2.1.2.2.2.3v.1h.1c0-.2.1-.5.1-.6h-.1v.1c0 .1 0 .1-.2 0-.4-.3-.8-.5-1-.6" class="st1"/><path id="Path_321" d="M28 11.1s0-.1 0 0c.1-.1.2 0 .2 0 .1.1.1.1.3-.1.1-.1.4-.3.5-.4.1-.1.2-.2.1-.3v-.1l.1-.1c.2.2.4.4.5.6l-.1.1-.1-.1c-.1-.1-.2 0-.3.1-.2.1-.4.3-.5.4-.2.1-.2.2-.2.3 0 0 0 .1.1.1l-.1.1c-.2-.2-.4-.4-.5-.6" class="st1"/><path id="Path_322" d="M7.6 14.9h-.1v-.1c0-.1 0-.2-.2-.3-.2-.1-.5-.2-.6-.2s-.3-.1-.3 0v.1h-.1c.1-.3.2-.6.3-.7h.1v.1c0 .2.1.2.2.3.2.1.5.2.6.2.2.1.3.1.3 0v-.1s.1 0 .1.1c-.1 0-.2.4-.3.6" class="st1"/><path id="Path_323" d="M29 12.6c0-.1.1-.1 0 0l.1-.1v.1s.1.1.2.1.1-.1.2-.1c0-.1-.2-.4-.4-.6 0 0 0-.1.1-.1 0 0 1.4.2 1.5.2v.2c-.1 0-1.2-.2-1.3-.2.1.1.2.4.3.4.1 0 .2-.1.3-.2l.2.2-.4.2c0 .1.1.2.1.2 0 .1-.1.1-.1.1l-.1-.2s-.1.1-.2.1 0 .1 0 .2v.1l-.1.1c-.1-.3-.2-.5-.4-.7" class="st1"/><path id="Path_324" d="M29.5 13.9v-.2H31c-.1-.2-.2-.4-.2-.5 0-.1-.1-.1-.2-.1h-.1V13c.1 0 .4 0 .4-.1 0 .1 0 .1.1.2s.2.5.3.6c0 .1.1.2.1.2l-.1.1H31c.1 0-1.3-.1-1.5-.1" class="st1"/><path id="Path_325" d="M9.8 11.4c0 .1-.1.1-.2.1 0-.1-.6-1.2-.7-1.3l-.4.4c0 .1-.1.2 0 .2v.1c0 .1-.1.1-.1.1-.1-.1-.2-.2-.3-.4l.1-.1s.4-.4.4-.5l.2-.2h.1c0 .1 0 .2.1.3.1-.1.7 1.1.8 1.3" class="st1"/><path id="Path_326" d="m30 15.1.1-.1c.1.2.2.3.4.5.2.1.5.2.7.1.3-.1.5-.3.4-.5 0-.1-.1-.1-.3-.1-.2 0-.3.2-.2.3v.1s0 .1-.1.1c-.1-.1-.1-.2-.2-.3 0-.2.1-.4.3-.5.3-.1.6 0 .6.3.1.3 0 .7-.4.8h-.1c-.4.2-1-.1-1.2-.7" class="st1"/><path id="Path_327" d="M31 24.1c-.1.1-.1.2-.3.1l-.7-.4c-.2-.1-.2-.1-.2-.2v-.1c0-.1-.1-.1-.1 0l-.1.3-.2.3c-.3.3-.2.8.2 1.1.4.3.8.2 1.2-.5l.3-.6s0-.1-.1 0m-.2.5c-.1 0-.1.1 0 0-.1.4-.5.6-.8.5h-.1c-.2-.1-.3-.3-.4-.5 0-.1 0-.2.1-.3 0-.1.1-.1.1-.2.1 0 .2 0 .2.1l.8.4c.1-.1.1-.1.1 0" class="st1"/><path id="Path_328" d="M28.2 27.8s.1.1.1.2 0 .2-.1.3l-.1.1s-.5-.5-.6-.7c-.2-.2-.2-.2-.1-.3 0 0 0-.1-.1-.1l-.5.5s0 .1.1.1h.1c.1-.1.2 0 .3.1.1.1.6.6.6.7-.1.1-.2.1-.2.2-.1.1-.2.1-.2 0 0 0-.1 0-.1-.1 0 0-.1 0-.1.1 0 0 .2.3.3.3.4-.3.7-.6 1-1l-.2-.3c-.1-.2-.2-.2-.2-.1" class="st1"/><path id="Path_329" d="M28.4 25.8c0 .1.1.1 0 0 .1.1.1.1.1 0 .1-.1.1 0 .2.1 0 .1.1.1.1.2s-.3.4-.3.4c-.1 0-.1 0-.2-.1-.1 0-.2-.1-.1-.2l-.1-.1c-.1.1-.2.3-.4.5 0 0 0 .1.1.1l.1-.1c.1-.1.2 0 .3 0s1.2.4 1.2.4 0-.2.1-.2c0-.1-.5-.8-.6-1-.1-.2-.1-.3-.1-.3v-.1l-.1-.1c0 .1-.2.5-.3.5m.8 1-.6-.2.3-.4.3.6z" class="st1"/><path id="Path_330" d="M5.9 19.1c-.1 0-.1 0-.2-.1s-.1-.2-.1-.3v-.2h.9c.3 0 .3 0 .3.2v.1h.1v-.7h-.1v.1c0 .1-.1.1-.3.1h-.9V18c0-.1.1-.2.2-.2h.1v-.1h-.4c0 .5-.1 1 0 1.4l.4.1v-.1" class="st1"/><path id="Path_331" d="M7.1 20.3H7v.1c0 .1-.1.1-.2.1h-.2c0-.1 0-.5-.1-.5.1 0 .1 0 .2-.1s.2-.1.2 0v.1H7v-.6h-.1v.1c0 .1-.1.2-.2.2s-1.1.5-1.1.5.1.1.1.2c.1 0 .9.3 1.2.3.1 0 .1 0 .1.1v.1h.1c.1-.2 0-.5 0-.6m-1.3-.1.6-.3v.4l-.6-.1z" class="st1"/><path id="Path_332" d="M9.2 25.5c-.1-.2-.3-.3-.6-.4-.2 0-.4 0-.6.1-.2.1-.3.3-.4.5 0 .2 0 .5.2.7.3.4.8.6 1.2.3h.1c.2-.1.3-.3.3-.5s-.1-.5-.2-.7m-.4.9c-.1.1-.3.2-.5.1-.1 0-.2-.1-.3-.2-.1-.1-.1-.2-.1-.3.1-.2.2-.4.4-.5.3-.2.6-.2.8.1.2.3-.1.7-.3.8" class="st1"/><path id="Path_333" d="M11.9 28.4s0 .1-.1.1c-.1-.1-.2-.1-.3.2-.1.2-.3.4-.4.5-.1.1-.2.2-.1.3 0 0 0 .1-.1.1-.2-.2-.6-.5-1-.8.1-.1.2-.2.2-.3.1 0 .1 0 .1.1 0 0 0 .1-.1.1 0 .1 0 .2.1.2.1.1.2.2.3.2h.1s.3-.3.3-.4l-.3-.3c0-.1.1-.1.1-.1s.3.2.3.3l.2-.2c.2-.2.1-.2 0-.3l-.1-.1c-.1-.1-.2-.1-.3 0 0 0-.1 0-.1.1-.1 0-.1-.1-.1-.1s.3-.2.3-.3c.3.2.7.4 1 .7" class="st1"/><path id="Path_334" d="M7.5 22.5s.1-.1.1 0c.1.2.1.4.2.6 0 0-.1.1-.1 0V23c0-.1-.1-.1-.3-.1-.2 0-.6.1-.7.1-.1 0-.3.1-.2.2v.1s-.1.1-.1 0c-.1-.2-.1-.4-.2-.6.1 0 .2-.1.3-.2.1-.1.5-.4.7-.6-.1 0-.8-.1-.8-.1h-.3c0-.1-.1-.4-.1-.6h.1v.1c0 .1.1.1.2.1.2-.1.5-.1.7-.2.2-.1.3-.1.3-.2v-.1h.1c.1.3.1.5.2.7h-.1v-.1c0-.1 0-.2-.3-.1-.2.1-.7.2-.8.3.2 0 .6.1.9.2-.1.1 0 .1.1.1v.1l-.3.3c-.2.2-.6.5-.7.6.2 0 .6-.1.7-.2.3-.1.4-.1.4-.3" class="st1"/><path id="Path_335" d="M30.5 21.2h.1v.1c0 .1 0 .2.3.2.2 0 .4.1.6.1s.3.1.3-.1v-.1h.1c0 .1-.1.3-.1.4v.1c-.1 0-.1 0-.1.1l-1.2.6c.1 0 .5.2.6.2.2.1.3.1.3-.1v-.1h.1c-.1.2-.1.4-.2.6h-.1v-.1c0-.1 0-.2-.2-.2-.2-.1-.9-.4-1-.4v-.1c.2-.1 1.4-.7 1.5-.8-.1 0-.6-.1-.7-.2-.2 0-.3 0-.3.1v.1h-.1s.1-.3.1-.4" class="st1"/><path id="Path_336" d="M5.6 16.9c.1 0 .2 0 .3.1 0 0 .7.5.8.5.1.1.1.1.1.2v.1h.1v-.5s-.1-.1-.1 0v.1s-.1.1-.1 0-.2-.1-.3-.2c0-.1.1-.4.1-.5h.3c.2.1.2.2.2.2v.1h.1c.1-.4.1-.7.2-1.2-.1-.1-.3-.1-.4-.2-.1 0-.1.1 0 .1H7c.1.1.2.2.1.3v.2c0 .1-.1.1-.2.1h-.3V16h-.1l-.1.4h-.5v-.1s0-.1.1-.3c0-.1.1-.2.2-.2h.1s.1-.1 0-.1h-.4c-.1.4-.1.6-.2.9-.1.1-.1.2-.1.3m.2-.2h.6c0 .1 0 .3-.1.4-.1-.1-.5-.3-.5-.4 0 .1 0 0 0 0" class="st1"/><path id="Path_337" d="M26.5 29.7c-.1-.1-.1-.2-.1-.3 0 0-.2-.8-.2-1V28.1s0-.1-.1-.1c0 0-.2.2-.4.3 0 0 0 .1.1.1h.1s.1 0 .1.1.1.3.1.4c-.1 0-.4.3-.4.3s-.1-.2-.2-.2c-.1-.1 0-.2 0-.2h.1s0-.1-.1-.1c-.3.2-.7.4-1 .6 0 .1.1.3.2.4h.1v-.1c0-.1 0-.2.1-.3.1 0 .1-.1.2-.1.1-.1.2 0 .3.1l.2.2c-.1 0-.3.2-.4.2 0 0 0 .1.1.1s.3-.2.4-.2c0 .1.3.3.3.4v.1l-.2.2c-.1.1-.2.1-.3 0l-.1-.1s-.1 0-.1.1c.1.1.2.2.2.3.3-.2.5-.3.8-.5 0-.2.1-.3.2-.4.1.1.1 0 0 0m-.2 0s-.1 0 0 0c-.1-.1-.4-.4-.4-.5.1-.1.3-.2.3-.2 0 .2.1.6.1.7" class="st1"/><path id="Path_338" d="M7.1 24.8c.3-.1.7-.4.8-.4.2-.1.2-.1.2-.3V24l.1-.1c.1.2.2.5.3.6l-.1.1v-.1c-.1-.1-.1-.1-.3 0-.2.1-.4.3-.5.3-.2.1-.3.2-.2.3v.1l-.1.1-.3-.6s-.1-.1-.1-.2c-.1-.2 0-.4.1-.6h.1c.2-.1.4 0 .5.1.1-.1.2-.3.2-.5.1-.2.1-.2 0-.3 0 0 .1-.1.1 0l.2.4c-.1.2-.3.7-.4.8h-.1c0-.1-.1-.2-.2-.2h-.2c-.1 0-.1.1-.2.2v.2c0 .1 0 .1.1.2" class="st1"/><path id="Path_339" d="M12.4 30.3c.1-.3.4-.7.4-.8.1-.2.1-.3 0-.3h-.1s0-.1.1-.1c.2.1.4.3.6.3 0 0 0 .1-.1.1h-.1c-.1 0-.2 0-.3.2-.1.2-.2.5-.3.6-.1.2-.1.3 0 .3h.1s0 .1-.1.1l-.6-.3c-.1 0-.1-.1-.2-.1-.2-.1-.3-.3-.2-.5v-.1c.1-.2.3-.2.5-.2 0-.2 0-.3-.1-.5 0-.2 0-.2-.1-.3 0 0 0-.1.1-.1 0 0 .2.1.3.2 0 .2.1.8.1.9h-.1c-.1-.1-.2-.1-.3 0-.1 0-.1.1-.2.2 0 .1-.1.1 0 .2 0 .1.1.1.1.2.3-.1.4 0 .5 0-.1 0 0 0 0 0" class="st1"/><path id="Path_340" d="M8.1 13.8s.2-.5-.1-.7c-.3-.3-.6 0-.7.4-.1-.1-.5-.4-.5-.5 0-.1.2-.7.3-.8.1 0 .2.1.2.2-.1.1-.3.6-.3.6l.1.1c.1-.1.2-.4.6-.5.5 0 .8.5.5 1.2 0 .1-.1.1-.1 0" class="st1"/><path id="Path_341" d="M7.5 11.9c-.1-.2 0-.4.1-.5.1-.1.2-.2.3-.2.2 0 .4.2.4.4v.1c.1-.1.2-.2.3-.2 0 0 .4.1.4.6 0 .3-.1.7-.3.7-.2 0-.3-.1-.2-.3.1-.1.2 0 .2-.1.1-.2.1-.4-.1-.5-.1-.1-.3-.1-.4 0-.1.1-.1.2 0 .3 0 .1-.1.1-.2 0 0-.2.1-.3 0-.5 0-.1-.1-.2-.2-.2h-.1c-.1.1-.1.2 0 .4h-.2" class="st1"/><path id="Path_342" d="M25.1 5.4c0-.1 0-.1.1-.2h.1c.2.1.3.1.5-.3.1-.2.4-.7.4-.9.1-.2.2-.4 0-.5 0 0-.1 0-.1-.1s0-.1.1-.2l1 .5c0 .1 0 .1-.1.2H27c-.2-.1-.3.1-.4.3-.2.3-.4.7-.5.9-.2.3-.2.4 0 .5 0 0 .1 0 .1.1 0 0-.1.1-.1.2-.3-.1-.7-.3-1-.5" class="st1"/><path id="Path_343" d="M29.3 8.4c0-.1.1-.1.1-.1l.1.1c.2.1.2.1.5-.2.2-.2.6-.5.7-.7.3-.1.5-.3.3-.5v-.1c0-.1.1-.1.1-.1.3.3.6.7.8.9 0 .1-.1.1-.2.1 0 0-.1 0-.1-.1-.2-.2-.3 0-.5.1-.3.2-.6.5-.7.7-.3.2-.3.3-.2.5 0 0 0 .1.1.1 0 .1-.1.1-.2.1l-.8-.8" class="st1"/><path id="Path_344" d="M30.5 27.7c.1 0 .1.1.2.1l-.1.1c-.1.2-.1.2.2.5.2.2.6.5.8.6s.3.3.5.1c0 0 .1 0 .1-.1.1 0 .1.1.2.1-.3.4-.6.7-.7.9-.1 0-.1-.1-.1-.1s0-.1.1-.1c.1-.2 0-.3-.2-.5-.3-.2-.6-.5-.8-.6-.3-.2-.4-.3-.5-.1l-.1.1c-.1 0-.1-.1-.1-.1-.1-.2.3-.6.5-.9" class="st1"/><path id="Path_345" d="M19 33.5v.2h-.1c-.2 0-.3.1-.3.5v1c0 .2 0 .5.2.5h.1v.2h-1.2v-.2h.1c.3 0 .3-.2.3-.5v-1c0-.4 0-.5-.2-.5h-.1v-.2c.3-.1.9 0 1.2 0" class="st1"/><path id="Path_346" d="M9.7 30.2c0 .1-.1.1-.1.2l-.1-.1c-.2-.1-.2-.1-.5.2-.2.2-.5.6-.6.8s-.3.3-.1.5c0 0 0 .1.1.1 0 .1-.1.1-.1.2-.3-.3-.7-.6-.9-.8 0-.1.1-.1.1-.1s.1 0 .1.1c.2.1.3 0 .5-.2.2-.3.5-.6.7-.8.2-.3.3-.4.1-.5l-.1-.1c0-.1.1-.1.1-.1.1.1.5.4.8.6" class="st1"/><path id="Path_347" d="M4.9 14.1c-.1 0-.1 0-.2-.1v-.1c0-.2 0-.3-.4-.4-.3-.1-.7-.3-.9-.3s-.4-.2-.5 0v.1c-.1 0-.1 0-.2-.1.1-.4.3-.8.4-1.1.1 0 .2 0 .2.1v.1c-.1.3.1.3.4.4.3.1.7.3.9.4.3.1.4.1.6 0 0 0 0-.1.1-.1s.1 0 .2.1c-.3.2-.5.7-.6 1" class="st1"/><path id="Path_348" d="M31.7 11.5c-.3-.6-.7-1.1-1.1-1.6 0-.1.1-.1.2-.1l.1.1c.1.1.2.1.5-.1.2-.2.7-.5.8-.6.2-.1.4-.2.3-.5 0 0 0-.1-.1-.1 0-.1.1-.1.2-.1.3.4.5.7.7 1 0 .1-.1.1-.2.1 0 0 0-.1-.1-.1-.1-.2-.4 0-.5.1-.3.2-.6.4-.8.6-.3.2-.3.2-.3.4 0 .1.1.2.1.2l.3.3c.1 0 .2.1.3 0h.2c.1 0 .1.1.1.2-.2 0-.4.1-.7.2" class="st1"/><path id="Path_349" d="M32.8 14c-.2-.6-.5-1.2-.7-1.8 0-.1.1-.1.2-.1 0 0 0 .1.1.1.1.2.2.2.6 0 .2-.1.8-.3.9-.4.2-.1.4-.2.4-.4v-.1c0-.1.1-.1.2-.1.2.4.4.8.5 1.1 0 .1-.1.1-.2.1v-.1c-.1-.2-.3-.1-.5 0-.3.1-.6.3-.9.4-.3.1-.4.2-.3.4 0 .1.1.2.1.2 0 .1.1.2.2.3.1.1.2.1.3.1h.2c.1 0 .1.1 0 .2-.6 0-.8 0-1.1.1" class="st1"/><path id="Path_350" d="M22.9 4.4c0-.2 0-.4.1-.6.1 0 .2 0 .2.1 0 .2-.1.6.4.7.2.1.4 0 .5-.2.1-.2 0-.4-.3-.7-.4-.4-.5-.6-.4-.8 0-.3.3-.8 1-.5l.6.3c0 .3 0 .5-.1.7-.1 0-.2 0-.2-.1.1-.2-.1-.5-.3-.6-.4-.1-.5.1-.6.2-.1.2 0 .3.3.6.2.3.5.5.4 1-.2.4-.6.6-1 .4-.2-.1-.4-.3-.6-.5" class="st1"/><path id="Path_351" d="M21.4 33.4c.1.2.1.4.2.6h-.2c-.1-.2-.2-.5-.7-.5-.3 0-.4.2-.4.4s.2.4.6.5c.5.2.7.3.7.5.1.3.1.8-.7.9h-.7c-.1-.2-.1-.4-.1-.5 0-.1.1-.1.2 0 .1.2.3.4.5.4.4 0 .4-.3.4-.4 0-.2-.2-.2-.6-.4-.3-.1-.7-.2-.8-.7 0-.4.3-.8.7-.8.4-.2.7-.1.9 0" class="st1"/><path id="Path_352" d="M8 28.8c-.1.2-.2.3-.4.5-.1 0-.1-.1-.2-.2.1-.2.4-.5 0-.8-.1-.2-.4-.2-.5-.1-.2.1-.2.4-.1.7.2.5.1.7 0 .9-.2.2-.6.5-1.1-.1-.2-.2-.3-.4-.4-.6.1-.2.2-.3.4-.4.1 0 .1.1.2.1-.2.2-.2.5 0 .6.2.3.5.2.6.1.1-.1.1-.3 0-.7-.1-.3-.2-.7.1-1 .3-.3.8-.2 1.1.1.2.4.3.7.3.9" class="st1"/><path id="Path_353" d="M11.5 6c-.1 0-.1-.1-.1-.2 0 0 .1 0 .1-.1.2-.1.2-.2 0-.6-.1-.2-.4-.7-.5-.9-.1-.2-.2-.4-.4-.3h-.1c-.1 0-.1-.1-.1-.2l1-.5c.1 0 .1.1.1.2 0 0-.1 0-.1.1-.2.1-.1.3 0 .5.2.3.4.7.5.9.2.3.2.4.4.3 0 0 .1 0 .1-.1.1 0 .1.1.1.2-.2.3-.7.5-1 .7" class="st1"/><path id="Path_354" d="M13.4 5c-.1-.2-.2-.3-.3-.5 0-.1.1-.1.2-.1.1.2.3.5.8.3.2 0 .3-.2.3-.5-.1-.2-.3-.3-.7-.3-.5 0-.7-.2-.8-.3-.1-.2-.3-.8.5-1 .2-.1.4-.1.7-.2.1.2.2.3.2.5 0 .1-.1.1-.2.1-.1-.2-.4-.3-.6-.3-.4.1-.4.4-.3.5.1.2.2.2.6.2.3 0 .7.1.9.5.1.4-.1.9-.5 1-.3.1-.6.1-.8.1" class="st1"/><path id="Path_355" d="M9.5 7.3c-.2-.2-.3-.3-.4-.5 0-.1.1-.1.2-.2.1.2.4.5.7.2.2-.1.3-.3.2-.5-.1-.3-.3-.3-.7-.2-.6.1-.8.1-.9-.1-.2-.2-.5-.7.2-1.1.2-.1.4-.3.6-.3.1.1.2.2.3.4 0 .1-.1.1-.2.1-.1-.2-.3-.2-.6-.1-.3.2-.2.5-.1.6.1.1.2.1.7 0 .3-.1.7-.2 1 .2.2.4.1.8-.2 1.1-.3.2-.6.3-.8.4" class="st1"/><path id="Path_356" d="M32.3 24.7c.1 0 .1 0 .2.1v.1c-.1.2 0 .3.4.4.3.1.7.3.9.4.2.1.4.2.5 0 0 0 0-.1.1-.1s.1 0 .2.1c0 .1-.2.5-.3.7v.1H34c-.1 0-1.8.4-2.1.5.2.1.7.5.9.6.3.2.4.3.6 0l.1-.1c.1 0 .1 0 .2.1-.2.3-.4.6-.6.8-.1 0-.2-.1-.2-.1s0-.1.1-.1c.1-.2 0-.2-.3-.5-.2-.2-1.3-.9-1.4-.9v-.2c.4-.1 2.5-.6 2.7-.6-.2-.1-.9-.4-1.1-.5-.4-.2-.5-.1-.6 0 0 0 0 .1-.1.1s-.1 0-.2-.1c0-.2.3-.7.3-.8" class="st1"/><path id="Path_357" d="M4.2 17.5c-.1.1-.1.1-.2 0v-.1c0-.2-.1-.3-.5-.3-.3 0-.7-.1-1-.1-.3 0-.5-.1-.5.2v.1h-.2c0-.1 0-.5.1-.7v-.1c.1 0 .2-.1.2-.1s1.6-1 1.8-1.1c-.2 0-.8-.2-1-.3-.3-.1-.5-.1-.5.1v.1h-.2c.1-.3.2-.7.2-1 .1 0 .1 0 .2.1v.1c0 .2 0 .2.4.3.3.1 1.5.4 1.6.4 0 0 .1.1.1.2l-2.3 1.5c.2 0 1 .1 1.2.1.4 0 .5 0 .5-.2v-.1h.2c0 .2-.1.7-.1.9" class="st1"/><path id="Path_358" d="M7.1 9.9s-.1 0-.1-.1c0 0 0-.1.1-.1.1-.1 0-.3-.2-.5-.4-.2-.7-.5-.9-.6-.2-.2-.4-.3-.5-.2 0 0 0 .1-.1.1s-.1-.1-.2-.1c.1-.1.4-.4.5-.6 0 0 0-.1.1-.1H8.1c-.1 0-.6-.5-.7-.7-.3-.2-.4-.3-.5-.1l-.1.1c-.1 0-.1-.1-.1-.1l.7-.7c.1 0 .1.1.1.1l-.1.1c-.1.1-.1.2.2.5.2.2 1 1.1 1.1 1.2v.2H6c.1.1.8.6 1 .8.3.2.4.3.5.1l.1-.1c.1 0 .1.1.1.1-.1.1-.5.6-.6.7" class="st1"/><path id="Path_359" d="M5.6 25.1c-.1 0-.1 0-.2.1v.1c.1.2 0 .3-.3.4-.1 0-.2.1-.4.2l-.5-1.2c.1-.1.3-.1.4-.2.4-.2.4-.1.6 0 0 0 0 .1.1.1s.1 0 .2-.1c-.2-.3-.3-.7-.4-1-.1 0-.1 0-.2.1v.1c0 .2 0 .3-.4.4-.2.1-.6.2-.9.4-.2.1-.4.2-.5 0v-.1c-.1 0-.1 0-.2.1.1.3.2.7.4 1 0 0 .2 0 .2-.1v-.1c-.1-.2.1-.3.4-.4H4l.6 1.1c-.1.1-.2.1-.3.2-.2.1-.4.2-.5 0v-.1c-.1 0-.2 0-.2.1.1.3.3.6.5 1 0 0 .2 0 .2-.1V27c-.1-.2.1-.3.3-.4.1-.1.6-.3.9-.5.4-.2.4-.2.6 0 0 0 0 .1.1.1s.1 0 .2-.1c-.4-.3-.7-.7-.8-1" class="st1"/><path id="Path_360" d="M28.9 7.4c-.1.1-.1.2-.2.3-.3-.1-.6-.3-.8-.5-.4-.2-.7-.7-.6-1.2 0-.5.3-.9.8-1.1.5-.2 1-.1 1.4.3l.6.6c-.1.2-.2.3-.4.6-.1 0-.2 0-.2-.1.1-.1.1-.3.1-.4 0-.2-.1-.4-.3-.5-.4-.3-1-.2-1.3.2l-.1.1c-.3.4-.3 1 .1 1.3.1.1.1.1.2.1.1.1.2.1.3 0 0 0 .1-.1.1-.2.1-.1.1-.2 0-.3-.1-.1-.1-.1-.1-.2s.1-.1.1-.2c.3.2.6.5.8.7l-.1.2h-.1c-.1-.1-.1-.1-.3.1v.2" class="st1"/><path id="Path_361" d="M5.7 12.3c-.1 0-.1 0-.2-.1v-.1c.1-.2.1-.3-.3-.5-.3-.2-.6-.3-.9-.5-.3-.1-.4-.2-.5 0v.1c-.1 0-.1 0-.2-.1.3-.6.7-1.2 1-1.8l.6.3c0 .1 0 .2-.1.2s-.2 0-.2-.1c-.1 0-.3 0-.4.1-.1.2-.2.4-.3.5s0 .1 0 .2c.1 0 .6.3.6.4l.3-.6c.1 0 .2.1.2.1L5 11l.4.2c.3.2.4.1.5-.1.1-.1.1-.2.1-.2.1-.2.1-.4-.1-.5l.1-.1c0-.1.1-.2.2-.2s.4.4.5.5c-.4.5-.7 1.1-1 1.7" class="st1"/><path id="Path_362" d="M26.9 31c.1 0 .1.1.1.2h-.1c-.2.1-.2.2 0 .6.2.3.4.6.5.8.1.3.2.4.5.3h.1c.1 0 .1.1.1.2-.6.4-1.2.7-1.8 1-.1-.1-.2-.4-.3-.5 0-.1.1-.1.2-.1l.2.2c.1.1.3.1.4.1.2-.1.3-.2.5-.3.1-.1.1-.1.1-.2s-.3-.6-.4-.6l-.7.3c-.1-.1-.1-.1-.1-.2l.6-.3-.2-.4c-.2-.3-.3-.3-.5-.2-.1 0-.1.1-.2.1-.2.1-.3.3-.2.5v.2c-.1.1-.1.1-.2.1-.1-.2-.1-.4-.2-.7.5-.4 1.1-.7 1.6-1.1" class="st1"/><path id="Path_363" d="M33.6 15.4c.7-.4.8-.5 1.3-.8.2-.1.3-.2.3 0v.1c.1 0 .1 0 .2-.1-.1-.4-.2-.7-.3-1.1-.1 0-.2 0-.2.1v.1c0 .2 0 .3-.3.4-.1.1-1.7 1-1.7 1.1v.1s.1.2.2.3c.6.1 1.5.2 1.9.3.4.1.4.1.4.3v.1h.2c0-.3-.1-.7-.2-.9h-.2v.1c0 .1 0 .2-.3.2-.2-.1-.8-.2-1.3-.3" class="st1"/><path id="Path_364" d="M33.3 23.2c.8 0 .9 0 1.5-.1.2 0 .3 0 .3.2v.1c0 .1.1.1.2 0 .1-.4.2-.7.3-1.1 0-.1-.1-.1-.2 0v.1c-.1.2-.2.2-.5.2-.2 0-2 .1-2 .1s-.1 0-.1.1v.4c.5.4 1.2 1 1.5 1.2.3.2.3.3.3.4v.1c0 .1.1.1.2.1l.3-.9c0-.1-.1-.1-.2-.1v.1c-.1.1-.1.2-.3 0-.4-.2-.9-.5-1.3-.9" class="st1"/><path id="Path_365" d="M28.6 30.3c.7.4.8.4 1.3.8.2.1.3.2.1.3l-.1.1c0 .1.1.2.1.1.3-.2.6-.5.8-.8 0-.1-.1-.1-.1-.1l-.1.1c-.2.1-.3.1-.5 0s-1.7-1-1.7-1h-.1s-.1.2-.2.3l.6 1.8c.1.4.1.4 0 .5 0 0-.1 0-.1.1s.1.2.1.2c.2-.2.6-.4.8-.6 0-.1 0-.1-.1-.2 0 0-.1 0-.1.1-.1.1-.2.1-.3-.2-.1-.5-.2-1-.4-1.5" class="st1"/><path id="Path_366" d="M24.4 34.7c-.2-.4-.4-1.2-.5-1.4-.1-.3-.2-.4-.4-.4h-.1c-.1 0-.1-.1-.1-.2.3-.1.7-.3 1.1-.4.1 0 .1.1.1.2h-.1c-.2.1-.2.2 0 .6.1.3.3.8.3.9.1.4.2.4.4.4h.1c.1 0 .1.1.1.2-.6.3-1 .4-1.1.4-.1 0-.2.1-.3.1-.3.1-.7 0-.8-.3v-.1c-.1-.3 0-.6.3-.7-.2-.2-.4-.3-.7-.5-.1-.1-.3-.2-.5-.1h-.1c0-.1-.1-.1 0-.2.1 0 .4-.1.7-.2.2.1 1 .6 1.2.8v.1c-.1 0-.3.2-.3.3v.4c0 .1.1.2.2.3.1.1.3.1.4 0 .1 0 .2-.1.2-.1l-.1-.1" class="st1"/><path id="Path_367" d="M14 32.6c-.1 0-.1.1-.1.2h.1c.2.1.1.1 0 .3-.1.1-.1.2-.2.2s-.7-.3-.8-.3v-.3c0-.2 0-.3.2-.3h.1c.1 0 .1-.1.1-.2-.2-.1-.5-.2-.9-.4-.1 0-.1.1-.1.2 0 0 .1 0 .1.1.2.1.2.3.2.5s-.1 2-.1 2h.3c.1-.1 1-1.2 1.3-1.4.3-.3.4-.3.5-.3h.1c.1 0 .1-.1 0-.2-.3.1-.7 0-.8-.1m-1 1.7v-1l.6.2-.6.8z" class="st1"/><path id="Path_368" d="M4.6 22.3h-.2v.1c0 .2 0 .2-.3.1h-.3c0-.1-.2-.7-.2-.8.1 0 .1 0 .2-.1s.3-.2.3 0v.1h.2c0-.2-.1-.5-.2-1h-.2v.1c0 .2-.2.3-.3.4-.1.1-1.7 1-1.7 1v.1s.2.2.2.3c.1 0 1.5.2 1.9.3.4.1.4.1.5.2v.1c.1 0 .2 0 .2-.1.1-.1-.1-.7-.1-.8m-2 .1.9-.5.1.7-1-.2z" class="st1"/><path id="Path_369" d="M33.8 18.1c-.1.1-.1.1-.2 0 0-.4 0-.6-.1-.9 0-.1.1-.1.2 0v.1c0 .1 0 .2.4.3.3 0 1 .1 1.1.1.2 0 .5 0 .5-.3v-.1c.1-.1.1-.1.2 0 0 .3 0 .6.1.9-.2 0-.3 0-.4.1-.3.1-1 .4-1.3.6l1.2.6c.2.1.3.1.5.2 0 .3 0 .6-.1.9h-.2v-.1c0-.1 0-.2-.3-.2h-1.2c-.3 0-.5 0-.5.2v.1h-.2c.1-.6.1-.7.1-1.1h.2v.1c0 .1 0 .2.4.2h1.3c-.2-.1-.9-.4-1.3-.6-.4-.2-.5-.2-.6-.3v-.2l.6-.3c.3-.2 1.1-.5 1.3-.6h-1.2c-.3 0-.5 0-.5.2" class="st1"/><path id="Path_370" d="M16.8 35.1c0 .1-.1.2-.1.2-.1.1-.3.1-.4.1-.1 0-.2 0-.3-.1 0 0 .2-1.2.3-1.4.1-.4.1-.5.3-.4h.1v-.2c-.3-.1-.8-.2-1.1-.2-.1 0-.1.1-.1.2h.1c.2.1.2.2.1.5 0 .2-.3 1.4-.3 1.4-.2 0-.3-.1-.4-.1-.1 0-.2-.2-.2-.3v-.2c-.1-.1-.1-.1-.2 0 0 .1-.1.5-.1.7.7.2 1.5.3 2.2.4 0 0 .2-.5.3-.6-.1 0-.2-.1-.2 0" class="st1"/><path id="Path_371" d="m11.2 33.3-.2.2c-.1 0-.3 0-.4-.1 0 0-.1-.1-.3-.2 0 0 .6-1 .7-1.2.2-.3.3-.4.5-.3h.1c.1 0 .1-.1.1-.2-.3-.2-.7-.4-1-.6-.1 0-.1.1-.1.2l.1.1c.2.1.1.2-.1.5-.1.3-.7 1.3-.7 1.3-.2-.1-.3-.2-.4-.2-.1-.1-.2-.2-.1-.4 0-.1 0-.1.1-.2 0-.1-.1-.1-.2-.1 0 .1-.3.5-.3.6.6.4 1.3.8 1.9 1.2l.5-.5c-.1 0-.1-.1-.2-.1" class="st1"/><path id="Path_372" d="M4 18.8v.1c0 .2-.1.3-.4.3h-.4v-.7H3v.7h-.8c-.1 0-.2.2-.2 0v-.5c0-.4.5-.5.6-.5V18c-.2 0-.6.1-.8.1 0 .7 0 1.4.1 2.1h.2v-.1c0-.3.2-.3.5-.3.2 0 .6 0 1-.1.4 0 .5 0 .5.2v.1h.2c0-.4-.1-.9-.1-1.2H4" class="st1"/><path id="Path_373" d="M12 7.8c-.2 0-.3.4-.3.5 0 .1-.1.4-.1.4h-.1c-.1 0-.2-.2-.2-.3v-.2h.1c.1 0 .1-.2.1-.3 0-.1 0-.1-.1-.2h-.1v-.1s0-.1-.1-.1H11c-.1 0-.1 0-.2.1 0 0-.1.1 0 .1 0 0 0 .1.1.1h-.1c0 .1-.1.1 0 .2 0 .1.1.2.2.3h.1v.2c0 .1 0 .3-.1.4h-.1l-.2-.3c-.2-.2-.3-.4-.4-.4-.1 0-.1 0-.2.1s0 .3.1.4c.1.1.2.1.3.1l.3.6c0 .1.1.4.2.5 0 .2.2.2.4.3 0 0 .1 1.3.5 3.9 0 .1.3.1.4.1.1 0 .3-.1.3-.3-.4-2.6-.7-3.9-.7-3.8.2-.1.3-.2.3-.4v-.6c0-.2 0-.4.1-.6.1 0 .2 0 .2-.1.1-.1.1-.3 0-.4-.4-.2-.5-.2-.5-.2" class="st1"/><path id="Path_374" d="M11.6 16.9c.2.2.5.3.8.2.3 0 .5-.2.7-.4.1.1.3 1.1-.5 1.2-.4.1-.9-.2-.9-.7-.1-.1-.1-.2-.1-.3" class="st1"/><path id="Path_375" d="M13.4 15.3c0-.1-.1-.1-.2-.1 0-.1.1-.1.1-.2.1-.1 0-.3 0-.4 0-.1-.1-.1-.2-.1v-.1c0-.1 0-.2-.1-.3-.1-.1-.4-.1-.4-.1-.1.2-.3.3-.5.3s-.4 0-.6-.1c-.2-.1-.2-.1-.3 0-.1.1-.2.3-.2.4 0 .2.1.3.2.4 0 .2-.1.2 0 .4 0 .1.1.2.2.3v.3c0 .1.1.2.2.3 0 .1 0 .2.1.3.1.1.1.1.3.1.3.1.6 0 .9-.1.2-.1.4-.2.5-.4 0-.1 0-.2-.1-.4.1 0 .1-.1.2-.2-.1-.1-.1-.2-.1-.3m-.9.6h-.2s.1.1 0 .1c0 0-.2.1-.2 0v-.1h-.2c-.1-.1-.1-.1-.1-.2h.2v-.2h.2s0 .1.1.1h.2c0 .1.1.3 0 .3" class="st1"/><path id="Path_376" d="M16.4 8.7c0-.3.1-.7.3-1l-.1-.2c-1.3.3-2.6.8-3.7 1.5-.3.2-.1.9.2 1.5.7 1.8 1.6 1.5 1.9 2.9.1.5.5 2.2.6 2.4.2.5.6.7 1.1.7-.4-2.6-.5-5.2-.3-7.8m-2.2 1.4c0 .2-.3.7-.4.7-.2 0-.3-.6-.3-.8 0-.1 0-.2.1-.2 0 0 .1.2.1.4h.3c.1-.3.2-.4.2-.4.1.1.1.2 0 .3m.8-1.5c0-.1.1-.2.1-.2s.1.2.1.4h.1c.1-.3.2-.3.3-.3v.3c-.1.2-.3.6-.4.5-.2.1-.3-.5-.2-.7m.7 2.7c-.1.2-.4.7-.5.7-.2 0-.2-.7-.2-.9 0-.2.1-.2.1-.2s.1.2.1.5h.2c.1-.3.3-.4.3-.4v.3" class="st1"/><path id="Path_377" d="M25.2 9.2c-1.2-.7-2.5-1.3-3.9-1.6 0 0-.1.1-.1.2l.3.9c.1 2.6.1 5.3-.1 7.9.5 0 .9-.3 1.1-.7.1-.2.4-1.9.6-2.4.3-1.1 1.7-1.6 2.1-2.8 0-.6.3-1.4 0-1.5m-2.9-.6s.2.1.3.3h.1c0-.2 0-.4.1-.4s.1.1.1.2c0 .2 0 .7-.1.8-.1 0-.4-.4-.5-.5-.1-.3-.1-.4 0-.4m.4 3.7c-.1 0-.4-.5-.5-.7v-.3s.2.1.3.4h.2c0-.3.1-.5.1-.5.1 0 .1.1.1.2.1.2 0 .9-.2.9m1.4-1.4c-.1 0-.3-.5-.4-.7v-.3s.2.1.2.4h.1c0-.3.1-.4.1-.4.1 0 .1.1.1.2.2.2.1.7-.1.8" class="st1"/><path id="Path_378" d="M20.4 5.1c0-.2-.1-.4-.3-.5.2 0 .3 0 .5.1v.1c.2.6-.2.8-.2 1.2-.2-.2-.5-.3-.8-.3l-.2-.6h1" class="st1"/><path id="Path_379" d="M18.9 3.2c-.6 0-1.2.1-1.8.3-.1-.5-.3-.9-.5-1.3l-.2-.2v-.1h.2c.1 0 .1.1.2.2v-.2s.1-.1.2 0c0 0 .1.1.1.2v.2H17c.1.1.3.2.5.2.3 0 .3-.2.3-.4l-.1.1s-.1 0-.2-.1v-.2h.2c-.1 0-.1-.1-.2-.2 0-.1 0-.1.2-.2.2 0 .2 0 .3.1 0 .1 0 .2-.1.2h.2s.1 0 .1.2-.1.2-.1.2H18c.1.2.3.3.5.3s.4-.2.4-.4l-.1.1c-.1 0-.1-.1-.2-.2 0-.1 0-.2.1-.2h.2s-.1-.1-.1-.2.1-.1.2-.1.2 0 .2.1 0 .1-.1.2c0 0 .1-.1.2 0 .1 0 .1.1.1.2s-.1.2-.2.2c0 0-.1 0-.1-.1 0 .2.1.4.4.4.2 0 .4-.1.5-.3h-.1s-.1 0-.1-.2c0-.1.1-.2.1-.2h.2c-.1-.1-.1-.1-.1-.2s.1-.1.3-.1c.2 0 .2.1.2.2s-.1.2-.2.2h.2v.2c-.1.1-.2.1-.2.1s-.1 0-.1-.1c0 .2 0 .3.3.4.2 0 .4-.1.5-.2h-.1c-.1 0 0-.1 0-.2s.1-.1.1-.2c.1-.1.2-.1.2 0v.2c0-.1.1-.2.2-.2h.2V2s-.1.2-.2.2c-.2.4-.4.9-.5 1.3-.8-.2-1.4-.3-2-.3" class="st1"/><path id="Path_380" d="M18.5 6.8c.2 0 .3-.2.3-.2h.2c.1.1.2.2.3.2.5 0 .9.1 1.4.3.2-.2.1-.5-.3-.7-.3-.2-.7-.2-1.1-.2-.3.4-.7-.1-1.1.1.2-.2.3-.3.5-.3.1 0 .1.1.2.1s.3 0 .4-.1l-.2-1.3c.3-.2.7-.3 1-.3.2 0 .4.1.6.3.2-.9-.9-.8-1.7-.8-2.2 0-1.6.4-1.6 1.2 0 .2-.3.4 0 1.1.1.1.1.3.1.4-.3-.1-.5.2-.3.4.4-.1.8-.2 1.3-.2m.2-2.3c-.1.3-.1.7-.1.7-.1 0-.3-.1-.4-.1h-.7c0-.2.2-.4.4-.4v-.1l-.4-.1c.3-.7 1.1-.1 1.2 0" class="st1"/><path id="Path_381" d="M20.4 7.3c-1-.2-2.1-.2-3.1 0-.2.8-.4 2.3-.1 2.8.4.2.8.3 1.3.2.1-.1.2-.8.2-1.1 0-.5 0-.5.1-.5h.2c.1.1.1 1.5.3 1.6.5.2 1 .1 1.4-.2.2-.4-.1-2.3-.3-2.8m-1.5.6c-.5 0-.7-.2-.7-.4.2.1.4.1.7.1.2 0 .4 0 .6-.1 0 .3-.2.4-.6.4" class="st1"/><path id="Path_382" d="M18.9 21.4c-1.4 0-2.9.1-4.3.3-.3-.8-.8-1.6-1.3-2.3l-.5-.5c-.1-.1-.1-.2 0-.2s.3-.1.4 0c.2 0 .4.2.4.4h.1v-.4c.1-.1.3-.2.5.1.1.1.2.2.2.4.1.1.1.3 0 .4H14v.1c.3.3.7.5 1.2.5.6-.1.8-.4.7-.8-.1.1-.1.1-.2.1-.2 0-.4-.1-.5-.3-.1-.2-.1-.4 0-.4 0-.1.2-.1.5 0v-.1c-.3-.1-.4-.3-.4-.4 0-.1.1-.3.5-.3.4-.1.6.1.6.2 0 .2 0 .4-.2.5l.1.1c.1-.1.1-.1.2-.1s.1-.1.2-.1.3 0 .3.4c.1.4-.2.5-.3.5-.1 0-.2 0-.3-.1.2.5.7.7 1.2.6.5 0 .9-.4 1-.9V19c-.1.1-.2.1-.3.1-.2 0-.3-.1-.4-.4-.1-.3 0-.4.2-.5.1 0 .3 0 .4.1v-.1c-.1-.1-.2-.2-.2-.4s.2-.3.6-.3c.3 0 .5.1.6.3 0 .1-.1.3-.2.4v.1c.1-.1.2-.1.4-.1.1.1.2.2.2.5-.1.2-.2.4-.4.4-.1 0-.2-.1-.3-.1 0 .5.4.9.9 1h.1c.5.1 1-.2 1.2-.7-.1 0-.2.1-.3.1-.1 0-.3-.1-.3-.5.1-.3.2-.4.3-.4.1 0 .1 0 .2.1 0 0 .1.1.2.1l.1-.1c-.1-.1-.2-.3-.2-.5 0-.1.2-.3.6-.2.4.1.4.2.5.3 0 .1-.1.3-.4.4v.1c.3-.1.4 0 .5 0 0 .1.1.2-.1.4-.1.2-.3.3-.5.3-.1 0-.1-.1-.2-.1 0 .4.1.7.7.8.4.1.9-.1 1.2-.5v-.1c-.1.1-.2.1-.4 0-.1-.1-.1-.2 0-.4 0-.1.1-.3.2-.4.3-.2.4-.1.5-.1.1.1.1.3 0 .4h.1c0-.2.2-.4.4-.4h.4c.1 0 .1.1 0 .2s-.3.3-.4.5c-.5.7-1 1.4-1.3 2.3-1.4-.1-2.9-.2-4.3-.2z" class="st1"/><path id="Path_383" d="M17.6 28.9c.1 0 .2-.1.2-.1h-.3c0 .1 0 .1.1.1" class="st1"/><path id="Path_384" d="M17.6 25.8h-.3c0 .1 0 .2.1.2s.2-.1.2-.2" class="st1"/><path id="Path_385" d="M20.7 26.8c.1 0 .1 0 0 0 .3 0 .5-.1.5-.3 0-.2-.2-.4-.4-.4-.5 0-.5.5-1 .6h.3c.3 0 .5 0 .6.1" class="st1"/><path id="Path_386" d="M18.9 21.9c-1.4 0-2.8.1-4.2.3 0 .4.1 3.6.2 6.1.1 3 1.7 3.9 4 3.9 2.1 0 3.8-.5 4-3.9.1-2.5.2-5.7.2-6.1-1.4-.2-2.8-.3-4.2-.3m.4.8c.2 0 .2.1.2.1h.1c0-.1 0-.1.2-.1s.2.1.2.2c0 .2-.3.3-.4.4h-.1c-.1-.1-.4-.1-.4-.4 0-.1 0-.2.2-.2m-2.2.2h.2l-.1-.4h.1l.2.2c0-.1 0-.2.1-.2h.1c0 .1.1.2.1.2 0-.1.1-.2.2-.2h.1l-.1.4c.2 0 .5.5.5 1 .2 0 .8-.1.9-.1-.4 0-.8-.3-.8-.8v-.1h.1c.2 0 .3.2.4.3 0 .1 0 .1-.1.2 0 .1.2.3.5.3.7 0 .6-.8 1.6-.8.3 0 .8.1.8.7s-.6.6-.8.6c.1.1 0 .3.3.3s.7-.1.8-.1c.2 0 .1.3.3.5l.2.2c0 .1 0 .1-.1.2v-.1s-.1 0-.1-.1c-.1 0-.1 0-.1.1v.1c0 .1-.1.1-.1.1-.1 0-.1-.1-.1-.1v-.1s0 .1-.1.1H22l-.1-.1c0-.1.1-.1.1-.1h-.2v.1-.1c0-.1.1-.2.2-.2h.1c.1 0 .2-.1.2-.2-.5.1-.9.2-1.4.2-.8 0-.2-1-.8-1-.6 0-.8.7-1.4.7h-.5c0 .2 0 .3-.2.3h-1.5c0 .3-.1.3-.2.3h-.2.1V25c-.1 0-.2.2-.3.2-.1 0-.1-.1-.1-.1s-.1 0-.1.1c0-.1 0-.2.1-.2h.1-.1c-.1 0-.1 0-.1-.1 0 0-.1 0-.1.1 0-.1.1-.2.2-.2h.2s0-.1-.1-.1 0-.1-.1-.1h-.1c0-.1.1-.2.2-.2.2 0 .2.3.5.3.4 0 .7 0 1.1-.1-.1-.1-.1-.2-.2-.3 0-.2.1-.3.2-.4h-.1c-.1 0-.1 0-.1-.1s0-.1.1-.2H17c0 .1 0 .1.2.1s.2-.1.2-.2c0-.2-.1-.3-.3-.3-.1 0-.2 0-.2.1h-.1c-.1-.1-.1-.2-.1-.3.1-.1.2-.1.4-.1m1.7 2.4c-.2 0-.2.3-.4.1v.1c-.1 0-.1-.1-.1-.1 0-.1.2-.1.2-.1-.1 0-.2.1-.2 0h-.1c0-.1 0-.1.1-.1s.2 0 .2-.1-.1 0-.2-.1h-.1c0-.1.1-.2.2-.2s.3.1.4.1h.4c.1 0 .1 0 0-.2s0-.4.2-.5c.1-.1.3-.1.4-.1 0 0 .1.1.1.2v.3c-.1 0-.2 0-.3.1-.1.1 0 .2 0 .3 0 .1-.1.1-.1.1h-.4v.1c0 .1-.1.1-.1.1h-.2s.1 0 .1-.1c-.2.1-.1.1-.1.1m.5.3c.2 0 .2.1.2.1h.1c0-.1 0-.1.2-.1s.2.1.2.2c0 .2-.3.3-.4.4h-.1c-.1-.1-.4-.1-.4-.4 0-.1 0-.2.2-.2m-2.5 1.8c-.1 0-.1-.1-.2-.1-.2-.2-.2-.5-.4-.6-.1-.2-.2-.3-.2-.3h-.2c-.1 0-.3-.1-.3-.2h.1s0-.1.1-.1h.1c0-.1-.1-.1-.1-.1-.1 0-.1-.1-.2-.1h-.2c.1-.1.1-.1.2-.1s.2.1.2.1v-.1c0-.1-.1 0-.1-.1v-.1h-.1s.1-.1.2-.1.2.1.2.2v-.1l-.1-.1h.1c.1 0 .2.1.2.2s-.1.2-.1.3l.6.9c.2.1 0 .3.2.5m-.4-1.4c0-.1 0-.1 0 0 .3 0 .3.3.6.3h.2c.1 0 .1 0 .1.1s-.1.1-.2.1c-.6-.1-.4-.4-.7-.5m0-3c.2 0 .2.3.5.3h.2c.1 0 .1 0 .1.1s-.1.1-.2.1c-.5 0-.3-.3-.6-.5m-.8-.2c.1 0 .2.1.2.1v-.1c0-.1-.1 0-.1-.1v-.1h-.1c.1 0 .1-.1.2-.1s.2.1.2.2v-.1s0-.1-.1-.1h.1c.1 0 .2.1.2.2s-.1.2-.1.3l.6.9c-.1.1-.2.4-.1.5-.1 0-.1-.1-.2-.1-.2-.2-.2-.5-.4-.6-.1-.2-.2-.3-.2-.3h-.2c-.1 0-.2-.1-.3-.2h.1s0-.1.1-.1h.1c0-.1-.1-.1-.1-.1-.1 0-.1-.1-.2-.1h-.2c.3-.1.4-.1.5-.1m-.3.8c.2 0 .2.1.2.1h.1s0-.1.2-.1.2.1.2.2c0 .2-.3.3-.4.4h-.1c-.1-.1-.4-.1-.4-.4 0 0 0-.2.2-.2m-.2 3.1s0-.2.2-.2.2.1.2.1h.1c0-.1 0-.1.2-.1s.2.1.2.2c0 .2-.3.3-.4.4h-.1c-.1-.1-.4-.2-.4-.4m.4 1.2h.1-.1l-.1-.1s-.1 0-.1.1c0-.1.1-.2.2-.2h.2s0-.1-.1-.1 0-.1-.1-.1h-.1c0-.1.1-.2.2-.2.2 0 .2.3.5.3s.6 0 1-.1c-.1-.1-.1-.2-.2-.3 0-.2.1-.3.2-.4H17c-.1 0-.1 0-.1-.1s0-.1.1-.2c0 .1 0 .1.2.1s.2-.1.2-.2c0-.2-.1-.3-.3-.3-.1 0-.2 0-.2.1h-.1c-.1-.1-.1-.2-.1-.3 0-.1.1-.1.3-.1h.2l-.1-.4h.1l.2.2c0-.1 0-.2.1-.2h.1c0 .1.1.2.1.2 0-.1.1-.2.2-.2h.1l-.1.4c.2 0 .5.5.5 1 .2 0 .8-.1.9-.1-.4 0-.8-.3-.8-.8v-.1h.1c.2 0 .3.2.4.3 0 .1 0 .1-.1.2 0 .1.2.2.5.2.7 0 .6-.8 1.5-.8.3 0 .8.1.8.7s-.6.6-.7.6c.1.1-.1.5.2.4.3-.1.5-.1.8-.2.2 0 .1.3.4.4.2.1.2.2.2.2 0 .1 0 .1-.1.2v-.1s-.1 0-.1-.1c-.1 0-.1.1-.1.1v.1c0 .1-.1.1-.1.1-.1 0-.1 0-.1-.1v-.1s0 .1-.1.1h-.1l-.1-.1c0-.1.1-.1.1-.2h-.2v.1-.1c0-.1.1-.2.2-.2h.1c.1 0 .1-.1.1-.2-.4.1-.9.2-1.4.3-.8 0-.2-1-.8-1-.6 0-.8.7-1.4.7H18c0 .2 0 .3-.2.3h-1.4c0 .3-.1.3-.2.3h-.1.1v-.2c-.1 0-.2.2-.3.2-.1 0-.1-.1-.1-.1s-.1 0-.1.1c-.4.1-.4 0-.2 0m3.3.3c-.2 0-.2.3-.4.1v.1c-.1 0-.1-.1-.1-.1 0-.1.2-.1.2-.1-.1 0-.2.1-.2 0h-.1c0-.1 0-.1.1-.1s.2 0 .2-.1-.1 0-.2-.1h-.1c0-.1.1-.2.2-.2s.3.1.4.1h.4c.1 0 .1 0 0-.2s0-.4.2-.5c.1-.1.3-.1.4-.1 0 0 .1.1.1.2v.3c-.1 0-.2 0-.3.1-.1.1 0 .2 0 .3s-.1.1-.1.1h-.4v.1c0 .1-.1.1-.1.2h-.2s.1 0 .1-.1c-.2.1-.1 0-.1 0m.5.4c.2 0 .2.1.2.1h.1c0-.1 0-.1.2-.1s.2.1.2.2c0 .2-.3.3-.4.4h-.1c-.1-.2-.5-.2-.5-.5 0 0 .1-.1.3-.1M17 30.3c-.1 0-.1-.1-.2-.1-.1-.2-.3-.4-.4-.6-.1-.2-.2-.3-.2-.3H16c-.1 0-.2 0-.3-.2h.1s0-.1.1-.1h.1c0-.1 0-.1-.1-.1s-.1-.1-.1-.1h-.2c0-.1.1-.1.2-.1s.2 0 .2.1v-.1s-.1 0-.1-.1v-.1h-.1l.1-.1c.1 0 .2.1.2.2V28.3l-.1-.1h.1c.1 0 .2.1.2.2s-.1.2 0 .3l.6.9c.1.3-.1.6.1.7m-.4-1.4c.3 0 .3.3.6.3h.2c.1 0 .1 0 .1.1s-.1.1-.2.1c-.6 0-.4-.3-.7-.5m-1.3.8s0-.2.2-.2.2.1.2.1h.1c0-.1 0-.1.2-.1s.2.1.2.2c0 .2-.3.3-.4.4h-.1c0-.1-.4-.1-.4-.4m4.2 1c-.1.1 0 .3.1.4 0 .1 0 .1-.1.1s-.2.1-.3.1c0 0 .1.1 0 .1 0 .1-.2.1-.2.1v-.1c-.1 0 0-.1 0-.1h-.1c-.1 0-.1.3-.3.2v.1c-.1 0-.1-.1-.1-.1 0-.1.1-.1.1-.2-.1 0-.1.2-.2.1 0 0-.1 0-.1.1 0-.1 0-.1.1-.2.1 0 .2-.1.2-.1s-.1.1-.2 0c0 0-.1 0-.1.1 0-.1 0-.2.2-.2h.6c.1 0 .1-.1 0-.2-.1-.3 0-.5.2-.7.1-.1.3-.1.4-.1 0 .1.1.1.1.2v.3c-.1-.1-.3 0-.3.1m2.5.2c-.1 0-.1 0 0 0-.1 0-.1-.1-.1-.1-.1 0-.1.1-.1.1v.1c0 .1 0 .1-.1.1s-.1 0-.1-.1v-.1s0 .1-.1.1h-.1s-.1 0-.1-.1.1-.1.1-.2c0 0-.1 0-.1.1h-.1v.1s0-.1-.1-.1c0-.1 0-.2.1-.2h.1c.1 0 .1-.1.1-.2-.4.2-.8.4-1.2.4-.7 0-.1-1.1-.7-1.1-.5 0-.7.7-1.3.7h-.4c0 .2 0 .3-.2.3-.3 0-.7.1-1.1.1 0 .3-.1.3-.2.3h-.1.1v-.2c-.1 0-.2.2-.3.2V31s-.1 0-.1.1c0-.1 0-.2.1-.2h.1-.1c-.1 0-.1 0-.1-.1 0 0-.1 0-.1.1 0-.1.1-.2.1-.2h.2s0-.1-.1-.1 0-.1-.1-.1h-.1c0-.1.1-.2.2-.2.2 0 .2.2.5.2.2 0 .5 0 .7-.1-.1-.1-.1-.2-.1-.3 0-.1.1-.3.2-.4h-.1c-.1 0-.1 0-.1-.1s0-.1.1-.2h.1c0 .1 0 .1.2.1s.2-.1.2-.2c0-.2-.1-.3-.3-.3-.1 0-.2 0-.2.1h-.1c-.1 0-.1-.1-.1-.2s.1-.1.3-.1h.1l-.1-.4.2.2c0-.1 0-.2.1-.2h.1c0 .1 0 .2.1.2 0-.1.1-.2.2-.2h.1l-.1.3c.1 0 .5.5.5 1 .1 0 .7-.1.8-.1-.4 0-.7-.3-.7-.9h.1c.2 0 .3.2.3.4 0 .1 0 .1-.1.2 0 .1.2.3.4.3.6 0 .7-.7 1.4-.7.3 0 .6.2.6.5v.1c0 .5-.5.6-.7.6.1.1-.2.5.1.5l.6-.3c.2-.1.1.3.4.4.2.1.2.1.2.2.1-.1.1 0 .1 0m0-.8c-.2-.1-.5-.1-.5-.4 0 0 0-.2.2-.2s.2.1.2.1h.1c0-.1 0-.1.2-.1s.2.1.2.2c.1.3-.3.3-.4.4m.2-3c-.2-.1-.5-.1-.5-.4 0 0 0-.2.2-.2s.2.1.2.1h.1c0-.1 0-.1.2-.1s.2.1.2.2c0 .2-.3.3-.4.4m0-2.9c-.2-.1-.5-.1-.5-.4 0 0 0-.2.2-.2s.2.1.2.1h.1s0-.1.2-.1.2.1.2.2c.1.2-.3.3-.4.4" class="st1"/><path id="Path_387" d="M21 29.4c0-.2-.1-.3-.3-.3-.4 0-.5.5-1 .6h.2c.3 0 .5 0 .6.2h.1c.3-.1.4-.3.4-.5" class="st1"/><path id="Path_388" d="M20.7 23.9c.1 0 .1 0 0 0 .3 0 .5-.1.5-.4 0-.2-.2-.4-.4-.4-.5 0-.5.5-1.1.6h.3c.4 0 .6.1.7.2" class="st1"/><path id="Path_389" d="M17.4 23.1c.1 0 .2-.1.2-.1h-.3s0 .1.1.1" class="st1"/><path id="Path_390" d="M28.3 14.4c.2 0 .3.1.3.3v.1c0 .3-.1.5-.3.5-.2 0-.5-.2-.5-.4.1-.5.4-.5.5-.5" class="st1"/><path id="Path_391" d="M26.5 14.5c.1 0 .3.1.3.2 0-.1.2-.2.3-.2.2 0 .3.2.4.4.1.2.3.4.5.5 0 .4-.1.6-.4.6h-.3c-.1.1-.2.2-.4.2-.1 0-.3-.1-.4-.2-.1.1-.2.2-.4.2-.1 0-.3-.1-.4-.2-.1 0-.2 0-.2.1-.3 0-.4-.5-.4-.7 0-.2.1-.3.3-.3h.2c0-.2.1-.3.2-.3s.2 0 .3.1c.1-.2.2-.4.4-.4" class="st1"/><path id="Path_392" d="M26.4 12.4c-.8.1-1.4.7-1.5 1.6 0 .2 0 .4.1.6 0 0 .1-.1.1 0 .1 0 .2.1.3.2 0-.1 0-.3.3-.3.1 0 .2 0 .3.1 0-.2.2-.3.4-.3s.3.1.4.3c0-.1.1-.3.3-.2.3 0 .4.2.5.4 0-.3.4-.4.7-.4h.1c.1-.8-.5-1.6-1.3-1.7.2-1.4.1-1.5.1-1.5s-.1-.1-.2-.1v-.2c.1 0 .2-.1.2-.3 0-.1-.1-.7-.1-.8 0-.1 0-.1.1-.1 0 0 .6.3.7.3.2 0 .3-.2.3-.3 0-.1-.1-.3-.3-.3-.1 0-.6.1-.7.1-.1 0-.1-.1-.1-.1l.2-.7c0-.1-.1-.3-.3-.3-.1 0-.3 0-.3.2 0 .1.1.8.1.8 0 .1-.1.1-.1.1-.1 0-.6-.2-.7-.3-.2 0-.3.2-.3.3 0 .1.1.2.2.3.1 0 .7-.1.8-.1.1 0 .1.1.1.1l-.2.7c0 .1.1.3.2.3v.2c-.1 0-.1 0-.2.1 0-.2-.1-.1-.2 1.3" class="st1"/><g id="Group_36" opacity=".9" transform="translate(0 57.729)"><g id="Group_35"><g id="Group_34"><path id="Path_393" fill="#1d1d1d" d="M1.6-12.2c0-1.3-.1-1.3-.9-1.5l-.3-.1c-.1-.1-.1-.4 0-.5.6 0 1.2.1 1.8.1s1.2 0 1.9-.1c.1.1.2.4 0 .5l-.3.1c-.8.2-.8.3-.8 1.5v2.6c0 1.8.6 3.1 2.4 3.1 1.6 0 2.4-1.2 2.4-3.1v-1.7c0-1.8-.1-2.2-.9-2.4l-.4-.1c-.1-.1-.1-.3 0-.4.6 0 1 .1 1.5.1s.9 0 1.5-.1c.1.1.2.3 0 .4l-.5.2c-.5.1-.6.5-.6 2.4v1.8c0 2.3-1.1 3.6-3.4 3.6-1 0-1.9-.3-2.7-.9-.5-.5-.7-1.3-.7-2.5v-3zM17.9-14c0 .7.1 1.3.2 2-.1.1-.3.2-.4.1-.2-1.2-1.3-2-2.5-1.9-1.6 0-3.1 1.1-3.1 3.5s1.6 3.8 3.3 3.8c1.2 0 2.2-.7 2.6-1.8.1-.1.3-.2.4-.1l.1.1c-.1.7-.3 1.4-.6 2-.8.2-1.6.4-2.5.4-1.3.1-2.4-.2-3.4-.8-1.1-.7-1.7-1.9-1.7-3.3 0-1.3.5-2.5 1.5-3.3 1-.7 2.3-1.1 3.6-1.1.8.1 1.6.2 2.5.4zm2.8 2.1c0-1.2 0-1.5-.4-1.5l-.5-.1c-.2-.1-.1-.4 0-.5 1-.1 2-.1 2.9-.1.7 0 1.5.1 2.2.3.9.3 1.5 1.2 1.5 2.1 0 1-.6 1.8-1.5 2.1-.5.2-1.1.3-1.7.3-.1-.1-.1-.2 0-.3 1-.1 1.8-1 1.7-2.1 0-1.2-.7-1.9-2-1.9-.9 0-.9.1-.9.6v4.9c0 1.3.1 1.4.9 1.5l.4.1c.1.1.1.4 0 .5-.8 0-1.4-.1-1.9-.1-.6 0-1.2 0-1.8.1-.1-.1-.2-.4 0-.5l.3-.1c.8-.2.9-.2.9-1.5l-.1-3.8zm13.2 1.3c.6 0 .7 0 .7-.5v-1.1c0-1.3-.1-1.3-.9-1.5l-.3-.1c-.1-.1-.1-.4 0-.5.7 0 1.3.1 1.9.1.6 0 1.2 0 1.9-.1.1.1.2.4 0 .5l-.3.1c-.8.1-.9.2-.9 1.5v4.1c0 1.3.1 1.4.9 1.5l.4.1c.1.1.1.4 0 .5-.8 0-1.4-.1-1.9-.1-.6 0-1.2 0-1.9.1-.1-.1-.2-.4 0-.5l.3-.1c.8-.1.9-.2.9-1.5v-1.4c0-.5 0-.5-.7-.5h-3.2c-.8 0-.8 0-.8.5v1.4c0 1.3.1 1.4.9 1.5l.5.1c.1.1.1.4 0 .5-.8 0-1.4-.1-2-.1-.6 0-1.2 0-1.7.1-.1-.1-.2-.4 0-.5l.2-.1c.8-.2.9-.2.9-1.5v-4.1c0-1.3-.1-1.4-.9-1.5l-.4-.1c-.1-.1-.1-.4 0-.5.8 0 1.4.1 1.9.1s1.2 0 1.8-.1c.1.1.2.4 0 .5l-.3.1c-.8.1-.9.2-.9 1.5v1.1c0 .5.1.5.7.5h3.2z"/></g></g></g></g></g></g></g></switch></svg>