<svg xmlns="http://www.w3.org/2000/svg" xml:space="preserve" id="Layer_1" x="0" y="0" version="1.1" viewBox="0 0 329.4 73.3"><style>.st0{fill:#1d1d1d}.st3{fill:#fff}</style><g id="DK_logotype"><path d="M105 17.6c0-2.8-.2-2.9-1.9-3.3l-.6-.1c-.3-.2-.2-.9.1-1 1.4.1 2.7.1 4 .1s2.6 0 4.1-.1c.4.1.4.8 0 1l-.8.1c-1.6.2-1.8.5-1.8 3.3v2.3c0 .8 0 1.3.2 1.4s.8 0 1.1-.2c1.4-1 4.6-4.6 5-5 .9-1 .9-1.6.3-1.7l-.9-.2c-.4-.2-.3-.9.1-1 1.2.1 2.3.1 3.7.1 1.2 0 2.1 0 3.4-.1.4.1.4.8.1 1-.7.2-2 .4-2.8.8-1 .5-2 1.4-3.8 3.1l-1.9 1.8c-.8.8-.8.9-.2 1.7l5.1 6.2c1.5 1.8 2.1 2.3 3.9 2.5h.6c.3.2.2.9-.1 1-1.3-.1-2.2-.1-4-.1-1.3 0-2.7 0-4 .1-.4-.2-.4-.8-.2-1l.6-.1c.9-.1 1.1-.4.5-1.1l-3.7-4.5c-.3-.4-1.5-2.2-2.3-2.2-.7 0-.7.4-.7 1.6v2.9c0 2.8.2 3 1.9 3.3l.8.1c.3.2.2.9-.1 1-1.6-.1-2.9-.1-4.2-.1s-2.6 0-3.9.1c-.3-.1-.4-.8-.1-1l.5-.1c1.7-.4 1.9-.5 1.9-3.3.1-.1.1-9.3.1-9.3zM142.9 14.6c2.4 1.7 3.6 4.5 3.6 7.5 0 5.5-4.2 9.5-10 9.5-2 0-3.8-.4-5.2-1.2l-1.6 2.2c-.7-.1-1-.4-1.1-.9l1.4-2c-2.4-1.7-3.7-4.4-3.7-7.4 0-5.5 4.2-9.6 10.1-9.6 2.1 0 3.8.4 5.1 1.1l1.4-2c.6 0 1 .3 1.1.9l-1.1 1.9zm-2.5 1c-1-1-2.4-1.7-4.1-1.7-2.9 0-6.3 2-6.3 7.8 0 2.1.5 4.3 1.6 6l8.8-12.1zm-7.8 13.2c1.1 1 2.5 1.6 4.2 1.6 3.1 0 6.2-2.1 6.2-7.8 0-2.2-.5-4.3-1.6-6l-8.8 12.2zM155.1 18.1c0-2.7 0-3.3-1.2-3.5l-1.3-.2c-.4-.1-.3-.9 0-1 2.1-.2 4.5-.2 6.9-.2 2 0 3.7 0 5.2.6 1.5.5 2.6 1.7 2.6 3.6 0 1.8-1.2 2.9-3.3 3.6-.2.3.1.3 1 .5 1.5.3 3.6 1.6 3.6 4.5 0 2.2-1.1 3.5-2.7 4.3-1.6.7-3.6.9-5.6.9-.8 0-2.2-.1-3.6-.1-1.3 0-2.7 0-4.3.1-.3-.1-.4-.8-.1-1l.8-.1c1.8-.3 1.9-.5 1.9-3.3l.1-8.7zm3.1 2.2c0 .7.1.7 1.4.7 2.6 0 4.4-.6 4.4-3.2s-1.9-3.4-3.9-3.4c-1.7 0-1.8.4-1.8 1.1v4.8h-.1zm0 6.5c0 2.5.5 3.2 3.1 3.2 2.1 0 4-.9 4-3.7 0-3.2-2.5-4.2-5.1-4.2-1.9 0-1.9.2-1.9.7l-.1 4zM177.6 17.6c0-2.8-.2-3-1.7-3.3l-.6-.1c-.3-.2-.2-.9.1-1 1.2.1 2.5.1 3.8.1h5.8c1.8 0 3.4 0 3.8-.1l.4 4.2c-.2.3-.8.4-1.1.1-.2-1.1-.5-1.6-.7-2-.7-1-2.5-1-3.5-1h-1.8c-1.4 0-1.5 0-1.5 1.3v4.5c0 .7 0 .8.8.8h1.9c2.2 0 2.4-.3 2.7-1.6l.2-.8c.2-.3.8-.2 1 .1-.1 1.2-.1 1.9-.1 2.9s0 1.8.1 3c-.2.3-.8.4-1 .1l-.2-.8c-.3-1.2-.5-1.6-2.7-1.6h-1.9c-.8 0-.8.1-.8.9v3c0 1.2.1 2.5.4 3 .4.4 1.1.6 3.4.6 2.6 0 4.1-.1 5.3-3.4.3-.3.9-.2 1.1.2-.2 1.7-.8 3.8-1.2 4.5-2.6-.1-4.8-.1-7-.1H179c-1.3 0-2.6 0-4.6.1-.3-.1-.4-.8-.1-1l1.1-.1c1.8-.2 1.9-.5 1.9-3.3l.3-9.2zM213.7 19.6c0-4.1-.2-5.2-1.8-5.3l-1.3-.1c-.3-.2-.2-.8.1-1 1.5.1 2.5.1 3.6.1s2.1 0 3.4-.1c.3.2.3.8 0 1l-1.2.1c-1.1.1-1.4 1.2-1.4 5.3v6.9c0 .8 0 4.1.1 4.8-.1.2-.5.5-.9.4-.4-.6-1.3-1.4-3.8-4.2l-6.2-6.6c-1.6-1.6-2.6-2.7-3.2-3.2-.2 0-.2.5-.2 1.7v5.4c0 4.1.2 5.2 1.8 5.3l1.3.1c.3.2.2.8-.1 1-1.5-.1-2.5-.1-3.6-.1s-2 0-3.4.1c-.3-.2-.3-.8 0-1l1.2-.1c1.1-.1 1.4-1.2 1.4-5.3v-7.3c0-1.4 0-1.9-.9-2.5-.3-.2-1.1-.5-1.5-.6l-.6-.1c-.3-.2-.3-.9.1-1 1.6.1 2.7.1 3.5.1.6 0 1.1 0 1.6-.1.8 1.6 2.3 3.3 4 5l3.9 4c.9.9 3.3 3.5 3.7 3.8.2-.1.2-.7.2-1.6v-4.9h.2zM237.2 21.2c1.3 0 1.5 0 1.5-1.1v-2.5c0-2.8-.2-3-1.9-3.3l-.8-.1c-.3-.2-.2-.9.1-1 1.6.1 2.9.1 4.2.1s2.6 0 4.2-.1c.3.1.4.8.1 1l-.8.1c-1.8.3-1.9.5-1.9 3.3v9.2c0 2.8.2 3 1.9 3.3l.9.1c.3.2.2.9-.1 1-1.7-.1-3.1-.1-4.4-.1s-2.6 0-4.2.1c-.3-.1-.4-.8-.1-1l.8-.1c1.8-.3 1.9-.5 1.9-3.3v-3.2c0-1-.1-1.1-1.5-1.1h-7.2c-1.4 0-1.5 0-1.5 1.1v3.2c0 2.8.2 3.1 1.9 3.3l1.1.1c.3.2.2.9-.1 1-1.9-.1-3.2-.1-4.5-.1s-2.6 0-3.9.1c-.3-.1-.4-.8-.1-1l.4-.1c1.7-.5 1.9-.5 1.9-3.3v-9.2c0-2.8-.2-3-1.9-3.3l-.9-.1c-.3-.2-.2-.9.1-1 1.8.1 3 .1 4.4.1s2.6 0 4-.1c.3.1.4.8.1 1l-.6.1c-1.7.3-1.9.5-1.9 3.3v2.5c0 1.1.2 1.1 1.5 1.1h7.3zM254.6 24.7c-.9 0-1.1 0-1.4 1l-.9 2.6c-.4 1.3-.3 1.5.4 1.6l1.1.2c.3.2.3.9-.1 1-1-.1-2.1-.1-3.2-.1s-2.1.1-2.9.1c-.4-.2-.4-.8-.1-1l.9-.2c1.3-.3 1.7-.7 2.5-2.7l3.9-9.4c.7-1.7 1-2.7 1.1-3.4.7-.3 1.5-1.1 1.7-1.6.3-.1.6 0 .7.2.2.4.8 2.5 1.8 5l3.7 9.8c.5 1.3.9 1.9 2.3 2.2l.7.1c.4.2.3.9-.1 1-1.1-.1-2-.1-3.4-.1-1.5 0-2.7 0-3.7.1-.4-.1-.5-.9-.1-1l.8-.1c1.1-.2 1-.4.5-1.7l-1-2.7c-.3-.9-.5-1-1.4-1l-3.8.1zm3.2-1.3c1.1 0 1.2-.1.7-1.3l-1.3-3.5c-.3-.9-.5-1.3-.6-1.5h-.1c-.1.2-.3.5-.7 1.4l-1.5 3.7c-.4 1.1-.4 1.2.5 1.2h3zM270.4 17.7c-1.2-2.7-1.4-2.9-2.4-3.2l-1.4-.3c-.2-.2-.3-.8 0-1 1.1.1 2.4.1 3.7.1 1.5 0 2.7 0 4-.1.3.2.4.8 0 1l-.9.1c-1.1.2-1.1.7-.2 2.7l2 4.5c1 2.3 1.7 3.8 2.3 5.2.8-1.7 1.5-3.4 2.3-5.2.9-1.9 2-4.7 2.4-5.9.3-.9.2-1.1-1-1.4l-.7-.1c-.4-.2-.2-.8.1-1 1.2.1 2.3.1 3.4.1 1.3 0 2.2 0 2.9-.1.4.2.5.8.2 1l-1.1.2c-1.2.2-1.5.6-2.8 3.4l-3.1 6.7c-1.2 2.6-2.4 5.6-2.9 7-.1.1-.3.2-.5.2s-.3 0-.5-.2c-.4-1.1-.8-2.4-1.4-3.5l-4.4-10.2zM308.1 19.6c0-4.1-.2-5.2-1.8-5.3l-1.3-.1c-.3-.2-.2-.8.1-1 1.5.1 2.5.1 3.6.1s2.1 0 3.4-.1c.3.2.3.8 0 1l-1.2.1c-1.1.1-1.4 1.2-1.4 5.3v6.9c0 .8 0 4.1.1 4.8-.1.2-.5.5-.9.4-.5-.6-1.3-1.4-3.8-4.2l-6.2-6.6c-1.6-1.6-2.6-2.7-3.2-3.2-.2 0-.2.5-.2 1.7v5.4c0 4.1.2 5.2 1.8 5.3l1.3.1c.3.2.2.8-.1 1-1.5-.1-2.5-.1-3.6-.1s-2 0-3.4.1c-.3-.2-.3-.8 0-1l1.2-.1c1.1-.1 1.4-1.2 1.4-5.3v-7.3c0-1.4 0-1.9-.9-2.5-.3-.2-1.1-.5-1.5-.6l-.6-.1c-.3-.2-.3-.9.1-1 1.6.1 2.7.1 3.5.1.6 0 1.1 0 1.6-.1.8 1.6 2.3 3.3 4 5l3.9 4c.9.9 3.3 3.5 3.7 3.8.2-.1.2-.7.2-1.6l.2-4.9zM320.4 22.7c-2-1-3.6-2.6-3.6-4.9 0-3 2.3-5.1 6.4-5.1 1.4 0 2.4.4 3.8.6.3.7.6 2.2.6 4-.1.3-.9.4-1.1.1-.3-1.4-1.4-3.5-3.8-3.5s-3.3 1.4-3.3 2.8c0 1.5 1.1 2.4 2.8 3.2l2.5 1.3c1.5.7 3.3 2.5 3.3 5.2 0 3.2-2.6 5.2-6.7 5.2-2.5 0-4.1-.9-4.7-1.3-.4-.6-.9-2-.9-4.2.2-.4.8-.5 1.1-.1.3 1.5 2.1 4.4 4.9 4.4 2.1 0 3.4-1.1 3.4-3 0-1.3-.5-2.7-2.9-3.8l-1.8-.9zM104.6 46.6c0-2.8-.2-2.9-1.9-3.3l-.6-.1c-.3-.2-.2-.9.1-1 1.4.1 2.7.1 4 .1s2.6 0 4.2-.1c.3.1.4.8.1 1l-.8.1c-1.8.3-1.9.5-1.9 3.3v5.8c0 4.1 1.3 6.9 5.3 6.9 3.7 0 5.3-2.8 5.3-6.8v-3.8c0-4.1-.2-5-2-5.3l-.9-.1c-.3-.2-.2-.8.1-1 1.3.1 2.2.1 3.4.1s2.1 0 3.4-.1c.3.2.3.8 0 1l-1.2.1c-1.1.1-1.4 1.2-1.4 5.3v4.1c0 5.2-2.4 8-7.6 8-2.6 0-4.6-.5-5.8-1.7-1.2-1.2-1.8-3.1-1.8-5.8v-6.7zM143.9 48.6c0-4.1-.2-5.2-1.8-5.3l-1.3-.1c-.3-.2-.2-.8.1-1 1.5.1 2.5.1 3.6.1s2.1 0 3.4-.1c.3.2.3.8 0 1l-1.2.1c-1.1.1-1.4 1.2-1.4 5.3v6.9c0 .8 0 4.1.1 4.8-.1.2-.5.4-.9.4-.4-.6-1.3-1.4-3.8-4.2l-6.2-6.6c-1.6-1.6-2.6-2.7-3.2-3.2-.2 0-.2.5-.2 1.7v5.4c0 4.1.2 5.2 1.8 5.3l1.3.1c.3.2.2.8-.1 1-1.5-.1-2.5-.1-3.6-.1s-2 0-3.4.1c-.3-.2-.3-.8 0-1l1.2-.1c1.1-.1 1.4-1.2 1.4-5.3v-7.3c0-1.3 0-1.9-.9-2.5-.3-.2-1.1-.5-1.5-.6l-.6-.1c-.3-.2-.3-.9.1-1 1.6.1 2.7.1 3.5.1.6 0 1.1 0 1.6-.1.8 1.6 2.3 3.3 4 5l3.9 4c.9.9 3.3 3.5 3.7 3.8.2-.1.2-.7.2-1.6l.2-4.9zM156.4 46.6c0-2.8-.2-3-1.9-3.3l-.8-.1c-.3-.2-.2-.9.1-1 1.6.1 2.9.1 4.2.1s2.6 0 4.2-.1c.3.1.4.8.1 1l-.8.1c-1.8.3-1.9.5-1.9 3.3v9.2c0 2.8.2 3 1.9 3.3l.8.1c.3.2.2.9-.1 1-1.6-.1-2.9-.1-4.2-.1s-2.6 0-4.2.1c-.3-.1-.4-.8-.1-1l.8-.1c1.8-.3 1.9-.4 1.9-3.3v-9.2zM170.9 46.7c-1.2-2.7-1.4-2.9-2.4-3.2l-1.4-.3c-.2-.2-.3-.8 0-1 1.1.1 2.4.1 3.7.1 1.5 0 2.7 0 4-.1.3.2.4.8 0 1l-.9.1c-1.1.2-1.1.7-.2 2.7l2 4.6c1 2.3 1.7 3.8 2.3 5.2.8-1.7 1.5-3.4 2.3-5.2.9-1.9 2-4.7 2.4-5.9.3-.9.2-1.2-1-1.4l-.7-.1c-.4-.2-.2-.8.1-1 1.2.1 2.3.1 3.4.1 1.3 0 2.2 0 2.9-.1.4.2.5.8.2 1l-1.1.2c-1.2.2-1.5.6-2.8 3.4l-3.1 6.7c-1.2 2.6-2.4 5.6-2.9 7-.1.1-.3.2-.5.2s-.3 0-.5-.2c-.4-1.1-.8-2.4-1.4-3.5l-4.4-10.3zM194.2 46.6c0-2.8-.2-3-1.7-3.3l-.6-.1c-.3-.2-.2-.9.1-1 1.2.1 2.5.1 3.8.1h5.8c1.8 0 3.4 0 3.8-.1l.4 4.2c-.2.3-.8.4-1.1.1-.2-1.1-.5-1.6-.7-2-.7-1-2.5-1-3.5-1h-1.8c-1.4 0-1.5 0-1.5 1.3v4.5c0 .7 0 .8.8.8h1.9c2.2 0 2.4-.3 2.7-1.6l.2-.8c.2-.3.8-.2 1 .1-.1 1.2-.1 1.9-.1 2.9s0 1.8.1 2.9c-.2.3-.8.4-1 .1l-.2-.8c-.3-1.2-.5-1.6-2.7-1.6H198c-.8 0-.8.1-.8.9v2.9c0 1.2.1 2.5.4 2.9.4.4 1.1.6 3.4.6 2.6 0 4.1-.1 5.3-3.4.3-.3.9-.2 1.1.2-.2 1.7-.8 3.8-1.2 4.6-2.6-.1-4.8-.1-7-.1h-3.6c-1.3 0-2.6 0-4.6.1-.3-.1-.4-.8-.1-1l1.1-.1c1.8-.2 1.9-.4 1.9-3.3l.3-9zM215.2 47.1c0-2.7 0-3.4-1-3.5l-1.1-.2c-.3 0-.4-.9 0-1 2.3-.2 4.6-.2 6.8-.2 3.8 0 7.9.6 7.9 4.9 0 2.6-2.1 3.8-3.6 4.4-.2.2-.1.4 0 .6 2.1 3.4 3.9 5.4 5.2 6.6.7.6 1.5.8 2.2.9.2.2.2.5 0 .7-.4.1-.9.2-1.7.2-2.5 0-3.9-.8-5.7-3.1-1-1.3-2.1-3.1-3-4.4-.3-.5-1-.7-1.6-.7-1.1 0-1.1.1-1.1.7v2.9c0 2.8.2 3 1.9 3.3l.9.1c.3.2.2.9-.1 1-1.7-.1-3.1-.1-4.4-.1s-2.6 0-4 .1c-.4-.1-.4-.9-.1-1l.6-.1c1.8-.4 1.9-.4 1.9-3.3v-8.8zm3.1 3c0 1 0 1 2.1 1 2.7 0 4.1-1.1 4.1-3.9 0-2-1.4-3.8-4.3-3.8-1.5 0-1.8.1-1.8 1.2v5.5zM240.5 51.7c-2-1-3.6-2.6-3.6-4.9 0-3 2.3-5.1 6.4-5.1 1.4 0 2.4.4 3.8.6.3.7.6 2.2.6 4-.1.3-.9.4-1.1.1-.3-1.4-1.4-3.5-3.8-3.5s-3.3 1.4-3.3 2.8c0 1.5 1.1 2.4 2.8 3.2l2.5 1.3c1.5.7 3.3 2.5 3.3 5.2 0 3.2-2.6 5.2-6.7 5.2-2.5 0-4.1-.9-4.7-1.3-.4-.6-.9-2.1-.9-4.2.2-.4.8-.4 1.1-.1.3 1.5 2.1 4.4 4.9 4.4 2.1 0 3.4-1.1 3.4-2.9 0-1.3-.5-2.7-2.9-3.8l-1.8-1zM257.2 46.6c0-2.8-.2-3-1.9-3.3l-.8-.1c-.3-.2-.2-.9.1-1 1.6.1 2.9.1 4.2.1s2.6 0 4.2-.1c.3.1.4.8.1 1l-.8.1c-1.8.3-1.9.5-1.9 3.3v9.2c0 2.8.2 3 1.9 3.3l.8.1c.3.2.2.9-.1 1-1.6-.1-2.9-.1-4.2-.1s-2.6 0-4.2.1c-.3-.1-.4-.8-.1-1l.8-.1c1.8-.3 1.9-.4 1.9-3.3v-9.2zM275.5 44.6c0-1.1 0-1.1-.9-1.1h-1.3c-2.5 0-3.6.2-4.5 3.1-.4.2-.9.1-1-.2.5-1.8.9-3.8 1.1-4.8.2-.2.6-.2.7 0 0 .8.6.8 2.3.8h11.4c1.5 0 1.8 0 2.1-.8.3-.2.6-.1.7.1-.3 1.1-.5 3.2-.4 4.8-.2.3-.9.4-1 0-.3-2.7-1.4-3-3.8-3h-1.4c-.8 0-.9 0-.9 1.1v11.2c0 2.8.2 3.1 1.9 3.3l1.1.1c.3.2.2.9-.1 1-1.7-.1-3.2-.1-4.5-.1s-2.8 0-4.5.1c-.3-.1-.4-.8-.1-1l1.1-.1c1.8-.2 1.9-.4 1.9-3.3l.1-11.2zM293.8 46.6c0-2.8-.2-3-1.7-3.3l-.6-.1c-.3-.2-.2-.9.1-1 1.2.1 2.5.1 3.8.1h5.8c1.8 0 3.4 0 3.8-.1l.5 4.2c-.2.3-.8.4-1.1.1-.2-1.1-.5-1.6-.7-2-.7-1-2.5-1-3.5-1h-1.8c-1.4 0-1.5 0-1.5 1.3v4.5c0 .7 0 .8.8.8h1.9c2.2 0 2.4-.3 2.7-1.6l.2-.8c.2-.3.8-.2 1 .1-.1 1.2-.1 1.9-.1 2.9s0 1.8.1 2.9c-.2.3-.8.4-1 .1l-.2-.8c-.3-1.2-.5-1.6-2.7-1.6h-1.9c-.8 0-.8.1-.8.9v2.9c0 1.2.1 2.5.5 2.9.4.4 1.1.6 3.4.6 2.6 0 4.1-.1 5.3-3.4.3-.3.9-.2 1.1.2-.2 1.7-.8 3.8-1.2 4.6-2.6-.1-4.8-.1-7-.1h-3.6c-1.3 0-2.6 0-4.5.1-.3-.1-.4-.8-.1-1l1.1-.1c1.8-.2 1.9-.4 1.9-3.3v-9zM318.7 44.6c0-1.1 0-1.1-.9-1.1h-1.3c-2.5 0-3.6.2-4.5 3.1-.4.2-.9.1-1-.2.5-1.8.9-3.8 1.1-4.8.2-.2.6-.2.7 0 0 .8.6.8 2.3.8h11.4c1.5 0 1.8 0 2.1-.8.3-.2.6-.1.7.1-.3 1.1-.5 3.2-.4 4.8-.2.3-.9.4-1 0-.3-2.7-1.4-3-3.8-3h-1.4c-.8 0-.9 0-.9 1.1v11.2c0 2.8.2 3.1 1.9 3.3l1.1.1c.3.2.2.9-.1 1-1.7-.1-3.2-.1-4.5-.1s-2.8 0-4.5.1c-.3-.1-.4-.8-.1-1l1.1-.1c1.8-.2 1.9-.4 1.9-3.3l.1-11.2z" class="st0"/></g><path id="Line" fill="#b2b2b2" d="M87.2 1.4h1v71.2h-1z"/><g id="Seal"><g id="Group_69"><g id="Group_63"><path id="Path_126" fill="#901a1e" d="M36.6 73.2C16.4 73.2 0 56.9 0 36.7S16.4.1 36.6.1s36.5 16.4 36.5 36.5c0 20.3-16.3 36.6-36.5 36.6z"/><g id="Group_14"><g id="Group_13"><g id="Group_12"><g id="Group_11"><g id="Group_9"><g id="Group_8"><path id="Path_132" d="M60.1 35.5v-.2c0-.2.1-.4.5-.4h.6v.8h.3c0-.1-.1-.7-.1-.8.1 0 .8-.1.9-.1s.1 0 .2.1v.7c0 .5-.5.5-.6.5v.3c.2 0 .7-.1.9-.1 0-.9-.1-1.8-.2-2.6h-.2v.1c0 .3-.2.3-.6.4-.2 0-.7.1-1.2.1-.5.1-.6 0-.6-.3v-.1h-.2c.1.5.1 1 .1 1.5 0 .1.1.1.2.1z" class="st3"/><path id="Path_133" d="m19.3 52.7.1.1c.1.2.2.3-.1.6l-.4.4-.6-.6c-.1 0-.2.1-.2.2s.5.5.6.6l-.6.6s-.1.1-.2 0c-.2-.2-.3-.3-.4-.5-.3-.4 0-.7.1-.8 0-.1-.1-.2-.2-.2l-.6.6c.6.7 1.1 1.3 1.8 1.9.1 0 .1-.1.2-.2l-.1-.1c-.2-.2 0-.4.2-.6.2-.2.5-.5.9-.8.4-.4.5-.4.7-.2l.1.1c.1 0 .1-.1.2-.2-.3-.3-.7-.7-1-1.1-.4 0-.5.1-.5.2z" class="st3"/><path id="Path_134" d="M60.3 39c1-.2 1.1-.3 1.8-.4.3-.1.4-.1.4.2v.1c.1.1.2.1.2 0 0-.5.1-.9.1-1.4-.1-.1-.2-.1-.2 0v.2c0 .2-.1.3-.5.4-.2 0-2.3.5-2.3.6v.1s.1.4.1.5c.7.3 1.7.8 2.1 1.1.4.2.4.4.4.5v.2c.1.1.2.1.2 0 0-.3.1-.9.2-1.2-.1-.1-.2-.1-.2 0v.1c0 .2-.1.2-.4.1-.8-.4-1.4-.8-1.9-1.1z" class="st3"/><path id="Path_135" d="M54.4 21.9c0-.1.1-.1.2-.2l.1.1c.2.2.3.2.7-.1.3-.2.8-.6.9-.8s.5-.3.3-.6c0 0-.1-.1-.1-.2s.1-.2.2-.2c.3.4.7.9.9 1.2 0 .1-.1.2-.2.1l-.1-.1c-.2-.2-.4-.1-.7.1-.3.3-.8.6-1 .8-.3.3-.4.4-.3.6 0 0 .1.1.1.2s-.1.1-.2.1c-.1-.2-.5-.7-.8-1z" class="st3"/><path id="Path_136" d="M14.6 29.3c-.1 0-.2 0-.2-.1s0-.2.1-.2c.1-.2 0-.3-.5-.5-.3-.1-.9-.3-1.1-.4s-.5-.2-.7.1c0 0-.1.1-.1.2-.1 0-.2 0-.2-.1.2-.5.4-1.1.5-1.4.1 0 .2 0 .2.1 0 0 0 .1-.1.2-.1.3.1.4.4.5.4.2.9.3 1.1.4.4.2.5.2.7-.1l.1-.2c.1 0 .2 0 .2.1 0 .2-.3 1-.4 1.4z" class="st3"/><path id="Path_137" d="M56.4 24.7c0-.1.1-.2.2-.2 0 0 0 .1.1.1 0 .1.1.2.3.1s.3-.2.4-.2c-.1-.2-.5-.7-.7-1.1 0-.1 0-.2.1-.2s2.8.4 2.9.4c.1.1 0 .2 0 .4-.1 0-2.3-.3-2.5-.4.2.3.4.7.5.8.1-.1.4-.2.6-.3h.1l.3.4v.1c-.2.1-.6.3-.7.4.1.1.2.4.2.4 0 .1-.2.2-.3.2 0 0-.2-.3-.2-.4-.1 0-.3.2-.4.2-.1.1 0 .2 0 .3s.1.1.1.2-.1.1-.2.1c-.3-.4-.4-.8-.8-1.3z" class="st3"/><path id="Path_138" d="M57.5 27.4c-.1-.1-.1-.3 0-.3s2.7.1 3 .1c-.1-.3-.3-.8-.4-1-.1-.2-.2-.2-.4-.2h-.2c-.1-.1-.1-.2 0-.3.1 0 .7-.1.8-.1 0 .1.1.2.1.3s.4 1 .5 1.2.2.3.2.5c0 .1-.1.1-.1.2-.2 0-.3-.1-.5-.1-.1-.1-2.8-.3-3-.3z" class="st3"/><path id="Path_139" d="M18.8 22.4c0 .1-.2.2-.3.2 0-.1-1.2-2.4-1.3-2.6-.2.3-.6.7-.7.8-.1.1-.1.3 0 .5 0 .1 0 .1.1.1 0 .1-.1.2-.2.1-.2-.2-.3-.5-.5-.7.1-.1.1-.2.2-.2s.7-.8.8-1c.1-.1.2-.3.3-.4h.2c0 .2.1.3.2.5-.1 0 1.1 2.4 1.2 2.7z" class="st3"/><path id="Path_140" d="M58.5 29.8c0-.1.1-.1.2-.1.2.4.5.7.8.9.4.2.9.3 1.4.2.5-.1 1-.5.8-.9-.1-.3-.4-.4-.7-.3-.3.1-.5.3-.5.7 0 .1 0 .1.1.2 0 .1-.1.1-.2.1-.2-.1-.3-.3-.3-.5-.1-.4.2-.8.6-1 .5-.2 1.1.1 1.3.6v.1c.2.6-.1 1.3-.7 1.5-.1 0-.2 0-.2.1-1.2.1-2.3-.5-2.6-1.6z" class="st3"/><path id="Path_141" d="M60.4 47.2c0 .1-.1.1-.1.2-.1.1-.2.2-.6 0l-1.3-.6c-.4-.2-.4-.2-.3-.5v-.1c0-.1-.2-.1-.2-.1l-.3.6-.3.7c-.5.6-.3 1.6.3 2.1 0 0 .1 0 .1.1.8.5 1.7.3 2.3-1 .2-.5.4-.8.6-1.2 0-.2-.1-.2-.2-.2zm-.5 1.1c0 .1 0 .1-.1.2-.2.6-.8.9-1.4.7-.1 0-.1 0-.2-.1-.4-.1-.7-.5-.7-.9 0-.2 0-.5.1-.7.1-.2.2-.3.2-.3.2 0 .3 0 .5.1 0 0 1.5.7 1.5.8.1 0 .1 0 .1.2z" class="st3"/><path id="Path_142" d="M54.8 54.5c.1.1.1.2.1.3 0 .2-.1.4-.2.5 0 .1-.2.2-.3.3 0 0-1-1.1-1.2-1.3-.3-.4-.4-.4-.2-.7l.1-.1c0-.1-.1-.2-.2-.2-.3.3-.8.7-1 .9 0 .1.1.2.2.2l.1-.1c.2-.1.3-.1.6.2.2.2 1.2 1.3 1.2 1.3-.2.2-.3.3-.4.3-.1.1-.3.1-.5 0l-.2-.2c-.1 0-.2.1-.2.2.1.1.5.5.5.6.7-.6 1.4-1.2 2-1.9 0 0-.3-.6-.4-.7.2.3.1.3 0 .4z" class="st3"/><path id="Path_143" d="M55.3 50.7c0 .1.1.2.2.2 0 0 0-.1.1-.1.2-.2.2-.1.4.2.1.2.2.2.2.3-.1.1-.6.7-.7.8-.1 0-.1-.1-.3-.1-.2-.1-.4-.1-.2-.3 0-.1 0-.1.1-.1 0-.1-.1-.2-.2-.2-.1.2-.4.5-.8.9 0 .1.1.2.2.2l.1-.1c.2-.2.5-.1.7 0s2.3.8 2.3.8h.1s.1-.3.1-.4c-.1-.1-1-1.7-1.2-2.1-.2-.4-.2-.5-.2-.6 0-.1 0-.1.1-.1 0-.1-.1-.1-.2-.1-.3 0-.7.7-.8.8zm1.6 1.8-1.2-.4.5-.7.7 1.1z" class="st3"/><path id="Path_144" d="M11.2 37.5c-.1 0-.2-.1-.3-.1-.1-.1-.2-.3-.2-.5v-.4h1.8c.5 0 .6 0 .6.3v.1h.2v-1.4c-.1 0-.2-.1-.2 0v.2c-.1.3-.2.3-.6.3h-1.8v-.5c0-.2.1-.3.3-.4h.2c.1-.1.1-.2 0-.2h-.8c-.1.9-.1 1.9-.1 2.8.1 0 .7.2.8.2.1-.2.2-.3.1-.4z" class="st3"/><path id="Path_145" d="M13.5 39.9h-.2v.1c0 .2-.1.2-.4.1-.2 0-.3-.1-.3-.1 0-.2-.1-.9-.1-1 .1 0 .1-.1.3-.2s.3-.2.4.1v.1h.2c0-.2-.1-.7-.1-1.2h-.2v.2c0 .3-.3.4-.5.5s-2.2 1-2.2 1.1-.1 0 0 .1.2.3.2.3c.1 0 1.8.5 2.3.6.5.1.5.2.6.4v.1h.2c0-.3-.1-1.1-.2-1.2zm-2.4-.3 1.1-.5.1.9c0-.1-1.2-.4-1.2-.4z" class="st3"/><path id="Path_146" d="M17.7 50.1c-.2-.4-.6-.7-1.1-.8-.4-.1-.8 0-1.2.3-.4.2-.6.6-.7 1-.1.5 0 .9.3 1.3.5.8 1.5 1 2.2.6 0 0 .1 0 .1-.1.3-.2.6-.6.7-1 0-.5-.1-.9-.3-1.3zm-.9 1.8c-.3.2-.6.3-1 .3-.2-.1-.4-.2-.6-.4-.1-.2-.2-.4-.1-.7.1-.4.4-.7.7-1 .6-.4 1.2-.4 1.5.1.5.7.1 1.3-.5 1.7z" class="st3"/><path id="Path_147" d="M23.1 55.7c0 .1-.1.2-.1.2h-.1c-.2-.1-.3-.1-.7.3-.2.3-.5.7-.7 1-.2.3-.4.4-.1.7l.1.1c0 .1-.1.2-.1.2-.5-.3-1.2-.9-2-1.6.1-.2.3-.4.5-.6.1 0 .2.1.2.1 0 .1-.1.2-.1.2-.1.2 0 .3.1.5.2.2.3.3.5.4.1.1.2.1.2 0 .1-.1.5-.6.5-.7-.1-.1-.6-.5-.7-.5 0-.1.1-.2.2-.2 0 .1.6.5.6.5s.3-.4.4-.4c.3-.4.2-.4 0-.7-.1-.1-.2-.1-.2-.2-.2-.2-.5-.2-.6 0-.1 0-.1.1-.2.1s-.2-.1-.2-.2c.1-.1.5-.5.7-.5.4.3 1.1.9 1.8 1.3z" class="st3"/><path id="Path_148" d="M14.3 44.2c.1-.1.1-.1.2-.1.2.5.2.7.4 1.1 0 .1-.1.1-.2.1 0 0 0-.1-.1-.1-.1-.2-.1-.3-.6-.2-.3 0-1.1.2-1.3.3-.3.1-.6.2-.5.5 0 0 0 .1.1.1 0 .1-.1.1-.2.1-.1-.4-.2-.7-.4-1.1.2-.1.4-.2.5-.3.2-.2 1-.8 1.3-1.1-.3-.1-1.6-.3-1.6-.3-.2 0-.4-.1-.6 0-.1-.2-.2-.8-.2-1.1.1-.1.2-.1.2 0v.1c.1.2.1.3.5.2.5-.1.9-.3 1.3-.5s.6-.2.5-.4v-.2c.1-.1.1-.1.2 0 .1.7.2 1 .3 1.3-.1.1-.1.1-.2.1v-.1c-.1-.2-.1-.3-.6-.2-.4.1-1.3.5-1.6.5.3.1 1.3.2 1.8.3.3.1.6.1.8.1.1 0 .1.1.1.2-.2.2-.4.3-.7.5-.3.3-1.1 1-1.3 1.1.4-.1 1.2-.3 1.4-.3.3-.1.6-.1.5-.4" class="st3"/><path id="Path_149" d="M59.4 41.5c.1-.1.2 0 .2 0v.2c0 .2.1.3.5.4.4.1.9.2 1.2.2s.6.2.6-.1v-.1h.2c0 .2-.1.6-.2.9v.1c-.1 0-.2 0-.3.1-.1 0-2 1-2.3 1.1.2.1 1 .4 1.2.4.4.1.5.2.7-.1v-.1c.1 0 .2 0 .2.1-.1.4-.3.9-.4 1.2-.1 0-.2 0-.2-.1v-.1c.1-.2 0-.3-.5-.5-.3-.1-1.8-.7-2-.7 0-.1-.1-.1 0-.2l3-1.5c-.2 0-1.2-.2-1.5-.3-.5-.1-.6 0-.7.2v.1c-.1 0-.2 0-.2-.1.3-.2.4-.9.5-1.1z" class="st3"/><path id="Path_150" d="M10.7 33.3c.2 0 .4.1.6.2 0 0 1.4.9 1.7 1.1s.2.3.2.3v.2c.1.1.2.1.2 0s0-.6.1-1c0-.1-.2-.1-.2 0v.2c0 .1-.1.1-.2 0s-.5-.3-.6-.4c0-.1.1-.8.1-.9h.6c.3.1.3.3.3.3v.1c.1.1.1.1.2 0 .1-.8.2-1.3.5-2.3-.2-.1-.5-.2-.8-.3-.1 0-.1.2-.1.2.1 0 .1.1.1.1.2.1.3.4.3.6 0 .2 0 .2-.1.4-.1.3-.2.3-.5.3h-.6l.1-.8c-.1 0-.2-.1-.3 0l-.1.8c-.1 0-.9-.1-1-.1-.1 0-.1-.1-.1-.1s.1-.3.1-.6c0-.2.1-.4.4-.4h.3c.1 0 .1-.2.1-.2h-.8c-.2.7-.2 1.1-.3 1.7-.2 0-.3.3-.2.6-.1-.1-.1-.1 0 0zm.3-.5.1-.1c.1 0 1 0 1.1.1 0 .2-.1.7-.1.8-.2-.2-1-.6-1.1-.7v-.1z" class="st3"/><path id="Path_151" d="M51.6 58.3c-.1-.2-.2-.4-.2-.6 0-.1-.3-1.7-.3-1.9 0-.1 0-.3.1-.4l.1-.1c0-.1 0-.2-.1-.2h-.1c-.1.1-.5.4-.8.6 0 .1 0 .2.1.2l.1-.1c.1 0 .2 0 .2.1s.1.6.1.7c-.1.1-.7.5-.8.6 0 0-.3-.3-.3-.4-.2-.3 0-.4 0-.4l.1-.1c0-.1 0-.2-.1-.2-.7.4-1.3.9-2 1.3.1.3.2.5.3.8.1.1.2 0 .2-.1v-.2c-.1-.2 0-.5.3-.6.1-.1.2-.1.3-.2.2-.1.3 0 .5.2.1.2.3.4.4.4-.1.1-.6.4-.7.4 0 .1.1.2.2.2.1-.1.5-.3.7-.4.1.1.5.7.6.8.1.1 0 .1 0 .1s-.2.2-.5.3c-.2.1-.4.1-.5 0-.1-.1-.2-.1-.2-.2-.1 0-.2 0-.2.1v.1c.1.2.3.4.5.6.6-.3 1-.6 1.5-.9l.6-.3c0-.1 0-.1-.1-.2zm-.5 0H51c-.1-.1-.6-.8-.7-.9.2-.1.6-.4.7-.5 0 .3.2 1.2.2 1.3 0 0 0 .1-.1.1z" class="st3"/><g id="Group_5"><path id="Path_152" d="M13.5 48.7c.5-.3 1.4-.7 1.6-.8.4-.2.5-.3.4-.5 0 0 0-.1-.1-.2.1-.1.1-.1.2-.1.2.3.5.9.6 1.2-.1.1-.1.1-.2.1 0 0 0-.1-.1-.1-.1-.2-.2-.2-.7 0-.3.2-.9.5-1.1.6-.4.2-.5.3-.4.5 0 0 0 .1.1.1 0 .1-.2.1-.2.1-.3-.5-.6-1.1-.7-1.2-.1-.1-.1-.3-.2-.4-.2-.4-.1-.9.3-1.1h.1c.3-.1.7 0 .9.2.2-.3.3-.6.5-.9.1-.3.2-.4.1-.6v-.1c.1-.1.1-.1.2-.1 0 .1.2.4.3.8-.1.3-.7 1.4-.8 1.5h-.1c-.1-.2-.2-.3-.4-.4-.1 0-.3 0-.4.1l-.3.3v.5c.1.1.1.2.1.3s.3.2.3.2z" class="st3"/></g><g id="Group_6"><path id="Path_153" d="M23.9 59.5c.3-.5.7-1.4.9-1.6.2-.4.2-.5 0-.7l-.1-.1c0-.1 0-.2.1-.2.3.2.9.5 1.2.7 0 .1 0 .2-.1.2 0 0-.1 0-.1-.1-.2-.1-.3-.1-.5.4-.1.3-.5.9-.6 1.1-.2.4-.2.5 0 .7 0 0 .1 0 .1.1s-.1.2-.1.2c-.5-.2-1.1-.6-1.2-.7s-.2-.2-.4-.2c-.4-.2-.5-.7-.4-1.1 0 0 0-.1.1-.1.2-.3.6-.4.9-.3 0-.3 0-.7-.1-1-.1-.3-.1-.4-.2-.6 0 0 0-.1-.1-.1 0-.1 0-.2.1-.2 0 0 .4.3.7.5.1.3.2 1.5.2 1.7 0 0-.1 0-.1.1-.2-.1-.4-.1-.6-.1l-.3.3c-.1.1-.1.3-.1.4 0 .2.1.3.3.4.1.1.2.1.3.2l.1.1z" class="st3"/></g><path id="Path_154" d="M15.5 27.2c0-.1.4-.9-.1-1.4-.6-.5-1.1.1-1.4.8-.2-.2-.9-.8-1-1 0-.1.4-1.4.5-1.5.2.1.3.2.4.3-.1.2-.4 1.1-.4 1.2l.3.3c.1-.2.4-.9 1.1-.9 1 0 1.5 1 1 2.3-.2.1-.3 0-.4-.1z" class="st3"/><path id="Path_155" d="M14.4 23.4c-.1-.3-.1-.7.1-1 .1-.2.3-.4.6-.4.4 0 .7.3.7.7v.1c.1-.2.4-.3.7-.3 0 0 .7.1.9 1.1.1.6-.2 1.3-.5 1.4s-.6-.3-.3-.5c.1-.1.3 0 .4-.1.2-.3.1-.8-.2-1-.2-.2-.6-.3-.9 0-.1.2-.1.4-.1.6-.1.1-.2.2-.3.1 0 0-.1 0-.1-.1.1-.3.1-.7.1-1 0-.2-.2-.3-.4-.3-.1 0-.1 0-.2.1-.1.2-.2.5-.1.7-.1-.1-.2 0-.4-.1.1 0 .1 0 0 0z" class="st3"/><path id="Path_156" d="M48.7 10.7c0-.1.1-.3.2-.4.1 0 .2.1.2.1.4.1.5.1.9-.6.2-.5.7-1.4.9-1.7.2-.4.5-.8 0-1.1-.1 0-.1-.1-.2-.1 0-.1 0-.3.2-.4.8.4 1.5.8 2 1 0 .1-.1.3-.2.4-.1 0-.1 0-.2-.1-.5-.2-.6.2-.9.6-.3.6-.7 1.4-.9 1.7-.3.6-.4.8 0 1.1.1 0 .2.1.2.1 0 .1-.1.3-.2.3-.4-.1-1.4-.6-2-.9z" class="st3"/><path id="Path_157" d="M57 16.6c0-.1.2-.2.3-.3l.2.2c.3.2.4.3 1.1-.3.4-.4 1.1-1 1.4-1.3.3-.3.7-.6.4-1 0-.1-.1-.1-.1-.2s.1-.2.3-.3c.6.6 1.2 1.3 1.5 1.7 0 .1-.2.3-.3.2l-.1-.1c-.4-.3-.7 0-1 .3-.5.5-1.2 1-1.5 1.3-.5.5-.6.6-.4 1 0 .1.1.1.2.2 0 .1-.2.2-.3.2-.5-.4-1.2-1.2-1.7-1.6z" class="st3"/><path id="Path_158" d="M59.4 54.4c.1 0 .2.1.3.2 0 .1-.1.2-.1.2-.2.4-.2.5.4 1 .4.3 1.2 1 1.5 1.2s.7.6 1 .2l.2-.2c.1 0 .3.1.3.2-.5.7-1.1 1.3-1.5 1.8-.1 0-.3-.2-.3-.3 0-.1.1-.1.1-.2.3-.4 0-.7-.4-1-.5-.4-1.2-1-1.5-1.3-.5-.5-.7-.5-1-.3l-.2.2c-.1 0-.2-.2-.2-.3.3 0 1-.9 1.4-1.4z" class="st3"/><path id="Path_159" d="M36.9 65.6c.1.1.1.3 0 .4h-.2c-.4.1-.5.1-.5 1v2c0 .4-.1.9.4.9h.2c.1.1.1.3 0 .4-.9 0-1.7 0-2.3-.1-.1-.1-.1-.3 0-.4h.2c.5-.1.5-.4.5-.9 0-.7 0-1.6.1-2 0-.7 0-.9-.4-1h-.3c-.1-.1 0-.3 0-.4.6.1 1.7.1 2.3.1z" class="st3"/><path id="Path_160" d="M18.6 59.3c0 .1-.1.2-.2.3-.1-.1-.1-.1-.2-.1-.4-.2-.5-.2-1 .4-.4.4-1 1.2-1.3 1.5s-.6.7-.3 1c.1.1.1.1.1.2 0 .2-.1.3-.2.3-.7-.6-1.3-1.1-1.7-1.5 0-.1.1-.3.3-.3.1 0 .1.1.1.1.4.3.7 0 1-.4.5-.5 1-1.2 1.3-1.5.5-.5.5-.7.3-1l-.2-.2c0-.1.2-.3.3-.3.4.4 1.2 1.1 1.7 1.5z" class="st3"/><path id="Path_161" d="M9.3 27.7c-.1 0-.3 0-.4-.1 0-.1.1-.2.1-.2 0-.4 0-.5-.8-.8-.5-.2-1.4-.5-1.8-.7s-.8-.4-1 .1c0 .1-.1.1-.1.2-.1 0-.3 0-.4-.1.3-.9.6-1.6.8-2.2.1 0 .3 0 .3.2v.2c-.1.5.2.6.7.8.7.3 1.4.5 1.8.7.7.2.9.2 1.1-.1 0-.1.1-.2.1-.2.1 0 .3 0 .4.2-.2.4-.6 1.4-.8 2z" class="st3"/><path id="Path_162" d="M61.6 22.7c-.6-1.1-1.3-2.1-2.1-3.1l.3-.3c.1.1.1.1.1.2.3.3.4.3 1.1-.2.4-.3 1.3-.9 1.6-1.1.3-.2.8-.5.5-.9 0-.1-.1-.1-.1-.2s.2-.2.3-.2c.5.7 1 1.4 1.3 1.9 0 .1-.2.2-.3.2-.1-.1-.1-.1-.1-.2-.3-.4-.7-.1-1.1.2-.6.4-1.1.8-1.6 1.1-.6.4-.7.5-.5.9.1.2.2.3.2.4.1.2.3.4.5.5.2.1.4.1.6.1.1 0 .3-.1.4-.1.1.1.2.2.2.4-.2 0-.7.2-1.3.4z" class="st3"/><path id="Path_163" d="M63.8 27.4c-.4-1.2-.9-2.3-1.5-3.5.1-.1.2-.2.3-.2 0 .1.1.1.1.2.2.3.4.3 1.1 0 .5-.2 1.5-.7 1.8-.8.4-.2.9-.3.7-.8 0-.1 0-.1-.1-.2.1-.1.2-.2.3-.2.4.8.7 1.6.9 2.1 0 .1-.2.2-.4.2 0-.1-.1-.1-.1-.2-.2-.4-.7-.2-1.1 0-.6.3-1.2.5-1.8.8-.6.3-.8.3-.7.8 0 .2.1.3.2.5s.2.4.4.6c.2.1.4.2.7.2h.4c.1.1.2.2.1.4-.2 0-.7.1-1.3.1z" class="st3"/><path id="Path_164" d="M44.4 8.9c0-.4.1-.8.2-1.2.2 0 .3 0 .4.1 0 .5-.1 1.1.7 1.5.4.2.8 0 1-.3.2-.4 0-.8-.6-1.3-.8-.7-.9-1.2-.8-1.6.1-.5.6-1.5 2-1l1.2.6c0 .4-.1.7-.2 1.1-.1.1-.3 0-.4-.1.1-.5-.1-1-.6-1.1-.7-.3-1 .1-1.1.4 0 .2.2.4.8 1 .5.5 1.1 1 .8 1.9-.3.8-1.2 1.1-2 .8h-.1c-.5-.2-.9-.5-1.3-.8z" class="st3"/><path id="Path_165" d="M41.6 65.4c.2.4.3.8.3 1.1-.1.1-.3.1-.4.1-.2-.4-.4-1.1-1.3-.9-.6.1-.8.4-.8.8 0 .5.4.7 1.1.9 1 .3 1.3.6 1.5 1 .2.5.2 1.6-1.4 1.8-.5.1-.9.1-1.4 0-.1-.3-.2-.7-.3-1.1.1-.1.3-.2.4-.1.1.5.5.8 1 .8.8-.1.8-.6.8-.8-.1-.4-.3-.4-1.1-.7-.6-.2-1.4-.4-1.5-1.3-.1-.8.6-1.6 1.4-1.7h.1c.6-.1 1.2-.1 1.6.1z" class="st3"/><path id="Path_166" d="M15.4 56.6c-.2.3-.4.7-.8.9-.1-.1-.3-.2-.4-.3.2-.4.7-.9.1-1.6-.2-.3-.7-.4-1.1-.2-.4.3-.4.7-.1 1.4.3 1 .2 1.5 0 1.8-.3.4-1.2 1-2.2-.1-.3-.3-.6-.7-.8-1.1.2-.3.5-.6.7-.8.2 0 .2.1.3.3-.3.3-.4.9-.1 1.3.5.6.9.4 1.1.2.3-.3.2-.5 0-1.3-.2-.7-.4-1.4.2-2 .7-.5 1.6-.4 2.2.3.6.2.8.6.9 1.2z" class="st3"/><path id="Path_167" d="M22.3 11.9c-.1-.1-.2-.2-.2-.3.1 0 .1-.1.2-.1.3-.3.4-.4 0-1.1-.3-.6-.8-1.4-1-1.8s-.4-.8-.8-.6c-.1 0-.1 0-.2.1-.1 0-.2-.2-.2-.3.8-.4 1.5-.8 2-1.1.1 0 .2.2.2.4 0 0-.1.1-.2.1-.4.3-.2.6 0 1.1l.9 1.8c.3.6.5.8.9.6.1 0 .2-.1.2-.1.1.1.2.2.1.4-.4.1-1.4.6-1.9.9z" class="st3"/><path id="Path_168" d="M25.9 9.9c-.3-.3-.5-.7-.6-1 .1-.1.2-.2.4-.2.3.4.6 1 1.5.7.4-.1.7-.5.6-.9-.1-.5-.5-.6-1.3-.6-1.1-.1-1.4-.3-1.6-.7-.3-.5-.5-1.5 1-2 .4-.1.9-.2 1.3-.3.2.3.4.6.5 1-.1.1-.2.2-.4.2-.2-.5-.7-.7-1.2-.5-.7.2-.7.7-.6 1 .1.3.4.4 1.2.5.7.1 1.5.1 1.8 1 .2.8-.2 1.7-1.1 1.9-.5-.1-1 0-1.5-.1z" class="st3"/><path id="Path_169" d="M18.3 14.3c-.3-.2-.6-.5-.9-.8.1-.1.2-.3.3-.3.4.3.9.8 1.6.2.4-.2.5-.6.3-1s-.6-.4-1.4-.3c-1.1.2-1.5.1-1.8-.2-.4-.4-.9-1.3.4-2.2.4-.3.8-.5 1.2-.7.3.2.5.5.7.8 0 .1-.1.3-.3.3-.3-.4-.9-.5-1.3-.2-.6.4-.5.9-.3 1.1.2.3.5.2 1.3.1.7-.1 1.4-.3 2 .4.5.7.3 1.6-.4 2.1h-.1c-.4.5-.8.7-1.3.7z" class="st3"/><path id="Path_170" d="M62.9 48.4c.1-.1.3 0 .3.1l-.1.2c-.1.3 0 .5.7.8.6.3 1.3.6 1.8.8.5.2.8.4 1 0 0-.1.1-.1.1-.2.1 0 .3 0 .3.2-.1.2-.4.9-.6 1.3 0 .1-.1.1-.1.2h-.5c-.1 0-3.6.8-4 .9.3.2 1.4.9 1.7 1.1.6.4.8.5 1.1.1 0-.1.1-.1.1-.2.1 0 .3.1.3.2-.3.6-.8 1.2-1.1 1.6-.1.1-.3-.1-.3-.2s.1-.1.1-.2c.2-.3.1-.5-.6-.9-.5-.3-2.6-1.7-2.8-1.8v-.3c.7-.2 4.9-1.2 5.2-1.2-.3-.1-1.7-.8-2.2-1-.7-.3-.9-.3-1.1 0-.1.1-.1.2-.1.2-.2 0-.3-.1-.3-.2.5-.2 1-1.2 1.1-1.5z" class="st3"/><path id="Path_171" d="M7.9 34.4c-.1.1-.3.1-.4 0v-.2c0-.3-.2-.5-.9-.6-.7-.1-1.4-.1-1.9-.2s-.9-.2-1 .3v.2c-.1.1-.3.1-.4 0 0-.3.1-1 .2-1.4v-.2c.2 0 .3-.1.5-.2 0-.1 3-2 3.3-2.2-.3-.1-1.6-.4-2-.5-.7-.2-.9-.2-1.1.3 0 .1-.1.2-.1.2-.1.1-.3 0-.4-.1.1-.7.3-1.4.4-1.9.1-.1.3 0 .4.1 0 .1 0 .1-.1.2-.1.3.1.5.8.7.5.1 3 .8 3.2.8.1.1.1.2.1.3-.6.4-4.3 2.7-4.5 2.8.3 0 1.9.2 2.4.2.8 0 .9 0 1-.3 0-.1 0-.2.1-.2.1-.1.3 0 .4.1.2.4.1 1.5 0 1.8z" class="st3"/><path id="Path_172" d="M13.6 19.5c-.1 0-.3 0-.3-.2v-.1s.1-.1.1-.2c.2-.3.1-.5-.5-1-.5-.4-1.1-.9-1.5-1.2s-.7-.6-1-.3c-.1.1-.1.1-.1.2-.1 0-.3-.1-.3-.2.1-.2.6-.8.9-1.1.1-.1.1-.1.1-.2.2 0 .3.1.5.1h4.1c-.2-.3-1.1-1.2-1.4-1.5-.5-.5-.6-.7-1-.3-.1 0-.1.1-.2.1s-.2-.1-.3-.3c.5-.5 1-1 1.4-1.3.1 0 .3.2.3.3-.1 0-.1.1-.1.1-.2.3-.2.4.4 1 .4.4 2.1 2.3 2.3 2.4 0 .1 0 .2-.1.3h-5.3c.3.2 1.5 1.2 1.9 1.5.6.5.8.5 1.1.2.1 0 .1-.1.2-.2.1 0 .3.1.3.3-.6.5-1.3 1.3-1.5 1.6z" class="st3"/><path id="Path_173" d="M10.7 49.3c-.1 0-.3 0-.4.2 0 .1.1.2.1.2.1.4 0 .5-.6.9-.2.1-.4.2-.7.4l-1-2.2c.3-.1.6-.2.8-.3.8-.3.9-.3 1.1.1 0 .1.1.1.1.2.1 0 .3-.1.4-.2-.3-.6-.6-1.5-.8-2-.1 0-.3 0-.4.1 0 .1 0 .2.1.2.1.4-.1.5-.7.8-.4.1-1.2.5-1.8.7-.4.2-.8.4-1-.1 0-.1-.1-.1-.1-.2-.1 0-.3 0-.4.2.2.5.5 1.3.8 2 .1 0 .3 0 .4-.2 0-.1 0-.1-.1-.2-.1-.4.2-.6.7-.8.1 0 .4-.2.6-.3l1.1 2.3-.6.3c-.4.2-.8.4-1 0 0 0 0-.1-.1-.2-.1 0-.3.1-.3.2.2.5.6 1.2 1 1.9.1 0 .3-.1.3-.2s0-.1-.1-.2c-.2-.4.1-.6.6-.9.3-.2 1.3-.7 1.7-.9.7-.4.8-.4 1.1-.1 0 .1.1.1.1.2.1 0 .3-.1.3-.2-.5-.3-.9-1.2-1.2-1.7z" class="st3"/><path id="Path_174" d="M56.2 14.7c-.1.2-.2.3-.3.5-.6-.2-1.1-.6-1.6-1-.9-.5-1.3-1.3-1.3-2.2 0-1 .6-1.8 1.5-2.2 1-.3 2-.1 2.8.5.5.3.9.8 1.2 1.2-.2.3-.5.7-.7 1.1-.1 0-.3-.1-.3-.2.1-.2.2-.5.2-.8-.1-.4-.3-.8-.6-1-.8-.6-2-.4-2.6.4-.1.1-.1.2-.2.3-.6.8-.5 1.9.2 2.5l.3.3c.3.2.4.2.6-.1l.3-.3c.2-.3.2-.3 0-.6l-.3-.3c0-.2.1-.3.3-.3.5.5 1.1.9 1.7 1.3 0 .1-.1.3-.2.3s-.1-.1-.2-.1c-.2-.1-.3-.1-.5.2-.2.4-.3.4-.3.5z" class="st3"/><path id="Path_175" d="M10.8 24.2c-.1 0-.3-.1-.4-.2l.1-.1c.1-.4.1-.6-.6-1-.6-.3-1.3-.7-1.7-.9-.5-.3-.8-.5-1.1 0H7c-.1 0-.3-.1-.3-.2.6-1.2 1.3-2.4 2-3.5.3.1.8.4 1.1.6 0 .2 0 .3-.2.4-.1-.1-.3-.1-.4-.1-.3-.1-.6 0-.7.3-.2.3-.4.6-.6 1-.1.2 0 .2.1.3s1.1.6 1.2.7l.7-1.2c.2 0 .3.1.4.2 0 0-.6 1.2-.7 1.2s.7.4.8.5c.6.4.7.2 1-.2.1-.2.2-.3.2-.4.2-.3.1-.8-.1-1-.1-.1-.1-.2-.2-.2 0-.2.1-.3.3-.3.1.1.9.7 1 .9-.6.9-1.3 2-1.8 3.2z" class="st3"/><path id="Path_176" d="M52.4 60.9c.1.1.2.2.2.3l-.1.1c-.3.2-.4.4 0 1.2.3.6.7 1.2 1 1.7.3.5.4.8.9.6.1-.1.1-.1.2-.1.1.1.2.2.2.3-1.1.7-2.3 1.4-3.5 2-.2-.3-.5-.8-.6-1 0-.2.2-.3.4-.3l.3.3c.2.2.5.2.8.1.3-.2.7-.3 1-.5.2-.1.2-.2.1-.3s-.6-1.1-.7-1.2l-1.2.7c-.1-.1-.2-.3-.2-.4l1.2-.7s-.4-.7-.5-.8c-.3-.7-.5-.6-1-.3-.1.1-.3.2-.4.2-.3.2-.5.6-.4 1v.3c-.1.1-.3.2-.4.1-.2-.4-.3-.9-.4-1.3 1-.7 2.1-1.3 3.1-2z" class="st3"/><path id="Path_177" d="M65.5 30.3c1.3-.8 1.5-1 2.6-1.6.4-.2.5-.3.7 0 0 .1 0 .1.1.2s.3 0 .4-.1c-.2-.7-.4-1.4-.6-2.2-.1-.1-.3 0-.4.1 0 .1 0 .2.1.3 0 .4-.1.5-.5.8-.3.2-3.2 2-3.3 2.1-.1 0-.1.1 0 .2 0 0 .3.4.4.6 1.2.2 3 .5 3.7.6s.8.3.9.5v.2c.1.1.3.1.4 0-.1-.5-.2-1.3-.3-1.8-.1-.1-.3-.1-.4 0v.2c0 .3 0 .4-.6.3-1.1 0-2.3-.2-3.2-.4z" class="st3"/><path id="Path_178" d="M64.9 45.6c1.6-.1 1.8-.1 3-.1.4 0 .6 0 .6.3v.2c.1.1.2.2.4.1.2-.7.4-1.4.6-2.2-.1-.1-.2-.2-.4-.1 0 .1-.1.2-.1.2-.2.3-.3.4-.9.5-.3 0-3.8.2-3.9.2-.1 0-.1.1-.1.1v.7c1 .8 2.4 1.9 2.9 2.4s.6.7.5.8c0 .1-.1.2-.1.2.1.1.3.2.4.2.2-.5.5-1.2.6-1.7-.1-.1-.2-.2-.4-.2 0 .1 0 .1-.1.2-.1.2-.2.4-.7 0-.7-.5-1.6-1.2-2.3-1.8z" class="st3"/><path id="Path_179" d="M55.6 59.5c1.4.8 1.5.9 2.6 1.5.4.2.5.3.3.6l-.1.1c0 .2.2.3.2.3.5-.5 1.1-1 1.7-1.6 0-.2-.2-.3-.3-.3l-.2.2c-.3.2-.5.2-1-.1-.3-.2-3.3-1.9-3.4-1.9h-.2s-.3.5-.4.7c.4 1.2 1 2.9 1.2 3.6s.1.9 0 1c-.1.1-.1.1-.2.1 0 .1.1.3.2.3.4-.3 1.1-.8 1.5-1.1 0-.2-.1-.3-.2-.3 0 .1-.1.1-.2.1-.2.1-.4.2-.6-.4-.2-.8-.6-1.9-.9-2.8z" class="st3"/><g id="Group_7"><path id="Path_180" d="M47.5 68c-.3-.9-.8-2.3-1-2.7-.2-.7-.4-.8-.8-.7-.1 0-.2 0-.3.1-.1-.1-.1-.2-.1-.4.7-.2 1.5-.5 2.1-.8.1.1.2.2.2.4-.1 0-.1.1-.2.1-.3.2-.4.3-.1 1.1.2.5.6 1.5.7 1.8.3.8.3.9.8.7.1 0 .1 0 .2-.1.1 0 .2.3.2.4-1.2.5-1.9.7-2.1.8s-.4.1-.6.2c-.6.3-1.4 0-1.6-.7 0-.1 0-.1-.1-.2-.2-.6.1-1.1.6-1.4-.4-.3-.9-.7-1.3-.9-.3-.2-.6-.3-1-.3h-.2c-.1-.1-.1-.2-.1-.4.1 0 .7-.2 1.3-.3.3.2 2 1.3 2.3 1.5v.2c-.3.1-.5.3-.6.6 0 .2 0 .5.1.7.1.2.2.4.5.6.2.1.5.1.7.1.2-.1.3-.1.5-.2-.2-.1-.1-.2-.1-.2z" class="st3"/></g><path id="Path_181" d="M27.1 64c-.1.1-.2.2-.1.3.1 0 .1 0 .2.1.3.2.2.3-.1.6-.2.2-.3.3-.3.4-.2-.1-1.3-.5-1.5-.6v-.5c0-.3 0-.6.4-.5.1 0 .1 0 .2.1.1-.1.2-.2.1-.4-.3-.1-1-.4-1.8-.8-.1.1-.2.2-.2.3.1 0 .2.1.2.1.4.3.3.7.3 1s-.1 3.8-.1 3.9 0 .1.1.1h.6c.2-.2 2-2.3 2.5-2.8.5-.6.7-.6.9-.5h.2c.1-.1.2-.2.1-.4-.7 0-1.5-.3-1.7-.4zm-2 3.3.1-2 1.3.5-1.4 1.5z" class="st3"/><path id="Path_182" d="M8.7 43.8c-.1-.1-.3 0-.4.1v.2c0 .4-.1.4-.6.3-.3 0-.4 0-.5-.1 0-.3-.2-1.5-.3-1.7.2-.1.2-.1.4-.3.3-.2.5-.3.6 0v.2c.1.1.3 0 .4-.1-.1-.3-.2-1-.3-2-.1-.1-.3-.1-.4 0v.3c0 .5-.4.6-.7.8s-3.3 2-3.3 2v.1s.3.4.4.5c.2 0 3 .5 3.7.6.8.1.8.3.9.5 0 .1.1.1.1.2.1.1.3 0 .4-.1 0-.1-.4-1.3-.4-1.5zm-3.9.1 1.8-1 .3 1.3-2.1-.3z" class="st3"/><path id="Path_183" d="M65.8 35.5c-.1.1-.3.1-.4 0-.1-.8-.1-1.2-.1-1.8.1-.1.2-.2.4-.1v.2c.1.3.1.4.8.5.5 0 1.9.1 2.1.1.5 0 1 0 .9-.5v-.2c.1-.1.3-.1.4 0 .1.7.1 1.1.1 1.8-.3 0-.6.1-.9.2-.5.2-1.9.9-2.5 1.2.3.2 2.3 1.1 2.4 1.2.3.2.6.3 1 .3 0 .5-.1 1.2-.1 1.8-.1.1-.3.1-.4 0V40c0-.3 0-.4-.6-.4h-2.2c-.7 0-1 .1-1 .4v.3c-.1.1-.3 0-.4 0 .1-1.1.1-1.5.2-2.1.1-.1.3-.1.4 0v.2c0 .2 0 .4.8.4.7 0 2.2 0 2.6-.1-.4-.2-1.8-.8-2.5-1.2-.7-.4-1-.5-1.2-.6-.1-.1-.1-.2 0-.3.4-.2.8-.3 1.2-.5.6-.3 2.2-1 2.5-1.1-.6 0-2 0-2.4-.1-.5 0-1 0-1 .4" class="st3"/><path id="Path_184" d="M32.5 68.7c-.1.2-.2.3-.3.5-.2.2-.5.3-.8.2l-.6-.1s.4-2.2.5-2.8c.1-.8.2-.9.6-.9h.2c.1-.1.1-.3.1-.4-.6-.1-1.6-.3-2.2-.4-.1.1-.1.2-.1.4.1 0 .2.1.2.1.4.2.4.4.3 1-.1.4-.6 2.8-.6 2.8-.3-.1-.6-.1-.8-.2-.3-.1-.5-.3-.5-.6v-.4c-.1-.1-.3-.1-.4-.1 0 .2-.2 1.1-.3 1.3 1.4.4 2.9.7 4.4.8 0-.1.5-1 .5-1.1.1 0-.1-.1-.2-.1z" class="st3"/><path id="Path_185" d="M21.6 65.3c-.1.2-.3.3-.4.4-.3.1-.6 0-.8-.1-.1-.1-.3-.2-.5-.3 0 0 1.2-1.9 1.5-2.4.4-.7.5-.8.9-.6.1 0 .1.1.2.1.1-.1.2-.2.2-.3-.6-.3-1.4-.8-1.9-1.2-.1.1-.2.2-.2.3l.2.2c.3.3.2.5-.1 1.1-.2.3-1.5 2.4-1.5 2.4-.3-.2-.6-.3-.7-.4-.2-.2-.3-.5-.2-.7 0-.1.1-.2.1-.4-.1-.1-.2-.2-.3-.2-.1.2-.6.9-.7 1.1 1.2.9 2.5 1.7 3.8 2.3l.9-.9c-.2-.3-.4-.4-.5-.4z" class="st3"/><path id="Path_186" d="M7.4 37v.2c0 .4-.1.6-.8.7h-.8v-1.3c-.2-.1-.3-.1-.5 0v1.3c-.1.1-1.3.1-1.4.1s-.2 0-.2-.2v-1c0-.8 1-.9 1.2-.9.1-.2.1-.3-.1-.5-.4 0-1.3.1-1.6.2 0 1.4 0 2.7.1 4.1h.4v-.2c0-.5.3-.5.9-.6.4 0 1.2 0 2-.1.9-.1.9.1 1 .5v.2H8c-.1-.8-.1-1.7-.1-2.4-.2-.1-.3-.1-.5-.1z" class="st3"/><path id="Path_187" d="M23.1 15.4c-.4.1-.5.8-.6 1s-.1.7-.1.7h-.2c-.2 0-.4-.4-.4-.6 0-.1 0-.3-.1-.5.1 0 .2.1.2 0 .2-.1.2-.3.2-.6 0-.1-.1-.3-.2-.3h-.2v-.2c0-.1-.1-.1-.1-.2h-.4c-.1 0-.2.1-.3.1-.1 0-.1.1-.1.2s0 .2.1.2c-.1 0-.1 0-.2.1s-.1.2-.1.4c.1.3.2.5.4.5.1 0 .2 0 .2-.1 0 .1.1.3.1.5 0 .3 0 .5-.2.7-.1 0-.1.1-.2 0l-.4-.6c-.3-.4-.5-.8-.8-.8-.1 0-.3.1-.3.2-.1.2-.1.5.1.7.1.2.4.2.6.2.2.4.4.7.5 1.1.1.3.3.7.4 1 .1.3.4.4.7.5 0 0 .1 2.6 1 7.7 0 .2.5.2.7.2s.6-.2.5-.5c-.8-5.1-1.4-7.6-1.3-7.5.3-.1.5-.4.5-.8v-1.2c0-.4 0-.8.1-1.2.2 0 .4-.1.5-.3.1-.2.1-.5 0-.7-.3.1-.4 0-.6.1z" class="st3"/><path id="Path_188" d="M22.5 33.3c.4.4 1 .6 1.5.5.6 0 1.1-.4 1.3-.9.2.2.6 2.1-1 2.3-.9.1-1.7-.5-1.8-1.3-.1-.3-.1-.5 0-.6z" class="st3"/><path id="Path_189" d="M25.8 30.1c-.1-.1-.2-.2-.3-.2.1-.1.2-.2.2-.3.1-.2.1-.5 0-.7-.1-.2-.3-.2-.4-.2 0-.1.1-.2.1-.2.1-.2 0-.4-.1-.5-.2-.2-.8-.3-.9-.1-.2.3-.6.5-1 .6-.4.1-.8 0-1.2-.2-.3-.2-.4-.2-.6 0-.2.2-.4.5-.3.8 0 .4.3.5.3.7.1.3-.1.5-.1.7s.3.3.3.5v.6c0 .3.3.4.3.6.1.1 0 .5.1.6.1.2.3.2.6.2.6.1 1.2 0 1.8-.2.4-.1.8-.4 1-.8.1-.2 0-.5-.1-.7.1-.1.2-.2.3-.4.1-.4.1-.6 0-.8zm-1.6 1.2c-.1.1-.3 0-.3.1s.1.3.1.3-.3.1-.4 0-.1-.2-.1-.3h-.3c-.2-.1-.2-.2-.2-.4.1-.1.2 0 .3-.1 0-.1-.1-.2 0-.3 0 0 .3-.1.4 0s.1.2.1.3c.1 0 .3-.1.4 0 0 0 .1.3 0 .4z" class="st3"/><path id="Path_190" d="M31.7 17.1c.1-.6.3-1.3.6-1.9 0-.1-.2-.3-.2-.3-2.6.6-5 1.6-7.3 3-.6.4-.1 1.8.3 2.9 1.4 3.5 3.1 3 3.7 5.7.2.9 1 4.2 1.1 4.6.3.9 1.2 1.5 2.1 1.4-.3-4.3-.7-11.4-.3-15.4zm-4.1 2.8c-.1.4-.5 1.4-.8 1.3-.3 0-.5-1.1-.5-1.6 0-.3.1-.4.2-.4s.2.3.3.9h.2c.1-.6.4-.8.5-.8.1.2.1.4.1.6zm1.4-2.8c.1-.2.1-.4.2-.4s.2.3.1.8h.3c.2-.5.5-.6.5-.6.1.1.1.3 0 .5-.1.4-.7 1.2-.9 1.1-.2 0-.3-1.1-.2-1.4zm1.4 5.1c-.1.4-.7 1.4-1 1.4-.3-.1-.5-1.3-.4-1.8 0-.3.1-.4.2-.4s.2.4.2 1h.3c.2-.6.5-.8.6-.8.1 0 .2.3.1.6z" class="st3"/><path id="Path_191" d="M48.9 18.1c-2.4-1.4-4.9-2.5-7.6-3.1-.1 0-.3.2-.2.3.3.6.5 1.2.5 1.8.4 4 0 11.1-.3 15.4.9.1 1.8-.5 2.1-1.4.2-.4.8-3.8 1.1-4.6.6-2.2 3.3-3.1 4-5.5.5-1.1 1-2.6.4-2.9zM43.3 17c.1 0 .4.1.5.6h.3c-.1-.5 0-.8.1-.8s.2.1.2.4c.1.4 0 1.4-.2 1.5-.2.1-.8-.7-.9-1.1-.1-.4-.1-.6 0-.6zm.9 7.2c-.3.1-.9-.9-1-1.4-.1-.3-.1-.5 0-.6.1 0 .4.2.6.8h.3c0-.6.1-1 .2-1s.2.2.2.5c.2.4 0 1.6-.3 1.7zm2.7-2.8c-.2 0-.7-.9-.7-1.3 0-.3 0-.5.1-.5s.3.2.5.8h.3c0-.5.2-.9.3-.9.1 0 .2.2.2.4-.2.4-.4 1.5-.7 1.5z" class="st3"/></g><path id="Path_192" d="M39.6 10.2c0-.4-.2-.8-.6-.9v-.2c.3 0 .7 0 1 .2v.3c.5 1.1-.3 1.5-.3 2.4-.5-.3-1-.5-1.6-.5l-.5-1.2c.2 0 .4-.1.6-.1.5-.2 1-.1 1.4 0z" class="st3"/><path id="Path_193" d="M36.6 6.4c-1.2-.1-2.4.1-3.5.5-.2-.9-.5-1.8-1-2.6-.1 0-.3-.3-.4-.3s-.1-.1 0-.2h.4c.2 0 .3.1.3.4h.1v-.3c0-.1.2-.1.4.1.1 0 .2.1.2.2s.1.2 0 .3h-.3v.1c.2.3.6.5.9.4.5-.1.6-.4.6-.7 0 0-.1.1-.2.1s-.2 0-.3-.2c-.1-.1-.1-.3 0-.4 0 0 .2-.1.4 0v-.1c-.2 0-.3-.2-.3-.4 0-.1.1-.2.4-.3.3-.1.5.1.5.2 0 .2 0 .3-.2.4l.1-.1h.1c.1 0 .2 0 .3.3.1.4-.1.4-.2.4h-.2c.2.4.5.6 1 .6.4 0 .8-.4.8-.8-.1.1-.2.1-.2.1-.1 0-.2-.1-.3-.3 0-.2 0-.4.1-.4s.2 0 .3.1c-.1-.1-.2-.2-.2-.3 0-.1.2-.2.5-.2.2-.2.3-.1.3 0s0 .2-.2.3c.1-.1.2-.1.3-.1s.2.2.1.4c0 .2-.2.3-.3.3-.1 0-.2 0-.2-.1 0 .4.3.8.7.8.4.1.8-.2 1-.6-.1 0-.2.1-.2 0-.1 0-.3-.1-.2-.4.1-.3.2-.3.3-.3h.1s.1 0 .1.1c-.1-.1-.2-.3-.2-.4 0-.1.2-.2.5-.2s.4.2.4.3c0 .2-.1.3-.3.4v.1c.2-.1.3 0 .4 0V4c-.1.2-.3.2-.4.2s.1.1 0 .1c0 .3.1.6.6.7.4 0 .7-.1.9-.4v-.1c-.1 0-.2.1-.3 0-.1-.1-.1-.2 0-.3 0-.1.1-.2.2-.3.2-.2.4-.1.4-.1 0 .1.1.2 0 .3h.1c0-.2.2-.3.3-.4h.3c.1 0 0 .1 0 .2s-.3.3-.3.4c-.5.8-.8 1.7-1 2.6-1.1-.4-2.3-.5-3.5-.5" class="st3"/><path id="Path_194" d="M35.8 13.4c.3 0 .6-.5.6-.5h.3s.2.4.5.5c.9 0 1.8.2 2.7.6.3-.4.2-1-.5-1.4-.7-.3-1.4-.5-2.1-.4-.7.7-1.4-.2-2.2.1.3-.3.7-.7 1-.7.1.1.2.1.4.2.3.1.5 0 .8-.2.1-.1-.3-2.6-.3-2.6.6-.4 1.3-.6 2-.6.4 0 .9.2 1.1.5.4-1.7-1.8-1.6-3.4-1.6-4.3 0-3.2.9-3 2.3 0 .4-.6.8 0 2.2.1.3.2.5.2.8-.5.3-.7.9-.5 1.4.7-.4 1.5-.6 2.4-.6m.5-4.5c-.1.6-.3 1.3-.3 1.3-.3-.1-.5-.1-.8-.1h-1.3c0-.5.3-.8.8-.9l-.9-.2c.6-1.4 2.2-.2 2.5-.1z" class="st3"/><path id="Path_195" d="M39.6 14.4c-2-.4-4.1-.4-6.1 0-.4 1.5-.8 4.5-.1 5.5.7.5 1.6.7 2.5.4.3-.2.3-1.6.3-2.2.1-.9.1-1 .2-1h.4c.2.1.1 2.9.5 3.2.9.3 1.9.1 2.7-.4.6-.8 0-4.6-.4-5.5zm-3 1.3c-1 0-1.3-.3-1.3-.9.4.1.9.2 1.3.2s.8 0 1.2-.2c0 .6-.3.9-1.2.9z" class="st3"/></g><path id="Path_196" d="M36.6 42c-2.8 0-5.7.2-8.5.7-.6-1.6-1.5-3.1-2.5-4.4l-.9-.9c-.1-.1-.2-.3 0-.4.3-.1.6-.1.9 0 .4 0 .8.4.8.8l.2.1c-.1-.2 0-.5.1-.7.1-.1.5-.3 1 .2.2.2.4.4.4.7.1.3.2.5-.1.7-.2.1-.5.1-.7 0v.2c.6.7 1.4 1 2.3.9 1.2-.2 1.5-.8 1.4-1.6l-.1-.1c-.1.1-.2.2-.4.2-.4 0-.8-.2-.9-.5-.2-.4-.2-.7-.1-.8s.4-.2 1-.1v-.1c-.6-.2-.8-.6-.7-.8s.1-.6.9-.7c.8-.2 1.1.2 1.2.4.1.3-.1.7-.4.9l.1.1c.1-.1.2-.2.3-.2.1-.1.2-.1.3-.1.2 0 .5.1.7.7.2.8-.3.9-.5.9s-.4 0-.6-.1c0 0-.1 0-.1.1.4.9 1.4 1.4 2.4 1.3 1 0 1.8-.8 1.9-1.8v-.1h-.1c-.2.2-.4.3-.6.3-.4 0-.6-.3-.8-.7-.2-.5.1-.8.3-.9.3-.1.5 0 .8.2l.1-.1c-.2-.2-.4-.5-.4-.7.1-.3.4-.5 1.1-.5.7 0 1 .2 1.1.5.1.2-.1.5-.3.7 0 0 0 .1.1.1.2-.2.5-.2.7-.2.3.1.5.4.3.9-.1.5-.4.7-.8.7-.2 0-.4-.1-.6-.3h-.1c0 1 .7 1.8 1.7 1.9h.1c1 .1 1.9-.4 2.3-1.3 0 0 0-.1-.1-.1-.2.1-.4.1-.6.1-.2 0-.7-.2-.5-.9.1-.6.4-.7.7-.7.1 0 .2 0 .3.1s.2.1.3.2l.1-.1c-.3-.2-.4-.6-.4-.9.1-.2.4-.5 1.2-.4.7.1.9.5.9.7s-.1.6-.7.8v.1c.5-.1.9-.1 1 .1.1.1.1.4-.1.8-.1.4-.5.6-.9.5-.2 0-.3-.1-.4-.2 0 0-.1 0-.1.1-.1.7.2 1.4 1.5 1.6.9.1 1.7-.2 2.3-.9v-.2c-.2.1-.5.1-.7 0-.3-.2-.2-.5-.1-.7.1-.3.2-.5.4-.7.5-.5.9-.3 1-.2.1.2.2.5.1.7l.2-.1c0-.4.4-.8.8-.8h.8c.2.1.1.3 0 .4l-.9.9c-1.1 1.3-1.9 2.8-2.5 4.4-2.2-.5-5.1-.8-7.9-.7z" class="st3"/><g id="Group_10"><path id="Path_197" d="M34.1 56.8c.2 0 .3-.1.4-.3h-.6c0 .1.1.3.2.3z" class="st3"/><path id="Path_198" d="M34.2 50.7h-.7c0 .2.1.3.2.3.3 0 .4-.1.5-.3z" class="st3"/><path id="Path_199" d="M40.3 52.6h.2c.4 0 .8-.3.8-.7v-.1c0-.4-.4-.8-.8-.7-1 0-.9 1-1.9 1.2h.5c.6 0 .9.1 1.2.3z" class="st3"/><path id="Path_200" d="M36.6 43.1c-2.8 0-5.5.2-8.3.6 0 .8.2 7.1.5 11.9.3 5.9 3.4 7.7 7.8 7.7 4.1 0 7.5-.9 7.8-7.7.2-4.9.4-11.2.5-11.9-2.8-.4-5.5-.6-8.3-.6zm.8 1.4c.3 0 .4.2.4.3h.2c0-.1 0-.3.4-.3s.4.2.4.3c0 .4-.6.6-.8.7h-.1c-.2-.2-.8-.3-.8-.7-.1-.1-.1-.3.3-.3zm-4.3.4h.3l-.2-.9h.1c.2.1.3.3.4.5h.1c0-.2.1-.3.2-.4h.2c.1.2.1.3.1.5h.1c.1-.2.2-.3.3-.5h.1l-.1.7c.3 0 1 1 1 1.9.3 0 1.6-.1 1.7-.1-.9 0-1.6-.7-1.6-1.5v-.3h.3c.4 0 .7.3.7.7 0 .2-.1.3-.2.3 0 .2.3.5 1 .5 1.4 0 1.3-1.5 3-1.5.7 0 1.5.2 1.5 1.3s-1.2 1.2-1.5 1.2c.2.2-.1.6.5.6s1.3-.2 1.5-.2c.5 0 .2.5.6 1 .3.3.3.3.3.5 0 .1-.1.3-.2.3v-.2h-.1c-.1 0-.1 0-.2-.2-.1 0-.2.1-.2.1v.2c0 .2-.2.2-.2.2v.2c-.1 0-.2-.1-.2-.2v-.2s0-.1-.1-.1h-.1s0 .2-.2.2h-.2s-.1 0-.1.1v.1c-.1 0-.1-.1-.1-.2 0-.2.2-.2.2-.3 0 0 0-.1-.1-.1H41.4s-.1.1-.1.2c0-.1-.1-.1-.1-.2 0-.2.2-.3.4-.3h.2c.2 0 .3-.1.3-.3-.9.2-1.8.3-2.7.4-1.5 0-.3-1.9-1.5-1.9s-1.5 1.3-2.8 1.3c-.3 0-.6 0-.9-.1 0 .4 0 .6-.4.6-.3 0-1.2.1-2.9.1-.1.5-.2.6-.5.6-.1 0-.2 0-.3-.1.1 0 .2 0 .2-.1l-.1-.1s0-.1.1-.1h-.1c-.2 0-.4.3-.6.3-.1 0-.2-.1-.2-.2l-.2.2c0-.2.1-.4.3-.4.2 0 .2 0 .2-.1v-.1h-.2c-.1 0-.2-.1-.2-.2-.1 0-.1 0-.2.1 0-.2.1-.3.3-.3.1 0 .2 0 .3.1v-.1c0-.1-.1-.1-.3-.2-.1 0 0-.2-.2-.2-.1 0-.2 0-.2.1.1-.2.3-.4.5-.4.4 0 .5.5 1 .5.7 0 1.4-.1 2.1-.2-.2-.1-.3-.3-.3-.6.1-.3.2-.6.3-.8h-.1c-.1 0-.2 0-.2-.2 0-.1 0-.2.1-.3h.2c0 .1.1.2.5.2s.5-.2.5-.4c0-.4-.2-.5-.6-.5-.3 0-.3 0-.3.1h-.2c-.1-.2-.2-.3-.2-.5.3 0 .4-.1.8-.1zm3.4 4.8h-.1c-.3 0-.3.6-.7.3-.1 0 0 .1 0 .2-.1-.1-.2-.2-.1-.3.1-.1.3-.2.3-.2l-.1-.1c-.2 0-.3.3-.5.1v-.1c-.1 0-.1 0-.2.1 0-.1.1-.2.2-.3.1 0 .3 0 .3-.1-.1-.1-.3.1-.3-.1-.1 0-.2 0-.2.1 0-.2.2-.3.4-.3s.5.2.8.3h.7c.2 0 .1-.1.1-.3-.1-.4 0-.8.4-1 .2-.2.5-.2.8-.2.1.1.1.2.2.3v.6c-.2 0-.5.1-.6.3-.1.2.1.4.1.6s-.1.2-.2.2h-.7v.1c0 .1-.1.3-.2.3-.3-.2-.4-.2-.6-.2.1 0 .1-.1.2-.1-.2-.2 0-.2 0-.2zm.9.6c.3 0 .4.2.4.3h.2c0-.1 0-.3.4-.3s.4.2.4.3c0 .4-.6.6-.8.7h-.1c-.3-.1-.9-.3-.9-.7 0-.1 0-.3.4-.3zm-4.9 3.4c-.1-.1-.2-.2-.3-.2-.3-.3-.5-.9-.7-1.2s-.5-.6-.5-.7h-.4c-.2 0-.5-.1-.5-.4 0 0 .1.1.2.1 0-.1.1-.1.1-.1.1 0 .1.1.2.1h.1v-.1c0-.2-.1-.2-.3-.2-.2 0-.3-.1-.3-.3 0 0 0-.1-.1-.1h-.1c.1-.1.3-.2.4-.2.2 0 .4.2.4.2.1 0 .1-.1.1-.1l-.2-.2v-.2c-.1-.1-.1-.1-.2-.1.1-.1.2-.1.3-.1.2 0 .4.2.5.4 0 0 .1 0 .1-.1v-.1c0-.1 0-.1.1-.2 0-.1-.1-.1-.2-.1h.2c.2 0 .3.2.3.3 0 .2-.1.4-.1.6.3.7.7 1.2 1.2 1.8-.3.4-.6.9-.3 1.2zm-.8-2.8s.1-.1.2-.1c.5 0 .5.7 1 .7.3 0 .3-.1.5-.1.1 0 .2.1.2.2 0 .2-.1.2-.4.2-1.2.1-.9-.6-1.5-.9zm.2-5.8c.5 0 .5.7 1 .7.3 0 .3-.1.5-.1.1 0 .2.1.2.2 0 .2-.1.2-.4.2-1.1 0-.8-.7-1.5-1 .1.1.1 0 .2 0zm-1.7-.4c.2 0 .4.3.4.3.1 0 .1-.1.1-.1 0-.1-.1-.1-.2-.2v-.2c-.1-.1-.1-.1-.2-.1.1-.1.2-.1.3-.1.2 0 .4.2.5.4 0 0 .1 0 .1-.1v-.1c0-.1 0-.1.1-.2 0-.1-.1-.1-.2-.1h.2c.2 0 .3.2.3.3 0 .2-.1.4-.1.6.3.7.7 1.2 1.2 1.8-.1.2-.4.7-.1 1-.1-.1-.2-.2-.3-.2-.3-.3-.5-.9-.7-1.2s-.6-.6-.6-.6h-.4c-.2 0-.5-.1-.5-.4.1 0 .1.1.2.1 0-.1.1-.1.1-.1H30.7c0-.2-.1-.2-.3-.2-.2 0-.3-.1-.3-.3h-.2c-.1-.2.1-.3.3-.3zm-.5 1.7c.3 0 .4.2.4.3h.3c0-.1 0-.3.4-.3s.4.2.4.3c0 .4-.6.6-.9.7h-.1c-.2-.2-.9-.3-.9-.7 0-.1 0-.3.4-.3zm-.4 6c0-.1 0-.3.4-.3.3 0 .4.2.4.3h.3c0-.1 0-.3.4-.3s.4.2.4.3c0 .4-.6.6-.9.7h-.1c-.3-.1-.9-.3-.9-.7zm.7 2.4c.2 0 .2 0 .2-.1v-.1H30c-.1 0-.2-.1-.2-.2-.1 0-.1.1-.2.1 0-.2.1-.3.3-.3.1 0 .2 0 .4.1v-.1c0-.1-.1-.1-.3-.2-.1 0 0-.2-.2-.2-.1 0-.1.1-.2.1.1-.2.2-.4.5-.4.4 0 .5.5 1 .5.6 0 1.3-.1 1.9-.2-.2-.1-.3-.3-.3-.6.1-.3.2-.6.3-.8h-.1c-.1 0-.2 0-.2-.2 0-.1 0-.2.1-.3h.2c0 .1.1.2.5.2s.5-.2.5-.4c0-.4-.2-.5-.6-.5-.3 0-.3 0-.3.1h-.2c-.1-.2-.2-.3-.2-.5s.1-.3.5-.3h.3l-.2-.9h.1c.2.1.3.3.4.5h.1c0-.2.1-.3.2-.4h.2c.1.2.1.3.1.5h.1c.1-.2.2-.3.3-.4h.1l-.1.7c.3 0 1 1.1 1 1.9.3-.1 1.6-.1 1.7-.1-.9 0-1.6-.7-1.6-1.5v-.3h.3c.4 0 .7.3.7.7 0 .2-.1.3-.2.3 0 .2.3.5 1 .5 1.4 0 1.1-1.5 2.9-1.5.7 0 1.6.3 1.6 1.3S41.1 53 40.8 53c.2.2-.2.9.4.8.5-.1 1-.2 1.5-.4.5-.1.2.5.7.9.3.2.4.3.4.4 0 .1 0 .3-.2.3v-.2s-.1 0-.2-.2c-.1.1-.2.1-.2.2s0 .1.1.2c0 .2-.1.2-.2.2v.2c-.1 0-.2-.1-.2-.2V55c0-.1 0-.1-.1-.1 0 0-.1 0-.1.1 0 0 0 .2-.2.3h-.2c-.1 0 0 .1 0 .1v.1c-.1 0-.1-.1-.2-.2 0-.2.2-.2.2-.3 0-.1-.1-.1-.1-.1-.1 0-.1.1-.2.1h-.1c0 .1-.1.1-.1.2 0-.1-.1-.1-.1-.2 0-.2.2-.3.4-.4h.2c.2 0 .3-.2.3-.4-.9.3-1.8.4-2.7.5-1.5 0-.3-2-1.5-2S36.9 54 35.6 54c-.3 0-.6 0-.9-.1 0 .4 0 .6-.4.6-.3 0-1 .1-2.7.1-.1.5-.2.6-.5.6-.1 0-.2 0-.3-.1.1 0 .2 0 .2-.1l-.1-.1c0-.1 0-.1.1-.2h-.1c-.2 0-.4.3-.7.3-.1 0-.2-.1-.2-.2l-.2.2c-.2-.1-.1-.2.2-.2zm6.5.6h-.1c-.3 0-.3.6-.7.3-.1 0 0 .1 0 .2-.1 0-.2-.2-.1-.3.1-.1.3-.2.3-.2s0-.1-.1-.1c-.2 0-.3.2-.5.1v-.1c-.1 0-.1 0-.2.1 0-.1.1-.2.2-.3.1 0 .3-.1.3-.1v-.1c-.1-.1-.3.1-.3-.1-.1 0-.2 0-.2.1 0-.2.2-.3.4-.3s.5.2.8.3h.7c.2 0 .1-.1.1-.3-.1-.4 0-.8.4-1.1.2-.2.5-.2.8-.1.1.1.1.2.2.3v.6c-.2 0-.5.1-.6.3-.1 0 .1.2.1.4s-.1.2-.2.2h-.7v.1c0 .1-.1.2-.2.3-.1.1-.3.1-.4.1.1 0 .1-.1.2-.1-.4-.2-.2-.2-.2-.2zm.9.6c.3 0 .4.2.4.3h.2c0-.1 0-.3.4-.3s.4.2.4.3c0 .4-.6.6-.8.7h-.1c-.2-.1-.8-.3-.8-.7-.1 0-.1-.3.3-.3zM33 59.4c-.1-.1-.2-.1-.3-.2-.3-.3-.5-.9-.7-1.2-.2-.3-.4-.5-.5-.6h-.4c-.2.1-.5-.1-.5-.3 0 0 .1.1.2.1 0-.1 0-.1.1-.1h.1V57c0-.1-.1-.2-.2-.2s-.3-.1-.3-.3c0 0 0-.1-.1 0h-.1c.1-.1.2-.2.4-.2.1 0 .3.1.4.2v-.1s-.1 0-.1-.1l-.1-.1v-.1c-.1-.1-.1-.1-.2-.1.2-.1.2-.2.3-.2.2 0 .4.2.5.4.1 0 .1 0 .1-.1V56c0-.1 0-.2.1-.2 0-.1-.1-.1-.1-.1s.1 0 .1-.1c.2 0 .3.1.3.3 0 .2-.1.4-.1.6.3.6.7 1.2 1.2 1.7-.2.5-.4 1-.1 1.2zm-.9-2.7h.2c.4 0 .4.7 1 .7.2 0 .2-.1.4-.1.1 0 .2.1.2.2s-.1.2-.4.2c-1.1-.1-.8-.7-1.4-1zm-2.4 1.6c0-.1 0-.3.4-.3.3 0 .4.2.4.3h.2c0-.1 0-.3.4-.3s.4.2.4.3c0 .4-.6.6-.9.7h-.1c-.1-.1-.8-.3-.8-.7zm8.1 1.8c-.1.2.1.5.1.7s0 .2-.2.3c-.2.1-.4.1-.6.2.1.1.1.2.1.3 0 .2-.3.3-.5.3l.1-.1c-.2-.1 0-.2 0-.2h-.1c-.3.1-.1.6-.6.4-.1.1 0 .1 0 .2-.1-.1-.1-.2-.1-.3 0-.1.2-.3.2-.3s0-.1-.1 0c-.2 0-.2.3-.4.2v-.1c-.1 0-.1.1-.2.1 0-.1 0-.3.1-.3.1-.1.3-.1.3-.2-.1-.1-.2.1-.3 0-.1 0-.2.1-.2.1 0-.2.1-.3.3-.4.2-.1.5.1.8 0 .1 0 .3-.1.3-.1.1 0 .1 0 .2-.1.2 0 .1-.1 0-.3-.1-.5 0-1 .4-1.4.2-.2.5-.2.8-.1.1.1.1.2.1.3v.6c-.2-.1-.4 0-.5.2zm4.9.5v-.1c-.1 0-.1 0-.2-.1-.1.1-.1.1-.1.2s0 .1.1.1c0 .1 0 .2-.1.3v.2c-.1 0-.2-.1-.2-.2v-.1c0-.1 0-.1-.1-.1H42c0 .1 0 .2-.1.3h-.2v.2c-.1 0-.1-.1-.1-.2-.1-.2.1-.2.1-.4h-.1c0 .1-.1.1-.2.1h-.1v.2c0-.1-.1-.1-.1-.2 0-.2.1-.3.3-.4h.2c.2-.1.2-.2.2-.4-.7.4-1.5.7-2.3.8-1.3 0-.2-2.2-1.3-2.2-1 0-1.3 1.3-2.5 1.3-.3 0-.6 0-.8-.1 0 .4 0 .6-.3.6-.7.1-1.4.1-2 .1-.5.5-.7.5-.9.5-.1 0-.2 0-.2-.1.1 0 .2 0 .2-.1l-.1-.1s0-.1.1-.1h-.1c-.2 0-.4.3-.6.3-.1 0-.2-.1-.2-.2-.1 0-.1.1-.2.1 0-.2.1-.3.3-.3.2 0 .2 0 .2-.1v-.1H31c-.1 0-.2-.1-.2-.2-.1 0-.1.1-.2.1 0-.2.1-.3.3-.3.1 0 .2 0 .3.1v-.1c0-.1-.1-.1-.2-.2-.1 0 0-.2-.2-.2-.1 0-.2.1-.2.1.1-.2.2-.4.5-.4.4 0 .4.5 1 .5.5 0 .9-.1 1.3-.2-.2-.1-.3-.3-.3-.6s.2-.6.3-.8h-.2c-.1 0-.2 0-.2-.2 0-.1 0-.2.2-.3h.2c0 .1.1.2.4.2s.4-.2.4-.4c0-.4-.2-.5-.5-.5s-.3 0-.3.1h-.2c-.1-.2-.2-.3-.2-.5s.1-.3.5-.3h.3l-.1-.9h.1c.1.1.2.3.3.5h.1c0-.2.1-.3.2-.4h.1c0 .2.1.3.1.5h.1c.1-.2.2-.3.3-.4l-.1.7c.3 0 .9 1.1.9 1.9.3-.1 1.4-.1 1.6-.1-.8-.1-1.4-.5-1.4-1.8.1 0 .2 0 .2.1.3 0 .6.3.7.7 0 .1-.1.3-.2.3 0 .2.3.5.9.5 1.2 0 1.3-1.4 2.8-1.4.6-.1 1.2.4 1.3 1v.2c0 1-1 1.2-1.3 1.2.2.2-.3 1.1.2.9.4-.2.8-.4 1.3-.6.4-.1.3.5.7.8.3.2.3.3.4.3-.2.2-.2.4-.3.4zm.1-1.6h-.1c-.2-.2-.8-.3-.8-.7 0-.1 0-.3.4-.3.3 0 .4.2.4.3h.3c0-.1 0-.3.4-.3.5 0 .5.2.5.3-.2.4-.9.6-1.1.7zm.3-5.9H43c-.2-.2-.8-.3-.8-.7 0-.1 0-.3.4-.3.3 0 .4.2.4.3h.2c0-.1 0-.3.4-.3s.4.2.4.3c0 .4-.7.5-.9.7zm.1-5.7h-.1c-.2-.2-.8-.3-.8-.7 0-.1 0-.3.4-.3.3 0 .4.2.4.3h.2c0-.1 0-.3.4-.3s.4.2.4.3c0 .4-.7.5-.9.7z" class="st3"/><path id="Path_201" d="M40.9 57.6c0-.3-.3-.6-.6-.7h-.1c-.8 0-1 .9-1.9 1.1h.5c.6 0 .9.1 1.1.3h.1c.5.1.9-.3.9-.7z" class="st3"/><path id="Path_202" d="M40.3 46.9h.2c.5 0 .8-.3.9-.7 0-.4-.3-.7-.7-.8h-.1c-.9 0-1 1.1-2.1 1.2h.5c.7 0 1 0 1.3.3z" class="st3"/><path id="Path_203" d="M33.7 45.3c.2 0 .4-.1.5-.3h-.7c0 .1.1.3.2.3z" class="st3"/></g><path id="Path_204" d="M55.1 28.3c.3 0 .6.2.6.5v.2c0 .7-.3.9-.6.9-.5 0-.9-.3-.9-.8V29c0-.6.7-.7.9-.7z" class="st3"/><path id="Path_205" d="M51.5 28.6c.3 0 .5.2.7.5.1-.2.3-.4.5-.4.4 0 .6.3.8.7.2.5.5.8 1 .9 0 .7-.2 1.2-.8 1.2-.2 0-.4 0-.6-.1-.1.3-.4.4-.7.4-.3 0-.5-.2-.8-.4-.2.2-.4.3-.7.3-.3 0-.5-.2-.7-.5-.2.1-.3.1-.5.1-.5 0-.8-1-.8-1.3 0-.3.2-.5.5-.6.1 0 .2 0 .3.1-.1-.3.1-.6.4-.7h.1c.2 0 .4.1.5.2.3-.1.5-.4.8-.4z" class="st3"/><path id="Path_206" d="M51.4 24.4c-1.6.2-2.8 1.5-2.9 3.1 0 .4 0 .8.1 1.2.1-.1.2-.1.3-.1.2 0 .4.1.5.3 0-.3.1-.7.6-.7.2 0 .4.1.5.2.1-.3.4-.6.8-.6.3 0 .6.2.8.5 0-.3.3-.5.5-.5.6 0 .8.4 1 .8 0-.6.8-.8 1.4-.8h.2c.1-1.6-.9-3-2.5-3.4.3-2.7.2-2.9.1-3-.1-.1-.2-.2-.3-.2v-.4c.3 0 .5-.3.5-.5s-.2-1.5-.2-1.5c0-.1.1-.3.2-.2 0 0 1.2.5 1.4.5.3 0 .6-.3.6-.7 0-.3-.2-.5-.5-.5-.2 0-1.2.3-1.5.3-.1 0-.2-.1-.2-.3 0 0 .4-1.3.4-1.4 0-.3-.2-.5-.5-.5h-.1c-.3-.1-.5 0-.6.3v.1c0 .2.2 1.5.2 1.5 0 .1-.1.2-.2.2-.3-.1-1.3-.5-1.4-.5-.3 0-.6.3-.6.7 0 .3.2.5.5.5.2 0 1.4-.3 1.5-.3.1 0 .2.1.2.3 0 0-.4 1.3-.4 1.4 0 .3.1.5.4.6v.4c-.1 0-.2 0-.3.1-.2.1-.4.3-.5 3.1z" class="st3"/></g></g></g></g></g></g></g></svg>