<svg xmlns="http://www.w3.org/2000/svg" xml:space="preserve" id="Layer_1" x="0" y="0" version="1.1" viewBox="0 0 236 52"><style>.st1{fill:#1d1d1d}.st3{fill:#fff}</style><switch><g><path id="Line_00000058584806415239596220000012199692240716688035_" fill="#b2b2b2" d="M62.2.9h.7v50.6h-.7z"/><g id="DK_logotype_00000045579487017601269040000004196201059633626810_"><path d="M74.9 12.5c0-2-.1-2.1-1.4-2.3L73 10c-.2-.2-.2-.6.1-.7 1 .1 1.9.1 2.9.1s1.8 0 2.9-.1c.3.1.3.6 0 .7l-.6.1c-1.1.2-1.3.3-1.3 2.3V14c0 .6 0 .9.2 1 .2.1.6 0 .8-.2 1-.7 3.3-3.3 3.5-3.6.6-.7.7-1.1.2-1.2h-.5c-.3-.1-.2-.7.1-.7.8.1 1.7.1 2.6.1.8 0 1.5 0 2.5-.1.3.1.3.6.1.7-.5.1-1.4.3-2 .6-.7.4-1.4 1-2.7 2.2l-1.4 1.3c-.6.6-.6.7-.1 1.2l3.7 4.4c1.1 1.3 1.5 1.7 2.8 1.8h.4c.2.2.2.6-.1.7-.9-.1-1.6-.1-2.9-.1-1 0-1.9 0-2.9.1-.3-.1-.3-.6-.1-.7l.4-.1c.7-.1.8-.3.4-.8l-2.6-3.2c-.2-.3-1.1-1.6-1.6-1.6s-.5.3-.5 1.1V19c0 2 .1 2.1 1.4 2.3l.6.1c.2.2.2.6-.1.7-1.1-.1-2.1-.1-3-.1s-1.8 0-2.8.1c-.2-.1-.3-.6-.1-.7l.4-.1c1.2-.3 1.4-.3 1.4-2.3-.2 0-.2-6.5-.2-6.5zM102 10.3c1.7 1.2 2.6 3.2 2.6 5.4 0 4-3 6.8-7.1 6.8-1.4 0-2.7-.3-3.7-.9l-1.1 1.6c-.5-.1-.7-.3-.8-.6l1-1.4c-1.7-1.2-2.7-3.1-2.7-5.3 0-3.9 3-6.9 7.2-6.9 1.5 0 2.7.3 3.7.8l1-1.4c.4 0 .7.2.8.6l-.9 1.3zm-1.8.7c-.7-.7-1.7-1.2-3-1.2-2.1 0-4.5 1.4-4.5 5.6 0 1.5.4 3.1 1.2 4.3l6.3-8.7zm-5.6 9.5c.8.7 1.8 1.2 3 1.2 2.2 0 4.4-1.5 4.4-5.5 0-1.6-.4-3.1-1.2-4.3l-6.2 8.6zM110.6 12.8c0-1.9 0-2.4-.9-2.5l-.9-.1c-.3-.1-.2-.6 0-.7 1.5-.1 3.2-.2 4.9-.2 1.4 0 2.6 0 3.7.4s1.8 1.2 1.8 2.6c0 1.3-.9 2.1-2.3 2.6-.1.2.1.2.7.4 1.1.2 2.6 1.2 2.6 3.2 0 1.6-.8 2.5-1.9 3-1.1.5-2.6.7-4 .7-.6 0-1.6-.1-2.6-.1-.9 0-1.9 0-3.1.1-.2-.1-.3-.6-.1-.7l.6-.1c1.3-.2 1.4-.3 1.4-2.3l.1-6.3zm2.3 1.6c0 .5.1.5 1 .5 1.8 0 3.1-.4 3.1-2.3s-1.3-2.4-2.8-2.4c-1.2 0-1.3.3-1.3.8v3.4zm0 4.7c0 1.8.4 2.3 2.2 2.3 1.5 0 2.8-.7 2.8-2.6 0-2.3-1.8-3-3.7-3-1.3 0-1.4.1-1.4.5l.1 2.8zM126.8 12.5c0-2-.1-2.1-1.2-2.3l-.4-.1c-.2-.1-.2-.6.1-.7.9.1 1.8.1 2.7.1h4.2c1.3 0 2.5 0 2.7-.1l.3 3c-.1.2-.6.3-.8.1-.2-.8-.4-1.1-.5-1.4-.5-.7-1.8-.7-2.5-.7H130c-1 0-1.1 0-1.1.9v3.3c0 .5 0 .6.6.6h1.4c1.6 0 1.7-.2 1.9-1.1l.2-.6c.2-.2.6-.2.7.1-.1.9-.1 1.4-.1 2.1 0 .7 0 1.3.1 2.1-.2.2-.6.3-.7.1l-.2-.6c-.2-.9-.4-1.1-1.9-1.1h-1.4c-.6 0-.6.1-.6.7V19c0 .9.1 1.8.3 2.1.3.3.8.4 2.5.4 1.9 0 3-.1 3.8-2.4.2-.2.7-.2.8.1-.2 1.2-.6 2.7-.9 3.3-1.8-.1-3.4-.1-5-.1h-2.6c-.9 0-1.8 0-3.3.1-.2-.1-.3-.6-.1-.7l.8-.1c1.3-.2 1.4-.3 1.4-2.3l.2-6.9zM152.6 13.9c0-2.9-.2-3.7-1.3-3.8l-.9-.1c-.2-.2-.2-.6.1-.7 1.1.1 1.8.1 2.6.1s1.5 0 2.4-.1c.2.2.2.6 0 .7l-.9.1c-.8.1-1 .9-1 3.8v4.9c0 .6 0 3 .1 3.4-.1.2-.4.3-.6.3-.3-.4-.9-1-2.7-3l-4.5-4.7c-1.1-1.2-1.9-1.9-2.3-2.3-.1 0-.1.3-.1 1.2v3.9c0 2.9.2 3.7 1.3 3.8l.9.1c.2.2.2.6-.1.7-1.1-.1-1.8-.1-2.6-.1s-1.4 0-2.4.1c-.2-.1-.2-.6 0-.7l.9-.1c.8-.1 1-.9 1-3.8v-5.2c0-1 0-1.4-.6-1.8-.2-.2-.8-.4-1.1-.4l-.4-.1c-.2-.2-.2-.6.1-.7 1.1.1 1.9.1 2.5.1.4 0 .8 0 1.2-.1.6 1.1 1.7 2.4 2.9 3.6l2.8 2.8c.6.6 2.3 2.5 2.7 2.7.2-.1.2-.5.2-1.2v-3.4h-.2zM169.3 15c.9 0 1.1 0 1.1-.8v-1.8c0-2-.1-2.1-1.4-2.3l-.6-.1c-.2-.2-.2-.6.1-.7 1.1.1 2.1.1 3 .1s1.8 0 3-.1c.2.1.3.6.1.7l-.6.1c-1.3.2-1.4.3-1.4 2.3V19c0 2 .1 2.2 1.4 2.3l.7.1c.2.2.2.6-.1.7-1.2-.1-2.2-.1-3.1-.1-.9 0-1.8 0-3 .1-.2-.1-.3-.6-.1-.7l.6-.1c1.3-.2 1.4-.3 1.4-2.3v-2.3c0-.7-.1-.8-1.1-.8h-5.2c-1 0-1.1 0-1.1.8V19c0 2 .1 2.2 1.4 2.3l.8.1c.2.2.2.6-.1.7-1.4-.1-2.3-.1-3.2-.1s-1.8 0-2.8.1c-.2-.1-.3-.6-.1-.7l.3-.1c1.2-.3 1.4-.3 1.4-2.3v-6.6c0-2-.1-2.2-1.4-2.3l-.7-.1c-.2-.2-.2-.6.1-.7 1.3.1 2.2.1 3.1.1s1.8 0 2.9-.1c.2.1.3.6.1.7l-.4.1c-1.2.2-1.4.3-1.4 2.3v1.8c0 .8.1.8 1.1.8h5.2zM181.8 17.6c-.7 0-.8 0-1 .7l-.7 1.9c-.3.9-.2 1.1.3 1.2l.8.2c.2.2.2.7-.1.7-.7-.1-1.5-.1-2.3-.1s-1.5.1-2.1.1c-.3-.1-.3-.6-.1-.7l.7-.2c.9-.2 1.2-.5 1.8-1.9l2.8-6.7c.5-1.2.7-1.9.8-2.5.5-.2 1.1-.8 1.2-1.1.2-.1.4 0 .5.2.1.3.6 1.8 1.3 3.6l2.6 7c.4 1 .6 1.4 1.7 1.6l.5.1c.3.2.2.7-.1.7-.8-.1-1.4-.1-2.4-.1-1.1 0-1.9 0-2.6.1-.3-.1-.3-.6-.1-.7l.6-.1c.8-.1.7-.3.4-1.2l-.7-1.9c-.2-.7-.3-.7-1-.7l-2.8-.2zm2.3-1c.8 0 .9-.1.5-.9l-.9-2.5c-.2-.7-.4-.9-.4-1.1h-.1c-.1.1-.2.4-.5 1l-1.1 2.6c-.3.8-.3.9.4.9h2.1zM193.1 12.5c-.9-1.9-1-2.1-1.7-2.3l-1-.2c-.2-.2-.2-.6 0-.7.8.1 1.7.1 2.6.1 1.1 0 1.9 0 2.8-.1.2.1.3.6 0 .7l-.6.1c-.8.1-.8.5-.1 1.9l1.4 3.3c.7 1.7 1.2 2.8 1.7 3.7.6-1.2 1.1-2.5 1.6-3.7.6-1.4 1.4-3.4 1.7-4.2.2-.6.2-.8-.7-1l-.5-.1c-.3-.2-.2-.6.1-.7.9.1 1.6.1 2.4.1.9 0 1.6 0 2.1-.1.3.1.4.6.1.7l-.8.2c-.9.2-1.1.4-2 2.4l-2.2 4.8c-.9 1.9-1.7 4-2.1 5-.1.1-.2.1-.4.1-.1 0-.2 0-.4-.1-.3-.8-.6-1.7-1-2.5l-3-7.4zM220 13.9c0-2.9-.2-3.7-1.3-3.8l-.9-.1c-.2-.2-.2-.6.1-.7 1.1.1 1.8.1 2.6.1s1.5 0 2.4-.1c.2.2.2.6 0 .7l-.9.1c-.8.1-1 .9-1 3.8v4.9c0 .6 0 3 .1 3.4-.1.2-.4.3-.6.3-.3-.4-.9-1-2.7-3l-4.5-4.7c-1.1-1.2-1.9-1.9-2.3-2.3-.1 0-.1.3-.1 1.2v3.9c0 2.9.2 3.7 1.3 3.8l.9.1c.2.2.2.6-.1.7-1.1-.1-1.8-.1-2.6-.1s-1.4 0-2.4.1c-.2-.1-.2-.6 0-.7l.9-.1c.8-.1 1-.9 1-3.8v-5.2c0-1 0-1.4-.6-1.8-.2-.2-.8-.4-1.1-.4l-.4-.1c-.2-.2-.2-.6.1-.7 1.1.1 1.9.1 2.5.1.4 0 .8 0 1.2-.1.6 1.1 1.7 2.4 2.9 3.6l2.8 2.8c.6.6 2.3 2.5 2.7 2.7.2-.1.2-.5.2-1.2l-.2-3.4zM228.8 16.1c-1.4-.7-2.6-1.9-2.6-3.5 0-2.1 1.6-3.6 4.6-3.6 1 0 1.7.3 2.7.4.2.5.4 1.6.4 2.9-.1.2-.6.3-.8.1-.2-1-1-2.5-2.7-2.5s-2.4 1-2.4 2c0 1.1.8 1.7 2 2.3l1.8.9c1.1.5 2.4 1.8 2.4 3.7 0 2.3-1.9 3.7-4.8 3.7-1.8 0-3-.6-3.4-.9-.3-.4-.6-1.5-.6-3 .1-.3.6-.3.8-.1.2 1.1 1.5 3.1 3.5 3.1 1.5 0 2.5-.8 2.5-2.1 0-.9-.4-1.9-2.1-2.8l-1.3-.6zM74.6 33.2c0-2-.2-2.1-1.4-2.3l-.4-.1c-.2-.2-.2-.6.1-.7 1 .1 1.9.1 2.8.1s1.8 0 3-.1c.2.1.3.6.1.7l-.6.1c-1.3.2-1.4.3-1.4 2.3v4.1c0 2.9 1 4.9 3.8 4.9 2.6 0 3.8-2 3.8-4.9v-2.7c0-2.9-.2-3.6-1.4-3.8l-.6-.1c-.2-.2-.2-.6.1-.7.9.1 1.6.1 2.5.1s1.5 0 2.4-.1c.2.2.2.6 0 .7l-.9.1c-.8.1-1 .9-1 3.8v2.9c0 3.8-1.7 5.7-5.5 5.7-1.9 0-3.3-.4-4.2-1.2-.9-.9-1.3-2.2-1.3-4.1l.1-4.7zM102.7 34.6c0-2.9-.2-3.7-1.3-3.8l-.9-.1c-.2-.2-.2-.6.1-.7 1.1.1 1.8.1 2.6.1.9 0 1.5 0 2.4-.1.2.2.2.6 0 .7l-.9.1c-.8.1-1 .9-1 3.8v4.9c0 .6 0 3 .1 3.4-.1.2-.4.3-.6.3-.3-.4-.9-1-2.7-3L96 35.5c-1.1-1.2-1.9-1.9-2.3-2.3-.1 0-.1.3-.1 1.2v3.9c0 2.9.2 3.7 1.3 3.8l.9.1c.2.2.2.6-.1.7-1.1-.1-1.8-.1-2.6-.1-.9 0-1.4 0-2.4.1-.2-.1-.2-.6 0-.7l.9-.1c.8-.1 1-.9 1-3.8v-5.2c0-1 0-1.4-.6-1.8-.2-.2-.8-.4-1.1-.4l-.4-.1c-.2-.2-.2-.6.1-.7 1.1.1 1.9.1 2.5.1.4 0 .8 0 1.2-.1.6 1.1 1.7 2.4 2.9 3.6l2.8 2.8c.6.6 2.3 2.5 2.7 2.7.2-.1.2-.5.2-1.2l-.2-3.4zM111.6 33.2c0-2-.1-2.1-1.4-2.3l-.6-.1c-.2-.2-.2-.6.1-.7 1.1.1 2.1.1 3 .1.9 0 1.8 0 3-.1.2.1.3.6.1.7l-.6.1c-1.3.2-1.4.3-1.4 2.3v6.6c0 2 .1 2.1 1.4 2.3l.6.1c.2.2.2.6-.1.7-1.1-.1-2.1-.1-3-.1-.9 0-1.8 0-3 .1-.2-.1-.3-.6-.1-.7l.6-.1c1.3-.2 1.4-.3 1.4-2.3v-6.6zM122 33.3c-.9-1.9-1-2.1-1.7-2.3l-1-.2c-.2-.2-.2-.6 0-.7.8.1 1.7.1 2.6.1 1.1 0 1.9 0 2.8-.1.2.1.3.6 0 .7l-.6.1c-.8.1-.8.5-.1 1.9l1.4 3.3c.7 1.7 1.2 2.8 1.7 3.7.6-1.2 1.1-2.5 1.6-3.7.6-1.4 1.4-3.4 1.7-4.2.2-.6.2-.8-.7-1l-.5-.1c-.3-.2-.2-.6.1-.7.9.1 1.6.1 2.4.1.9 0 1.6 0 2.1-.1.3.1.4.6.1.7l-.8.2c-.9.2-1.1.4-2 2.4l-2.2 4.8c-.9 1.9-1.7 4-2.1 5-.1.1-.2.1-.4.1-.1 0-.2 0-.4-.1-.3-.8-.6-1.7-1-2.5l-3-7.4zM138.6 33.2c0-2-.1-2.1-1.2-2.3l-.4-.1c-.2-.1-.2-.6.1-.7.9.1 1.8.1 2.7.1h4.2c1.3 0 2.5 0 2.7-.1l.3 3c-.1.2-.6.3-.8.1-.2-.8-.4-1.1-.5-1.4-.5-.7-1.8-.7-2.5-.7h-1.3c-1 0-1.1 0-1.1.9v3.3c0 .5 0 .6.6.6h1.4c1.6 0 1.7-.2 1.9-1.1l.2-.6c.2-.2.6-.2.7.1-.1.9-.1 1.4-.1 2.1 0 .7 0 1.3.1 2.1-.2.2-.6.3-.7.1l-.2-.6c-.2-.9-.4-1.1-1.9-1.1h-1.4c-.6 0-.6.1-.6.7v2.1c0 .9.1 1.8.3 2.1.3.3.8.4 2.5.4 1.9 0 3-.1 3.8-2.4.2-.2.7-.2.8.1-.1 1.2-.6 2.7-.9 3.3-1.8-.1-3.4-.1-5-.1h-2.6c-.9 0-1.8 0-3.3.1-.2-.1-.3-.6-.1-.7l.8-.1c1.3-.2 1.4-.3 1.4-2.3v-6.9h.1zM153.6 33.5c0-1.9 0-2.4-.7-2.5l-.8-.1c-.2 0-.3-.6 0-.7 1.6-.1 3.3-.2 4.9-.2 2.7 0 5.7.4 5.7 3.5 0 1.9-1.5 2.7-2.6 3.1-.1.1-.1.3 0 .4 1.5 2.5 2.8 3.9 3.7 4.7.5.4 1.1.6 1.6.6.1.1.1.4 0 .5-.3.1-.7.2-1.2.2-1.8 0-2.8-.6-4.1-2.2-.7-.9-1.5-2.2-2.1-3.2-.2-.4-.7-.5-1.2-.5-.8 0-.8.1-.8.5v2.1c0 2 .1 2.2 1.4 2.3l.7.1c.2.2.2.6-.1.7-1.2-.1-2.2-.1-3.1-.1-.9 0-1.8 0-2.9.1-.3-.1-.3-.6-.1-.7l.4-.1c1.3-.3 1.4-.3 1.4-2.3v-6.2h-.1zm2.2 2.2c0 .7 0 .7 1.5.7 1.9 0 2.9-.8 2.9-2.8 0-1.5-1-2.8-3.1-2.8-1.1 0-1.3.1-1.3.8v4.1zM171.7 36.9c-1.4-.7-2.6-1.9-2.6-3.5 0-2.1 1.6-3.6 4.6-3.6 1 0 1.7.3 2.7.4.2.5.4 1.6.4 2.9-.1.2-.6.3-.8.1-.2-1-1-2.5-2.7-2.5s-2.4 1-2.4 2c0 1.1.8 1.7 2 2.3l1.8.9c1.1.5 2.4 1.8 2.4 3.7 0 2.3-1.9 3.7-4.8 3.7-1.8 0-3-.6-3.4-.9-.3-.4-.6-1.5-.6-3 .1-.3.6-.3.8-.1.2 1.1 1.5 3.1 3.5 3.1 1.5 0 2.5-.8 2.5-2.1 0-.9-.4-1.9-2.1-2.8l-1.3-.6zM183.6 33.2c0-2-.1-2.1-1.4-2.3l-.6-.1c-.2-.2-.2-.6.1-.7 1.1.1 2.1.1 3 .1s1.8 0 3-.1c.2.1.3.6.1.7l-.6.1c-1.3.2-1.4.3-1.4 2.3v6.6c0 2 .1 2.1 1.4 2.3l.6.1c.2.2.2.6-.1.7-1.1-.1-2.1-.1-3-.1s-1.8 0-3 .1c-.2-.1-.3-.6-.1-.7l.6-.1c1.3-.2 1.4-.3 1.4-2.3v-6.6zM196.7 31.7c0-.8 0-.8-.6-.8h-.9c-1.8 0-2.6.2-3.3 2.2-.3.2-.6.1-.7-.2.3-1.3.6-2.7.8-3.5.1-.1.4-.1.5 0 0 .6.4.6 1.6.6h8.1c1.1 0 1.3 0 1.5-.6.2-.1.4-.1.5.1-.2.8-.4 2.3-.3 3.4-.1.2-.6.3-.7 0-.2-1.9-1-2.1-2.7-2.1h-1c-.6 0-.6 0-.6.8v8c0 2 .1 2.2 1.4 2.3l.8.1c.2.2.2.6-.1.7-1.2-.1-2.3-.1-3.2-.1-.9 0-2 0-3.2.1-.2-.1-.3-.6-.1-.7l.8-.1c1.3-.2 1.4-.3 1.4-2.3v-7.9zM209.8 33.2c0-2-.1-2.1-1.2-2.3l-.4-.1c-.2-.1-.2-.6.1-.7.9.1 1.8.1 2.7.1h4.2c1.3 0 2.5 0 2.7-.1l.3 3c-.1.2-.6.3-.8.1-.2-.8-.4-1.1-.5-1.4-.5-.7-1.8-.7-2.5-.7h-1.3c-1 0-1.1 0-1.1.9v3.3c0 .5 0 .6.6.6h1.4c1.6 0 1.7-.2 1.9-1.1l.2-.6c.2-.2.6-.2.7.1-.1.9-.1 1.4-.1 2.1 0 .7 0 1.3.1 2.1-.2.2-.6.3-.7.1l-.2-.6c-.2-.9-.4-1.1-1.9-1.1h-1.4c-.6 0-.6.1-.6.7v2.1c0 .9.1 1.8.3 2.1.3.3.8.4 2.5.4 1.9 0 3-.1 3.8-2.4.2-.2.7-.2.8.1-.1 1.2-.6 2.7-.9 3.3-1.8-.1-3.4-.1-5-.1H211c-.9 0-1.8 0-3.3.1-.2-.1-.3-.6-.1-.7l.8-.1c1.3-.2 1.4-.3 1.4-2.3v-6.9zM227.6 31.7c0-.8 0-.8-.6-.8h-1c-1.8 0-2.6.2-3.3 2.2-.3.2-.6.1-.7-.2.3-1.3.6-2.7.8-3.5.1-.1.4-.1.5 0 0 .6.4.6 1.6.6h8.1c1.1 0 1.3 0 1.5-.6.2-.1.4-.1.5.1-.2.8-.4 2.3-.3 3.4-.1.2-.6.3-.7 0-.2-1.9-1-2.1-2.7-2.1h-1c-.6 0-.6 0-.6.8v8c0 2 .1 2.2 1.4 2.3l.8.1c.2.2.2.6-.1.7-1.2-.1-2.3-.1-3.2-.1-.9 0-2 0-3.2.1-.2-.1-.3-.6-.1-.7l.8-.1c1.3-.2 1.4-.3 1.4-2.3l.1-7.9z" class="st1"/></g><path fill="#901a1e" d="M52.1 26c0 14.3-11.6 25.9-25.9 25.9C11.9 51.9.2 40.3.2 26c0-14.3 11.6-26 26-26 14.3 0 25.9 11.6 25.9 26z"/><path d="M43 24.9v-.1c0-.2 0-.3.3-.3h.4v.6h.2v-.6h.6c.1 0 .1 0 .1.1v.5c0 .3-.3.4-.5.4v.2c.2 0 .5 0 .6-.1 0-.8-.1-1.2-.1-1.9h-.2v.1c0 .2-.2.2-.4.3-.2 0-.5 0-.9.1-.4 0-.4 0-.5-.2v-.1h-.2c0 .3.1.7.1 1.1.3-.1.4-.1.5-.1zM13.8 37.2c.1 0 .1.1 0 0 .2.2.2.3 0 .5l-.3.3-.4-.4c-.1 0-.1.1-.2.1l.4.4c0 .1-.4.4-.5.4 0 0-.1.1-.2 0l-.3-.3c-.2-.3 0-.5.1-.6 0-.1-.1-.1-.2-.1l-.5.5c.5.6.8.9 1.3 1.3l.1-.1v-.1c-.2-.2 0-.3.1-.5l.6-.6c.3-.3.3-.3.5-.2l.1.1c.1 0 .1-.1.1-.1-.2-.2-.5-.5-.7-.8.1.1.1.2 0 .2zM43.1 27.5c.7-.2.8-.2 1.3-.3.2 0 .3-.1.3.1v.1h.2c0-.3 0-.7.1-1h-.2v.1c0 .2-.1.2-.3.3-.1 0-1.6.4-1.7.4 0 0 .1.3.1.4.5.2 1.2.6 1.5.8.3.1.3.3.3.4v.1s.1.1.2 0c0-.2.1-.6.1-.9 0-.1-.1-.1-.2 0v.1c0 .1-.1.2-.3 0-.5-.2-1-.4-1.4-.6zM38.9 15.2l.1-.1.1.1c.1.1.2.1.5-.1.2-.2.5-.4.7-.5.1-.1.3-.2.2-.4l-.1-.1.1-.1c.2.3.5.6.7.8 0 .1-.1.1-.1.1l-.1-.1c-.2-.2-.3-.1-.5.1s-.5.4-.7.5c-.2.2-.3.3-.2.4l.1.1-.1.1c-.2-.2-.4-.5-.7-.8zM10.5 20.5s-.1 0-.2-.1v-.1c0-.2 0-.2-.3-.4-.2-.1-.6-.2-.8-.3-.2-.1-.4-.2-.5 0v.1c-.1 0-.2 0-.2-.1.1-.4.3-.8.4-1 0 0 .1 0 .2.1v.1c-.1.2.1.3.3.4.3.1.7.3.8.3.3.1.4.1.5 0 0 0 0-.1.1-.1s.1 0 .2.1c-.2.2-.4.7-.5 1zM40.4 17.3c0-.1.1-.1.1-.1s0 .1.1.1c0 0 .1.2.2.1s.2-.1.3-.1c-.1-.1-.3-.5-.5-.8 0-.1 0-.1.1-.2 0 0 2 .3 2.1.3v.3c-.1 0-1.7-.2-1.8-.3.1.2.3.5.4.6.1 0 .3-.2.4-.2h.1c.1.1.1.1.2.3-.1.1-.4.2-.5.3 0 .1.1.3.1.3 0 .1-.1.1-.2.1 0 0-.1-.2-.1-.3-.1 0-.2.1-.3.2-.1.1 0 .2 0 .2s0 .1.1.1c0 0-.1.1-.2.1-.3-.5-.4-.7-.6-1zM41.1 19.2s-.1-.2 0-.3c.1 0 1.9.1 2.1.1-.1-.2-.2-.6-.3-.7-.1-.1-.2-.2-.3-.2h-.1s-.1-.1 0-.2c.1 0 .5-.1.6-.1 0 .1.1.2.1.2 0 .1.3.7.3.8 0 .1.1.2.2.3 0 0 0 .1-.1.1-.2 0-.3-.1-.4-.1 0 .2-1.9.1-2.1.1zM13.5 15.6c0 .1-.1.1-.2.1 0-.1-.9-1.7-.9-1.9-.1.2-.4.5-.5.6-.1.1-.1.2 0 .3v.1s-.1.1-.2.1c-.1-.1-.3-.4-.4-.5.1-.1.1-.1.1-.2s.5-.6.6-.7c.1-.1.2-.2.2-.3h.1c0 .2.1.3.1.4.2.1 1.1 1.8 1.1 2zM41.8 20.9c0-.1.1-.1.2-.1.1.2.3.5.6.7.3.2.6.2 1 .1s.7-.4.6-.7c-.1-.3-.4-.2-.5-.2-.4.1-.4.4-.3.6 0 .1-.1.1-.1.1s-.2-.1-.2-.4c-.1-.4.3-.7.4-.7.5-.2.8.1.9.5.1.4 0 1-.7 1.1-.8.2-1.6-.3-1.9-1zM42.8 34.1s0 .1-.1.1c-.2.5-.7.7-1.1.5-.4-.2-.5-.4-.5-.7 0-.1 0-.3.1-.5.1-.1.1-.2.2-.2s.2 0 .3.1l1.1.5s.1.1 0 .2zm.4-.8s0 .1-.1.1c-.1.1-.1.1-.4 0l-.9-.4c-.3-.1-.3-.2-.2-.3v-.1c0-.1-.1-.1-.2-.1l-.2.4-.2.5c-.3.4-.4 1.1.3 1.6.6.4 1.2.2 1.6-.7.2-.3.3-.6.4-.9.1-.1 0-.1-.1-.1zM39.2 38.5s.1.1.1.2 0 .2-.1.4l-.2.2-.9-.9c-.2-.3-.3-.3-.1-.5l.1-.1-.1-.1-.7.7c0 .1.1.1.1.1s.1 0 .1-.1c.2-.1.2-.1.4.2l.9.9-.3.3c-.1.1-.3 0-.3 0l-.1-.1c-.1 0-.1.1-.1.1.1.1.3.4.4.4.6-.5.9-.8 1.5-1.4 0 0-.3-.4-.3-.5-.3.1-.3.2-.4.2zM40.7 37.1l-.9-.3.4-.5.5.8zm-1.1-1.3c0 .1.1.1.1.1v-.1c.1-.1.2 0 .3.1.1.1.1.2.1.2-.1.1-.4.5-.5.6-.1 0-.1 0-.2-.1-.1 0-.3-.1-.2-.2l.1-.1c0-.1-.1-.1-.2-.1-.1.1-.3.4-.6.7 0 .1.1.1.1.1l.1-.1c.2-.1.3 0 .5 0 .1 0 1.6.5 1.7.5h.1s.1-.2.1-.3c-.1-.1-.7-1.2-.8-1.5-.2-.3-.1-.4-.1-.5V35c0-.1-.1-.1-.2-.1 0 .4-.4.8-.4.9zM8.1 26.4c-.1 0-.1 0-.2-.1-.1 0-.1-.2-.1-.3v-.3h1.3c.4 0 .4 0 .4.2v.1h.2v-1h-.2v.1c0 .2-.1.2-.4.2H7.8v-.4c0-.2.2-.2.2-.3h.2v-.2h-.6c-.1.8-.1 1.3-.1 2l.5.1c.1 0 .1-.1.1-.1zM8 27.9l.8-.4.1.6-.9-.2zm1.8.2c-.1-.1-.2 0-.2 0v.1c0 .2-.1.1-.3.1-.1 0-.2 0-.2-.1s-.1-.6-.1-.7c.1 0 .1 0 .2-.1s.2-.1.3 0v.1h.2c0-.1 0-.5-.1-.9h-.2v.1c0 .2-.2.3-.3.3-.1 0-1.5.7-1.6.7v.1l.1.2c.1 0 1.3.4 1.6.5.3.1.4.2.4.3v.1h.2v-.8zM12.1 36.6c-.3.2-.5.2-.7.2-.2 0-.3-.1-.4-.3-.1-.1-.1-.3-.1-.5s.2-.5.5-.7c.4-.3.9-.3 1.1.1.3.5 0 1-.4 1.2zm.6-1.2c-.2-.3-.5-.5-.8-.5-.3-.1-.6 0-.8.2-.3.2-.4.4-.5.7-.1.3 0 .6.2.9.4.6 1.1.7 1.6.4.3-.2.4-.4.5-.7.1-.4 0-.7-.2-1zM16.5 39.4s0 .1-.1.1h-.1c-.2-.1-.2-.1-.5.2-.2.2-.4.5-.5.7-.1.2-.3.3-.1.5l.1.1-.1.1c-.3-.2-.9-.7-1.4-1.1.1-.1.2-.3.3-.4.1 0 .1 0 .2.1 0 0-.1.1-.1.2s0 .2.1.3c.1.1.3.3.4.3.1.1.1 0 .2 0 0 0 .3-.4.4-.5-.1-.1-.4-.4-.5-.4 0-.1.1-.1.1-.2 0 0 .4.3.5.4 0 0 .2-.3.3-.3.2-.3.2-.3 0-.5-.1-.1-.1-.1-.2-.1-.2-.1-.3-.1-.5 0-.1 0-.1.1-.1.1-.1 0-.1-.1-.1-.2 0 0 .4-.3.5-.4.3.2.7.6 1.2 1zM10.3 31.1c0-.1.1-.1.2 0 .1.3.2.5.3.8 0 0-.1.1-.2.1v-.1c-.1-.1-.1-.2-.4-.1-.2 0-.8.1-.9.2-.4 0-.6 0-.5.3v.1c0 .1-.1.1-.2.1-.1-.3-.2-.5-.3-.8.1 0 .2-.1.3-.2.2-.2.7-.6.9-.8-.2 0-1.1-.2-1.2-.2h-.4c0-.1-.1-.6-.2-.8 0 0 .1-.1.2 0v.1c0 .1.1.2.3.1.3-.1.7-.2 1-.3.3-.1.4-.2.4-.3v-.1s.1-.1.2 0c.1.5.1.7.2 1 0 0-.1.1-.2 0v-.1c-.1-.2-.1-.2-.4-.1-.3.1-.9.3-1.1.4.2.1.9.1 1.2.2.4.1.5.1.6.1 0 0 .1.1 0 .1 0 0-.2.2-.5.4-.2.2-.8.7-.9.8.3-.1.8-.2 1-.2.2 0 .4-.1.4-.3M42.5 29.3h.2v.1c0 .2.1.2.4.3.3.1.6.1.9.2.2.1.4.1.5-.1v-.1h.2c0 .1-.1.5-.1.6v.1c-.1 0-.1 0-.2.1 0 0-1.5.7-1.6.8.2.1.7.3.8.3.3.1.4.1.5-.1v-.1c.1 0 .1 0 .2.1-.1.3-.2.6-.3.8-.1 0-.1 0-.2-.1v-.1c0-.2 0-.2-.3-.3-.2-.1-1.3-.5-1.4-.5v-.1c.3-.1 2-1 2.1-1.1-.1 0-.8-.2-1-.2-.3-.1-.4 0-.5.1v.1c-.1 0-.1 0-.2-.1s0-.6 0-.7zM7.9 23.1c0-.1.1-.1 0 0h.9c0 .1-.1.5-.1.6-.1-.2-.7-.5-.8-.6zm-.2.2c.1 0 .3 0 .4.2 0 0 1 .6 1.2.8.2.1.2.2.2.2v.1c.1.1.1.1.2 0 0-.1 0-.4.1-.7 0-.1-.1-.1-.2 0v.1c0 .1-.1.1-.2 0-.1 0-.4-.2-.5-.3.1 0 .1-.6.1-.6h.4c.2 0 .2.2.2.2v.1c0 .1.1.1.2 0 .1-.6.2-1 .3-1.7-.2-.1-.5-.2-.5-.2-.1 0-.1.1-.1.2.1 0 .1.1.1.1.2.1.2.3.2.4 0 .1 0 .1-.1.3 0 .2-.1.2-.3.2H9l.1-.6h-.2l-.1.6c-.1 0-.6 0-.7-.1-.1 0-.1 0 0-.1 0-.1 0-.2.1-.4 0-.2.2-.3.2-.3h.2c.1-.1.1-.2 0-.2h-.5c-.1.5-.2.8-.2 1.2-.2.2-.2.3-.2.5-.1 0 0 0 0 0zM36.6 41.2c0 .1-.1.1 0 0-.2-.1-.5-.6-.6-.7.1-.1.4-.3.5-.3 0 .3.1.9.1 1zm.4 0c-.1 0-.1-.2-.2-.4 0 0-.2-1.2-.2-1.4 0-.2 0-.3.1-.3l.1-.1c0-.1-.1-.1-.1-.1-.1 0-.3.3-.6.4 0 .1 0 .2.1.2l.1-.1c.1 0 .1 0 .1.1s.1.4.1.5c-.1.1-.5.3-.6.4l-.3-.3c-.1-.2 0-.3 0-.3l.1-.1c0-.1 0-.2-.1-.2-.5.3-.8.6-1.5.9.1.3.2.5.2.6.1.1.2 0 .2-.1v-.1c0-.2.1-.3.2-.4l.2-.2c.2-.1.2 0 .4.1.1.1.2.3.3.3-.1.1-.4.3-.5.3 0 .1.1.1.1.2.1-.1.4-.3.5-.3.1.1.4.5.4.6v.1s-.2.1-.3.2c-.2.1-.3.1-.4 0-.1 0-.1-.1-.2-.1s-.2.1-.1.1c.1.1.2.3.3.4.4-.2.7-.4 1.1-.6.2-.1.3-.1.5-.3 0 .1 0 .1 0 0zM9.8 34.4c.4-.2 1-.5 1.1-.6.3-.1.3-.2.3-.4v-.1s.1-.1.2-.1c.1.2.3.6.5.9 0 0-.1.1-.2.1v-.1c-.1-.1-.2-.1-.5 0l-.8.4c-.3.2-.3.2-.3.4v.1c0 .1-.1.1-.2.1-.2-.3-.4-.8-.5-.9 0-.1-.1-.2-.1-.3-.1-.2-.2-.6.3-.8.3-.1.5 0 .7.2l.3-.6c.1-.2.1-.3.1-.4v-.1c0-.1.1-.1.2-.1 0 0 .1.3.2.5-.1.2-.5 1-.5 1.1h-.1l-.3-.3c-.2 0-.2 0-.3.1-.1 0-.2.1-.2.2v.3c-.1.2 0 .2.1.4-.1-.1-.1-.1 0 0zM17.2 42.1c.2-.4.5-1 .6-1.1.2-.3.2-.4 0-.5 0 0-.1 0-.1-.1s0-.1.1-.2c.2.1.6.4.9.5 0 .1 0 .1-.1.2h-.1c-.2-.1-.2 0-.4.3l-.4.8c-.2.3-.2.4 0 .5h.1s0 .1-.1.2c-.3-.2-.8-.4-.9-.5-.1 0-.2-.1-.3-.2-.2-.2-.5-.4-.2-.8.2-.3.4-.3.6-.2 0-.2 0-.5-.1-.7-.1-.2-.1-.3-.2-.4h-.1c0-.1 0-.1.1-.1 0 0 .3.2.5.3 0 .2.1 1.1.2 1.2h-.1c-.1-.1-.3-.1-.4 0l-.2.2c0 .1-.1.2-.1.3 0 .1.1.2.2.3.1 0 .1.1.2.1.2-.2.3-.1.3-.1zM11.2 19c0-.1.3-.7-.1-1-.4-.4-.8.1-1 .6-.2-.1-.6-.6-.7-.7 0-.1.3-1 .4-1.1.1 0 .2.1.3.2 0 .1-.3.8-.3.9 0 .1.1.1.2.2.1-.2.3-.6.8-.6.7 0 1.1.7.7 1.6-.2 0-.3 0-.3-.1zM10.4 16.3c0-.1-.1-.4.1-.7.1-.2.2-.3.4-.3s.5.1.5.6c.1-.2.3-.2.5-.2 0 0 .5.1.6.8.1.4-.2.9-.4 1-.2.1-.4-.2-.2-.4.1-.1.2 0 .3-.1.1-.1.1-.5-.1-.7-.1-.1-.4-.2-.6 0-.1.1-.1.2 0 .4-.1.1-.2.1-.3 0 0-.1.1-.4.1-.7 0-.2-.3-.3-.4-.2-.1.2-.1.4-.1.5h-.4zM34.9 7.3c0-.1 0-.3.1-.3s.1 0 .2.1c.3.1.4.1.6-.5.2-.3.5-1 .6-1.2.1-.3.3-.6 0-.8-.1 0-.1 0-.1-.1s0-.2.1-.3c.6.3 1.1.6 1.5.8 0 .1-.1.2-.1.2-.1 0-.1 0-.1-.1-.3-.1-.5.1-.6.4-.2.5-.5 1-.6 1.2-.2.4-.3.6 0 .8 0 0 .1.1.2.1 0 .1-.1.2-.2.2-.5 0-1.2-.3-1.6-.5zM40.8 11.4c0-.1.1-.2.2-.2l.1.1c.2.2.3.2.8-.2.3-.3.8-.7 1-.9.2-.2.5-.4.3-.7l-.1-.1c0-.1.1-.2.2-.2.4.4.8.9 1.1 1.2 0 .1-.1.2-.2.2s-.1-.1-.1-.1c-.3-.2-.5 0-.7.2-.4.3-.8.7-1 .9-.4.3-.4.5-.3.7l.1.1c0 .1-.1.2-.2.2-.3-.3-.9-.8-1.2-1.2zM42.5 38.5c.1 0 .2.1.2.2l-.1.1c-.1.3-.1.3.3.7.3.2.9.7 1.1.9.2.2.5.4.7.2l.1-.1c.1 0 .2.1.2.2-.4.5-.8 1-1 1.2-.1 0-.2-.1-.2-.2s.1-.1.1-.1c.2-.3 0-.5-.3-.7-.4-.3-.8-.7-1.1-.9-.4-.3-.5-.4-.7-.2l-.1.1c-.1 0-.2-.1-.2-.2.2-.3.7-.9 1-1.2zM26.5 46.4v.3h-.2c-.3 0-.4.1-.4.7v1.4c0 .3-.1.7.3.7h.1c.1.1.1.2 0 .3h-1.6c-.1-.1-.1-.2 0-.3h.1c.4 0 .4-.3.4-.7v-1.4c0-.5 0-.6-.3-.7h-.2v-.3c.5 0 1.3.1 1.8 0zM13.4 41.9c0 .1-.1.2-.2.2l-.1-.1c-.3-.1-.3-.2-.7.3-.3.3-.7.8-.9 1.1-.2.2-.5.5-.2.7 0 .1.1.1.1.1 0 .1-.1.2-.2.2-.5-.4-.9-.8-1.2-1.1 0-.1.1-.2.2-.2s.1.1.1.1c.3.2.5 0 .7-.3.3-.4.7-.8.9-1 .3-.4.4-.5.2-.7l-.1-.1c0-.1.1-.2.2-.2.2.2.8.7 1.2 1zM6.7 19.4c-.1 0-.2 0-.3-.1v-.2c0-.3 0-.4-.5-.6-.4-.1-1-.4-1.3-.5-.3-.1-.6-.3-.7.1 0 .1 0 .1-.1.1s-.2 0-.3-.1c.2-.6.4-1.2.6-1.5.1 0 .2 0 .3.1v.1c-.1.4.2.4.5.6.5.2 1 .4 1.3.5.5.2.6.2.8-.1 0 0 0-.1.1-.2.1 0 .2 0 .3.1-.2.6-.5 1.3-.7 1.7zM44.1 15.8c-.5-.9-1.2-1.9-1.5-2.2 0-.1.2-.2.2-.2 0 .1.1.1.1.1.2.2.3.2.8-.1.3-.2.9-.7 1.1-.8.2-.2.6-.3.4-.7 0-.1 0-.1-.1-.1 0-.1.1-.2.2-.2.4.5.7 1 .9 1.3 0 .1-.1.2-.2.2V13c-.2-.3-.5-.1-.8.1-.4.3-.8.6-1.1.8-.4.3-.5.3-.4.6 0 0 .1.2.2.3.1.1.2.3.4.4.1.1.4.1.5.1.1 0 .2 0 .3-.1.1 0 .2.1.1.3-.3 0-.7.2-1.1.3zM45.6 19.2c-.3-1-.8-2.1-1-2.5 0-.1.2-.1.3-.1 0 .1.1.1.1.1.2.2.3.2.8 0 .3-.2 1.1-.5 1.3-.6.3-.1.6-.2.5-.6 0-.1 0-.1-.1-.1 0-.1.2-.2.2-.1.3.6.5 1.1.7 1.5 0 .1-.2.1-.3.1 0-.1 0-.1-.1-.1-.2-.3-.5-.2-.8 0-.5.2-.9.4-1.3.6-.4.2-.5.2-.5.5 0 .1.1.2.1.3.1.1.2.3.3.4.1.1.4.1.5.1h.3c.1 0 .1.1.1.3-.2.1-.6.2-1.1.2zM31.8 5.9c0-.3.1-.6.2-.8.1 0 .2 0 .3.1 0 .3-.1.8.5 1 .4.1.6 0 .7-.2.1-.3 0-.6-.4-.9-.6-.5-.6-.8-.6-1.1.1-.4.4-1.1 1.4-.7.5.2.7.3.9.4 0 .1-.1.6-.2.8-.1 0-.2 0-.3-.1 0-.1.1-.6-.4-.8-.5-.2-.7.1-.8.3-.1.3.1.4.5.8.4.3.8.6.6 1.2-.2.5-.8.8-1.5.6-.6-.2-.9-.6-.9-.6zM29.8 46.3c.1.3.2.6.2.8-.1.1-.2.1-.3.1-.1-.3-.3-.8-.9-.7-.4.1-.6.3-.5.5 0 .3.3.5.8.6.7.2.9.5 1 .7.1.4.1 1.1-1 1.3-.5.1-.8 0-1 0 0 0-.1-.4-.1-.6.1-.1.2-.1.3-.1 0 .1.1.6.7.5.5 0 .6-.4.6-.6 0-.3-.2-.3-.8-.5-.5-.2-1-.3-1.1-.9-.1-.6.4-1.1 1.1-1.2.6-.1 1 .1 1 .1zM11.1 40c-.1.3-.4.5-.5.7-.1 0-.2-.1-.2-.2.2-.3.5-.7.1-1.2-.4-.3-.7-.3-.9-.2-.3.2-.3.5-.1 1 .2.7.2 1 0 1.3-.2.3-.9.7-1.6-.1-.3-.4-.5-.7-.6-.8 0-.1.4-.5.5-.6.2 0 .2.1.3.2 0 .1-.4.4 0 .9.3.4.7.3.8.1.1-.1.1-.3-.1-.9-.1-.5-.3-1 .2-1.4.4-.4 1.1-.3 1.6.2.4.6.5 1 .5 1zM16 8.1c-.1 0-.2-.2-.1-.2s.1-.1.1-.1c.2-.2.3-.3 0-.8-.2-.3-.5-1-.7-1.2-.1-.2-.3-.6-.6-.4-.1 0-.1 0-.1.1-.1 0-.2-.2-.1-.2.5-.3 1.1-.6 1.4-.8.1-.1.1 0 .1.1-.1 0-.1.1-.1.1-.3.2-.2.4 0 .8.2.5.5 1 .6 1.2.2.4.3.5.6.5 0 0 .1 0 .2-.1.1 0 .1.2.1.3-.4.1-1 .5-1.4.7zM18.5 6.7c-.2-.2-.3-.5-.4-.7 0-.1.2-.2.3-.1.2.3.4.7 1.1.5.4-.1.5-.4.4-.7-.1-.3-.4-.4-.9-.5-.8-.1-1-.2-1.2-.5-.2-.3-.4-1.1.7-1.5.5-.2.8-.2.9-.2.1.1.3.5.3.7 0 .1-.1.1-.3.1 0-.1-.3-.5-.8-.4-.5.2-.5.5-.4.7.1.2.3.3.9.3.5.1 1 .1 1.3.7.2.5-.1 1.1-.8 1.4-.7.3-1.1.2-1.1.2zM13.1 9.8c-.3-.2-.5-.4-.6-.6 0-.1.1-.2.2-.2.3.2.6.5 1.1.2.3-.2.3-.5.2-.7-.2-.3-.5-.3-1-.2-.8.2-1.1.1-1.3-.1-.3-.3-.6-.9.3-1.6.4-.3.7-.4.9-.5.1 0 .4.4.5.6 0 .1-.1.2-.2.2s-.4-.4-.9-.1c-.4.2-.3.6-.1.7.2.2.3.2.9.1.5-.1 1-.2 1.4.3.4.5.2 1.1-.4 1.5-.6.4-1 .4-1 .4zM45 34.2c.1-.1.2 0 .3.1 0 0 0 .1-.1.2-.1.2 0 .4.5.6.4.2.9.4 1.3.6.3.2.6.3.7 0l.1-.1c.1 0 .2 0 .3.1-.1.2-.3.7-.4.9 0 0 0 .1-.1.1h-.4c-.1 0-2.6.6-2.9.6.2.1 1 .7 1.2.8.4.3.6.4.8.1l.1-.1c.1 0 .2.1.2.1-.2.4-.6.9-.8 1.2-.1 0-.2-.1-.2-.2l.1-.1c.1-.2.1-.3-.4-.6-.3-.2-1.8-1.2-2-1.3V37c.5-.1 3.5-.8 3.7-.9-.2-.1-1.2-.6-1.6-.7-.5-.2-.6-.2-.8 0l-.1.1c-.1 0-.2 0-.2-.1.3-.3.6-1 .7-1.2zM5.8 24.2c-.1.1-.2.1-.3 0V24c0-.2-.1-.4-.7-.4-.5 0-1-.1-1.4-.1-.4 0-.6-.1-.7.2v.2c-.1.1-.2.1-.3 0 0-.2.1-.7.1-1v-.2c.1 0 .1 0 .3-.1.1 0 2.2-1.4 2.5-1.6-.3-.1-1.2-.3-1.4-.4-.5-.1-.6-.1-.8.2 0 0 0 .1-.1.2-.1 0-.2 0-.3-.1.1-.5.2-1 .3-1.3.1-.1.2 0 .3.1v.1c0 .2 0 .3.6.5.4.1 2.1.6 2.3.6.1 0 .1.1.1.2-.4.3-3 1.9-3.2 2 .2 0 1.3.1 1.7.2.5 0 .7 0 .7-.3v-.2c.1 0 .2 0 .3.1.1.3 0 1 0 1.3zM9.8 13.5c-.1 0-.2 0-.2-.2l.1-.1c.1-.2.1-.4-.3-.7-.4-.3-.8-.6-1.1-.9-.3-.2-.5-.4-.7-.2l-.1.1c-.1 0-.2-.1-.2-.2.1-.2.4-.6.6-.8l.1-.1c.1 0 .2 0 .3.1h2.9c-.2-.2-.8-.9-1-1.1-.4-.2-.5-.3-.8-.1l-.1.1c-.1 0-.2-.1-.2-.2l1-1c.1 0 .2.1.2.2l-.1.1c-.2.2-.2.4.2.8.3.3 1.5 1.6 1.6 1.7 0 .1 0 .2-.1.2H8.1c.2.2 1.1.8 1.4 1.1.4.3.6.3.8.2l.1-.1c.1 0 .2.1.2.2-.2.2-.7.8-.8.9zM7.7 34.8c-.1 0-.2 0-.3.1 0 .1 0 .1.1.2.1.3 0 .4-.5.6-.1.1-.3.2-.5.3l-.7-1.6c.2-.1.4-.2.5-.2.5-.2.6-.2.8 0l.1.1c.1 0 .2 0 .3-.1-.2-.4-.5-1.1-.6-1.4-.1 0-.2 0-.3.1v.2c.1.3-.1.4-.5.6-.3.1-.8.3-1.3.5-.3.1-.6.3-.7 0 0 0 0-.1-.1-.1s-.2 0-.3.1c.1.4.3.9.6 1.5.1 0 .2 0 .3-.1v-.1c-.1-.3.1-.4.5-.6.1 0 .3-.1.5-.2l.8 1.6c-.1.1-.3.2-.4.2-.3.2-.6.3-.8 0 0 0 0-.1-.1-.1s-.2.1-.2.1c.2.4.4.9.7 1.4.1 0 .2-.1.2-.1v-.1c-.1-.3.1-.4.4-.6.2-.1.9-.5 1.2-.7.5-.3.6-.3.8 0l.1.1c.1 0 .2-.1.2-.1l-.8-1.6zM40.2 10.1c-.1.1-.2.2-.3.4-.3-.1-.7-.3-1.2-.7-.3-.4-.8-.8-.7-1.7 0-.7.5-1.3 1.1-1.5.7-.3 1.4 0 2 .4.6.5.8.8.9.9-.2.2-.3.5-.5.8-.1 0-.2 0-.2-.1.1-.1.2-.3.2-.6 0-.2-.1-.5-.4-.7-.4-.3-1.3-.6-2 .5-.7 1 0 1.6.2 1.8.1.1.2.1.3.2.2.1.3.1.5 0l.2-.2c.2-.2.2-.2 0-.4-.1-.1-.1-.2-.2-.2 0-.1.1-.2.2-.2.4.4.9.7 1.2.9 0 .1-.1.2-.2.2s-.1 0-.1-.1c-.1-.1-.2-.1-.4.1-.5.1-.6.2-.6.2zM7.8 16.9c-.1 0-.2 0-.2-.1v-.1c.1-.3.1-.4-.5-.7-.4-.2-.9-.5-1.2-.7-.4-.2-.6-.3-.8 0 0 .1-.1.1-.1.1-.1 0-.2-.1-.2-.1.3-.6.8-1.6 1.5-2.5l.8.4c0 .1 0 .2-.1.3-.1 0-.2-.1-.3-.1-.1 0-.3 0-.5.2s-.3.5-.4.7c-.1.1 0 .2 0 .2.1.1.8.4.9.5l.5-.8c.1 0 .2.1.3.2l-.5.8s.5.3.6.3c.4.2.4.1.7-.2.1-.1.1-.2.2-.3.1-.3.1-.5-.1-.7-.1-.1-.1-.1-.1-.2s.1-.2.2-.2c.1.1.6.5.7.7-.5.5-1 1.4-1.4 2.3zM37.5 43.1c.1 0 .1.1.2.2 0 0-.1 0-.1.1-.2.2-.3.3 0 .8.2.4.5.9.7 1.2.2.4.3.6.6.4.1 0 .1 0 .1-.1.1 0 .1.2.1.2-.6.4-1.5.9-2.5 1.4-.1-.2-.3-.5-.5-.7 0-.1.1-.2.3-.2l.2.2c.1.1.3.2.5.1.3-.1.6-.3.7-.4.1-.1.1-.1.1-.2s-.4-.8-.5-.9l-.8.5c-.1-.1-.1-.2-.2-.3l.8-.5s-.3-.5-.3-.6c-.3-.5-.4-.4-.7-.2-.1.1-.2.1-.3.2-.3.2-.3.4-.3.7v.2c-.1.1-.2.1-.3.1-.1-.1-.2-.7-.3-.9.8-.3 1.7-.8 2.5-1.3zM46.8 21.3c1-.6 1.1-.7 1.8-1.2.3-.2.4-.2.5 0v.1c.1 0 .2 0 .3-.1-.1-.5-.3-1-.4-1.5-.1-.1-.2 0-.3.1v.2c0 .3-.1.4-.4.6-.1.1-2.2 1.5-2.3 1.5-.1 0 0 .1 0 .1s.2.3.3.4c.9.1 2.2.3 2.7.4.5.1.6.2.6.4v.2c.1.1.2 0 .3 0 0-.4-.1-.9-.2-1.3-.1-.1-.2 0-.3 0v.1c0 .2 0 .3-.4.2-.7 0-1.5-.1-2.2-.2zM46.4 32.2c1.1 0 1.3-.1 2.2-.1.3 0 .4 0 .4.3v.1c.1.1.2.1.3.1.1-.5.3-1 .4-1.6-.1-.1-.2-.1-.3-.1 0 0 0 .1-.1.2-.1.3-.2.3-.6.3-.2 0-2.7.1-2.8.1-.1 0-.1.1-.1.1v.5c.7.5 1.7 1.4 2.1 1.7.4.3.4.5.4.6 0 .1 0 .1-.1.2 0 .1.2.2.3.1.1-.4.3-.9.5-1.2 0-.1-.2-.2-.3-.1 0 .1 0 .1-.1.1-.1.2-.2.3-.5 0-.5-.4-1.2-.9-1.7-1.3zM39.8 42.1c1 .6 1.1.6 1.9 1.1.3.2.4.2.2.4l-.1.1c0 .1.1.2.2.2.4-.3.8-.7 1.2-1.1 0-.1-.1-.2-.2-.2l-.1.1c-.2.2-.4.1-.7-.1-.2-.1-2.4-1.3-2.4-1.4h-.1s-.2.3-.3.5c.3.8.7 2.1.8 2.5.2.5.1.6 0 .7-.1 0-.1.1-.2.1 0 .1.1.2.2.2.3-.2.8-.6 1.1-.8 0-.1-.1-.2-.2-.2l-.1.1c-.2.1-.3.1-.4-.3-.3-.5-.6-1.3-.8-1.9zM34 48.2c-.2-.6-.6-1.7-.7-1.9-.2-.5-.3-.6-.5-.5h-.2c-.1 0-.1-.2-.1-.3.5-.2 1-.4 1.5-.5.1.1.1.2.1.3-.1 0-.1.1-.1.1-.3.1-.3.3-.1.8.1.4.4 1.1.5 1.3.2.5.2.6.5.5h.1c.1 0 .1.2.1.3-.9.3-1.3.5-1.5.5-.1 0-.3.1-.5.1-.4.1-1 .1-1.2-.6-.1-.5.1-.8.4-1-.3-.2-.6-.5-.9-.7-.3-.2-.5-.2-.7-.2h-.2c0-.1-.1-.2-.1-.3.1 0 .5-.1.9-.2.2.1 1.4.9 1.6 1.1v.2c-.2.1-.4.2-.4.4v.5c0 .1.1.3.3.4.2.1.4.1.5 0 .1 0 .2-.1.3-.1.3-.2.4-.2.4-.2zM18 47.7l.1-1.5.9.3-1 1.2zm1.5-2.4c-.1 0-.1.2-.1.2l.1.1c.2.1.2.2-.1.4-.1.2-.2.2-.2.3-.2-.1-.9-.4-1.1-.4v-.4c0-.2 0-.4.3-.3h.1c.1 0 .1-.2.1-.3-.2-.1-.7-.3-1.3-.6-.1 0-.2.2-.1.2 0 0 .1.1.2.1.3.2.2.5.2.7 0 .2-.1 2.7-.1 2.8 0 .1 0 .1.1.1h.4c.1-.1 1.5-1.6 1.8-2 .4-.4.5-.4.6-.4h.2c.1 0 .1-.2.1-.3-.5.1-1.1-.1-1.2-.2zM3.5 30.9l1.3-.7.2.9-1.5-.2zm2.8 0c-.1-.1-.2 0-.3.1v.1c0 .3 0 .3-.4.2-.2 0-.3 0-.4-.1 0-.2-.2-1-.2-1.1l.3-.3c.2-.1.4-.2.4 0v.1c.1.1.2 0 .3-.1 0-.2-.1-.7-.2-1.4-.1-.1-.2 0-.3 0v.2c0 .3-.3.4-.5.6-.2.1-2.3 1.4-2.4 1.4-.1 0 0 0 0 .1 0 0 .2.3.3.4.2 0 2.1.3 2.7.4.5.1.6.2.7.3 0 .1.1.1.1.1.1 0 .2 0 .3-.1-.2.1-.4-.8-.4-.9zM47 25h-.2c0-.6-.1-.8-.1-1.3 0-.1.2-.1.3 0v.1c0 .2.1.3.6.4.4 0 1.3.1 1.5.1.3 0 .7 0 .7-.4v-.1c.1-.1.2-.1.3 0 0 .5.1.8.1 1.3-.2 0-.3 0-.6.2-.4.2-1.3.6-1.8.9.2.1 1.6.8 1.7.8.2.1.5.2.7.2 0 .4-.1.9-.1 1.3-.1.1-.2.1-.3 0v-.1c0-.2 0-.3-.5-.3h-1.6c-.5 0-.7.1-.7.3v.2h-.3c.1-.8.1-1 .1-1.5.1-.1.2 0 .3 0v.1c0 .2 0 .3.6.3h1.9c-.3-.2-1.3-.6-1.8-.9-.5-.3-.7-.3-.9-.4V26c.1 0 .4-.2.9-.4.4-.2 1.6-.7 1.8-.8h-1.7c-.4 0-.7 0-.7.3M23.3 48.7c0 .1-.1.2-.2.3-.1.1-.3.2-.6.1-.1 0-.2 0-.4-.1 0 0 .3-1.6.4-2 .1-.6.2-.6.5-.6h.1c0-.1.1-.2 0-.3-.5-.1-1.2-.2-1.6-.3-.1.1-.1.2-.1.3.1 0 .1 0 .2.1.3.1.3.3.2.7-.1.3-.4 2-.4 2-.2 0-.5-.1-.6-.1-.3-.1-.3-.3-.3-.4v-.3c-.1-.1-.2-.1-.3 0 0 .1-.2.8-.2.9 1.2.3 2 .5 3.1.6 0 0 .3-.7.4-.8 0-.1-.1-.1-.2-.1zM15.5 46.2l-.3.3c-.1.1-.4 0-.6-.1-.1 0-.2-.1-.4-.2 0 0 .9-1.4 1-1.7.3-.5.4-.5.7-.4 0 0 .1 0 .1.1.1 0 .1-.2.1-.2-.4-.2-1-.6-1.3-.8-.1 0-.2.2-.2.2.1 0 .1.1.1.1.2.2.2.3-.1.8-.1.2-1.1 1.7-1.1 1.7-.2-.1-.4-.3-.5-.3-.1-.3 0-.6 0-.7 0-.1.1-.2.1-.3 0-.1-.2-.2-.2-.1-.1.1-.4.6-.5.8 1 .7 1.7 1.1 2.7 1.7l.6-.6c0-.2-.1-.3-.2-.3zM5.4 26v.2c0 .3-.1.5-.6.5h-.6v-.9h-.3v1H2.8c-.1 0-.2 0-.2-.2v-.7c0-.5.7-.6.9-.7.1-.1 0-.2 0-.3-.3 0-.9.1-1.2.1 0 1.3 0 2 .1 2.9h.3v-.1c0-.4.3-.4.7-.4.3 0 .8 0 1.4-.1.6 0 .7.1.7.3v.1h.3c-.1-.5-.1-1.2-.1-1.7h-.3zM16.6 10.6c-.3.1-.4.5-.4.7 0 .2-.1.5-.1.5h-.2c-.2 0-.3-.3-.3-.4v-.3h.2c.1-.1.2-.2.1-.4 0-.1-.1-.2-.1-.2h-.2v-.2c0-.1 0-.1-.1-.1h-.3c-.1 0-.2 0-.2.1-.1.1-.1.1-.1.2s0 .1.1.2c-.1 0-.1 0-.2.1s-.1.2-.1.3c0 .2.1.3.3.4.1 0 .1 0 .2-.1 0 .1 0 .2.1.3 0 .2 0 .4-.1.5H15l-.3-.4c-.2-.3-.4-.6-.6-.6-.1 0-.2.1-.2.1-.1.1-.1.4.1.5.1.1.3.2.4.1.2.3.2.4.4.8.1.2.2.5.2.7.1.2.3.3.5.4 0 0 .1 1.8.7 5.5 0 .1.4.2.5.1.2 0 .4-.1.4-.4-.6-3.7-1-5.4-1-5.4.2-.1.4-.3.4-.5v-.9c0-.3 0-.6.1-.8.1 0 .3 0 .3-.2.1-.2.1-.4 0-.5-.1-.1-.2-.2-.3-.1zM16.1 23.4c.1.2.5.4 1.1.3.5-.1.8-.3.9-.6.2.1.4 1.5-.7 1.6-1.1.2-1.3-1-1.3-1.3z" class="st3"/><path d="M17.4 22h-.2s.1.2 0 .2c0 0-.2.1-.3 0-.1-.1 0-.1-.1-.2h-.2c-.1 0-.1-.3-.1-.3 0-.1.1 0 .2-.1 0-.1-.1-.2 0-.2 0 0 .2-.1.3 0 0 0 0 .1.1.2 0 0 .2-.1.3 0v.4zm1.1-.9c0-.1-.1-.1-.2-.1l.2-.2c.1-.1.1-.3 0-.5-.1-.3-.3-.3-.4-.3 0-.1 0-.1.1-.2 0-.2 0-.3-.1-.4-.1-.2-.6-.2-.6-.1-.1.2-.5.4-.7.4-.3.1-.6 0-.8-.1-.2-.1-.3-.1-.4 0-.1.1-.2.3-.2.6s.2.4.2.5c0 .2-.1.3-.1.5s.2.3.2.4c.1.1 0 .2 0 .4s.2.3.2.4c0 .1 0 .3.1.4.1.1.2.1.4.2.3.1.8.1 1.3-.1.3-.1.6-.3.7-.6.1-.2 0-.4-.1-.5.1-.1.2-.2.2-.3.1-.1.1-.3 0-.4zM21.8 15.4c-.1.3-.5 1-.7 1-.2-.1-.3-.9-.3-1.3 0-.2.1-.3.2-.3s.2.3.1.7h.2c.1-.4.4-.6.4-.5.1.1.1.2.1.4zm-1-3.6c0-.2.1-.3.2-.2.1 0 .1.2.1.6h.2c.1-.4.3-.5.4-.4.1.1.1.2 0 .4-.1.3-.5.8-.6.8-.3-.2-.4-.9-.3-1.2zm-1 2c-.1.3-.4 1-.5.9-.2 0-.4-.8-.4-1.1 0-.2 0-.3.1-.3s.2.2.2.6h.2c.1-.4.3-.6.3-.5.1.1.1.2.1.4zm2.9-2c.1-.6.3-1.1.4-1.3 0-.1-.1-.2-.2-.2s-2.9.7-5.2 2.2c-.4.3-.1 1.3.2 2.1 1 2.5 2.2 2.1 2.6 4.1.1.6.7 3 .8 3.3.2.6.8 1 1.5 1-.1-3.3-.4-8.3-.1-11.2zM33.5 14.9c-.2 0-.5-.6-.5-.9 0-.2 0-.3.1-.4.1 0 .2.1.3.5h.2c0-.4.1-.6.2-.6s.1.1.1.3c0 .3-.1 1.1-.4 1.1zm-1.9 2c-.2 0-.6-.7-.7-1-.1-.2-.1-.4 0-.4s.3.1.4.6h.2c0-.4.1-.7.1-.7.1 0 .1.1.2.3.2.3.1 1.1-.2 1.2zm-.6-5.2s.3.1.4.4h.2c0-.3 0-.6.1-.6s.1.1.2.2c.1.3 0 1-.2 1.1-.1.1-.5-.5-.6-.8-.2-.1-.2-.2-.1-.3zm4 .8c-2.6-1.6-5.4-2.2-5.4-2.2s-.2.1-.2.2c.1.3.3.7.4 1.3.3 2.9 0 7.9-.2 11 .7.1 1.3-.4 1.5-1 .1-.3.6-2.7.8-3.3.4-1.5 2.4-2.2 2.9-3.9.3-.8.7-1.8.2-2.1zM28.4 6.9s0-.5-.5-.7v-.1s.5 0 .7.1v.2c.3.8-.2 1.1-.2 1.7-.6-.4-1.2-.4-1.2-.4l-.3-.8s.1 0 .5-.1c.3 0 .7 0 1 .1zM26.2 4.2c-.9 0-1.9.1-2.5.4-.1-.3-.3-1.4-.7-1.8-.1-.1-.2-.3-.3-.3 0 0-.1-.1 0-.1h.3c.1 0 .2.1.2.3v-.2s.1-.1.3.1c.1.1.1.1.1.2s.1.2 0 .2h-.2v.1c.1.2.4.3.7.3.4-.1.4-.3.4-.5l-.1.1s-.2 0-.3-.2c-.1-.1-.1-.2 0-.3 0 0 .1-.1.3 0-.1-.3-.2-.5-.2-.5 0-.1 0-.2.3-.2.2 0 .3.1.4.1 0 .1 0 .2-.1.3 0 0 .1 0 .1-.1h.1c.1 0 .1 0 .2.2.1.3-.1.3-.1.3h-.2c.1.3.3.4.6.4s.5-.2.5-.6c0 0-.1.1-.2.1s-.2-.1-.2-.2c0-.2 0-.3.1-.3s.2 0 .2.1c-.1-.1-.1-.2-.1-.2 0-.1.1-.2.3-.2.2 0 .3.1.3.2s0 .2-.1.2c0 0 .1-.1.2-.1s.1.1.1.3c0 .2-.1.2-.2.2s-.2-.1-.2-.1c0 .4.2.6.5.6s.6-.1.7-.4h-.2s-.2 0-.1-.3c0-.2.1-.2.2-.2h.1l.1.1c-.1-.1-.1-.2-.1-.3 0-.1.1-.2.3-.1.2 0 .3.1.3.2s0 .2-.2.3h.3v.3c0 .1-.1.1-.1.1l-.1-.1c0 .2.1.4.4.5.3.1.6-.1.7-.3v-.1h-.2c-.1-.1 0-.1 0-.2s.1-.2.1-.2c.1-.2.3-.1.3-.1v.2h.1c0-.2.1-.2.2-.3h.2c.1 0 0 .1 0 .1l-.3.3c-.4.4-.6 1.6-.7 1.8-.6 0-1.6-.1-2.5-.1" class="st3"/><path d="M26 6c-.1.5-.2.9-.2.9s-.2-.1-.6-.1h-1c0-.2.1-.6.6-.6v-.1l-.5-.1c.4-1 1.5-.1 1.7 0zm-.3 3.2c.2 0 .4-.3.4-.3h.2s.1.3.4.3c.9.1 1.6.3 1.9.4.2-.3.1-.7-.4-1-.2-.1-.7-.3-1.5-.3-.5.5-1-.1-1.5.1.2-.2.5-.5.7-.5 0 0 .1.1.3.1.1 0 .5 0 .5-.2 0-.1-.2-1.9-.2-1.9s.8-.4 1.4-.4c.6 0 .8.4.8.4.3-1.2-1.3-1.2-2.4-1.2-3.1 0-2.3.6-2.2 1.7 0 .3-.4.5 0 1.6.1.1.1.3.2.6-.4.3-.5.6-.3 1 .2-.3 1.1-.4 1.7-.4M26.2 10.8c-.7 0-.9-.2-.9-.6 0 0 .2.1.9.1s.9-.1.9-.1c0 .4-.2.6-.9.6zm2.2-.9c-1.5-.3-2.9-.3-4.4 0-.3 1.1-.6 3.2-.1 3.9.1.2 1 .5 1.8.3.2-.1.3-1.1.3-1.5.1-.6.1-.7.1-.7h.3c.1.1.1 2.1.4 2.3.7.3 1.7 0 1.9-.3.4-.6-.1-3.4-.3-4zM26.2 29.6c-2.3 0-5 .2-6 .5-.3-.6-.9-2.2-1.8-3.2-.1-.2-.5-.6-.6-.6-.1-.1-.2-.2 0-.3.2 0 .4-.1.6 0 .3.1.5.2.6.6h.1c0-.2 0-.4.1-.5.1-.1.3-.2.7.1.2.2.3.3.3.5.1.2.1.4 0 .5-.1.1-.3.1-.5 0v.1c.2.3.9.7 1.6.6.9-.1 1.1-.6 1-1.1h-.1s-.1.1-.3.2c-.1 0-.4 0-.6-.4-.2-.3-.1-.5-.1-.6.1-.1.3-.2.7-.1v-.1c-.4-.1-.5-.4-.5-.6 0-.2.1-.4.7-.5.6-.1.8.1.9.3 0 .1 0 .5-.3.6l.1.1.2-.2c.1 0 .2-.1.2-.1.2 0 .4.1.5.5.1.6-.2.7-.3.7-.1 0-.3 0-.4-.1l-.1.1c.3.6.8 1 1.7.9.8-.1 1.3-.5 1.3-1.3h-.1s-.2.2-.4.2c-.3 0-.5-.2-.5-.5-.1-.4.1-.6.2-.7.2-.1.5.1.5.1l.1-.1c-.2-.2-.3-.3-.3-.5.1-.2.3-.4.8-.4s.7.2.8.4c0 .2-.1.3-.2.5 0 0 0 .1.1.1.1-.1.3-.2.5-.1s.3.3.2.7c-.1.3-.3.5-.5.5-.3 0-.4-.2-.4-.2h-.1c0 .8.6 1.3 1.3 1.3.8.1 1.4-.3 1.7-.9l-.1-.1c-.1.1-.3.1-.4.1-.1 0-.5-.1-.4-.7.1-.4.3-.5.5-.5.1 0 .2 0 .3.1.1 0 .1.1.2.2l.1-.1c-.3-.2-.3-.5-.3-.6 0-.2.3-.4.9-.3.5.1.6.3.6.5s-.1.4-.5.6v.1c.4-.1.6 0 .7.1.1.1.1.3-.1.6-.2.4-.5.4-.6.4-.1 0-.2-.1-.3-.2h-.1c-.1.5.1 1 1 1.1.7.1 1.4-.3 1.6-.6v-.1c-.2.1-.4.1-.5 0-.2-.1-.1-.3 0-.5s.1-.3.3-.5c.4-.3.6-.2.7-.1.1.1.1.3.1.5h.1c.1-.4.3-.5.6-.6h.6c.2 0 .1.2 0 .3l-.6.6c-.9 1-1.6 2.6-1.8 3.2-1-.3-3.7-.5-6-.5zM24.4 40.1c.2 0 .2-.1.3-.2h-.4c0 .1 0 .2.1.2zM24.5 35.8H24c0 .1.1.2.1.2.3 0 .3-.1.4-.2zM28.8 37.2h.1c.3 0 .6-.2.6-.6 0-.4-.4-.5-.6-.5-.7 0-.6.7-1.4.9h.4c.5-.1.8 0 .9.2z" class="st3"/><path d="M30.9 33.5c-.2-.1-.7-.2-.7-.5 0-.1 0-.2.3-.2.2 0 .3.1.3.2h.2c0-.1 0-.2.3-.2s.3.2.3.2c0 .3-.5.3-.7.5zm0 4c-.2-.1-.7-.2-.7-.5 0-.1 0-.2.3-.2.2 0 .3.1.3.2h.2c0-.1 0-.2.3-.2s.3.2.3.2c-.1.3-.6.4-.7.5zm-.3 4.3c-.2-.1-.7-.2-.7-.5 0-.1 0-.2.3-.2.2 0 .3.1.3.2h.2c0-.1 0-.2.3-.2s.3.2.3.2c0 .3-.5.4-.7.5zm-.1 1.1v-.1.1c-.1-.1-.2-.1-.2-.2l-.1.1v.1c0 .1-.1.2-.1.2v.1s-.1 0-.2-.1V43h-.1s0 .2-.1.2h-.1v.1c-.1 0-.1-.1-.1-.1 0-.1.1-.2.1-.3h-.1l-.1.1h-.1v.1c0-.1-.1-.1-.1-.1 0-.1.1-.2.2-.3h.1c.1 0 .2-.2.1-.3-.2.1-1 .6-1.7.6-.9 0-.2-1.6-1-1.6-.7 0-1 .9-1.8.9-.3 0-.5 0-.6-.1 0 .3 0 .4-.2.4s-.4.1-1.5.1c-.1.4-.1.4-.3.4-.1 0-.1 0-.2-.1.1 0 .2 0 .2-.1 0 0-.1 0-.1-.1 0 0 0-.1.1-.1h-.1c-.2 0-.3.2-.4.2-.1 0-.2-.1-.2-.2l-.1.1c0-.1 0-.2.2-.3.1 0 .2 0 .2-.1H22c-.1 0-.2 0-.2-.1 0 0-.1 0-.1.1 0-.1.1-.2.2-.2s.1 0 .2.1v-.1c0-.1-.1-.1-.2-.1s0-.1-.1-.1-.1 0-.2.1c0-.1.2-.3.3-.3.3 0 .3.3.7.3.5 0 .8-.1 1-.1-.1-.1-.2-.2-.2-.4s.2-.5.2-.6h-.1c-.1 0-.2 0-.2-.2 0-.1.1-.2.1-.2h.1c0 .1.1.1.3.1.2 0 .3-.1.3-.3 0-.3-.1-.4-.4-.4-.2 0-.2 0-.2.1h-.1c-.1-.1-.2-.3-.2-.4 0-.1.1-.2.4-.2h.2l-.1-.6h.1c.2.1.2.3.2.3h.1c0-.2.1-.3.1-.3h.1c.1.1.1.3.1.3h.1s.1-.2.2-.3h.1l.2.9c.2 0 .6.7.6 1.4.2 0 1-.1 1.1-.1-.6-.1-1-.4-1-1.3h.2c.3.1.5.3.5.5 0 .1-.1.2-.1.2 0 .1.2.3.6.3.9 0 .9-1 2-1 .4 0 .9.2.9.9s-.7.9-.9.9c.1.1-.2.8.1.6.4-.1.8-.4.9-.4.3-.1.2.4.5.6.2.1.3.2.3.2 0 .1-.1.3-.2.3zm-3.4-.3c-.1.1.1.4.1.5 0 .1 0 .2-.1.2 0 0-.2.1-.5.1 0 0 .1.1.1.2 0 .2-.2.2-.3.2.1 0 .1-.1.1-.1-.1-.1 0-.2 0-.2h-.1c-.2 0-.1.4-.4.3v.1c-.1 0-.1-.1-.1-.2s.2-.2.2-.2H26c-.1 0-.1.2-.3.1 0 0-.1 0-.1.1 0-.1 0-.2.1-.2.1-.1.2-.1.2-.1-.1-.1-.2.1-.2 0-.1 0-.1 0-.1.1 0-.1.1-.2.2-.3.1-.1.4.1.6 0h.4c.1 0 .1-.1 0-.2-.1-.3.1-.9.3-1 .2-.1.3-.1.5-.1 0 .1.1.1.1.2v.4c-.4-.1-.5-.1-.6.1zm-5.8-1.3c0-.1 0-.2.3-.2.2 0 .3.1.3.2h.1c0-.1 0-.2.3-.2s.3.2.3.2c0 .3-.5.4-.6.5h-.1c-.1-.1-.6-.2-.6-.5zm1.7-1.2h.1c.3 0 .3.5.7.5.2 0 .2-.1.3-.1.1 0 .1 0 .1.1s-.1.1-.3.1c-.6.1-.5-.4-.9-.6zm.6 2c-.1-.1-.2-.1-.2-.2-.2-.2-.3-.6-.5-.8-.2-.2-.3-.4-.3-.4h-.3c-.1 0-.3 0-.4-.2h.1c0-.1 0-.1.1-.1h.1c0-.1-.1-.1-.2-.1-.2 0-.2-.2-.2-.2h-.2c.1-.1.2-.1.3-.1.1 0 .2 0 .3.1V40l-.1-.1v-.2h-.2c.1-.1.2-.1.2-.1.2 0 .3.2.3.3 0 0 .1 0 .1-.1v-.2c0-.1 0-.1-.1-.1h.1c.1 0 .2.1.2.2 0 .2-.1.3-.1.4 0 .1.6 1 .8 1.2.2.2 0 .5.2.8zm3.2-2.5c.2 0 .3.1.3.2h.2c0-.1 0-.2.3-.2s.3.2.3.2c0 .3-.5.4-.6.5h-.1c-.2-.1-.6-.2-.6-.5-.1 0-.1-.2.2-.2zm-.7-.5c-.3 0-.3.4-.6.2v.1c-.1 0-.1-.1-.1-.2.1-.1.2-.1.2-.2h-.1c-.1 0-.2.2-.3 0 0 0-.1 0-.1.1 0-.1 0-.2.2-.2.1 0 .3 0 .3-.1-.1-.1-.2 0-.2-.1-.1 0-.1 0-.2.1 0-.1.1-.2.3-.2.2 0 .4.2.6.2h.4c.1 0 .1-.1.1-.2-.1-.3 0-.6.3-.8.2-.1.4-.1.6-.1.1 0 .1.1.1.2v.4c-.1 0-.3 0-.4.2-.1.1.1.3 0 .4 0 .1-.1.2-.2.2h-.5v.1c0 .1-.1.2-.2.2s-.2.1-.3 0c.1 0 .1-.1.1-.1-.1-.1 0-.2 0-.2zm-4.6-.4c.1 0 .2 0 .2-.1-.1 0-.2 0-.2.1-.1-.1-.2-.1-.2-.2 0 0-.1 0-.1.1 0-.1.1-.2.2-.2s.1 0 .3.1v-.1c0-.1-.1-.1-.2-.1s0-.1-.1-.1-.1 0-.2.1c0-.1.2-.3.3-.3.3 0 .3.4.7.4.5 0 1.2-.1 1.3-.1-.1-.1-.2-.2-.2-.4s.2-.5.2-.6h-.1c-.1 0-.2 0-.2-.2 0-.1.1-.2.1-.2h.1c0 .1.1.1.3.1.3 0 .3-.1.3-.3 0-.3-.1-.4-.4-.4-.2 0-.2 0-.2.1h-.1c-.1-.2-.1-.3-.1-.4s.1-.2.4-.2h.2l-.1-.6h.1c.2.1.3.3.3.3h.1c0-.2.1-.3.1-.3h.1c.1.1.1.3.1.3h.1s.1-.2.2-.3h.1l-.1.5c.2 0 .7.8.7 1.4.2 0 1.1-.1 1.2-.1-.7-.1-1.1-.4-1.1-1.3h.2c.4.1.5.3.5.5 0 .1-.1.2-.2.2 0 .1.2.3.7.3 1 0 .8-1.1 2.1-1.1.5 0 1.1.2 1.1 1s-.8.9-1 .9c.1.1-.1.6.3.6.4-.1.9-.3 1.1-.3.3 0 .2.4.5.6.2.2.3.2.3.3 0 .1 0 .2-.1.2v-.1s-.1 0-.2-.1c-.1 0-.1.1-.1.1v.1c0 .1-.1.2-.1.2v.2s-.2 0-.2-.1v-.1s0-.1-.1-.1h-.1s0 .2-.1.2h-.1v.1c-.1 0-.1-.1-.1-.1 0-.2.1-.1.1-.2H29.8s0 .1-.1.1c0-.1-.1-.1-.1-.2s.1-.2.3-.3h.2c.1 0 .2-.2.2-.3-.3 0-1.2.4-1.9.4-1.1 0-.2-1.4-1.1-1.4-.8 0-1.1.9-2 .9-.3 0-.6-.1-.7-.1 0 .3 0 .4-.3.4-.2 0-.7.1-1.9.1-.1.4-.2.4-.3.4-.1 0-.2 0-.2-.1.1 0 .2 0 .2-.1 0 0-.1 0-.1-.1v-.1h-.1c-.2 0-.3.2-.5.2-.1 0-.2-.1-.2-.2l-.1.1c.2.1.2 0 .4 0zM21 37c0-.1 0-.2.3-.2.2 0 .3.1.3.2h.2c0-.1 0-.2.3-.2s.3.2.3.2c0 .3-.5.4-.6.5h-.1c-.3-.1-.7-.2-.7-.5zm.3-4.3c.2 0 .3.1.3.2h.2c0-.1 0-.2.3-.2s.3.2.3.2c0 .3-.5.4-.6.5h-.1c-.2-.1-.6-.2-.6-.5-.1 0-.1-.2.2-.2zm.3-1.1c.1 0 .3.2.3.2s.1 0 .1-.1l-.1-.1v-.2h-.2c.1-.1.2-.1.2-.1.2 0 .3.2.3.3 0 0 .1 0 .1-.1v-.1c0-.1 0-.1.1-.1 0 0 0-.1-.1-.1h.1c.1 0 .2.1.2.2 0 .2-.1.3-.1.4 0 .1.6 1 .9 1.3-.1.2-.3.5-.1.7-.1-.1-.2-.1-.2-.2-.2-.2-.3-.6-.5-.9-.2-.2-.3-.4-.3-.4H22c-.1 0-.3 0-.4-.3.1 0 .1.1.1.1 0-.1.1-.1.1-.1h.1c0-.1-.1-.1-.2-.1-.2 0-.2-.2-.2-.2h-.2c.1-.1.2-.1.3-.1zm1.2.2c.3 0 .3.5.7.5.2 0 .2-.1.3-.1.1 0 .2 0 .2.1s-.1.1-.3.1c-.8 0-.6-.5-1-.7.1.2.1.1.1.1zm-.1 4.2h.1c.3 0 .3.5.7.5.2 0 .2-.1.3-.1.1 0 .2 0 .2.1s-.1.2-.3.2c-.7 0-.5-.5-1-.7zm.6 1.9c-.1-.1-.2-.1-.2-.2-.2-.2-.3-.6-.5-.9-.2-.2-.3-.4-.3-.4H22c-.1 0-.3 0-.4-.3.1 0 .1.1.1.1 0-.1.1-.1.1-.1h.1c0-.1-.1-.1-.2-.1-.2 0-.2-.2-.2-.2h-.2c.1-.1.2-.1.3-.1.1 0 .3.2.3.2s.1 0 .1-.1l-.1-.1v-.2s-.1-.1-.2-.1c.1-.1.2-.1.2-.1.2 0 .3.2.3.3 0 0 .1 0 .1-.1v-.1c0-.1 0-.1.1-.1 0 0 0-.1-.1-.1h.1c.1 0 .2.1.2.2 0 .2-.1.3-.1.4 0 .1.6 1 .9 1.3-.1.3-.3.6-.1.8zm3.5-2.4c.2 0 .3.1.3.2h.2c0-.1 0-.2.3-.2s.3.2.3.2c0 .3-.5.4-.6.5h-.1c-.2-.1-.6-.2-.6-.5-.1 0-.1-.2.2-.2zm-.7-.4s0-.1 0 0c-.3 0-.3.4-.6.2v.1c-.1 0-.1-.1-.1-.2.1-.1.2-.1.2-.2h-.1c-.1 0-.2.2-.3.1 0 0-.1 0-.1.1 0-.1 0-.2.2-.2.1 0 .3 0 .3-.1-.1-.1-.2 0-.2-.1-.1 0-.1 0-.2.1 0-.1.1-.2.3-.2.2 0 .4.2.6.2h.4c.1 0 .1-.1.1-.2-.1-.3 0-.6.3-.8.2-.1.4-.2.6-.1.1 0 .1.1.1.2v.4c-.1 0-.3 0-.4.2-.1.1.1.3 0 .4 0 .1-.1.1-.2.2h-.5v.1c0 .1-.1.2-.2.2-.1.1-.2.1-.3 0 .1 0 .1-.1.1-.1-.1-.3 0-.3 0-.3zm-2.4-3.4h.2l-.1-.7h.1c.2.1.3.3.3.3h.1c0-.2.1-.3.1-.3h.1c.1.1.1.3.1.3h.1s.1-.2.2-.3h.1l-.1.5c.2 0 .7.7.7 1.4.2 0 1.1-.1 1.2-.1-.7-.1-1.1-.4-1.1-1.3h.2c.4.1.5.3.5.5 0 .1-.1.2-.2.3 0 .1.2.4.7.4 1 0 .9-1.1 2.2-1.1.5 0 1.1.2 1.1.9 0 .8-.9.9-1.1.9.1.1-.1.5.4.5.4 0 .9-.1 1.1-.1.3 0 .1.4.4.7.2.2.2.3.2.3 0 .1-.1.2-.2.2v-.1s-.1 0-.1-.1c-.1 0-.1.1-.1.1v.1c0 .1-.1.1-.2.2v.1c-.1 0-.2-.1-.2-.2v-.2h-.1s0 .2-.2.2H30v.2c-.1 0-.1-.1-.1-.1 0-.2.1-.1.1-.2H29.7s0 .1-.1.1v-.2c0-.1.1-.2.3-.2h.2c.1 0 .2-.1.2-.2-.3 0-1.2.3-1.9.3-1.1 0-.2-1.4-1.1-1.4-.8 0-1.1.9-2 .9-.3 0-.6 0-.7-.1 0 .3 0 .4-.3.4-.2 0-.9.1-2 .1 0 .3-.1.3-.3.3-.1 0-.2 0-.2-.1.1 0 .2 0 .2-.1 0 0-.1 0-.1-.1 0 0 0-.1.1-.1h-.1c-.2 0-.3.2-.5.2-.1 0-.2-.1-.2-.2l-.1.1c0-.1 0-.3.2-.3.1 0 .2 0 .2-.1h-.1c-.1 0-.2 0-.2-.1 0 0-.1 0-.1.1 0-.1.1-.2.2-.2s.1 0 .2.1v-.1c0-.1-.1-.1-.2-.1s0-.1-.1-.1-.1 0-.2.1c0-.1.2-.3.3-.3.3 0 .3.4.7.4.5 0 1.4-.1 1.5-.1-.1-.1-.2-.2-.2-.4s.2-.5.2-.6h-.1c-.1 0-.2 0-.2-.2 0-.1.1-.2.1-.2h.1c0 .1.1.1.3.1.3 0 .3-.1.3-.3 0-.3-.1-.4-.4-.4-.2 0-.2 0-.2.1h-.1c-.1-.1-.1-.3-.1-.4h.5zm3.1-.3c.2 0 .3.1.3.2h.2c0-.1 0-.2.3-.2s.3.2.3.2c0 .3-.5.4-.6.5h-.1c-.2-.1-.6-.2-.6-.5-.1-.1-.1-.2.2-.2zm-.6-1c-3.2 0-5.2.3-5.9.4 0 .5.2 5 .3 8.5.2 4.2 2.4 5.5 5.6 5.5 3 0 5.3-.7 5.6-5.5.2-3.5.3-8 .3-8.5-.7-.1-2.7-.4-5.9-.4z" class="st3"/><path d="M29.3 40.7c0-.4-.3-.5-.5-.5-.6 0-.7.7-1.4.8h.3c.4 0 .7.1.8.2h.1c.4.1.7-.1.7-.5zM28.8 33.1h.1c.3 0 .6-.2.6-.6 0-.4-.3-.5-.6-.5-.7 0-.7.8-1.5.9h.4c.6 0 .9 0 1 .2zM24.2 31.9c.2 0 .2-.1.3-.2H24c0 .1.1.2.2.2zM39.4 19.8c.2 0 .5.1.5.5 0 .5-.2.6-.4.6s-.7-.1-.7-.6c0-.4.5-.5.6-.5zM36.9 20c.2 0 .4.2.5.3 0-.2.2-.3.4-.3.3 0 .4.2.5.5.1.3.3.6.7.7 0 .5-.1.8-.6.8-.2 0-.3 0-.4-.1-.1.1-.2.3-.5.3-.2 0-.4-.2-.5-.3-.2.2-.3.2-.5.2s-.4-.2-.5-.3c-.1 0-.2.1-.3.1-.4 0-.6-.7-.6-.9 0-.2.1-.4.4-.4.1 0 .2 0 .2.1 0-.2.1-.5.4-.5.2 0 .3.1.4.2 0-.2.1-.4.4-.4z" class="st3"/><path d="M36.8 17c-.6 0-2.1.7-2.1 2.2 0 .3 0 .7.1.9 0 0 .1-.1.2-.1s.3.1.4.2c0-.2.1-.5.4-.5.2 0 .3.1.4.1.1-.3.3-.4.5-.4s.5.2.6.4c0-.2.2-.3.4-.3.4 0 .5.3.7.6 0-.4.6-.6 1-.6h.1c0-1.2-.6-2.1-1.8-2.4.2-1.9.1-2.1.1-2.1-.1-.1-.2-.1-.2-.1v-.3c.2 0 .3-.2.3-.4 0-.1-.1-1-.1-1.1 0-.1.1-.2.2-.2 0 0 .9.4 1 .4.2 0 .4-.2.4-.4s-.1-.4-.3-.5c-.1 0-.8.2-1 .2-.1 0-.2-.1-.2-.2 0 0 .3-.9.3-1 0-.2-.2-.4-.4-.4-.2-.1-.4.1-.5.3 0 .1.1 1 .1 1.1 0 .1-.1.2-.2.2-.2 0-.9-.3-1-.4-.2 0-.4.2-.4.4s.1.5.3.5c.1 0 1-.2 1.1-.2.1 0 .1.1.1.2 0 0-.3.9-.3 1 0 .2.1.4.3.4v.3c-.1 0-.2 0-.2.1-.1 0-.2.1-.3 2.1z" class="st3"/></g></switch></svg>