<svg xmlns="http://www.w3.org/2000/svg" xml:space="preserve" id="Layer_1" x="0" y="0" version="1.1" viewBox="0 0 243 52"><style>.st1{fill:#fff}.st3{fill:#1d1d1d}</style><switch><g><path id="Line_00000058584806415239596220000012199692240716688035_" fill="#b2b2b2" d="M62.3.9h.7v50.6h-.7z"/><path fill="#901a1e" d="M52.2 26c0 14.3-11.6 25.9-25.9 25.9C12 51.9.3 40.3.3 26c0-14.3 11.6-26 26-26 14.3 0 25.9 11.6 25.9 26z"/><path d="M43 24.9v-.1c0-.2 0-.3.3-.3h.4v.6h.2v-.6h.6c.1 0 .1 0 .1.1v.5c0 .3-.3.4-.5.4v.2c.2 0 .5 0 .6-.1 0-.8-.1-1.2-.1-1.9h-.2v.1c0 .2-.2.2-.4.3-.2 0-.5 0-.9.1-.4 0-.4 0-.5-.2v-.1h-.2c0 .3.1.7.1 1.1.4-.1.5-.1.5-.1zM13.9 37.2s0 .1 0 0c.2.2.2.3 0 .5l-.3.3-.4-.4c-.1 0-.1.1-.2.1l.4.4c0 .1-.4.4-.5.4 0 0-.1.1-.2 0l-.3-.3c-.2-.3 0-.5.1-.6 0-.1-.1-.1-.2-.1l-.5.5c.5.6.8.9 1.3 1.3l.1-.1v-.1c-.2-.2 0-.3.1-.5l.6-.6c.3-.3.3-.3.5-.2l.1.1c.1 0 .1-.1.1-.1-.2-.2-.5-.5-.7-.8.1.1 0 .2 0 .2zM43.2 27.5c.7-.2.8-.2 1.3-.3.2 0 .3-.1.3.1v.1h.2c0-.3 0-.7.1-1h-.2v.1c0 .2-.1.2-.3.3-.1 0-1.6.4-1.7.4 0 0 .1.3.1.4.5.2 1.2.6 1.5.8.3.1.3.3.3.4v.1s.1.1.2 0c0-.2.1-.6.1-.9 0-.1-.1-.1-.2 0v.1c0 .1-.1.2-.3 0-.6-.2-1-.4-1.4-.6zM39 15.2l.1-.1.1.1c.1.1.2.1.5-.1.2-.2.5-.4.7-.5.1-.1.3-.2.2-.4l-.1-.1.1-.1c.2.3.5.6.7.8 0 .1-.1.1-.1.1l-.1-.1c-.2-.2-.3-.1-.5.1s-.5.4-.7.5c-.2.2-.3.3-.2.4l.1.1-.1.1c-.2-.2-.5-.5-.7-.8zM10.6 20.5s-.1 0-.2-.1v-.1c0-.2 0-.2-.3-.4-.2-.1-.6-.2-.8-.3-.2-.1-.4-.2-.5 0v.1c-.1 0-.2 0-.2-.1.1-.4.3-.8.4-1 0 0 .1 0 .2.1v.1c-.1.2.1.3.3.4.3.1.7.3.8.3.3.1.4.1.5 0 0 0 0-.1.1-.1s.1 0 .2.1c-.2.2-.4.7-.5 1zM40.4 17.3c0-.1.1-.1.1-.1s0 .1.1.1c0 0 .1.2.2.1s.2-.1.3-.1c-.1-.1-.3-.5-.5-.8 0-.1 0-.1.1-.2 0 0 2 .3 2.1.3v.3c-.1 0-1.7-.2-1.8-.3.1.2.3.5.4.6.1 0 .3-.2.4-.2h.1c.1.1.1.1.2.3-.1.1-.4.2-.5.3 0 .1.1.3.1.3 0 .1-.1.1-.2.1 0 0-.1-.2-.1-.3-.1 0-.2.1-.3.2-.1.1 0 .2 0 .2s0 .1.1.1c0 0-.1.1-.2.1-.2-.5-.3-.7-.6-1zM41.2 19.2s-.1-.2 0-.3c.1 0 1.9.1 2.1.1-.1-.2-.2-.6-.3-.7-.1-.1-.2-.2-.3-.2h-.1s-.1-.1 0-.2c.1 0 .5-.1.6-.1 0 .1.1.2.1.2 0 .1.3.7.3.8 0 .1.1.2.2.3 0 0 0 .1-.1.1-.2 0-.3-.1-.4-.1 0 .2-1.9.1-2.1.1zM13.6 15.6c0 .1-.1.1-.2.1 0-.1-.9-1.7-.9-1.9-.1.2-.4.5-.5.6-.1.1-.1.2 0 .3v.1s-.1.1-.2.1c-.1-.1-.3-.4-.4-.5.1-.1.1-.1.1-.2s.5-.6.6-.7c.1-.1.2-.2.2-.3h.1c0 .2.1.3.1.4.2.1 1 1.8 1.1 2zM41.9 20.9c0-.1.1-.1.2-.1.1.2.3.5.6.7.3.2.6.2 1 .1s.7-.4.6-.7c-.1-.3-.4-.2-.5-.2-.4.1-.4.4-.3.6 0 .1-.1.1-.1.1s-.2-.1-.2-.4c-.1-.4.3-.7.4-.7.5-.2.8.1.9.5.1.4 0 1-.7 1.1-.9.2-1.7-.3-1.9-1zM42.9 34.1s0 .1-.1.1c-.2.5-.7.7-1.1.5-.4-.2-.5-.4-.5-.7 0-.1 0-.3.1-.5.1-.1.1-.2.2-.2s.2 0 .3.1l1.1.5v.2zm.4-.8s0 .1-.1.1c-.1.1-.1.1-.4 0l-.9-.4c-.3-.1-.3-.2-.2-.3v-.1c0-.1-.1-.1-.2-.1l-.2.4-.2.5c-.3.4-.4 1.1.3 1.6.6.4 1.2.2 1.6-.7.2-.3.3-.6.4-.9 0-.1-.1-.1-.1-.1zM39.3 38.5s.1.1.1.2 0 .2-.1.4l-.2.2-.9-.9c-.2-.3-.3-.3-.1-.5l.1-.1-.1-.1-.7.7c0 .1.1.1.1.1s.1 0 .1-.1c.2-.1.2-.1.4.2l.9.9-.3.3c-.1.1-.3 0-.3 0l-.1-.1c-.1 0-.1.1-.1.1.1.1.3.4.4.4.6-.5.9-.8 1.5-1.4 0 0-.3-.4-.3-.5-.3.1-.4.2-.4.2zM40.8 37.1l-.9-.3.4-.5.5.8zm-1.2-1.3c0 .1.1.1.1.1v-.1c.1-.1.2 0 .3.1.1.1.1.2.1.2-.1.1-.4.5-.5.6-.1 0-.1 0-.2-.1-.1 0-.3-.1-.2-.2l.1-.1c0-.1-.1-.1-.2-.1-.1.1-.3.4-.6.7 0 .1.1.1.1.1l.1-.1c.2-.1.3 0 .5 0 .1 0 1.6.5 1.7.5h.1s.1-.2.1-.3c-.1-.1-.7-1.2-.8-1.5-.2-.3-.1-.4-.1-.5V35c0-.1-.1-.1-.2-.1 0 .4-.3.8-.4.9zM8.2 26.4c-.1 0-.1 0-.2-.1-.1 0-.1-.2-.1-.3v-.3h1.3c.4 0 .4 0 .4.2v.1h.2v-1h-.2v.1c0 .2-.1.2-.4.2H7.9v-.4c0-.2.2-.2.2-.3h.2v-.2h-.6c-.1.8-.1 1.3-.1 2l.5.1c.1 0 .1-.1.1-.1zM8.1 27.9l.8-.4.1.6-.9-.2zm1.7.2c-.1-.1-.2 0-.2 0v.1c0 .2-.1.1-.3.1-.1 0-.2 0-.2-.1s-.1-.6-.1-.7c.1 0 .1 0 .2-.1s.2-.1.3 0v.1h.2c0-.1 0-.5-.1-.9h-.2v.1c0 .2-.2.3-.3.3-.1 0-1.5.7-1.5.7v.1l.1.2c.1 0 1.3.4 1.6.5.3.1.4.2.4.3v.1h.2c0-.2-.1-.8-.1-.8zM12.2 36.6c-.3.2-.5.2-.7.2-.2 0-.3-.1-.4-.3-.1-.1-.1-.3-.1-.5s.2-.5.5-.7c.4-.3.9-.3 1.1.1.3.5-.1 1-.4 1.2zm.5-1.2c-.2-.3-.5-.5-.8-.5-.3-.1-.6 0-.8.2-.3.2-.4.4-.5.7-.1.3 0 .6.2.9.4.6 1.1.7 1.6.4.3-.2.4-.4.5-.7.1-.4.1-.7-.2-1zM16.6 39.4s0 .1-.1.1h-.1c-.2-.1-.2-.1-.5.2-.2.2-.4.5-.5.7-.1.2-.3.3-.1.5l.1.1-.1.1c-.3-.2-.9-.7-1.4-1.1.1-.1.2-.3.3-.4.1 0 .1 0 .2.1 0 0-.1.1-.1.2s0 .2.1.3c.1.1.3.3.4.3.1.1.1 0 .2 0 0 0 .3-.4.4-.5-.1-.1-.4-.4-.5-.4 0-.1.1-.1.1-.2 0 0 .4.3.5.4 0 0 .2-.3.3-.3.2-.3.2-.3 0-.5-.1-.1-.1-.1-.2-.1-.2-.1-.3-.1-.5 0-.1 0-.1.1-.1.1-.1 0-.1-.1-.1-.2 0 0 .4-.3.5-.4.2.2.7.6 1.2 1zM10.3 31.1c0-.1.1-.1.2 0 .1.3.2.5.3.8 0 0-.1.1-.2.1v-.1c-.1-.1-.1-.2-.4-.1-.2 0-.8.1-.9.2-.3 0-.5 0-.4.3v.1c0 .1-.1.1-.2.1-.1-.3-.2-.5-.3-.8.1 0 .2-.1.3-.2.2-.2.7-.6.9-.8-.2 0-1.1-.2-1.2-.2H8c0-.1-.1-.6-.2-.8 0 0 .1-.1.2 0v.1c0 .1.1.2.3.1.3-.1.7-.2 1-.3.3-.1.4-.2.4-.3v-.1s.1-.1.2 0c.1.5.1.7.2 1 0 0-.1.1-.2 0v-.1c-.1-.2-.1-.2-.4-.1-.3.1-.9.3-1.1.4.2.1.9.1 1.2.2.4.1.5.1.6.1 0 0 .1.1 0 .1 0 0-.2.2-.5.4-.2.2-.8.7-.9.8.3-.1.8-.2 1-.2.2 0 .4-.1.4-.3M42.5 29.3h.2v.1c0 .2.1.2.4.3.3.1.6.1.9.2.2.1.4.1.5-.1v-.1h.2c0 .1-.1.5-.1.6v.1c-.1 0-.1 0-.2.1 0 0-1.5.7-1.6.8.2.1.7.3.8.3.3.1.4.1.5-.1v-.1c.1 0 .1 0 .2.1-.1.3-.2.6-.3.8-.1 0-.1 0-.2-.1v-.1c0-.2 0-.2-.3-.3-.2-.1-1.3-.5-1.4-.5v-.1c.3-.1 2-1 2.1-1.1-.1 0-.8-.2-1-.2-.3-.1-.4 0-.5.1v.1c-.1 0-.1 0-.2-.1s0-.6 0-.7zM8 23.1c0-.1 0-.1 0 0h.9c0 .1-.1.5-.1.6-.2-.2-.7-.5-.8-.6zm-.3.2c.1 0 .3 0 .4.2 0 0 1 .6 1.2.8.2.1.2.2.2.2v.1c.1.1.1.1.2 0 0-.1 0-.4.1-.7 0-.1-.1-.1-.2 0v.1c0 .1-.1.1-.2 0-.1 0-.3-.2-.4-.3 0-.1.1-.6.1-.7h.4c.2 0 .2.2.2.2v.1c0 .1.1.1.2 0 .1-.6.2-1 .3-1.7-.2-.1-.5-.2-.5-.2-.1 0-.1.1-.1.2.1 0 .1.1.1.1.2.1.2.3.2.4 0 .1 0 .1-.1.3 0 .2-.1.2-.3.2h-.4l.1-.6H9l-.1.6c-.1 0-.6 0-.7-.1-.1 0-.1 0 0-.1 0-.1 0-.2.1-.4 0-.2.2-.3.2-.3h.2c.1-.1.1-.2 0-.2h-.5c-.1.5-.2.8-.2 1.2-.2.3-.2.4-.3.6zM36.6 41.2c0 .1 0 .1 0 0-.2-.1-.5-.6-.6-.7.1-.1.4-.3.5-.3 0 .3.2.9.1 1 .1 0 .1 0 0 0zm.4 0c-.1 0-.1-.2-.2-.4 0 0-.2-1.2-.2-1.4 0-.2 0-.3.1-.3l.1-.1c0-.1-.1-.1-.1-.1-.1 0-.3.3-.6.4 0 .1 0 .2.1.2l.1-.1c.1 0 .1 0 .1.1s.1.4.1.5c-.1.1-.5.3-.6.4l-.3-.3c-.1-.2 0-.3 0-.3l.1-.1c0-.1 0-.2-.1-.2-.5.3-.8.6-1.5.9.1.3.2.5.2.6.1.1.2 0 .2-.1v-.1c0-.2.1-.3.2-.4l.2-.2c.2-.1.2 0 .4.1.1.1.2.3.3.3-.1.1-.4.3-.5.3 0 .1.1.1.1.2.1-.1.4-.3.5-.3.1.1.4.5.4.6v.1s-.2.1-.3.2c-.2.1-.3.1-.4 0-.1 0-.1-.1-.2-.1s-.2.1-.1.1c.1.1.2.3.3.4.4-.2.7-.4 1.1-.6.3-.1.3-.1.5-.3 0 .1 0 .1 0 0zM9.8 34.4c.4-.2 1-.5 1.1-.6.3-.1.3-.2.3-.4v-.1s.1-.1.2-.1c.1.2.3.6.5.9 0 0-.1.1-.2.1v-.1c-.1-.1-.2-.1-.5 0l-.8.4c-.3.2-.3.2-.3.4v.1c0 .1-.1.1-.2.1-.2-.3-.4-.8-.5-.9 0-.1-.1-.2-.1-.3-.1-.2-.2-.6.3-.8.3-.1.5 0 .7.2l.3-.6c.1-.2.1-.3.1-.4v-.1c0-.1.1-.1.2-.1 0 0 .1.3.2.5-.1.2-.5 1-.5 1.1h-.1l-.3-.3c-.2 0-.2 0-.3.1-.1 0-.2.1-.2.2v.3c0 .2 0 .2.1.4 0-.1 0-.1 0 0zM17.2 42.1c.2-.4.5-1 .6-1.1.2-.3.2-.4 0-.5 0 0-.1 0-.1-.1s0-.1.1-.2c.2.1.6.4.9.5 0 .1 0 .1-.1.2h-.1c-.2-.1-.2 0-.4.3l-.4.8c-.2.3-.2.4 0 .5h.1s0 .1-.1.2c-.3-.2-.8-.4-.9-.5-.1 0-.2-.1-.3-.2-.2-.2-.5-.4-.2-.8.2-.3.4-.3.6-.2 0-.2 0-.5-.1-.7-.1-.2-.1-.3-.2-.4h-.1c0-.1 0-.1.1-.1 0 0 .3.2.5.3 0 .2.1 1.1.2 1.2h-.1c-.1-.1-.3-.1-.4 0l-.2.2c0 .1-.1.2-.1.3 0 .1.1.2.2.3.1 0 .1.1.2.1.3-.2.3-.1.3-.1zM11.2 19c0-.1.3-.7-.1-1-.4-.4-.8.1-1 .6-.1-.2-.6-.6-.7-.7 0-.1.3-1 .4-1.1.1 0 .2.1.3.2 0 .1-.3.8-.3.9 0 .1.1.1.2.2.1-.2.3-.6.8-.6.7 0 1.1.7.7 1.6-.1 0-.3 0-.3-.1zM10.5 16.3c0-.1-.1-.4.1-.7.1-.2.2-.3.4-.3s.5.1.5.6c.1-.2.3-.2.5-.2 0 0 .5.1.6.8.1.4-.2.9-.4 1-.2.1-.4-.2-.2-.4.1-.1.2 0 .3-.1.1-.1.1-.5-.1-.7-.1-.1-.4-.2-.6 0-.1.1-.1.2 0 .4-.1.1-.2.1-.3 0 0-.1.1-.4.1-.7 0-.2-.3-.3-.4-.2-.1.2-.1.4-.1.5h-.4zM34.9 7.3c0-.1.1-.3.2-.3s.1 0 .2.1c.3.1.4.1.6-.5.2-.3.5-1 .6-1.2.1-.3.3-.6 0-.8-.1 0-.1 0-.1-.1s0-.2.1-.3c.5.3 1.1.6 1.4.8 0 .1-.1.2-.1.2-.1 0-.1 0-.1-.1-.3-.1-.5.1-.6.4-.2.5-.5 1-.6 1.2-.2.4-.3.6 0 .8 0 0 .1.1.2.1 0 .1-.1.2-.2.2-.5 0-1.1-.3-1.6-.5zM40.9 11.4c0-.1.1-.2.2-.2l.1.1c.2.2.3.2.8-.2.3-.3.8-.7 1-.9.2-.2.5-.4.3-.7l-.1-.1c0-.1.1-.2.2-.2.4.4.8.9 1.1 1.2 0 .1-.1.2-.2.2s-.1-.1-.1-.1c-.3-.2-.5 0-.7.2-.4.3-.8.7-1 .9-.4.3-.4.5-.3.7l.1.1c0 .1-.1.2-.2.2-.4-.3-.9-.8-1.2-1.2zM42.5 38.5c.1 0 .2.1.2.2l-.1.1c-.1.3-.1.3.3.7.3.2.9.7 1.1.9.2.2.5.4.7.2l.1-.1c.1 0 .2.1.2.2-.4.5-.8 1-1 1.2-.1 0-.2-.1-.2-.2s.1-.1.1-.1c.2-.3 0-.5-.3-.7-.4-.3-.8-.7-1.1-.9-.4-.3-.5-.4-.7-.2l-.1.1c-.1 0-.2-.1-.2-.2.3-.3.8-.9 1-1.2zM26.5 46.4v.3h-.2c-.3 0-.4.1-.4.7v1.4c0 .3-.1.7.3.7h.1c.1.1.1.2 0 .3h-1.6c-.1-.1-.1-.2 0-.3h.1c.4 0 .4-.3.4-.7v-1.4c0-.5 0-.6-.3-.7h-.2v-.3c.6 0 1.4.1 1.8 0zM13.4 41.9c0 .1-.1.2-.2.2l-.1-.1c-.3-.1-.3-.2-.7.3-.3.3-.7.8-.9 1.1-.2.2-.5.5-.2.7 0 .1.1.1.1.1 0 .1-.1.2-.2.2-.5-.4-.9-.8-1.2-1.1 0-.1.1-.2.2-.2s.1.1.1.1c.3.2.5 0 .7-.3.3-.4.7-.8.9-1 .3-.4.4-.5.2-.7l-.1-.1c0-.1.1-.2.2-.2.3.2.9.7 1.2 1zM6.8 19.4c-.1 0-.2 0-.3-.1v-.2c0-.3 0-.4-.5-.6-.4-.1-1-.4-1.3-.5-.3 0-.6-.2-.7.2 0 .1 0 .1-.1.1s-.2 0-.3-.1c.2-.6.4-1.2.6-1.5.1 0 .2 0 .3.1v.1c-.1.4.2.4.5.6.5.2 1 .4 1.3.5.5.2.6.2.8-.1 0 0 0-.1.1-.2.1 0 .2 0 .3.1-.3.5-.6 1.2-.7 1.6zM44.2 15.8c-.5-.9-1.2-1.9-1.5-2.2 0-.1.2-.2.2-.2 0 .1.1.1.1.1.2.2.3.2.8-.1.3-.2.9-.7 1.1-.8.2-.2.6-.3.4-.7 0-.1 0-.1-.1-.1 0-.1.1-.2.2-.2.4.5.7 1 .9 1.3 0 .1-.1.2-.2.2 0-.1-.1-.1-.1-.1-.2-.3-.5-.1-.8.1-.4.3-.8.6-1.1.8-.4.3-.5.3-.4.6 0 0 .1.2.2.3.1.1.2.3.4.4.1.1.4.1.5.1.1 0 .2 0 .3-.1.1 0 .2.1.1.3-.3 0-.6.2-1 .3zM45.7 19.2c-.3-1-.8-2.1-1-2.5 0-.1.2-.1.3-.1 0 .1.1.1.1.1.2.2.3.2.8 0 .3-.2 1.1-.5 1.3-.6.3-.1.6-.2.5-.6 0-.1 0-.1-.1-.1 0-.1.2-.2.2-.1.3.6.5 1.1.7 1.5 0 .1-.2.1-.3.1 0-.1 0-.1-.1-.1-.2-.3-.5-.2-.8 0-.5.2-.9.4-1.3.6-.4.2-.5.2-.5.5 0 .1.1.2.1.3.1.1.2.3.3.4.1.1.4.1.5.1h.3c.1 0 .1.1.1.3-.3.1-.7.2-1.1.2zM31.9 5.9c0-.3.1-.6.2-.8.1 0 .2 0 .3.1 0 .3-.1.8.5 1 .4.1.6 0 .7-.2.1-.3 0-.6-.4-.9-.6-.5-.6-.8-.6-1.1 0-.5.4-1.2 1.4-.8.5.2.7.3.9.4 0 .1-.1.6-.2.8-.1 0-.2 0-.3-.1 0-.1.1-.6-.4-.8-.5-.2-.7.1-.8.3-.1.3.1.4.5.8.3.4.8.7.6 1.3-.2.5-.8.8-1.5.6-.7-.2-.9-.6-.9-.6zM29.9 46.3c.1.3.2.6.2.8-.1.1-.2.1-.3.1-.1-.3-.3-.8-.9-.7-.4.1-.6.3-.5.5 0 .3.3.5.8.6.7.2.9.5 1 .7.1.4.1 1.1-1 1.3-.5.1-.8 0-1 0-.1 0-.2-.4-.2-.6.1-.1.2-.1.3-.1 0 .1.1.6.7.5.5 0 .6-.4.6-.6 0-.3-.2-.3-.8-.5-.5-.2-1-.3-1.1-.9-.1-.6.4-1.1 1.1-1.2.7-.1 1.1.1 1.1.1zM11.1 40c-.1.3-.4.5-.5.7-.1 0-.2-.1-.2-.2.2-.3.5-.7.1-1.2-.4-.3-.7-.3-.8-.2-.3.2-.3.5-.1 1 .2.7.2 1 0 1.3-.2.3-.9.7-1.6-.1-.3-.4-.5-.7-.6-.8 0-.1.4-.5.5-.6.1 0 .2.1.2.2s-.4.4 0 .9c.3.4.7.3.8.1.2-.2.1-.4 0-.9s-.3-1 .2-1.4c.4-.4 1.1-.3 1.6.2.4.6.4 1 .4 1zM16 8.1c-.1 0-.2-.2-.1-.2s.1-.1.1-.1c.2-.2.3-.3 0-.8-.2-.3-.5-1-.7-1.2-.1-.2-.3-.6-.6-.4-.1 0-.1 0-.1.1-.1 0-.2-.2-.1-.2.5-.3 1.1-.6 1.4-.8.1 0 .2.2.1.2s-.1.1-.1.1c-.3.2-.2.4 0 .8.2.5.5 1 .6 1.2.2.4.3.5.6.5 0 0 .1 0 .2-.1.1 0 .1.2.1.3-.3 0-1 .4-1.4.6zM18.6 6.7c-.2-.2-.3-.5-.4-.7 0-.1.2-.2.3-.1.2.3.4.7 1.1.5.4-.1.5-.4.4-.7-.1-.3-.4-.4-.9-.5-.8-.1-1-.2-1.2-.5-.2-.3-.4-1.1.7-1.5.4-.2.7-.2.9-.2.1.1.3.5.3.7 0 .1-.1.1-.3.1 0-.1-.3-.5-.8-.4-.5.2-.5.5-.4.7.1.2.3.3.9.3.5.1 1 .1 1.3.7.2.5-.1 1.1-.8 1.4-.7.3-1.1.2-1.1.2zM13.2 9.8c-.3-.2-.5-.4-.6-.6 0-.1.1-.2.2-.2.3.2.6.5 1.1.2.3-.2.3-.5.2-.7-.2-.3-.5-.3-1-.2-.8.2-1.1.1-1.3-.1-.3-.3-.6-.9.3-1.6.4-.3.7-.4.9-.5.1 0 .4.4.5.6 0 .1-.1.2-.2.2s-.4-.4-.9-.1c-.4.2-.3.6-.2.7.2.2.3.2.9.1.5-.1 1-.2 1.4.3.4.5.2 1.1-.4 1.5-.5.4-.9.4-.9.4zM45.1 34.2c.1-.1.2 0 .3.1 0 0 0 .1-.1.2-.1.2 0 .4.5.6.4.2.9.4 1.3.6.3.2.6.3.7 0l.1-.1c.1 0 .2 0 .3.1-.1.2-.3.7-.4.9 0 0 0 .1-.1.1h-.4c-.1 0-2.6.6-2.9.6.2.1 1 .7 1.2.8.4.3.6.4.8.1l.1-.1c.1 0 .2.1.2.1-.2.4-.6.9-.8 1.2-.1 0-.2-.1-.2-.2l.1-.1c.1-.2.1-.3-.4-.6-.3-.2-1.8-1.2-2-1.3V37c.5-.1 3.5-.8 3.7-.9-.2-.1-1.2-.6-1.6-.7-.5-.2-.6-.2-.8 0l-.1.1c-.1 0-.2 0-.2-.1.2-.3.6-1 .7-1.2zM5.8 24.2c-.1.1-.2.1-.3 0V24c0-.2-.1-.4-.7-.4-.5 0-1-.1-1.4-.1-.4 0-.6-.1-.7.2v.2c-.1.1-.2.1-.3 0 0-.2.1-.7.1-1v-.2c.1 0 .1 0 .3-.1.1 0 2.2-1.4 2.5-1.6-.3-.1-1.2-.3-1.4-.4-.5-.1-.6-.1-.8.2 0 0 0 .1-.1.2-.1 0-.2 0-.3-.1.1-.5.2-1 .3-1.3.1-.1.2 0 .3.1v.1c0 .2 0 .3.6.5.4.1 2.1.6 2.3.6.1 0 .1.1.1.2-.4.3-3 1.9-3.2 2 .2 0 1.3.1 1.7.2.5 0 .7 0 .7-.3v-.2c.1 0 .2 0 .3.1.1.3 0 1 0 1.3zM9.9 13.5c-.1 0-.2 0-.2-.2l.1-.1c.1-.2.1-.4-.3-.7-.4-.3-.8-.6-1.1-.9-.3-.2-.5-.4-.7-.2l-.1.1c-.1 0-.2-.1-.2-.2.1-.2.4-.6.6-.8l.1-.1c.1 0 .2 0 .3.1h2.9c-.2-.2-.8-.9-1-1.1-.4-.2-.5-.3-.8-.1l-.1.1c-.1 0-.2-.1-.2-.2l1-1c.1 0 .2.1.2.2l-.1.1c-.2.2-.1.3.3.7.3.3 1.5 1.6 1.6 1.7 0 .1 0 .2-.1.2H8.3c.2.2 1.1.8 1.4 1.1.4.3.6.3.8.2l.1-.1c.1 0 .2.1.2.2-.3.3-.8.9-.9 1zM7.8 34.8c-.1 0-.2 0-.3.1 0 .1 0 .1.1.2.1.3 0 .4-.5.6-.1.1-.3.1-.5.3l-.7-1.6c.2-.1.4-.2.5-.2.5-.2.6-.2.8 0l.1.1c.1 0 .2 0 .3-.1-.2-.4-.5-1.1-.6-1.4-.1 0-.2 0-.3.1v.2c.1.3-.1.4-.5.6-.3.1-.8.3-1.3.5-.3.1-.6.3-.7 0 0 0 0-.1-.1-.1s-.2 0-.3.1c.1.4.3.9.6 1.5.1 0 .2 0 .3-.1v-.1c-.1-.3.1-.4.5-.6.1 0 .3-.1.5-.2l.8 1.6c-.1.1-.3.2-.4.2-.3.2-.6.3-.8 0 0 0 0-.1-.1-.1s-.2.1-.2.1c.2.4.4.9.7 1.4.1 0 .2-.1.2-.1v-.1c-.1-.3.1-.4.4-.6.2-.1.9-.5 1.2-.7.4-.4.5-.4.7-.2l.1.1c.1 0 .2-.1.2-.1-.2-.4-.6-1-.7-1.4zM40.2 10.1c-.1.1-.2.2-.3.4-.3-.1-.7-.3-1.2-.7-.3-.4-.7-.8-.7-1.7 0-.7.5-1.3 1.1-1.5.7-.3 1.4 0 2 .4.6.5.8.8.9.9-.2.2-.3.5-.5.8-.1 0-.2 0-.2-.1.1-.1.2-.3.2-.6 0-.2-.1-.5-.4-.7-.4-.3-1.3-.6-2 .5-.7 1 0 1.6.2 1.8.1.1.2.1.3.2.2.1.3.1.5 0l.2-.2c.2-.2.2-.2 0-.4-.1-.1-.1-.2-.2-.2 0-.1.1-.2.2-.2.4.4.9.7 1.2.9 0 .1-.1.2-.2.2s-.1 0-.1-.1c-.1-.1-.2-.1-.4.1-.5.1-.5.2-.6.2zM7.8 16.9c-.1 0-.2 0-.2-.1v-.1c.1-.3.1-.4-.5-.7-.4-.2-.9-.5-1.2-.7-.4-.2-.6-.3-.8 0 0 .1-.1.1-.1.1-.1 0-.2-.1-.2-.1.3-.6.8-1.6 1.5-2.5l.8.4c0 .1 0 .2-.1.3-.1 0-.2-.1-.3-.1-.1 0-.3 0-.5.2s-.3.5-.4.7c-.1.1 0 .2 0 .2.1.1.8.4.9.5l.5-.8c.1 0 .2.1.3.2l-.5.8s.5.3.6.3c.4.3.5.2.7-.2.1-.1.1-.2.2-.3.1-.3.1-.5-.1-.7-.1-.1-.1-.1-.1-.2s.1-.2.2-.2c.1.1.6.5.7.7-.4.5-1 1.4-1.4 2.3zM37.6 43.1c.1 0 .1.1.2.2 0 0-.1 0-.1.1-.2.2-.3.3 0 .8.2.4.5.9.7 1.2.2.4.3.6.6.4.1 0 .1 0 .1-.1.1 0 .1.2.1.2-.6.4-1.5.9-2.5 1.4-.1-.2-.3-.5-.5-.7 0-.1.1-.2.3-.2l.2.2c.1.1.3.2.5.1.3-.1.6-.3.7-.4.1-.1.1-.1.1-.2s-.4-.8-.5-.9l-.8.5c-.1-.1-.1-.2-.2-.3l.8-.5s-.3-.5-.3-.6c-.3-.5-.4-.4-.7-.2-.1.1-.2.1-.3.2-.3.2-.3.4-.3.7v.2c-.1.1-.2.1-.3.1-.1-.1-.2-.7-.3-.9.8-.3 1.6-.8 2.5-1.3zM46.9 21.3c1-.6 1.1-.7 1.8-1.2.3-.2.4-.2.5 0v.1c.1 0 .2 0 .3-.1-.1-.5-.3-1-.4-1.5-.1-.1-.2 0-.3.1v.2c0 .3-.1.4-.4.6-.2.1-2.3 1.5-2.4 1.5-.1 0 0 .1 0 .1s.2.3.3.4c.9.1 2.2.3 2.7.4.5.1.6.2.6.4v.2c.1.1.2 0 .3 0 0-.4-.1-.9-.2-1.3-.1-.1-.2 0-.3 0v.1c0 .2 0 .3-.4.2-.6 0-1.4-.1-2.1-.2zM46.5 32.2c1.1 0 1.3-.1 2.2-.1.3 0 .4 0 .4.3v.1c.1.1.2.1.3.1.1-.5.3-1 .4-1.6-.1-.1-.2-.1-.3-.1 0 0 0 .1-.1.2-.1.3-.2.3-.6.3-.2 0-2.7.1-2.8.1-.1 0-.1.1-.1.1v.5c.7.5 1.7 1.4 2.1 1.7.4.3.4.5.4.6 0 .1 0 .1-.1.2 0 .1.2.2.3.1.1-.4.3-.9.5-1.2 0-.1-.2-.2-.3-.1 0 .1 0 .1-.1.1-.1.2-.2.3-.5 0-.6-.4-1.2-.9-1.7-1.3zM39.9 42.1c1 .6 1.1.6 1.9 1.1.3.2.4.2.2.4l-.1.1c0 .1.1.2.2.2.4-.3.8-.7 1.2-1.1 0-.1-.1-.2-.2-.2l-.1.1c-.2.2-.4.1-.7-.1-.2-.1-2.4-1.3-2.4-1.4h-.1s-.2.3-.3.5c.3.8.7 2.1.8 2.5.2.5.1.6 0 .7-.1 0-.1.1-.2.1 0 .1.1.2.2.2.3-.2.8-.6 1.1-.8 0-.1-.1-.2-.2-.2l-.1.1c-.2.1-.3.1-.4-.3-.3-.5-.6-1.3-.8-1.9zM34.1 48.2c-.2-.6-.6-1.7-.7-1.9-.2-.5-.3-.6-.5-.5h-.2c-.1 0-.1-.2-.1-.3.5-.2 1-.4 1.5-.5.1.1.1.2.1.3-.1 0-.1.1-.1.1-.3.1-.3.3-.1.8.1.4.4 1.1.5 1.3.2.5.2.6.5.5h.1c.1 0 .1.2.1.3-.9.3-1.3.5-1.5.5-.1 0-.3.1-.5.1-.4.1-1 .1-1.2-.6-.1-.5.1-.8.4-1-.3-.2-.6-.5-.9-.7-.3-.2-.5-.2-.7-.2h-.2c0-.1-.1-.2-.1-.3.1 0 .5-.1.9-.2.2.1 1.4.9 1.6 1.1v.2c-.2.1-.4.2-.4.4v.5c0 .1.1.3.3.4.2.1.4.1.5 0 .1 0 .2-.1.3-.1.3-.2.3-.2.4-.2zM18.1 47.7l.1-1.5.9.3-1 1.2zm1.4-2.4c-.1 0-.1.2-.1.2l.1.1c.2.1.2.2-.1.4-.1.2-.2.2-.2.3-.2-.1-.9-.4-1.1-.4v-.4c0-.2 0-.4.3-.3h.1c.1 0 .1-.2.1-.3-.2-.1-.7-.3-1.3-.6-.1 0-.2.2-.1.2 0 0 .1.1.2.1.3.2.2.5.2.7 0 .2-.1 2.7-.1 2.8 0 .1 0 .1.1.1h.4c.1-.1 1.5-1.6 1.8-2 .4-.4.5-.4.6-.4h.2c.1 0 .1-.2.1-.3-.5.1-1.1-.1-1.2-.2zM3.6 30.9l1.3-.7.1.9-1.4-.2zm2.7 0c-.1-.1-.2 0-.3.1v.1c0 .3 0 .3-.4.2-.2 0-.3 0-.4-.1 0-.2-.2-1-.2-1.1.2-.1.2-.1.4-.3.2-.1.4-.2.4 0v.1c.1.1.2 0 .3-.1 0-.2-.1-.7-.2-1.4-.1-.1-.2 0-.3 0v.2c0 .3-.3.4-.5.6-.2.1-2.3 1.4-2.4 1.4-.1 0 0 0 0 .1 0 0 .2.3.3.4.2 0 2.1.3 2.7.4.5.1.6.2.7.3 0 .1.1.1.1.1.1 0 .2 0 .3-.1-.2.1-.4-.8-.5-.9zM47.1 25h-.3c0-.6-.1-.8-.1-1.3 0-.1.2-.1.3 0v.1c0 .2.1.3.6.4.4 0 1.3.1 1.5.1.3 0 .7 0 .7-.4v-.1c.1-.1.2-.1.3 0 0 .5.1.8.1 1.3-.2 0-.3 0-.6.2-.4.2-1.3.6-1.8.9.2.1 1.6.8 1.7.8.2.1.5.2.7.2 0 .4-.1.9-.1 1.3-.1.1-.2.1-.3 0v-.1c0-.2 0-.3-.5-.3h-1.6c-.5 0-.7.1-.7.3v.2h-.3c.1-.8.1-1 .1-1.5.1-.1.2 0 .3 0v.1c0 .2 0 .3.6.3h1.9c-.3-.2-1.3-.6-1.8-.9-.5-.3-.7-.3-.9-.4V26c.1 0 .4-.2.9-.4.4-.2 1.6-.7 1.8-.8h-1.7c-.4 0-.7 0-.7.3M23.3 48.7c0 .1-.1.2-.2.3-.1.1-.3.2-.6.1-.1 0-.2 0-.4-.1 0 0 .3-1.6.4-2 .1-.6.2-.6.5-.6h.1c0-.1.1-.2 0-.3-.5-.1-1.2-.2-1.6-.3-.1.1-.1.2-.1.3.1 0 .1 0 .2.1.3.1.3.3.2.7-.1.3-.4 2-.4 2-.2 0-.5-.1-.6-.1-.3-.1-.3-.3-.3-.4v-.3c-.1-.1-.2-.1-.3 0 0 .1-.2.8-.2.9 1.2.3 2 .5 3.1.6 0 0 .3-.7.4-.8.1-.1-.1-.1-.2-.1zM15.6 46.2l-.3.3c-.1.1-.4 0-.6-.1-.1 0-.2-.1-.4-.2 0 0 .9-1.4 1-1.7.3-.5.4-.5.7-.4 0 0 .1 0 .1.1.1 0 .1-.2.1-.2-.4-.2-1-.6-1.3-.8-.1 0-.2.2-.2.2.1 0 .1.1.1.1.2.2.2.3-.1.8-.1.2-1.1 1.7-1.1 1.7-.2-.1-.4-.3-.5-.3-.2-.2-.2-.4-.2-.5 0-.1.1-.2.1-.3 0-.1-.2-.2-.2-.1-.1.1-.4.6-.5.8 1 .7 1.7 1.1 2.7 1.7l.6-.6c.2-.4 0-.5 0-.5zM5.5 26v.2c0 .3-.1.5-.6.5h-.6v-.9H4v1H2.9c-.1 0-.2 0-.2-.2v-.7c0-.5.7-.6.9-.7.1-.1 0-.2 0-.3-.3 0-.9.1-1.2.1 0 1.3 0 2 .1 2.9h.3v-.1c0-.4.3-.4.7-.4.3 0 .8 0 1.4-.1.6 0 .7.1.7.3v.1h.3c-.1-.5-.1-1.2-.1-1.7h-.3zM16.6 10.6c-.3.1-.4.5-.4.7 0 .2-.1.5-.1.5h-.2c-.2 0-.3-.3-.3-.4v-.3h.2c.1-.1.2-.2.1-.4 0-.1-.1-.2-.1-.2h-.2v-.2c0-.1 0-.1-.1-.1h-.3c-.1 0-.2 0-.2.1 0-.1 0 0 0 0 0 .1 0 .1.1.2-.1 0-.1 0-.2.1s-.1.2-.1.3c0 .2.1.3.3.4.1 0 .1 0 .2-.1 0 .1 0 .2.1.3 0 .2 0 .4-.1.5h-.2l-.3-.4c-.2-.3-.4-.6-.6-.6-.1 0-.2.1-.2.1-.1.1-.1.4.1.5.1.1.3.2.4.1.2.3.2.4.4.8.1.2.2.5.2.7.1.2.3.3.5.4 0 0 .1 1.8.7 5.5 0 .1.4.2.5.1.2 0 .4-.1.4-.4-.6-3.7-1-5.4-1-5.4.2-.1.4-.3.4-.5V12c0-.3 0-.6.1-.8.1 0 .3 0 .3-.2.1-.2.1-.4 0-.5-.1.1-.2 0-.4.1zM16.2 23.4c.1.2.5.4 1.1.3.5-.1.8-.3.9-.6.2.1.4 1.5-.7 1.6-1.2.2-1.4-1-1.3-1.3zM17.4 22h-.2s.1.2 0 .2c0 0-.2.1-.3 0-.1-.1 0-.1-.1-.2h-.2c-.1 0-.1-.3-.1-.3 0-.1.1 0 .2-.1 0-.1-.1-.2 0-.2 0 0 .2-.1.3 0 0 0 0 .1.1.2 0 0 .2-.1.3 0 0 .1.1.3 0 .4zm1.2-.9c0-.1-.1-.1-.2-.1l.2-.2c.1-.1.1-.3 0-.5-.2-.3-.3-.3-.4-.3 0-.1 0-.1.1-.2 0-.2 0-.3-.1-.4-.1-.2-.6-.2-.6-.1-.1.2-.5.4-.7.4-.3.1-.6 0-.8-.1-.2-.1-.3-.1-.4 0-.1.1-.2.3-.2.6s.2.4.2.5c0 .2-.1.3-.1.5s.2.3.2.4c.1.1 0 .2 0 .4s.2.3.2.4c0 .1 0 .3.1.4.1.1.2.1.4.2.3.1.8.1 1.3-.1.3-.1.6-.3.7-.6.1-.2 0-.4-.1-.5.1-.1.2-.2.2-.3.1-.1 0-.3 0-.4zM21.8 15.4c-.1.3-.5 1-.7 1-.2-.1-.3-.9-.3-1.3 0-.2.1-.3.2-.3s.2.3.1.7h.2c.1-.4.4-.6.4-.5.2.1.2.2.1.4zm-1-3.6c0-.2.1-.3.2-.2.1 0 .1.2.1.6h.2c.1-.4.3-.5.4-.4.1.1.1.2 0 .4-.1.3-.5.8-.6.8-.3-.2-.3-.9-.3-1.2zm-1 2c-.1.3-.4 1-.5.9-.2 0-.4-.8-.4-1.1 0-.2 0-.3.1-.3s.2.2.2.6h.2c.1-.4.3-.6.3-.5.1.1.2.2.1.4zm3-2c.1-.6.3-1.1.4-1.3 0-.1-.1-.2-.2-.2s-2.9.7-5.2 2.2c-.4.3-.1 1.3.2 2.1 1 2.5 2.2 2.1 2.6 4.1.1.6.7 3 .8 3.3.2.6.8 1 1.5 1-.1-3.3-.4-8.3-.1-11.2zM33.6 14.9c-.2 0-.5-.6-.5-.9 0-.2 0-.3.1-.4.1 0 .2.1.3.5h.2c0-.4.1-.6.2-.6s.1.1.1.3c0 .3-.2 1.1-.4 1.1zm-1.9 2c-.2 0-.6-.7-.7-1-.1-.2-.1-.4 0-.4s.3.1.4.6h.2c0-.4.1-.7.1-.7.1 0 .1.1.2.3.1.3 0 1.1-.2 1.2zm-.7-5.2s.3.1.4.4h.2c0-.3 0-.6.1-.6s.1.1.2.2c.1.3 0 1-.2 1.1-.1.1-.5-.5-.6-.8-.1-.1-.1-.2-.1-.3zm4.1.8c-2.6-1.6-5.4-2.2-5.4-2.2s-.2.1-.2.2c.1.3.3.7.4 1.3.3 2.9 0 7.9-.2 11 .7.1 1.3-.4 1.5-1 .1-.3.6-2.7.8-3.3.4-1.5 2.4-2.2 2.9-3.9.2-.8.6-1.8.2-2.1zM28.4 6.9s0-.5-.5-.7v-.1s.5 0 .7.1v.2c.3.8-.2 1.1-.2 1.7-.6-.4-1.2-.4-1.2-.4l-.2-.8s.1 0 .5-.1c.3 0 .6 0 .9.1zM26.3 4.2c-.9 0-1.9.1-2.5.4-.1-.3-.3-1.4-.7-1.8-.1-.1-.2-.3-.3-.3 0 0-.1-.1 0-.1h.3c.1 0 .2.1.2.3v-.2s.1-.1.3.1c.1.1.1.1.1.2s.1.2 0 .2h-.2v.1c.1.2.4.3.7.3.4-.1.4-.3.4-.5l-.1.1s-.2 0-.3-.2c-.1-.1-.1-.2 0-.3 0 0 .1-.1.3 0-.2-.3-.2-.5-.2-.5 0-.1 0-.2.3-.2.2 0 .3.1.4.1 0 .1 0 .2-.1.3 0 0 .1 0 .1-.1h.1c.1 0 .1 0 .2.2.1.3-.1.3-.1.3H25c0 .3.2.4.6.4.3 0 .5-.2.5-.6 0 0-.1.1-.2.1s-.2-.1-.2-.2c0-.2 0-.3.1-.3.1-.1.2 0 .2 0-.1-.1-.1-.2-.1-.2 0-.1.1-.2.3-.2.2 0 .3.1.3.2s0 .2-.1.2c0 0 .1-.1.2-.1s.1.1.1.3c0 .2-.1.2-.2.2s-.2-.1-.2-.1c.1.5.4.7.7.7.3 0 .6-.1.7-.4h-.2s-.2 0-.1-.3c0-.2.1-.2.2-.2h.1l.1.1c-.1-.1-.1-.2-.1-.3 0-.1.1-.2.3-.1.2 0 .3.1.3.2s0 .2-.2.3h.3v.3c-.1.2-.2.2-.3.2l-.1-.1c0 .2.1.4.4.5.2 0 .5-.2.6-.3v-.1h-.2c-.1-.1 0-.1 0-.2s.1-.2.1-.2c.1-.2.3-.1.3-.1v.2h.1c0-.2.1-.2.2-.3h.2c.1 0 0 .1 0 .1l-.3.3c-.4.4-.6 1.6-.7 1.8-.5-.1-1.5-.2-2.4-.2" class="st1"/><path d="M26.1 6c-.1.5-.2.9-.2.9s-.2-.1-.6-.1h-1c0-.2.1-.6.6-.6v-.1l-.6-.1c.5-1 1.6-.1 1.8 0zm-.4 3.2c.2 0 .4-.3.4-.3h.2s.1.3.4.3c.9.1 1.6.3 1.9.4.2-.3.1-.7-.4-1-.2-.1-.7-.3-1.5-.3-.5.5-1-.1-1.5.1.2-.2.5-.5.7-.5 0 0 .1.1.3.1.1 0 .5 0 .5-.2 0-.1-.2-1.9-.2-1.9s.8-.4 1.4-.4c.6 0 .8.4.8.4.3-1.2-1.3-1.2-2.4-1.2-3.1 0-2.3.6-2.2 1.7 0 .3-.4.5 0 1.6.1.1.1.3.2.6-.4.3-.5.6-.3 1 .3-.3 1.1-.4 1.7-.4M26.3 10.8c-.7 0-.9-.2-.9-.6 0 0 .2.1.9.1s.9-.1.9-.1c0 .4-.3.6-.9.6zm2.1-.9c-1.5-.3-2.9-.3-4.4 0-.3 1.1-.6 3.2-.1 3.9.1.2 1 .5 1.8.3.3-.1.3-1.1.3-1.5.1-.6.1-.7.1-.7h.3c.1.1.1 2.1.4 2.3.7.3 1.7 0 1.9-.3.4-.6 0-3.4-.3-4zM26.3 29.6c-2.3 0-5 .2-6 .5-.3-.6-.9-2.2-1.8-3.2-.1-.2-.5-.6-.6-.6-.1-.1-.2-.2 0-.3.2 0 .4-.1.6 0 .3.1.5.2.6.6h.1c0-.2 0-.4.1-.5.1-.1.3-.2.7.1.2.2.3.3.3.5.1.2.1.4 0 .5-.1.1-.3.1-.5 0v.1c.2.3.9.7 1.6.6.9-.1 1.1-.6 1-1.1h-.1s-.1.1-.3.2c-.1 0-.4 0-.6-.4-.2-.3-.1-.5-.1-.6.1-.1.3-.2.7-.1v-.1c-.4-.1-.5-.4-.5-.6 0-.2.1-.4.7-.5.6-.1.8.1.9.3 0 .1 0 .5-.3.6l.1.1.2-.2c.1 0 .2-.1.2-.1.2 0 .4.1.5.5.1.6-.2.7-.3.7-.1 0-.3 0-.4-.1l-.1.1c.3.6.8 1 1.7.9.8-.1 1.3-.5 1.3-1.3h-.1s-.2.2-.4.2c-.3 0-.5-.2-.5-.5-.1-.4.1-.6.2-.7.2-.1.5.1.5.1l.1-.1c-.2-.2-.3-.3-.3-.5.1-.2.3-.4.8-.4s.7.2.8.4c0 .2-.1.3-.2.5 0 0 0 .1.1.1.1-.1.3-.2.5-.1s.3.3.2.7c-.1.3-.3.5-.5.5-.3 0-.4-.2-.4-.2h-.1c0 .8.6 1.3 1.3 1.3.8.1 1.4-.3 1.7-.9l-.1-.1c-.1.1-.3.1-.4.1-.1 0-.5-.1-.4-.7.1-.4.3-.5.5-.5.1 0 .2 0 .3.1.1 0 .1.1.2.2l.1-.1c-.3-.2-.3-.5-.3-.6 0-.2.3-.4.9-.3.5.1.6.3.6.5s-.1.4-.5.6v.1c.4-.1.6 0 .7.1.1.1.1.3-.1.6-.2.4-.5.4-.6.4-.1 0-.2-.1-.3-.2h-.1c-.1.5.1 1 1 1.1.7.1 1.4-.3 1.6-.6v-.1c-.2.1-.4.1-.5 0-.2-.1-.1-.3 0-.5s.1-.3.3-.5c.4-.3.6-.2.7-.1.1.1.1.3.1.5h.1c.1-.4.3-.5.6-.6h.6c.2 0 .1.2 0 .3l-.6.6c-.9 1-1.6 2.6-1.8 3.2-1-.3-3.7-.5-6-.5zM24.5 40.1c.2 0 .2-.1.3-.2h-.4c-.1.1 0 .2.1.2zM24.6 35.8h-.5c0 .1.1.2.1.2.2 0 .3-.1.4-.2zM28.9 37.2h.1c.3 0 .6-.2.6-.6 0-.4-.4-.5-.6-.5-.7 0-.6.7-1.4.9h.4c.5-.1.7 0 .9.2z" class="st1"/><path d="M31 33.5c-.2-.1-.7-.2-.7-.5 0-.1 0-.2.3-.2.2 0 .3.1.3.2h.1c0-.1 0-.2.3-.2s.3.2.3.2c0 .3-.5.3-.6.5zm-.1 4c-.2-.1-.7-.2-.7-.5 0-.1 0-.2.3-.2.2 0 .3.1.3.2h.2c0-.1 0-.2.3-.2s.3.2.3.2c0 .3-.5.4-.7.5zm-.2 4.3c-.2-.1-.7-.2-.7-.5 0-.1 0-.2.3-.2.2 0 .3.1.3.2h.2c0-.1 0-.2.3-.2s.3.2.3.2c-.1.3-.6.4-.7.5zm-.1 1.1v-.1s-.1 0 0 .1c-.1-.1-.2-.1-.2-.2l-.1.1v.1c0 .1-.1.2-.1.2v.1s-.1 0-.2-.1V43h-.1s0 .2-.1.2h-.1v.1c-.1 0-.1-.1-.1-.1 0-.1.1-.2.1-.3h-.1l-.1.1h-.1v.1c0-.1-.1-.1-.1-.1 0-.1.1-.2.2-.3h.1c.1 0 .2-.2.1-.3-.2.1-1 .6-1.7.6-.9 0-.2-1.6-1-1.6-.7 0-1 .9-1.8.9-.3 0-.5 0-.6-.1 0 .3 0 .4-.2.4s-.4.1-1.5.1c-.1.4-.1.4-.3.4-.1 0-.1 0-.2-.1.1 0 .2 0 .2-.1 0 0-.1 0-.1-.1 0 0 0-.1.1-.1h-.1c-.2 0-.3.2-.4.2-.1 0-.2-.1-.2-.2l-.1.1c0-.1 0-.2.2-.3.1 0 .2 0 .2-.1h-.1c-.1 0-.2 0-.2-.1 0 0-.1 0-.1.1 0-.1.1-.2.2-.2s.1 0 .2.1v-.1c0-.1-.1-.1-.2-.1s0-.1-.1-.1-.1 0-.2.1c0-.1.2-.3.3-.3.3 0 .3.3.7.3.5 0 .8-.1 1-.1-.1-.1-.2-.2-.2-.4s.2-.5.2-.6h-.1c-.1 0-.2 0-.2-.2 0-.1.1-.2.1-.2h.1c0 .1.1.1.3.1.2 0 .3-.1.3-.3 0-.3-.1-.4-.4-.4-.2 0-.2 0-.2.1h-.1c-.1-.1-.2-.3-.2-.4 0-.1.1-.2.4-.2h.2l-.1-.6h.1c.2.1.2.3.2.3h.1c0-.2.1-.3.1-.3h.1c.1.1.1.3.1.3h.1s.1-.2.2-.3h.1l-.1.5c.2 0 .6.7.6 1.4.2 0 1-.1 1.1-.1-.6-.1-1-.4-1-1.3h.2c.3.1.5.3.5.5 0 .1-.1.2-.1.2 0 .1.2.3.6.3.9 0 .9-1 2-1 .4 0 .9.2.9.9s-.7.9-.9.9c.1.1-.2.8.1.6.4-.1.8-.4.9-.4.3-.1.2.4.5.6.2.1.3.2.3.2.2.5.2.7.1.7zm-3.5-.3c-.1.1.1.4.1.5 0 .1 0 .2-.1.2 0 0-.2.1-.5.1 0 0 .1.1.1.2 0 .2-.2.2-.3.2.1 0 .1-.1.1-.1-.1-.1 0-.2 0-.2h-.1c-.2 0-.1.4-.4.3v.1c-.1 0-.1-.1-.1-.2s.2-.2.2-.2H26c-.1 0-.1.2-.3.1 0 0-.1 0-.1.1 0-.1 0-.2.1-.2.1-.1.2-.1.2-.1-.1-.1-.2.1-.2 0-.1 0-.1 0-.1.1 0-.1.1-.2.2-.3.1-.1.4.1.6 0h.4c.1 0 .1-.1 0-.2-.1-.3.1-.9.3-1 .2-.1.3-.1.5-.1 0 .1.1.1.1.2v.4c-.3-.1-.5-.1-.6.1zm-5.8-1.3c0-.1 0-.2.3-.2.2 0 .3.1.3.2h.2c0-.1 0-.2.3-.2s.3.2.3.2c0 .3-.5.4-.6.5H22c-.2-.1-.7-.2-.7-.5zm1.8-1.2h.1c.3 0 .3.5.7.5.2 0 .2-.1.3-.1.1 0 .1 0 .1.1s-.1.1-.3.1c-.7.1-.5-.4-.9-.6zm.6 2c-.1-.1-.2-.1-.2-.2-.2-.2-.3-.6-.5-.8-.2-.2-.3-.4-.3-.4h-.3c-.1 0-.3 0-.4-.2h.1c0-.1 0-.1.1-.1h.1c0-.1-.1-.1-.2-.1-.2 0-.2-.2-.2-.2h-.2c.1-.1.2-.1.3-.1.1 0 .2 0 .3.1V40l-.1-.1v-.2H22c.1-.1.2-.1.2-.1.2 0 .3.2.3.3 0 0 .1 0 .1-.1v-.2c0-.1 0-.1-.1-.1h.1c.1 0 .2.1.2.2 0 .2-.1.3-.1.4 0 .1.6 1 .8 1.2.1.2 0 .5.2.8zm3.1-2.5c.2 0 .3.1.3.2h.2c0-.1 0-.2.3-.2s.3.2.3.2c0 .3-.5.4-.6.5h-.1c-.2-.1-.6-.2-.6-.5-.1 0 0-.2.2-.2zm-.6-.5s-.1 0 0 0c-.3 0-.3.4-.6.2v.1c-.1 0-.1-.1-.1-.2.1-.1.2-.1.2-.2h-.1c-.1 0-.2.2-.3 0 0 0-.1 0-.1.1 0-.1 0-.2.2-.2.1 0 .3 0 .3-.1-.1-.1-.2 0-.2-.1-.1 0-.1 0-.2.1 0-.1.1-.2.3-.2.2 0 .4.2.6.2h.4c.1 0 .1-.1.1-.2-.1-.3 0-.6.3-.8.2-.1.4-.1.6-.1.1 0 .1.1.1.2v.4c-.1 0-.3 0-.4.2-.1.1.1.3 0 .4 0 .1-.1.2-.2.2h-.5v.1c0 .1-.1.2-.2.2s-.2.1-.3 0c.1 0 .1-.1.1-.1-.1-.1 0-.2 0-.2zm-4.7-.4c.1 0 .2 0 .2-.1-.1 0-.1 0-.2.1-.1-.1-.2-.1-.2-.2 0 0-.1 0-.1.1 0-.1.1-.2.2-.2s.1 0 .3.1v-.1c0-.1-.1-.1-.2-.1s0-.1-.1-.1-.1 0-.2.1c0-.1.2-.3.3-.3.3 0 .3.4.7.4.5 0 1.2-.1 1.3-.1-.1-.1-.2-.2-.2-.4s.2-.5.2-.6h-.1c-.1 0-.2 0-.2-.2 0-.1.1-.2.1-.2h.1c0 .1.1.1.3.1.3 0 .3-.1.3-.3 0-.3-.1-.4-.4-.4-.2 0-.2 0-.2.1h-.1c-.1-.2-.1-.3-.1-.4s.1-.2.4-.2h.2l-.1-.6h.1c.2.1.3.3.3.3h.1c0-.2.1-.3.1-.3h.1c.1.1.1.3.1.3h.1s.1-.2.2-.3h.1l-.1.5c.2 0 .7.8.7 1.4.2 0 1.1-.1 1.2-.1-.7-.1-1.1-.4-1.1-1.3h.2c.4.1.5.3.5.5 0 .1-.1.2-.2.2 0 .1.2.3.7.3 1 0 .8-1.1 2.1-1.1.5 0 1.1.2 1.1 1s-.8.9-1 .9c.1.1-.1.6.3.6.4-.1.9-.3 1.1-.3.3 0 .2.4.5.6.2.2.3.2.3.3 0 .1 0 .2-.1.2v-.1s-.1 0-.2-.1c-.1 0-.1.1-.1.1v.1c0 .1-.1.2-.1.2v.2s-.2 0-.2-.1v-.1s0-.1-.1-.1h-.1s0 .2-.1.2h-.1v.1c-.1 0-.1-.1-.1-.1 0-.2.1-.1.1-.2H29.8s0 .1-.1.1c0-.1-.1-.1-.1-.2s.1-.2.3-.3h.2c.1 0 .2-.2.2-.3-.3 0-1.2.4-1.9.4-1.1 0-.2-1.4-1.1-1.4-.8 0-1.1.9-2 .9-.3 0-.6-.1-.7-.1 0 .3 0 .4-.3.4-.2 0-.7.1-1.9.1-.1.4-.2.4-.3.4-.1 0-.2 0-.2-.1.1 0 .2 0 .2-.1 0 0-.1 0-.1-.1v-.1h-.1c-.2 0-.3.2-.5.2-.1 0-.2-.1-.2-.2l-.1.1c.2.1.3 0 .4 0zM21 37c0-.1 0-.2.3-.2.2 0 .3.1.3.2h.2c0-.1 0-.2.3-.2s.3.2.3.2c0 .3-.5.4-.6.5h-.1c-.2-.1-.7-.2-.7-.5zm.3-4.3c.2 0 .3.1.3.2h.2c0-.1 0-.2.3-.2s.3.2.3.2c0 .3-.5.4-.6.5h-.1c-.2-.1-.6-.2-.6-.5-.1 0-.1-.2.2-.2zm.4-1.1c.1 0 .3.2.3.2s.1 0 .1-.1l-.1-.1v-.2h-.2c.1-.1.2-.1.2-.1.2 0 .3.2.3.3 0 0 .1 0 .1-.1v-.1c0-.1 0-.1.1-.1 0 0 0-.1-.1-.1h.1c.1 0 .2.1.2.2 0 .2-.1.3-.1.4 0 .1.6 1 .9 1.3-.1.2-.3.5-.1.7-.1-.1-.2-.1-.2-.2-.2-.2-.3-.6-.5-.9-.2-.2-.3-.4-.3-.4h-.3c-.1 0-.3 0-.4-.3.1 0 .1.1.1.1 0-.1.1-.1.1-.1h.1c0-.1-.1-.1-.2-.1-.2 0-.2-.2-.2-.2h-.2c.1-.1.2-.1.3-.1zm1.2.2c.3 0 .3.5.7.5.2 0 .2-.1.3-.1.1 0 .2 0 .2.1s-.1.1-.3.1c-.8 0-.6-.5-1-.7 0 .2.1.1.1.1zm-.1 4.2h.1c.3 0 .3.5.7.5.2 0 .2-.1.3-.1.1 0 .2 0 .2.1s-.1.2-.3.2c-.8 0-.6-.5-1-.7zm.6 1.9c-.1-.1-.2-.1-.2-.2-.2-.2-.3-.6-.5-.9-.2-.2-.3-.4-.3-.4h-.3c-.1 0-.3 0-.4-.3.1 0 .1.1.1.1 0-.1.1-.1.1-.1h.1c0-.1-.1-.1-.2-.1-.2 0-.2-.2-.2-.2h-.2c.1-.1.2-.1.3-.1.1 0 .3.2.3.2s.1 0 .1-.1l-.1-.1v-.2s-.1-.1-.2-.1c.1-.1.2-.1.2-.1.2 0 .3.2.3.3 0 0 .1 0 .1-.1v-.1c0-.1 0-.1.1-.1 0 0 0-.1-.1-.1h.1c.1 0 .2.1.2.2 0 .2-.1.3-.1.4 0 .1.6 1 .9 1.3-.2.3-.4.6-.1.8zm3.4-2.4c.2 0 .3.1.3.2h.2c0-.1 0-.2.3-.2s.3.2.3.2c0 .3-.5.4-.6.5h-.1c-.2-.1-.6-.2-.6-.5-.1 0 0-.2.2-.2zm-.6-.4s-.1-.1 0 0c-.3 0-.3.4-.6.2v.1c-.1 0-.1-.1-.1-.2.1-.1.2-.1.2-.2h-.1c-.1 0-.2.2-.3.1 0 0-.1 0-.1.1 0-.1 0-.2.2-.2.1 0 .3 0 .3-.1-.1-.1-.2 0-.2-.1-.1 0-.1 0-.2.1 0-.1.1-.2.3-.2.2 0 .4.2.6.2h.4c.1 0 .1-.1.1-.2-.1-.3 0-.6.3-.8.2-.1.4-.2.6-.1.1 0 .1.1.1.2v.4c-.1 0-.3 0-.4.2-.1.1.1.3 0 .4 0 .1-.1.1-.2.2h-.5v.1c0 .1-.1.2-.2.2-.1.1-.2.1-.3 0 .1 0 .1-.1.1-.1-.1-.3 0-.3 0-.3zm-2.4-3.4h.2l-.1-.7h.1c.2.1.3.3.3.3h.1c0-.2.1-.3.1-.3h.1c.1.1.1.3.1.3h.1s.1-.2.2-.3h.1l-.1.5c.2 0 .7.7.7 1.4.2 0 1.1-.1 1.2-.1-.7-.1-1.1-.4-1.1-1.3h.2c.4.1.5.3.5.5 0 .1-.1.2-.2.3 0 .1.2.4.7.4 1 0 .9-1.1 2.2-1.1.5 0 1.1.2 1.1.9 0 .8-.9.9-1.1.9.1.1-.1.5.4.5.4 0 .9-.1 1.1-.1.3 0 .1.4.4.7.2.2.2.3.2.3 0 .1-.1.2-.2.2v-.1s-.1 0-.1-.1c-.1 0-.1.1-.1.1v.1c0 .1-.1.1-.2.2v.1c-.1 0-.2-.1-.2-.2v-.2h-.1s0 .2-.2.2h-.1v.2c-.1-.2-.1-.2-.1-.3 0-.2.1-.1.1-.2H29.8s0 .1-.1.1v-.2c0-.1.1-.2.3-.2h.2c.1 0 .2-.1.2-.2-.3 0-1.2.3-1.9.3-1.1 0-.2-1.4-1.1-1.4-.8 0-1.1.9-2 .9-.3 0-.6 0-.7-.1 0 .3 0 .4-.3.4-.2 0-.9.1-2 .1-.1.5-.2.5-.3.5-.1 0-.2 0-.2-.1.1 0 .2 0 .2-.1 0 0-.1 0-.1-.1 0 0 0-.1.1-.1H22c-.2 0-.3.2-.5.2-.1 0-.2-.1-.2-.2l-.1.1c0-.1 0-.3.2-.3.1 0 .2 0 .2-.1h-.1c-.1 0-.2 0-.2-.1 0 0-.1 0-.1.1 0-.1.1-.2.2-.2s.1 0 .2.1v-.1c0-.1-.1-.1-.2-.1s0-.1-.1-.1-.1 0-.2.1c0-.1.2-.3.3-.3.3 0 .3.4.7.4.5 0 1.4-.1 1.5-.1-.1-.1-.2-.2-.2-.4s.2-.5.2-.6h-.1c-.1 0-.2 0-.2-.2 0-.1.1-.2.1-.2h.1c0 .1.1.1.3.1.3 0 .3-.1.3-.3 0-.3-.1-.4-.4-.4-.2 0-.2 0-.2.1h-.1c-.1-.1-.1-.3-.1-.4h.5zm3-.3c.2 0 .3.1.3.2h.2c0-.1 0-.2.3-.2s.3.2.3.2c0 .3-.5.4-.6.5h-.1c-.2-.1-.6-.2-.6-.5-.1-.1 0-.2.2-.2zm-.5-1c-3.2 0-5.2.3-5.9.4 0 .5.2 5 .3 8.5.2 4.2 2.4 5.5 5.6 5.5 3 0 5.3-.7 5.6-5.5.2-3.5.3-8 .3-8.5-.7-.1-2.7-.4-5.9-.4z" class="st1"/><path d="M29.3 40.7c0-.4-.3-.5-.5-.5-.6 0-.7.7-1.4.8h.3c.4 0 .7.1.8.2h.1c.4.1.7-.1.7-.5zM28.9 33.1h.1c.3 0 .6-.2.6-.6 0-.4-.3-.5-.6-.5-.7 0-.7.8-1.5.9h.4c.6 0 .8 0 1 .2zM24.2 31.9c.2 0 .2-.1.3-.2H24l.2.2zM39.5 19.8c.2 0 .5.1.5.5 0 .5-.2.6-.4.6s-.7-.1-.7-.6c-.1-.4.4-.5.6-.5zM36.9 20c.2 0 .4.2.5.3 0-.2.2-.3.4-.3.3 0 .4.2.5.5.1.3.3.6.7.7 0 .5-.1.8-.6.8-.2 0-.3 0-.4-.1-.1.1-.2.3-.5.3-.2 0-.4-.2-.5-.3-.2.2-.3.2-.5.2s-.4-.2-.5-.3c-.1 0-.2.1-.3.1-.4 0-.6-.7-.6-.9 0-.2.1-.4.4-.4.1 0 .2 0 .2.1 0-.2.1-.5.4-.5.2 0 .3.1.4.2.1-.2.2-.4.4-.4z" class="st1"/><path d="M36.9 17c-.6 0-2.1.7-2.1 2.2 0 .3 0 .7.1.9 0 0 .1-.1.2-.1s.3.1.4.2c0-.2.1-.5.4-.5.2 0 .3.1.4.1.1-.3.3-.4.5-.4s.5.2.6.4c0-.2.2-.3.4-.3.4 0 .5.3.7.6 0-.4.6-.6 1-.6h.1c0-1.2-.6-2.1-1.8-2.4.2-1.9.1-2.1.1-2.1-.1-.1-.2-.1-.2-.1v-.3c.2 0 .3-.2.3-.4 0-.1-.1-1-.1-1.1 0-.1.1-.2.2-.2 0 0 .9.4 1 .4.2 0 .4-.2.4-.4s-.1-.4-.3-.5c-.1 0-.8.2-1 .2-.1 0-.2-.1-.2-.2 0 0 .3-.9.3-1 0-.2-.2-.4-.4-.4-.2-.1-.4.1-.5.3 0 .1.1 1 .1 1.1 0 .1-.1.2-.2.2-.2 0-.9-.3-1-.4-.2 0-.4.2-.4.4s.1.5.3.5c.1 0 1-.2 1.1-.2.1 0 .1.1.1.2 0 0-.3.9-.3 1 0 .2.1.4.3.4v.3c-.1 0-.2 0-.2.1-.2 0-.3.1-.3 2.1z" class="st1"/><g id="Group_69_00000175284940411140498030000005897270154820469668_" transform="translate(-306.742 -224.006)"><g id="Group_64_00000127040539475115336870000007399898491155296435_" transform="translate(412.6 238.291)"><g id="Group_3_00000049939482412502317000000017987363182874583216_"><path id="Path_104_00000158740437327585897180000010998850320229648825_" d="M-31.1-2.1c0-1.8-.1-1.9-1.2-2.1l-.4-.1c-.2-.1-.2-.6.1-.7.9.1 1.7.1 2.6.1s1.7 0 2.7-.1c.2.1.2.5.1.7l-.5.1c-1.3.1-1.4.2-1.4 2.1v3.7c0 2.7.9 4.5 3.5 4.5 2.4 0 3.4-1.8 3.4-4.4V-.8c0-2.7-.2-3.3-1.3-3.4l-.6-.1c-.2-.2-.2-.5 0-.6.8.1 1.5.1 2.2.1s1.4 0 2.2-.1c.2.2.2.4.1.6l-.8.1c-.7.1-.9.8-.9 3.4v2.6c0 3.4-1.6 5.2-4.9 5.2-1.7 0-3-.3-3.8-1.1-.8-.8-1.1-2-1.1-3.7v-4.3z" class="st3"/><path id="Path_105_00000107570186257516951990000001735248412609141636_" d="M-5.1-.8c0-2.7-.2-3.3-1.1-3.4l-.8-.1c-.2-.2-.2-.5 0-.6 1 .1 1.6.1 2.4.1s1.4 0 2.2-.1c.2.2.2.4.1.6l-.8.1c-.7.1-.9.8-.9 3.4v4.5c0 .5 0 2.7.1 3.1-.3.1-.5.2-.7.1-.3-.3-.9-.9-2.5-2.7l-4-4.3c-1-1.1-1.7-1.8-2-2-.1 0-.1.3-.1 1.1v3.5c0 2.7.2 3.3 1.1 3.4l.8.1c.2.2.2.4 0 .6l-.1.1c-1-.1-1.6-.1-2.4-.1s-1.3 0-2.2.1c-.2-.2-.2-.4-.1-.6l.8-.1c.7-.1.9-.8.9-3.4v-4.8c0-.9 0-1.2-.6-1.6-.3-.2-.6-.3-1-.4l-.4-.1c-.2-.2-.2-.4 0-.6l.1-.1c1 .1 1.7.1 2.3.1.4 0 .7 0 1.1-.1.7 1.2 1.6 2.3 2.6 3.3L-7.8.9c.6.6 2.1 2.3 2.4 2.5.2-.1.2-.4.2-1.1l.1-3.1z" class="st3"/><path id="Path_106_00000123434935386026196690000010003461484012019625_" d="M2.9-2.1c0-1.8-.1-1.9-1.2-2.1l-.5-.1c-.2-.2-.2-.6 0-.7 1.1 0 1.9.1 2.8.1S5.6-5 6.7-5c.2.1.2.5.1.7h-.6C5.1-4.1 5-4 5-2.1v5.9c0 1.8.1 1.9 1.2 2.1l.5.1c.2.1.2.6-.1.7-.9-.1-1.8-.1-2.6-.1s-1.7 0-2.7.1C1 6.6 1 6.1 1.2 6l.5-.1c1.1-.2 1.2-.3 1.2-2.1v-5.9z" class="st3"/><path id="Path_107_00000039812478744358905980000008024818449441293199_" d="M12.3-2.1c-.8-1.8-.9-1.9-1.5-2l-1-.2c-.1-.2-.1-.5.1-.7.7.1 1.6.1 2.4.1 1 0 1.7 0 2.6-.1.2.1.2.4.1.6l-.1.1-.6.1c-.7.1-.7.5-.1 1.8L15.5.5c.6 1.5 1.1 2.4 1.5 3.3L18.5.5C19-.8 19.8-2.6 20-3.4c.2-.6.2-.7-.6-.9H19c-.2-.1-.2-.4 0-.6V-5c.8.1 1.5.1 2.2.1.6 0 1.3 0 1.9-.1.2.1.3.4.2.6 0 0 0 .1-.1.1l-.7.2c-.8.2-1 .4-1.8 2.2l-2 4.3c-.8 1.7-1.6 3.6-1.9 4.5-.1 0-.2.1-.3.1-.1 0-.2 0-.3-.1-.2-.7-.5-1.5-.9-2.3l-3-6.7z" class="st3"/><path id="Path_108_00000116952849677551053100000000695622170817428906_" d="M27.9-2.1c0-1.8-.1-1.9-1.1-2.1l-.4-.1c-.2-.2-.2-.5 0-.6.8-.1 1.6 0 2.5 0h3.8c.8 0 1.6 0 2.5-.1l.3 2.7c-.2.2-.5.2-.7.1-.1-.5-.2-.9-.5-1.3-.4-.6-1.6-.6-2.3-.6h-1.2c-.9 0-1 0-1 .8v2.9c0 .5 0 .5.5.5h1.3c1.4 0 1.5-.2 1.8-1l.1-.5c.2-.2.5-.2.6 0C34-.6 34-.2 34 .5s0 1.1.1 1.9c-.2.2-.4.2-.6.1l-.1-.5c-.2-.8-.3-1-1.8-1h-1.3c-.5 0-.5.1-.5.6v1.9c-.1.7 0 1.3.3 1.9.2.3.7.4 2.2.4 1.7 0 2.7-.1 3.5-2.2.2-.2.5-.1.6 0l.1.1c-.1 1-.4 2-.8 2.9-1.7-.1-3.1-.1-4.5-.1h-2.3c-.8 0-1.7 0-2.9.1-.2-.1-.2-.5-.1-.7l.7-.1c1.1-.1 1.2-.3 1.2-2.1l.1-5.8z" class="st3"/><path id="Path_109_00000124121151391284653450000004686581274505776514_" d="M41.4-1.8c0-1.7 0-2.2-.6-2.3l-.7-.1c-.2 0-.3-.6 0-.7C41.5-5 43-5 44.5-5c2.5 0 5.2.4 5.2 3.2 0 1.7-1.3 2.5-2.4 2.8-.1.1-.1.3 0 .4.9 1.6 2 3 3.4 4.2.3.4.8.6 1.3.6.1.1.1.3 0 .4-.4.1-.7.1-1.1.1-1.6 0-2.5-.5-3.7-2-.7-.8-1.4-2-1.9-2.9-.3-.3-.7-.5-1.1-.4-.7 0-.7.1-.7.4v1.9c0 1.8.1 2 1.2 2.1l.6.2c.2.1.2.6-.1.7-1.1-.1-2-.1-2.8-.1-.8 0-1.7 0-2.6.1-.2-.1-.3-.3-.2-.5 0-.1.1-.1.1-.1l.4-.1c1.1-.2 1.2-.3 1.2-2.1l.1-5.7zM43.5.1c0 .7 0 .7 1.3.7 1.7 0 2.6-.7 2.6-2.5 0-1.3-.9-2.5-2.8-2.5-1 0-1.2.1-1.2.7l.1 3.6z" class="st3"/><path id="Path_110_00000087374249505436908820000006191014191050606486_" d="M57.7 1.2C56.4.5 55.3-.5 55.3-2c0-1.9 1.5-3.3 4.2-3.3.8.1 1.7.2 2.5.4.3.8.4 1.7.4 2.6-.1.2-.6.2-.7.1-.2-.9-.9-2.3-2.5-2.3S57-3.6 57-2.7c0 1 .7 1.5 1.8 2.1l1.6.8c1.3.6 2.1 1.9 2.2 3.4C62.7 5.7 61 7 58.3 7c-1.1 0-2.1-.3-3.1-.8-.4-.9-.6-1.8-.6-2.7.1-.2.4-.3.6-.2.1 0 .1.1.1.1.2 1 1.4 2.8 3.2 2.8 1.4 0 2.2-.7 2.2-1.9 0-.8-.3-1.7-1.9-2.5l-1.1-.6z" class="st3"/><path id="Path_111_00000183966269019211860740000000979936830968283811_" d="M67.9-2.1c0-1.8-.1-1.9-1.2-2.1l-.5-.1c-.2-.1-.2-.6.1-.7 1 .1 1.9.1 2.7.1s1.7 0 2.7-.1c.2.1.2.5.1.7l-.5.1c-1.3.1-1.4.2-1.4 2.1v5.9c0 1.8.1 1.9 1.2 2.1l.5.1c.2.1.2.6-.1.7-1-.1-1.9-.1-2.7-.1-.8 0-1.7 0-2.7.1-.1-.1-.2-.6 0-.7l.5-.1c1.1-.2 1.2-.3 1.2-2.1v-5.9z" class="st3"/><path id="Path_112_00000044164252205469787330000015032283024789765302_" d="M79.7-3.5c0-.7 0-.7-.6-.7h-.8c-1.6 0-2.3.2-2.9 2-.2.1-.5.1-.6-.1.3-1.1.6-2.5.7-3.1.1-.1.3-.1.5 0 0 .5.4.5 1.5.5h7.4c1 0 1.2 0 1.4-.5.2-.1.4-.1.5.1-.2 1-.3 2.1-.3 3.1-.1.2-.6.2-.7 0-.2-1.7-.9-1.9-2.5-1.9h-.9c-.5 0-.6 0-.6.7v7.3c0 1.8.1 2 1.2 2.1h.7c.2.1.2.6-.1.7-1.1-.1-2.1-.1-2.9-.1-.8 0-1.8 0-2.9.1-.2-.1-.2-.5-.1-.7l.7-.1c1.1-.1 1.2-.3 1.2-2.1l.1-7.3z" class="st3"/><path id="Path_113_00000018233195556706788840000017306967781477713338_" d="M94.2 3.1c0-.8-.1-1-.7-2.3l-1.9-3.6c-.6-1-.9-1.3-1.6-1.4l-.7-.1c-.2-.2-.1-.5 0-.6.9.1 1.5.1 2.4.1.8 0 1.4 0 2.3-.1.2.1.2.4.1.5l-.1.1-.4.1c-.6.1-.7.3-.2 1.1l1 1.9c.4.8.8 1.5 1.2 2.2.4-.7.8-1.4 1.3-2.2l1.1-2c.4-.7.5-1-.2-1.1l-.6-.1c-.2-.1-.2-.4-.1-.5 0-.1.1-.1.1-.1.8.1 1.4.1 2 .1.6 0 1.1 0 1.9-.1.2.1.2.4.1.6 0 0 0 .1-.1.1l-.6.1c-.8.2-1 .3-1.8 1.6L97.1.1c-1 1.5-1 1.8-1 2.5V4c0 1.6.1 1.7 1.2 1.9l.8.1c.2.1.2.6-.1.7-1.2-.1-2-.1-2.9-.1-.8 0-1.7 0-2.9.1-.2-.1-.2-.5-.1-.7l.9-.1c1.1-.1 1.2-.3 1.2-1.9v-.9z" class="st3"/><path id="Path_114_00000158749585191155536730000004813386328135646339_" d="M123.8.8c0 3.6-2.7 6.2-6.5 6.2-4.1 0-6.6-2.7-6.6-6 0-3.5 2.7-6.2 6.6-6.2 4.4-.1 6.5 2.7 6.5 6zM113.2.5c0 2.7 1.2 5.7 4.3 5.7 2 0 4-1.4 4-5 0-2.8-1.4-5.7-4.3-5.7-1.9 0-4 1.3-4 5z" class="st3"/><path id="Path_115_00000078032783738300855420000007866848436880736146_" d="M128.6-2.1c0-1.8-.1-1.9-1.1-2.1l-.3-.1c-.2-.2-.2-.6 0-.7.7.1 1.5.1 2.4.1h3.7c1.2 0 2.2 0 2.5-.1 0 .3.1 1.6.1 2.7-.1.2-.4.3-.6.2-.1 0-.1-.1-.1-.1-.1-.5-.2-.9-.5-1.3-.5-.7-1.6-.6-2.3-.6h-1c-.8 0-.9 0-.9.9v3.1c0 .5 0 .5.5.5h1.4c1.4 0 1.5-.2 1.8-1l.1-.5c.2-.2.5-.2.6 0 .1.8.1 1.3.1 1.9 0 .7 0 1.1.1 1.9-.1.2-.4.2-.6.1l-.1-.5c-.2-.8-.3-1-1.8-1h-1.4c-.5 0-.5.1-.5.6v2c0 1.8.1 2 1.2 2.1l.8.1c.2.1.2.6-.1.7-1.3-.1-2.2-.1-3-.1-.8 0-1.7 0-2.7.1-.2-.1-.2-.5-.1-.7l.5-.1c1.1-.2 1.2-.3 1.2-2.1l.1-6z" class="st3"/><path id="Path_116_00000165206165848878375420000015238311160024469127_" d="M-20.4 16.2c0 1.1.1 2.2.3 3.2-.2.2-.5.3-.7.1l-.1-.1c-.4-1.6-1.4-3-4.1-3-2.5 0-5 1.7-5 5.7 0 3.9 2.5 6.1 5.3 6.1 1.9 0 3.5-1.2 4.2-3 .1-.2.4-.3.6-.1.1 0 .1.1.1.1-.1 1.1-.4 2.2-1 3.2-1.3.4-2.6.6-3.9.6-1.8.1-3.6-.4-5.1-1.3-1.7-1.2-2.8-3.1-2.8-5.2-.1-2 .8-4 2.5-5.3 1.7-1.2 3.7-1.8 5.7-1.7 1.3.2 2.7.3 4 .7z" class="st3"/><path id="Path_117_00000111158464440680705300000009182967285532965053_" d="M-1.3 22.3c0 3.9-3 6.8-7.1 6.8-4.5 0-7.2-3-7.2-6.6 0-3.9 3-6.9 7.2-6.9 4.7 0 7.1 3.1 7.1 6.7zM-13 22c0 3 1.4 6.3 4.8 6.3 2.2 0 4.4-1.5 4.4-5.5 0-3.1-1.5-6.3-4.7-6.3-2.2-.1-4.5 1.4-4.5 5.5z" class="st3"/><path id="Path_118_00000075146609550636055520000008756095588960554119_" d="M4.5 19.4c0-1.9 0-2.3-.7-2.5l-.9-.1c-.3-.1-.2-.6 0-.7 1.6-.1 3.1-.2 4.7-.2 1.2 0 2.4.1 3.5.5 1.5.5 2.4 1.9 2.4 3.4s-1 2.9-2.4 3.3c-.9.3-1.8.5-2.7.4-.1-.1-.2-.4 0-.5 1.7-.2 2.9-1.7 2.7-3.3 0-1.9-1.2-3-3.2-3-1.2 0-1.2.2-1.2 1v7.9c0 2 .1 2.2 1.4 2.3l.7.1c.2.2.2.7-.1.8-1.2-.1-2.2-.1-3.1-.1-.9 0-1.8 0-2.9.1-.2-.1-.3-.6-.1-.7l.5-.1c1.3-.3 1.4-.3 1.4-2.3v-6.3z" class="st3"/><path id="Path_119_00000117670909636856333390000000423177449388499128_" d="M19.2 19.1c0-2-.1-2.1-1.2-2.3l-.4-.1c-.2-.2-.2-.5 0-.7.8.1 1.8.1 2.7.1h4.2c.9 0 1.8 0 2.7-.1l.3 3c-.2.2-.5.3-.7.1-.1-.5-.3-1-.5-1.4-.5-.7-1.8-.7-2.5-.7h-1.3c-1 0-1.1 0-1.1.9V21c0 .5 0 .6.6.6h1.4c1.5 0 1.7-.2 1.9-1.1l.1-.6c.2-.2.5-.2.7 0-.1.8-.1 1.4-.1 2 0 .7 0 1.3.1 2.1-.2.2-.5.3-.7.1l-.1-.6c-.2-.9-.4-1.1-1.9-1.1H22c-.6 0-.6.1-.6.7v2.1c-.1.7 0 1.4.3 2.1.3.3.8.4 2.5.4 1.9 0 3-.1 3.8-2.4.2-.2.5-.2.7 0 0 0 0 .1.1.1-.1 1.1-.4 2.2-.9 3.2-1.8-.1-3.4-.1-5-.1h-2.6c-.9 0-1.8 0-3.2.1-.2-.1-.3-.6-.1-.7l.8-.1c1.3-.1 1.4-.3 1.4-2.3v-6.4z" class="st3"/><path id="Path_120_00000170246593048445271360000015794793319012965794_" d="M44.8 20.5c0-2.9-.2-3.7-1.3-3.8l-.9-.1c-.2-.2-.2-.5 0-.7 1.1.1 1.8.1 2.6.1s1.5 0 2.4-.1c.2.2.2.5.1.7l-.9.1c-.8.1-1 .9-1 3.8v4.9c0 .6 0 3 .1 3.4-.1.2-.4.3-.6.3-.3-.4-.9-1-2.7-3l-4.4-4.7c-1.1-1.2-1.9-1.9-2.3-2.3-.1 0-.1.3-.1 1.2v3.9c0 2.9.2 3.7 1.3 3.8l.9.1c.2.2.2.5 0 .7 0 0-.1 0-.1.1-1.1-.1-1.8-.1-2.6-.1s-1.4 0-2.4.1c-.2-.2-.2-.5-.1-.7l.9-.1c.8-.1 1-.9 1-3.8V19c0-1 0-1.4-.6-1.8-.3-.2-.7-.3-1.1-.4l-.4-.1c-.2-.2-.2-.5 0-.7 0 0 .1 0 .1-.1 1.1.1 1.9.1 2.5.1.4 0 .8 0 1.2-.1.8 1.3 1.8 2.5 2.9 3.6l2.7 2.8c.6.6 2.3 2.5 2.7 2.7.2-.1.2-.5.2-1.2l-.1-3.3z" class="st3"/><path id="Path_121_00000111154366512071169770000010367534305080245917_" d="M62.7 21.6c.9 0 1.1 0 1.1-.8V19c0-2-.1-2.1-1.4-2.3l-.6-.1c-.2-.1-.2-.6.1-.7 1.1.1 2 .1 3 .1.9 0 1.8 0 3-.1.2.1.3.6.1.7l-.6.1c-1.3.2-1.4.3-1.4 2.3v6.5c0 2 .1 2.2 1.4 2.3l.7.1c.2.1.2.6-.1.7-1.2-.1-2.2-.1-3.1-.1-.9 0-1.8 0-3 .1-.2-.1-.3-.6-.1-.7l.6-.1c1.3-.2 1.4-.3 1.4-2.3v-2.3c0-.7-.1-.8-1.1-.8h-5.1c-1 0-1.1 0-1.1.8v2.3c0 2 .1 2.2 1.4 2.3l.8.1c.2.1.2.6-.1.7-1.3-.1-2.3-.1-3.2-.1-.9 0-1.8 0-2.7.1-.2-.1-.3-.6-.1-.7l.3-.1c1.2-.3 1.4-.3 1.4-2.3V19c0-2-.1-2.2-1.4-2.3l-.7-.1c-.2-.1-.2-.6.1-.7 1.3.1 2.2.1 3.1.1.9 0 1.8 0 2.9-.1.2.1.3.6.1.7l-.4.1c-1.2.2-1.4.3-1.4 2.3v1.8c0 .8.1.8 1.1.8h5z" class="st3"/><path id="Path_122_00000011031128594912848710000000514818753487830414_" d="M77 24.2c-.7 0-.8 0-1 .7l-.7 1.9c-.3.9-.2 1.1.3 1.2l.8.1c.2.1.2.7-.1.7-.7-.1-1.5-.1-2.3-.1-.8 0-1.5.1-2 .1-.2-.1-.3-.4-.1-.7 0 0 0-.1.1-.1l.7-.1c.9-.2 1.2-.5 1.8-1.9l2.8-6.7c.4-.8.6-1.6.8-2.5.5-.2 1-.6 1.2-1.1.2-.1.4 0 .5.1.1.3.6 1.8 1.3 3.6l2.6 7c.4 1 .6 1.3 1.7 1.5l.5.1c.2.1.2.4.1.6 0 .1-.1.1-.2.1-.8-.1-1.4-.1-2.4-.1-1.1 0-1.9 0-2.6.1-.2-.1-.3-.4-.2-.6 0-.1.1-.1.1-.2l.6-.1c.8-.1.7-.3.4-1.2l-.7-1.9c-.2-.7-.3-.7-1-.7l-3 .2zm2.3-1c.8 0 .8-.1.5-.9l-.9-2.5c-.1-.4-.3-.7-.4-1.1h-.1c-.2.3-.3.6-.5 1l-1.1 2.6c-.3.8-.3.8.4.8l2.1.1z" class="st3"/><path id="Path_123_00000101797849404597190420000006178722978854924479_" d="M98.6 26.1c0-1.3 0-1.5-1.3-1.8l-.9-.2c-.2-.2-.2-.5 0-.7 1.2.1 2.5.1 3.3.1.8 0 1.8 0 2.5-.1.2.2.3.5.1.7l-.5.1c-.8.2-.9.4-.9 1.6v.8c0 .7.1 1.1.5 1.3.1.1.1.4 0 .4-.3 0-.9.2-1.8.3-1 .2-1.9.3-2.9.4-2.6 0-4.7-.6-6.3-2.2-1.2-1.2-1.8-2.8-1.8-4.4 0-1.7.6-3.4 1.8-4.6 1.3-1.4 3.3-2.3 6.5-2.3 1.3.1 2.6.2 3.9.6 0 .6.1 1.8.3 3.3-.1.2-.4.3-.6.1l-.1-.1c-.8-2.3-2-3.1-4.2-3.1-3.1 0-5 2.4-5 5.8 0 3.6 2.2 6 5.8 6 1.5 0 1.8-.3 1.8-1.5l-.2-.5z" class="st3"/><path id="Path_124_00000179631024530454924870000013518755766408857220_" d="M108.2 19.1c0-2-.1-2.1-1.2-2.3l-.4-.1c-.2-.2-.2-.5 0-.7.8.1 1.8.1 2.7.1h4.2c.9 0 1.8 0 2.7-.1l.3 3c-.2.2-.5.3-.7.1-.1-.5-.3-1-.5-1.4-.5-.7-1.8-.7-2.5-.7h-1.3c-1 0-1.1 0-1.1.9V21c0 .5 0 .6.6.6h1.4c1.5 0 1.7-.2 1.9-1.1l.1-.6c.2-.2.5-.2.7 0-.1.8-.1 1.4-.1 2 0 .7 0 1.3.1 2.1-.2.2-.5.3-.7.1l-.1-.6c-.2-.9-.4-1.1-1.9-1.1H111c-.6 0-.6.1-.6.7v2.1c-.1.7 0 1.4.3 2.1.3.3.8.4 2.5.4 1.9 0 3-.1 3.8-2.4.2-.2.5-.2.7 0l.1.1c-.1 1.1-.4 2.2-.9 3.2-1.8-.1-3.4-.1-5-.1h-2.6c-.9 0-1.8 0-3.2.1-.2-.1-.3-.6-.1-.7l.8-.1c1.3-.1 1.4-.3 1.4-2.3v-6.4z" class="st3"/><path id="Path_125_00000145045030030740243770000013781397778699660725_" d="M133.8 20.5c0-2.9-.2-3.7-1.3-3.8l-.9-.1c-.2-.2-.2-.5 0-.7 1.1.1 1.8.1 2.6.1s1.5 0 2.4-.1c.2.2.2.5.1.7l-.9.1c-.8.1-1 .9-1 3.8v4.9c0 .6 0 3 .1 3.4-.1.2-.4.3-.6.3-.3-.4-.9-1-2.7-3l-4.4-4.7c-1.1-1.2-1.9-1.9-2.3-2.3-.1 0-.1.3-.1 1.2v3.9c0 2.9.2 3.7 1.3 3.8l.9.1c.2.2.2.5 0 .7l-.1.1c-1.1-.1-1.8-.1-2.6-.1s-1.4 0-2.4.1c-.2-.2-.2-.5-.1-.7l.9-.1c.8-.1 1-.9 1-3.8V19c0-1 0-1.4-.6-1.8-.3-.2-.7-.3-1.1-.4l-.4-.1c-.2-.2-.2-.5 0-.7 0 0 .1 0 .1-.1 1.1.1 1.9.1 2.5.1.4 0 .8 0 1.2-.1.8 1.3 1.8 2.5 2.9 3.6l2.7 2.8c.6.6 2.3 2.5 2.7 2.7.2-.1.2-.5.2-1.2l-.1-3.3z" class="st3"/></g></g></g></g></switch></svg>