<svg xmlns="http://www.w3.org/2000/svg" height="64" width="290" viewBox="0 0 298.59 64"><defs><style>.cls-1,.cls-4{fill:#1d1d1d;stroke-width:0}.cls-4{fill:#fff}</style></defs><path id="Line" fill="#b2b2b2" stroke-width="0" d="M76.34 1.14h.88v62.4h-.88z"/><path fill="#901a1e" stroke-width="0" d="M63.96 32.01C63.96 49.68 49.63 64 31.99 64S0 49.68 0 32.01 14.32 0 32 0s31.97 14.35 31.97 32.01Z"/><path d="M52.65 30.72v-.14c.01-.22.05-.36.42-.39.08 0 .4-.03.5-.04 0 .09.04.66.04.73.08.03.19.02.28-.01 0-.06-.05-.64-.05-.74.09 0 .7-.06.79-.06.08 0 .12 0 .13.13.01.12.04.33.04.59 0 .42-.43.45-.56.47-.05.09-.03.18.04.26.21 0 .59-.05.79-.07-.03-1-.06-1.51-.16-2.3-.05-.02-.16-.02-.21.02v.1c0 .27-.2.29-.5.32-.2.02-.64.05-1.07.1-.49.06-.53-.01-.57-.23l-.02-.08c-.07-.03-.18 0-.22.03.06.41.09.85.12 1.32.04.03.17.01.22 0Zm-35.9 15.17s.05.06.08.11c.12.16.18.3-.08.56-.06.05-.29.28-.36.33-.05-.05-.44-.47-.49-.52-.08.02-.16.1-.21.18.05.04.44.46.5.54-.06.06-.51.5-.56.54-.06.05-.1.07-.19-.01-.08-.08-.23-.23-.38-.42-.26-.32.04-.62.13-.73-.02-.1-.09-.15-.2-.18-.15.14-.41.41-.56.56.66.75.99 1.11 1.57 1.66.06 0 .14-.09.16-.15-.02-.03-.03-.04-.06-.08-.19-.2-.04-.34.18-.56.14-.14.46-.44.76-.74.35-.35.42-.32.59-.19.03.03.03.03.07.06.07-.03.14-.11.15-.17-.3-.28-.6-.6-.92-.94-.06 0-.15.1-.17.14Zm36.09-12.02c.84-.2.93-.25 1.59-.38.24-.05.34-.07.35.13v.11c.05.05.17.06.21.01.03-.39.05-.8.06-1.25-.05-.06-.16-.06-.22 0 0 .04 0 .09-.01.15-.05.21-.12.25-.43.34-.17.04-2.02.49-2.07.5-.04 0-.04.03-.04.05.01.03.08.34.11.46.6.29 1.48.74 1.82.93.35.18.37.32.36.44v.13c.04.06.16.09.21.04.04-.27.11-.78.14-1.06-.04-.07-.17-.08-.21-.03 0 .03-.01.09-.02.12-.03.14-.07.19-.36.06-.46-.2-1.02-.5-1.49-.75Zm-5.15-15.09c.02-.06.11-.14.17-.15l.12.12c.18.15.24.17.6-.12.23-.19.67-.54.83-.67.17-.14.41-.29.26-.52-.03-.04-.07-.09-.08-.13 0-.06.11-.15.16-.14.29.35.63.77.82 1.04 0 .06-.11.14-.17.13-.04-.04-.07-.08-.09-.1-.19-.2-.38-.07-.59.1-.3.24-.67.53-.85.66-.3.23-.37.32-.27.52.02.03.08.12.11.16 0 .05-.11.13-.18.12-.26-.36-.58-.75-.84-1.05Zm-35.04 6.5c-.06 0-.17-.03-.2-.08 0-.05.04-.14.04-.17.04-.22.02-.29-.42-.45-.28-.1-.8-.29-1-.37-.21-.07-.46-.2-.58.06-.02.04-.04.09-.06.14-.06.03-.19-.01-.2-.07.17-.48.35-.96.47-1.24.06-.04.18.02.2.08-.03.07-.04.1-.04.13-.08.26.13.35.39.45.37.14.8.31 1.01.39.36.13.47.15.6-.05.02-.03.06-.14.08-.18.06-.02.17.02.2.09-.11.27-.38.93-.49 1.27Zm36.83-4.01c0-.09.09-.16.17-.15.02.04.04.07.07.11.04.05.11.21.27.12.17-.09.24-.14.32-.18-.08-.14-.39-.65-.64-1.01 0-.08.04-.15.1-.21.05 0 2.44.34 2.59.36.05.08.04.23-.03.31-.11-.01-2.07-.29-2.23-.32.17.26.38.61.45.73.11-.06.39-.2.55-.3.03-.01.04-.01.07.02.07.08.16.18.29.32 0 .02 0 .05-.02.06-.17.1-.53.29-.64.36.05.09.18.34.18.34 0 .1-.17.17-.25.14 0 0-.14-.27-.18-.34-.06.04-.24.13-.34.19-.12.07-.04.21-.01.27.02.05.05.11.07.15-.02.06-.12.11-.2.09-.18-.33-.34-.62-.6-1.05Zm.91 2.38c-.06-.05-.1-.23.02-.31.11 0 2.39.06 2.6.08-.11-.27-.28-.71-.36-.88-.09-.17-.22-.19-.34-.2h-.13c-.05-.04-.09-.16-.01-.23.12 0 .62-.07.75-.1.04.1.07.19.11.27.04.08.37.89.43 1.02.06.12.13.3.19.4-.03.05-.06.08-.1.14-.19-.05-.34-.07-.44-.08-.11 0-2.48-.1-2.71-.1Zm-34.01-4.44c-.02.07-.15.18-.28.13-.04-.1-1.05-2.13-1.13-2.32-.18.23-.51.57-.61.73-.11.15-.07.27-.02.4l.05.12c0 .06-.1.16-.2.12-.06-.11-.36-.54-.45-.63.06-.08.14-.15.18-.22.05-.07.61-.75.69-.86.09-.11.21-.26.27-.36.06 0 .1.01.17.02.04.19.1.34.14.43.04.1 1.08 2.23 1.18 2.44Zm34.87 6.51c.02-.06.13-.12.2-.1.15.24.34.58.71.8.37.21.76.26 1.21.16.45-.11.88-.43.73-.82-.15-.38-.51-.28-.65-.23-.46.16-.47.5-.34.75-.01.08-.08.14-.15.12-.05-.05-.22-.17-.27-.48-.09-.52.32-.8.52-.87.61-.19 1.01.18 1.14.59.18.54-.02 1.22-.85 1.41-.97.21-1.96-.44-2.25-1.35Zm1.24 16.26s-.02.09-.07.17c-.29.61-.84.85-1.41.56-.49-.25-.6-.52-.64-.81-.03-.17 0-.37.1-.57.08-.16.13-.23.22-.27.1-.04.24 0 .42.09 0 0 1.31.64 1.34.66.06.03.08.05.05.17Zm.47-.92s-.04.09-.08.14c-.09.1-.16.15-.52-.02l-1.11-.51c-.35-.17-.35-.19-.28-.4l.03-.12c-.02-.1-.13-.11-.21-.07l-.23.53-.3.6c-.31.55-.48 1.38.36 1.92.7.44 1.47.28 2.03-.88.21-.43.36-.75.5-1.08.02-.09-.11-.14-.19-.11Zm-4.9 6.41c.05.05.1.16.12.26.03.12-.03.3-.18.44-.04.04-.14.13-.25.23l-1.07-1.13c-.29-.32-.31-.39-.18-.57.01-.02.04-.04.08-.08 0-.05-.09-.14-.16-.16-.24.23-.66.64-.9.83 0 .07.09.16.14.17.04-.02.08-.06.11-.08.19-.13.28-.07.54.22.14.15 1.06 1.12 1.07 1.13-.14.14-.27.26-.33.31-.17.15-.36.05-.42.02-.06-.04-.11-.08-.17-.14-.08 0-.16.1-.15.15.07.08.4.45.48.55.74-.63 1.15-1.02 1.79-1.69-.01-.03-.31-.53-.35-.59-.08 0-.17.06-.19.12Zm1.8-1.74-1.05-.34.48-.61.57.95Zm-1.39-1.64c0 .1.13.14.17.14.02-.02.02-.02.06-.07.15-.14.19-.06.32.15.08.14.14.2.17.27-.08.11-.5.64-.58.73-.09-.03-.11-.04-.3-.1-.17-.06-.32-.09-.2-.26a.27.27 0 0 0 .06-.07c-.01-.08-.12-.15-.19-.14-.1.14-.36.45-.71.84 0 .09.11.16.15.16.03-.04.07-.06.11-.1.2-.17.4-.06.57 0 .17.05 2.01.66 2.05.67.05.01.06 0 .06-.03.01-.03.08-.26.09-.33-.07-.11-.85-1.45-1.04-1.8-.22-.36-.18-.45-.13-.56.02-.06.05-.09.05-.12-.01-.07-.12-.13-.19-.11-.06.1-.47.67-.52.74ZM9.68 32.52c-.07 0-.18-.05-.27-.11-.1-.06-.18-.23-.18-.43v-.34c.02 0 1.27.03 1.56.03.44 0 .51.04.54.26 0 .03 0 .07.01.12.04.03.17.04.22 0 0-.35 0-.93.03-1.23-.05-.04-.18-.05-.22-.02 0 .05 0 .09-.02.13-.04.23-.16.25-.54.24-.21 0-1.54-.03-1.56-.04 0-.19 0-.37.01-.45.01-.23.22-.3.28-.31.06-.02.14-.03.22-.04.05-.06.03-.17 0-.21-.11 0-.58-.02-.71-.03-.08.97-.09 1.54-.06 2.47.04.01.6.15.67.17.07-.05.07-.16.04-.22Zm-.11 1.86 1-.48.07.77-1.08-.29Zm2.14.21c-.07-.07-.19-.02-.22.01v.09c0 .2-.1.17-.33.12-.16-.04-.24-.06-.29-.08-.01-.14-.08-.8-.1-.92.09-.04.12-.05.3-.14.17-.08.29-.16.32.05.01.05.01.06.02.09.06.05.19.03.22-.03-.02-.17-.05-.57-.07-1.1-.07-.05-.18-.03-.22 0v.14c-.02.24-.25.32-.41.4-.16.07-1.9.92-1.94.94-.04.02-.04.04-.03.07.02.03.14.24.18.3.12.03 1.6.46 1.99.56.41.12.43.22.49.33.02.05.02.1.03.11.05.05.19.02.21-.04-.03-.12-.13-.79-.14-.9Zm2.9 10.57c-.31.2-.6.29-.86.24a.81.81 0 0 1-.51-.35.773.773 0 0 1-.12-.59c.06-.3.28-.61.63-.84.55-.37 1.05-.33 1.34.1.37.56-.03 1.13-.49 1.44Zm.73-1.57c-.24-.35-.57-.59-.96-.67-.36-.07-.72.01-1.04.23-.33.21-.54.53-.61.88-.07.36.02.77.27 1.14.49.72 1.34.91 2.03.44.31-.2.52-.51.59-.85.07-.39-.03-.79-.28-1.17Zm4.74 4.97c0 .06-.06.15-.12.17l-.08-.04c-.19-.11-.29-.12-.59.27-.22.29-.48.63-.65.85-.18.24-.31.39-.1.57.04.04.05.05.08.07 0 .06-.08.15-.14.17-.41-.29-1.07-.81-1.76-1.4.11-.15.3-.42.41-.54.09 0 .17.04.21.12-.03.06-.06.13-.1.22-.03.1-.06.25.1.41.15.16.37.32.47.39.1.07.15.05.19 0 .06-.06.43-.54.49-.61-.07-.07-.52-.43-.58-.47.03-.09.09-.16.17-.2.04.05.5.41.57.46 0 0 .29-.36.33-.4.26-.31.19-.37-.04-.57-.08-.07-.15-.12-.21-.17-.2-.13-.34-.13-.57-.01-.08.04-.12.07-.15.09-.08-.02-.16-.09-.15-.2.06-.05.47-.4.58-.47.45.39 1.03.87 1.65 1.31Zm-7.73-10.18c.03-.07.15-.11.22-.06.14.42.21.61.34.96a.14.14 0 0 1-.2.07c-.02-.04-.03-.06-.04-.1-.07-.13-.11-.22-.54-.15-.27.04-1.01.18-1.16.23-.26.07-.51.14-.43.41q.03.06.05.11c-.03.07-.12.11-.21.08-.13-.35-.22-.62-.34-.99.12-.03.24-.1.43-.26.22-.21.87-.7 1.15-.98-.23-.06-1.37-.23-1.45-.24-.17-.03-.37-.06-.55-.04-.04-.18-.17-.68-.22-.98.03-.06.15-.09.21-.03.01.06.01.07.03.1.04.16.09.23.41.14.36-.1.89-.29 1.18-.41.35-.14.49-.2.47-.37 0-.09 0-.1-.01-.16.04-.06.16-.08.21-.05.11.58.17.85.26 1.18-.04.05-.15.09-.21.06 0-.04-.02-.07-.03-.09-.07-.19-.09-.27-.49-.13-.36.13-1.15.4-1.36.47.3.07 1.11.18 1.54.27.44.09.6.1.74.11.04.04.07.11.05.16-.06.04-.29.21-.58.47s-.99.85-1.14.96c.31-.08 1.02-.23 1.27-.29.28-.06.54-.12.47-.35m39.64-2.42c.07-.05.16-.04.21.03 0 .03-.02.1-.02.13-.02.19.08.28.48.37.36.07.77.16 1.05.22.29.07.49.14.56-.1 0-.04.02-.07.03-.12.06-.04.16-.02.21.03-.03.18-.13.57-.17.77 0 .04-.01.08-.01.12-.06 0-.11.02-.26.09-.06.02-1.8.88-2 .99.19.07.86.32 1.05.38.36.12.48.17.58-.09 0-.03.03-.09.05-.12.07-.02.17 0 .21.06-.11.36-.25.76-.34 1.02-.07.04-.17-.02-.19-.08 0-.03.02-.07.03-.1.05-.19 0-.27-.41-.41-.3-.1-1.6-.6-1.73-.61a.256.256 0 0 1-.04-.18c.36-.18 2.49-1.25 2.62-1.31-.18-.05-1.02-.22-1.29-.27-.41-.07-.52-.04-.59.13-.02.06-.03.09-.04.13-.07.03-.16.01-.21-.06.07-.23.2-.82.23-1ZM9.47 28.42s.05-.06.1-.06c.13 0 .87.05 1 .06-.02.17-.08.6-.1.7-.22-.14-.89-.56-.96-.61-.05-.03-.06-.07-.05-.1Zm-.3.36c.1-.02.31.06.53.19.04.03 1.25.79 1.46.94.21.15.21.25.22.3 0 .05 0 .09.01.13.06.07.17.06.23 0 0-.1.04-.54.07-.87-.02-.08-.16-.09-.21-.03-.01.05-.01.07-.03.13-.02.07-.1.1-.21.03-.1-.06-.42-.26-.52-.32.01-.11.1-.74.11-.82.09 0 .43.02.5.03.27.05.23.24.23.27 0 .04 0 .08-.01.12.05.08.17.09.22.03.11-.69.2-1.19.41-2.05-.3-.17-.58-.25-.67-.28-.11.01-.13.16-.09.22.07.03.11.07.14.08.24.16.25.34.23.52-.02.13-.03.17-.07.36-.04.23-.18.24-.42.23-.2 0-.45-.01-.52-.02l.12-.7a.302.302 0 0 0-.25-.03l-.11.71c-.12 0-.75-.05-.89-.06-.08 0-.07-.06-.06-.11.01-.06.04-.25.09-.49.06-.29.22-.33.31-.36a.9.9 0 0 1 .25-.03c.11-.08.07-.2.02-.24-.17 0-.47-.03-.67-.03-.14.61-.21.98-.3 1.49-.05.29-.07.38-.16.64 0 .02.02.04.06.04Zm35.61 22.06s-.08 0-.11-.04c-.08-.1-.55-.67-.63-.78.13-.1.49-.34.58-.4.05.25.2 1.04.21 1.11.01.06-.01.1-.04.11Zm.46-.02c-.09-.06-.17-.27-.21-.53 0-.04-.28-1.46-.31-1.71-.04-.26.03-.31.07-.37.02-.03.06-.06.08-.09.02-.1-.07-.17-.15-.15-.09.06-.43.33-.7.52-.04.08.04.19.12.19.05-.03.06-.04.12-.07.07-.03.14 0 .16.13.03.13.11.49.12.61-.09.07-.62.43-.68.48 0 0-.24-.28-.31-.39-.17-.24.01-.34.05-.36 0 0 .03-.03.09-.07.03-.08-.05-.2-.12-.19-.58.39-1.01.68-1.79 1.11.09.34.22.6.26.68.08.07.2-.01.22-.09a.798.798 0 0 1-.03-.16c-.05-.29.07-.41.23-.51.1-.08.14-.1.31-.2.19-.12.29-.04.46.15.11.13.29.33.34.39-.11.07-.51.34-.6.4.01.07.07.15.15.2.12-.07.48-.31.61-.4.07.09.46.58.55.7.05.05 0 .07-.05.11-.05.03-.21.15-.41.27-.27.16-.39.07-.48.02a1.72 1.72 0 0 1-.2-.15c-.14-.03-.19.08-.18.14.1.13.3.38.43.52.54-.31.87-.51 1.3-.8.25-.15.32-.19.56-.31.03-.02.03-.05 0-.07ZM11.7 42.36c.45-.25 1.23-.65 1.41-.75.35-.17.42-.25.35-.47-.01-.04-.03-.09-.05-.14.04-.06.15-.11.21-.1.15.31.4.79.57 1.07-.03.05-.14.12-.2.12-.02-.04-.05-.08-.06-.1-.13-.18-.2-.18-.6.03-.26.14-.76.43-.95.52-.39.21-.43.26-.34.47l.05.1c-.01.06-.14.11-.19.11-.23-.4-.52-.97-.58-1.08-.05-.1-.11-.23-.15-.33-.12-.3-.19-.77.34-1 .35-.14.6-.01.82.21.14-.23.31-.52.41-.79.11-.28.14-.37.09-.55 0-.02 0-.03-.03-.09.03-.06.13-.1.2-.08.02.05.15.37.28.66-.12.27-.59 1.22-.66 1.36h-.1c-.07-.13-.21-.31-.4-.32-.19-.01-.29.05-.37.09-.09.04-.22.14-.27.29-.05.14 0 .32.03.41.04.1.09.18.13.24.04.07.05.09.07.12Zm9.15 9.49c.23-.46.66-1.21.76-1.4.2-.34.21-.45.03-.59a2.78 2.78 0 0 1-.11-.08c-.01-.07.06-.17.12-.2.3.18.77.44 1.06.58.01.07-.05.18-.09.21a.374.374 0 0 0-.11-.04c-.21-.07-.28-.04-.48.34-.13.27-.42.78-.51.95-.2.39-.21.46-.02.58.04.03.06.03.09.06.03.06-.05.18-.09.19-.42-.21-.97-.51-1.07-.58-.11-.06-.22-.14-.32-.2-.26-.19-.59-.54-.27-1.02.21-.32.5-.35.79-.28-.02-.27-.03-.6-.1-.88-.06-.29-.09-.38-.22-.51a.728.728 0 0 0-.07-.06c-.01-.07.06-.15.12-.18.05.03.33.23.6.4.05.29.18 1.34.2 1.51-.03 0-.06.03-.09.05-.13-.07-.33-.14-.49-.05-.16.09-.21.19-.27.27-.04.09-.1.24-.07.39.04.15.17.27.25.32.08.06.17.1.23.13.07.04.1.05.13.06Zm-7.42-28.42c.03-.09.4-.81-.14-1.25-.51-.44-.95.07-1.2.69-.19-.17-.8-.74-.92-.85.02-.1.39-1.21.44-1.31.13.04.28.16.34.3-.06.16-.32.97-.34 1.05.05.06.18.17.24.23.12-.22.4-.76.96-.78.86-.03 1.33.89.88 2.03-.08.05-.22.05-.26-.11Zm-.93-3.33c-.03-.07-.17-.47.11-.91.12-.19.29-.35.49-.37.2-.03.65.18.6.71.18-.24.38-.3.58-.27.05 0 .64.09.77.98.08.54-.2 1.14-.48 1.22-.28.08-.52-.24-.26-.45.12-.09.28.01.38-.1.11-.14.17-.63-.17-.91-.18-.15-.54-.3-.77-.02-.09.1-.12.26-.06.49-.11.16-.29.11-.36 0 .03-.18.14-.54.06-.86-.05-.24-.32-.4-.54-.2-.18.19-.11.5-.08.61-.05.11-.19.13-.28.08ZM42.69 8.95c-.01-.09.07-.27.15-.31.07.03.14.06.2.07.35.11.45.09.78-.57.22-.42.61-1.22.77-1.53.16-.32.4-.69.02-.93-.06-.03-.09-.06-.15-.09-.04-.1.06-.29.14-.32.69.32 1.34.67 1.79.92.04.1-.08.28-.17.31-.08-.04-.11-.06-.15-.06-.41-.17-.57.16-.77.55-.28.57-.63 1.22-.79 1.53-.29.54-.33.72-.03.94.06.04.13.08.2.13.02.08-.09.25-.19.29-.42-.24-1.25-.67-1.78-.93Zm7.32 5.16c.02-.1.16-.23.24-.25.06.06.12.11.17.14.29.22.38.23.93-.27.35-.32.99-.92 1.24-1.17.27-.24.63-.51.34-.87-.05-.06-.07-.09-.11-.14 0-.1.15-.25.24-.24.54.55 1.03 1.12 1.35 1.49 0 .1-.17.24-.26.22-.07-.06-.09-.09-.12-.12-.33-.29-.58-.04-.91.25-.47.43-1.02.92-1.28 1.15-.45.41-.55.56-.35.87.03.06.09.12.14.18 0 .09-.17.21-.28.21-.31-.37-.94-1.08-1.35-1.47Zm2.03 33.3c.1 0 .25.13.28.21-.04.06-.09.13-.12.18-.17.33-.18.42.39.89.37.3 1.05.88 1.32 1.1.27.22.57.55.9.22.05-.06.08-.08.13-.13.1-.02.26.12.27.21a26.8 26.8 0 0 1-1.29 1.54c-.1.02-.26-.13-.26-.23.05-.07.08-.1.1-.14.25-.36-.04-.58-.37-.87-.48-.4-1.04-.88-1.32-1.12-.46-.41-.62-.48-.91-.24-.05.04-.1.1-.17.16-.08 0-.23-.14-.24-.25.33-.36.96-1.1 1.28-1.54Zm-19.75 9.84c.06.09.06.28 0 .35-.07 0-.15 0-.22.02-.36.05-.44.11-.45.84 0 .49-.02 1.37-.03 1.73 0 .35-.06.8.39.84.08.01.11.02.18.02.08.07.08.28 0 .34-.77 0-1.5-.03-2.02-.06-.09-.07-.06-.28.02-.34h.17c.44-.04.44-.39.45-.84.01-.62.05-1.36.06-1.73.02-.61-.03-.78-.38-.86-.06-.01-.15-.02-.22-.03-.06-.07-.04-.28.03-.34.49.04 1.45.07 2.01.05Zm-16.14-5.58c-.01.1-.13.24-.22.27-.06-.04-.13-.09-.18-.12-.32-.18-.42-.2-.9.36-.31.37-.89 1.04-1.11 1.3-.23.28-.56.58-.24.9.05.06.08.08.13.13.02.11-.12.27-.21.27-.6-.49-1.16-.98-1.52-1.33-.02-.11.13-.25.24-.25.06.06.1.08.13.1.37.25.6-.01.89-.35.41-.47.9-1.03 1.14-1.29.41-.45.49-.62.26-.9-.04-.06-.11-.11-.16-.17 0-.09.15-.23.25-.24.35.34 1.07.97 1.5 1.32ZM7.98 23.93c-.1.02-.27-.04-.34-.11.02-.07.04-.15.05-.21.05-.36.04-.46-.66-.72-.45-.16-1.27-.46-1.61-.58-.34-.11-.73-.32-.92.1-.03.07-.05.1-.08.16-.09.05-.29-.02-.32-.1.26-.76.52-1.43.71-1.89.09-.06.28.04.31.13-.02.08-.04.13-.05.16-.11.43.22.55.64.71.58.23 1.28.49 1.61.62.58.21.75.23.95-.08.03-.05.06-.13.1-.2.09-.03.28.05.32.15-.19.45-.54 1.33-.72 1.87Zm46.07-4.46a26.38 26.38 0 0 0-1.81-2.77c.04-.09.19-.22.28-.22.05.07.09.12.12.15.26.25.38.24.95-.17.37-.27 1.16-.81 1.4-.98.3-.21.7-.42.47-.8-.04-.07-.06-.11-.09-.16 0-.1.18-.22.27-.21.47.62.87 1.24 1.14 1.64 0 .1-.15.22-.29.21-.05-.07-.07-.1-.1-.14-.25-.34-.62-.08-.94.14-.5.35-.98.68-1.41.97-.49.34-.6.42-.44.76.02.06.11.23.21.39.1.15.26.37.44.46.17.09.47.09.56.08.08-.02.24-.06.33-.08.07.03.2.13.13.33-.29.1-.69.26-1.21.4Zm1.9 4.2c-.42-1.22-1.03-2.56-1.28-3.06.05-.08.22-.17.31-.16.03.06.07.12.09.16.2.29.32.3.95.02.42-.19 1.32-.59 1.59-.71.32-.15.76-.28.6-.71-.03-.07-.04-.11-.06-.17.03-.1.22-.19.3-.16.35.7.64 1.38.82 1.82-.02.1-.19.18-.32.15-.04-.08-.06-.12-.07-.15-.19-.38-.59-.19-.95-.04-.57.25-1.09.49-1.6.7-.55.25-.67.3-.58.66.02.06.07.25.15.42.07.16.19.41.34.54.16.13.45.17.57.18.08 0 .25 0 .34-.02.07.04.17.17.07.35-.29.05-.76.13-1.29.18ZM38.91 7.3c-.02-.39.1-.79.19-1.04.1-.03.28 0 .38.09 0 .39-.12 1.01.65 1.27.49.16.77-.04.9-.3.18-.39-.04-.71-.51-1.16-.69-.65-.79-1.04-.74-1.38.07-.47.51-1.32 1.78-.85.61.22.9.43 1.08.52.01.12-.12.73-.21.95-.12.06-.25.03-.35-.09 0-.09.17-.71-.51-1-.63-.25-.89.11-.95.33-.09.32.07.46.58 1 .42.44.95.88.68 1.65-.23.68-1.01.99-1.83.69-.81-.29-1.13-.7-1.13-.7Zm-2.48 49.78c.18.34.26.75.3 1.01-.07.07-.25.13-.38.09-.17-.35-.35-.95-1.14-.83-.51.08-.68.38-.67.68.01.42.35.61.98.8.91.27 1.17.56 1.28.89.15.45.14 1.42-1.21 1.57-.64.08-.99.02-1.2.02-.07-.1-.21-.7-.23-.95.08-.1.21-.13.35-.08.04.08.17.72.91.66.67-.06.74-.5.7-.71-.06-.32-.27-.39-.98-.64-.57-.2-1.23-.36-1.33-1.15-.1-.72.45-1.35 1.32-1.45.86-.11 1.32.12 1.32.12ZM13.36 49.3c-.17.35-.47.64-.66.82-.1-.02-.25-.14-.31-.27.21-.34.61-.82.07-1.43-.35-.38-.7-.35-.93-.18-.34.25-.31.63-.12 1.27.28.9.19 1.28-.03 1.55-.3.38-1.1.9-1.97-.12-.41-.5-.58-.81-.68-1 .05-.1.47-.56.65-.72.14 0 .22.1.26.26-.05.07-.5.53-.04 1.12.42.53.83.33.98.18.24-.24.16-.43-.02-1.16-.15-.59-.38-1.23.21-1.77.54-.47 1.37-.37 1.95.29.57.66.64 1.17.64 1.17Zm6.02-39.32c-.09-.04-.19-.21-.18-.3.07-.04.13-.08.18-.12.28-.23.33-.32-.02-.97-.23-.43-.64-1.2-.82-1.52-.17-.31-.33-.72-.75-.54-.07.03-.1.04-.17.07-.1-.02-.2-.2-.17-.29.68-.38 1.3-.71 1.78-.93.11.01.19.22.15.31-.08.04-.11.07-.14.09-.37.25-.2.55 0 .94.29.57.62 1.22.78 1.54.28.54.4.67.75.57.06-.02.13-.05.21-.09.08.03.16.22.13.32-.44.21-1.24.63-1.76.93Zm3.17-1.77c-.26-.28-.42-.67-.52-.92.05-.09.22-.19.35-.18.24.32.54.86 1.3.58.49-.18.58-.52.51-.81-.1-.41-.47-.52-1.13-.57-.94-.07-1.27-.3-1.45-.6-.24-.41-.44-1.35.85-1.79.61-.21.96-.24 1.18-.27.07.08.35.64.42.87-.06.12-.17.17-.33.16-.05-.08-.31-.66-1.02-.45-.65.2-.62.65-.53.85.13.3.34.31 1.09.41.59.08 1.28.09 1.56.84.24.67-.16 1.41-.98 1.7-.82.29-1.31.17-1.31.17Zm-6.69 3.93c-.32-.2-.59-.54-.75-.74.04-.1.17-.24.3-.27.32.23.76.67 1.41.19.42-.3.42-.64.26-.9-.21-.37-.6-.37-1.24-.23-.93.2-1.3.06-1.55-.18-.35-.32-.79-1.17.31-1.95.53-.38.86-.5 1.06-.58.1.05.51.52.65.71-.02.14-.11.21-.27.24-.07-.06-.49-.55-1.11-.15-.57.36-.42.79-.27.96.2.26.41.2 1.16.09.59-.1 1.26-.27 1.73.38.43.58.24 1.39-.46 1.9-.71.51-1.22.53-1.22.53Zm39.32 30.02c.12-.07.27 0 .32.13-.02.04-.06.14-.08.2-.1.28.03.47.62.74.52.24 1.16.53 1.58.73.41.19.71.39.91.04.04-.05.06-.1.1-.18.11-.02.26.04.31.14-.09.22-.38.82-.52 1.12-.03.05-.05.11-.06.18-.11-.02-.19 0-.44.04-.1.02-3.17.7-3.54.8.27.17 1.23.81 1.5.98.5.32.69.44.98.08.03-.05.08-.12.12-.17.12 0 .27.07.29.18-.3.5-.7 1.07-.95 1.42-.11.04-.26-.09-.28-.19.03-.04.06-.1.09-.15.15-.27.08-.41-.5-.8-.42-.27-2.26-1.52-2.45-1.59a.281.281 0 0 1 .01-.28c.62-.15 4.36-1.01 4.59-1.08-.27-.12-1.53-.7-1.94-.88-.61-.26-.79-.26-.95 0-.06.09-.07.13-.11.18-.12.02-.26-.04-.3-.17.19-.35.59-1.21.71-1.47ZM6.78 29.8c-.1.1-.26.09-.35-.02v-.21c0-.3-.18-.44-.81-.5l-1.71-.18c-.46-.05-.79-.13-.89.26-.01.06-.02.11-.04.19-.09.07-.26.07-.34-.02 0-.24.09-.9.13-1.23.01-.06.01-.12 0-.2.11-.02.18-.06.41-.18.08-.05 2.74-1.69 3.05-1.91-.31-.07-1.42-.36-1.72-.43-.59-.13-.8-.18-.93.23-.02.05-.04.14-.06.2-.11.05-.26.02-.33-.08.12-.57.28-1.23.4-1.64.09-.07.29-.01.33.09-.01.05-.03.12-.04.18-.04.3.04.41.74.58.47.12 2.62.7 2.83.7.06.05.11.16.09.28-.54.34-3.75 2.37-3.95 2.5.29.04 1.66.18 2.09.22.66.04.82-.02.89-.31.03-.11.03-.15.04-.21.11-.05.26-.04.35.07-.06.38-.17 1.33-.19 1.61Zm5-13.1a.22.22 0 0 1-.28-.2c.02-.03.09-.12.12-.17.16-.25.07-.46-.43-.86-.45-.36-.98-.78-1.35-1.06-.36-.29-.6-.54-.88-.25-.04.05-.08.09-.14.16-.11 0-.24-.09-.27-.21.13-.19.55-.71.76-.97.03-.04.07-.1.1-.17.1.04.19.05.43.07.1 0 3.24.02 3.61.02-.22-.23-1-1.07-1.23-1.3-.42-.43-.57-.58-.9-.29-.04.03-.11.1-.17.13-.11-.01-.23-.12-.24-.24.41-.42.9-.89 1.22-1.18.11 0 .23.15.23.25l-.13.13c-.2.24-.18.38.32.9.34.35 1.85 1.99 2.02 2.1.02.08 0 .2-.08.27H9.8c.24.19 1.3 1.04 1.66 1.3.53.4.7.43.93.22.08-.07.11-.1.15-.15.12.01.24.1.25.24-.25.3-.86 1.04-1.03 1.27ZM9.19 42.91c-.1-.03-.29.05-.32.13.02.07.05.14.07.2.11.36-.03.46-.57.75-.15.08-.37.2-.65.33l-.92-1.98c.25-.1.5-.21.67-.28.66-.26.76-.26.95.06.03.04.06.11.09.17.09.01.26-.06.31-.15-.24-.52-.56-1.32-.71-1.78-.1-.03-.3.03-.34.1.02.08.04.15.05.22.07.32-.08.45-.65.68-.31.12-1.02.4-1.6.63-.37.15-.72.32-.92-.06a.851.851 0 0 0-.07-.16c-.12-.03-.29.04-.32.14.16.46.43 1.13.71 1.8.08.03.29-.03.32-.14-.02-.06-.02-.08-.05-.15-.11-.38.15-.52.62-.7.11-.05.32-.13.56-.23l.93 2.01c-.18.11-.37.21-.54.3-.36.2-.69.39-.93.04-.02-.03-.04-.07-.08-.14-.12-.02-.3.07-.31.17.22.45.54 1.08.91 1.71.07.01.28-.07.3-.17-.03-.06-.03-.08-.06-.14-.16-.36.1-.53.54-.76.26-.14 1.11-.59 1.52-.81.61-.33.73-.34.95-.05.03.04.06.1.1.16.09 0 .25-.09.3-.18-.29-.47-.7-1.27-.89-1.71Zm40.03-30.46c-.12.15-.21.27-.31.45-.32-.16-.83-.37-1.42-.84-.51-.42-1.08-1.01-1.03-2.02.05-.89.63-1.63 1.33-1.9.92-.37 1.78-.03 2.42.47.75.6.98.93 1.08 1.06-.22.3-.43.6-.65.97-.1.02-.29-.06-.31-.15.07-.17.2-.42.19-.71-.03-.29-.18-.58-.53-.86-.44-.33-1.58-.69-2.44.6-.81 1.25-.05 2.02.19 2.22.15.13.21.18.31.25.24.17.39.14.56-.05.07-.08.13-.16.23-.29.21-.26.22-.28 0-.53-.1-.12-.17-.19-.23-.26-.02-.1.1-.26.25-.26.5.45 1.06.9 1.46 1.16.02.08-.11.3-.2.3-.08-.03-.11-.05-.16-.08-.17-.09-.25-.13-.48.16-.15.19-.21.25-.25.3ZM9.27 20.77c-.07.02-.23-.06-.3-.15.04-.07.04-.07.06-.13.13-.34.12-.51-.56-.87-.51-.27-1.11-.6-1.48-.81-.44-.25-.69-.41-.93-.04-.04.06-.06.1-.08.13-.1.02-.26-.08-.3-.16.36-.73 1.02-1.94 1.79-3.11.26.13.72.38.95.51.02.15-.03.29-.15.37-.09-.04-.21-.08-.37-.11s-.4-.05-.62.26c-.2.28-.4.66-.49.84-.09.16-.04.22.06.29.1.06.96.55 1.09.62.6-1.03.59-1.02.6-1.04.14.03.28.11.35.22 0 0-.58 1.01-.59 1.02 0 0 .63.37.71.42.55.33.63.21.88-.2.09-.15.16-.27.21-.36.18-.35.12-.58-.12-.91-.08-.12-.13-.17-.16-.21.01-.13.11-.28.27-.3.1.09.75.65.89.81-.52.77-1.19 1.9-1.68 2.91ZM45.92 53.1c.08.03.18.18.19.29-.06.05-.06.06-.11.09-.28.22-.35.37.04 1.04.31.5.64 1.08.86 1.45.26.44.39.71.78.51.07-.04.1-.05.15-.07.09.04.18.2.17.3-.68.44-1.86 1.14-3.11 1.75-.15-.25-.42-.66-.56-.91.06-.14.18-.24.31-.24.07.07.14.17.26.27.12.11.32.25.66.1.32-.13.69-.36.86-.47.16-.1.14-.17.09-.28-.05-.11-.54-.96-.61-1.08l-1.04.59a.558.558 0 0 1-.19-.37l1.02-.58s-.36-.64-.4-.72c-.31-.58-.44-.51-.86-.29-.16.08-.28.16-.36.21-.33.2-.4.43-.36.84 0 .14.02.21.03.27-.07.1-.23.18-.39.12-.07-.16-.28-.87-.35-1.15.82-.41 1.9-.99 2.92-1.67Zm11.5-26.88c1.18-.75 1.31-.86 2.25-1.43.33-.2.48-.28.59.03.03.07.04.12.05.16.11.06.29 0 .33-.09-.15-.62-.32-1.24-.54-1.91-.12-.08-.28.03-.33.09.01.07.04.14.04.22.04.34-.06.45-.47.74-.23.16-2.86 1.8-2.92 1.84-.06.05-.05.12-.02.15.02.03.24.39.36.55 1.08.14 2.65.41 3.27.53.63.11.74.25.76.43.02.09.02.15.04.21.09.07.3.06.33-.04-.06-.47-.17-1.17-.27-1.61-.09-.08-.29-.05-.34.04.01.07.03.13.03.18.01.23 0 .37-.52.3-.81-.1-1.82-.26-2.66-.4Zm-.53 13.44c1.39-.05 1.56-.08 2.66-.11.39-.01.55-.01.5.31-.02.08-.03.14-.04.18.06.09.25.15.34.08.17-.61.33-1.25.48-1.93-.07-.13-.26-.12-.33-.08-.02.06-.04.13-.08.22-.14.31-.28.36-.78.4-.28.02-3.38.15-3.45.16-.07 0-.09.07-.09.12 0 .04.02.46.03.65.88.66 2.1 1.68 2.59 2.09.48.41.51.58.45.75-.03.09-.05.15-.08.21.05.11.24.2.32.13.18-.44.43-1.1.56-1.53-.05-.12-.23-.19-.32-.13-.02.06-.04.12-.06.17-.1.2-.19.32-.6 0a73.14 73.14 0 0 1-2.11-1.67Zm-8.11 12.19c1.2.7 1.36.76 2.29 1.34.34.19.47.28.25.53-.05.06-.1.1-.12.12 0 .13.14.27.22.26.48-.43.96-.87 1.46-1.36.02-.15-.16-.24-.23-.25-.06.04-.11.09-.18.13-.29.19-.44.17-.87-.08-.27-.15-2.9-1.66-2.96-1.7-.07-.03-.13 0-.14.04-.02.04-.23.41-.33.57.37 1.01.85 2.53 1.03 3.14.19.6.12.76-.02.88-.08.05-.13.09-.19.12-.01.12.1.3.2.28.39-.27.95-.7 1.3-.99.04-.11-.09-.28-.2-.28-.06.04-.1.08-.15.11-.19.12-.33.16-.5-.33-.28-.77-.6-1.74-.87-2.54Zm-7.16 7.52c-.28-.76-.74-2.06-.85-2.38-.21-.59-.32-.72-.68-.66-.07.01-.15.03-.23.04-.08-.04-.13-.23-.09-.33.6-.19 1.27-.44 1.82-.66.08.07.15.23.14.32-.07.03-.13.06-.17.08-.31.18-.33.31-.08.96.16.43.49 1.31.6 1.59.24.66.31.75.66.65.07-.02.1-.03.17-.04.1.03.15.24.13.32-1.07.43-1.64.61-1.83.66-.18.06-.39.12-.56.16-.5.12-1.27.13-1.5-.77-.16-.58.11-.97.52-1.25-.34-.26-.75-.59-1.17-.82-.43-.23-.57-.29-.88-.26-.03 0-.11.02-.2.03-.05-.08-.11-.23-.09-.33.1-.02.64-.13 1.16-.27.26.16 1.72 1.11 2.02 1.3l-.05.2c-.21.08-.49.24-.55.52-.05.29 0 .47.05.62.04.15.17.38.39.49.22.12.5.08.65.04.16-.05.3-.09.41-.13.11-.05.16-.08.2-.1Zm-19.74-.61.07-1.8 1.12.42-1.19 1.37Zm1.78-2.91c-.15.05-.15.25-.13.3.06.03.05.03.14.08.28.15.22.23-.07.55-.17.19-.22.26-.3.33-.19-.08-1.15-.44-1.34-.52 0-.15 0-.15.02-.46 0-.3 0-.54.32-.43.08.03.1.04.14.06.11-.05.17-.24.13-.32-.27-.1-.86-.35-1.62-.71-.14.04-.2.22-.18.3.06.03.13.06.2.11.36.23.27.59.26.88-.02.29-.12 3.38-.12 3.45 0 .08.02.07.07.08.05 0 .45-.01.55-.02.16-.17 1.8-1.99 2.23-2.47.46-.5.61-.48.8-.48.1 0 .16.02.2.03.1-.05.15-.24.08-.33-.49-.14-1.22-.37-1.38-.43ZM4.01 38.14l1.54-.92.26 1.16-1.8-.25Zm3.42-.09c-.13-.09-.3 0-.34.07.01.06.01.05.02.15.04.32-.06.32-.51.25-.26-.05-.34-.05-.43-.07-.04-.2-.26-1.21-.3-1.4.13-.09.13-.08.4-.25.25-.16.45-.29.53.04.02.08.02.11.03.15.1.08.29.02.34-.07-.06-.26-.17-.9-.28-1.74-.11-.09-.3-.03-.36.02 0 .08.01.16.01.24.01.43-.35.55-.59.7-.24.14-2.89 1.75-2.95 1.78-.07.05-.05.06-.03.11.03.03.26.36.33.45.22.03 2.64.41 3.27.51.67.11.74.25.83.41.05.08.07.15.08.18.11.06.3-.01.33-.12-.07-.18-.35-1.18-.4-1.4Zm50.25-7.29c-.07.1-.26.1-.35.01-.05-.7-.07-1.03-.13-1.62.05-.1.22-.15.35-.05.01.08.01.11.02.17.05.24.07.38.74.45.43.04 1.64.1 1.89.1.42-.01.85.02.82-.44v-.18c.07-.09.23-.1.35-.03.05.59.08.98.1 1.6-.2 0-.42.04-.77.21-.45.22-1.66.77-2.19 1.06.31.18 2 .97 2.1 1.02.23.12.56.26.85.31-.02.44-.07 1.09-.11 1.57-.08.07-.28.07-.36-.04v-.18c0-.25-.04-.38-.56-.39-.58 0-1.49 0-1.98.02-.59.05-.84.07-.89.34-.02.14-.02.14-.04.25-.08.06-.28.04-.35-.04.11-.97.12-1.28.15-1.81.08-.06.27-.05.35.01v.16c.02.22.01.34.68.33.59 0 1.94-.03 2.29-.05-.38-.21-1.62-.75-2.24-1.07-.65-.33-.88-.42-1.09-.51a.21.21 0 0 1 0-.26c.11-.03.53-.19 1.1-.47.55-.27 1.97-.89 2.22-.99-.5-.03-1.73-.05-2.12-.06-.47-.01-.86-.02-.84.34m-29.29 29.5c-.03.11-.12.28-.24.42-.12.14-.41.22-.72.17-.1-.02-.3-.06-.53-.1 0 0 .38-1.98.47-2.44.13-.69.21-.78.57-.77.04 0 .11 0 .18.01.06-.07.09-.26.05-.34-.56-.09-1.45-.26-1.92-.38-.09.07-.14.26-.09.33.07.02.15.06.2.08.35.13.36.31.25.92-.07.32-.49 2.44-.49 2.44-.3-.05-.57-.11-.7-.14-.34-.09-.39-.42-.4-.53-.01-.1 0-.21 0-.34-.08-.1-.27-.11-.34-.06-.03.17-.2.93-.24 1.14 1.5.38 2.41.57 3.86.75.04-.06.41-.91.45-1.01-.07-.12-.24-.16-.35-.14Zm-9.57-3.04c-.07.1-.21.22-.38.31-.15.07-.45.05-.73-.1-.09-.06-.26-.16-.46-.28 0 0 1.05-1.72 1.29-2.11.36-.6.47-.67.8-.53.04.02.1.04.17.08a.46.46 0 0 0 .17-.3c-.49-.28-1.26-.75-1.66-1.04-.1.02-.23.2-.21.29.06.04.12.09.18.14.26.24.21.41-.11.94l-1.31 2.11c-.26-.16-.49-.31-.61-.38-.3-.2-.22-.53-.2-.63.02-.1.07-.21.13-.32-.05-.12-.23-.2-.3-.17-.09.15-.5.8-.62.98 1.27.89 2.04 1.37 3.35 2.06.05-.04.7-.72.78-.79-.01-.14-.17-.24-.27-.25ZM6.34 32.1c0 .07 0 .14-.01.21-.04.35-.1.56-.69.59-.13 0-.61.02-.75.02l-.02-1.16a.555.555 0 0 0-.42 0v1.18c-.12 0-1.16.05-1.28.05-.12 0-.19-.02-.21-.21 0-.19-.03-.46 0-.86.04-.66.87-.78 1.1-.83.08-.14.06-.28-.05-.41-.34.02-1.11.12-1.43.13-.04 1.57 0 2.49.09 3.6.08.04.27.04.34-.02v-.16c0-.44.33-.44.83-.46.32-.02 1.02-.04 1.71-.09.77-.05.83.07.89.42.01.06.01.07.02.14.11.04.28.02.35-.03-.07-.67-.1-1.47-.11-2.11-.08-.06-.26-.04-.34 0Zm13.8-19.07c-.34.06-.45.66-.5.88-.04.22-.1.61-.1.61-.04.05-.11.05-.22.03-.19-.03-.34-.31-.38-.51-.04-.15-.04-.31-.05-.4.07.02.15.05.21.01.15-.07.2-.26.17-.53a.363.363 0 0 0-.17-.29.32.32 0 0 0-.2-.01c.02-.07.04-.14.03-.21a.233.233 0 0 0-.13-.16.607.607 0 0 0-.33-.02h-.03c-.13.02-.23.06-.3.12-.07.06-.09.13-.08.19.01.08.04.14.09.2-.09 0-.16.04-.19.07-.08.08-.1.2-.07.34.06.25.18.41.32.44.08.01.14-.03.19-.08.02.1.05.22.07.4.01.2-.04.54-.18.65-.06.04-.12.05-.19.03-.01-.02-.32-.54-.32-.54-.26-.38-.46-.7-.73-.69-.11 0-.23.08-.3.17-.11.15-.09.45.09.64.16.15.38.21.51.15.2.32.25.47.45 1 .08.25.23.64.31.92.09.29.32.38.63.47 0 .03.14 2.28.84 6.77.04.18.45.21.64.16.2-.04.53-.17.49-.44-.72-4.52-1.19-6.7-1.17-6.6.23-.14.47-.33.48-.66 0-.23.01-.66 0-1.06 0-.41.03-.68.1-1.05.15.02.31-.05.42-.25.12-.23.08-.49-.04-.62-.1-.1-.2-.16-.38-.12Zm-.58 15.76c.15.22.64.48 1.32.39.62-.08 1.01-.42 1.16-.77.19.15.53 1.82-.91 2.01-1.42.2-1.66-1.21-1.57-1.64Zm1.54-1.71c-.07.06-.26.05-.29.06 0 .05.11.22.05.26-.03.04-.29.11-.35.04s-.05-.15-.07-.23c-.05 0-.19.05-.28 0-.09-.04-.18-.33-.13-.4.05-.07.17-.04.29-.06-.04-.09-.08-.22-.04-.27.04-.03.29-.08.34-.03.06.04.05.17.09.24.05 0 .25-.06.32 0 .06.06.17.33.08.41Zm1.43-1.09c-.06-.11-.14-.14-.29-.18.1-.14.13-.16.2-.29.07-.16.1-.35-.02-.65-.07-.17-.24-.19-.38-.22.03-.07.04-.11.07-.22.05-.21 0-.33-.12-.47-.17-.2-.71-.24-.77-.12-.16.3-.56.47-.87.52-.36.06-.69 0-1.03-.17-.28-.14-.37-.16-.54-.03-.18.17-.3.41-.3.73 0 .33.24.46.27.64.05.28-.13.43-.08.65.05.21.22.31.29.48.06.18 0 .3.02.53.02.24.25.38.3.5.05.13 0 .4.1.52.12.14.26.16.52.21.4.06.99.08 1.59-.18.33-.14.74-.34.92-.74.08-.2 0-.44-.11-.6.16-.11.23-.2.26-.32.07-.24.02-.49-.03-.58Zm3.98-6.96c-.14.39-.64 1.27-.86 1.2-.28-.08-.4-1.15-.35-1.56.04-.26.1-.39.22-.39.08 0 .2.35.17.86l.27.03c.17-.54.44-.72.52-.68.1.07.1.27.03.52Zm-1.22-4.5c.06-.21.11-.32.2-.31.07.01.15.3.1.72l.22.04c.17-.44.4-.57.46-.53.08.06.07.23 0 .43-.12.32-.58 1.01-.76.95-.23-.07-.28-.97-.21-1.3Zm-1.23 2.52c-.07.37-.45 1.21-.66 1.17-.26-.04-.47-1-.45-1.37 0-.24.05-.37.16-.38.08 0 .2.31.23.77h.26c.1-.51.32-.7.4-.66.09.05.12.24.07.47Zm3.66-2.47c.07-.7.35-1.32.49-1.66.03-.08-.14-.26-.2-.26-.07 0-3.59.85-6.43 2.66-.54.35-.13 1.59.27 2.53 1.26 3.05 2.73 2.62 3.26 5.01.17.78.86 3.71 1 4.09.28.77 1 1.29 1.85 1.22-.27-3.83-.63-10.05-.25-13.59Zm13.31 3.78c-.21.04-.58-.8-.65-1.16-.05-.24-.03-.43.07-.48.07-.03.31.16.4.67h.24c.04-.47.17-.77.25-.77.1.01.15.13.16.38.02.37-.2 1.33-.46 1.37Zm-2.34 2.48c-.22.05-.75-.82-.88-1.21-.08-.25-.07-.45.03-.52.08-.04.39.14.54.68l.27-.03c-.02-.51.09-.86.18-.87.11 0 .17.13.21.4.06.41-.07 1.47-.35 1.55Zm-.82-6.4c.05-.04.32.09.47.53l.22-.04c-.05-.42.03-.71.09-.72.1 0 .16.09.2.31.08.34.04 1.23-.2 1.3-.17.07-.66-.63-.79-.95-.08-.2-.09-.37 0-.43Zm5.01.95c-3.16-1.96-6.62-2.71-6.7-2.71-.06 0-.22.18-.19.27.12.33.41.92.49 1.62.37 3.54.02 9.76-.25 13.59.85.07 1.57-.45 1.85-1.22.15-.38.75-3.32.96-4.09.51-1.91 2.91-2.72 3.55-4.8.33-1.08.81-2.33.28-2.66Zm-8.21-6.92s.02-.61-.56-.82v-.13s.58-.06.86.17c0 0-.01.12.01.23.41 1-.27 1.34-.27 2.07-.76-.51-1.45-.48-1.45-.48l-.4-1.02s.14-.04.57-.08c.41-.03.86-.07 1.24.07ZM32 5.17c-1.15 0-2.33.11-3.1.47-.12-.31-.41-1.73-.85-2.28-.07-.08-.27-.31-.32-.35-.05-.04-.08-.13 0-.16s.19-.05.31-.02c.16.03.24.12.29.31 0 0 .05.02.06.02-.03-.11-.02-.23.03-.3.03-.05.17-.12.35.07.08.09.13.18.16.28.04.11.07.22-.03.29-.05.03-.14.03-.24-.02v.07c.13.19.49.41.82.34.44-.07.54-.32.51-.62-.01 0-.02-.02-.03-.03-.02.03-.07.08-.14.09-.05.01-.21.02-.31-.21-.08-.17-.07-.29-.04-.34.04-.05.15-.08.35-.03 0-.02 0-.04.01-.05-.22-.07-.27-.23-.26-.32 0-.09.05-.22.32-.26.29-.06.41.07.43.16.02.07.01.26-.13.37 0 .02.04.03.05.04.04-.04.08-.06.11-.09.03-.02.09-.05.12-.05.08 0 .18.04.23.28.07.31-.12.37-.18.37-.05 0-.15-.02-.2-.05l-.03.03c.16.34.42.53.85.5.39-.03.66-.27.67-.74 0 0-.02 0-.03-.02-.02.02-.09.11-.22.11s-.22-.1-.26-.29c-.05-.21.02-.34.12-.37.12-.05.23.02.26.07.01-.02.02-.03.04-.04-.08-.1-.15-.19-.13-.28.02-.12.15-.2.4-.2.24 0 .38.08.4.2.02.09-.04.19-.13.28 0 .01.02.03.03.04.04-.04.16-.11.27-.07.1.03.17.16.12.37-.04.19-.14.29-.26.29s-.19-.09-.21-.11c-.01.01-.03.02-.03.02 0 .47.29.7.67.74.43.03.69-.17.84-.5 0-.02-.01-.02-.02-.03-.05.03-.16.05-.21.05-.06 0-.25-.06-.18-.37.05-.24.14-.28.24-.28.03 0 .08.02.12.05.03.02.06.04.11.09 0-.01.04-.03.05-.04-.14-.11-.16-.3-.13-.37.02-.09.13-.21.43-.16.27.05.32.17.33.26.01.09-.05.25-.26.32 0 .02.01.04.01.05.2-.05.31-.02.34.03.04.05.05.18-.03.34-.11.22-.26.22-.32.21-.06-.01-.11-.07-.14-.09 0 .01-.02.02-.02.03-.03.3.07.54.5.62.35.07.7-.16.82-.34v-.07c-.09.05-.18.06-.24.02-.09-.07-.06-.18-.02-.29.03-.1.08-.19.16-.28.18-.19.31-.12.35-.07.04.06.04.18.02.3.01 0 .06-.02.06-.02.04-.2.13-.28.29-.31.12-.03.22 0 .31.02.08.03.04.12 0 .16-.04.04-.24.26-.31.35-.45.55-.74 1.97-.87 2.28-.77-.36-1.94-.47-3.09-.47" class="cls-4"/><path d="m31.75 7.38-.24 1.14s-.2-.08-.7-.11c-.74-.04-1.19.01-1.19.01.04-.28.14-.69.7-.75v-.11l-.72-.17c.53-1.21 1.91-.16 2.14-.02Zm-.43 3.92c.29-.03.53-.41.53-.41h.28s.16.37.48.4c1.12.12 2.02.31 2.33.49.26-.38.18-.84-.45-1.22-.22-.13-.86-.39-1.87-.39-.6.61-1.23-.15-1.9.1.27-.27.57-.59.88-.59 0 0 .14.1.32.16.17.06.57-.04.67-.19.05-.08-.31-2.29-.31-2.29s.97-.55 1.76-.55c.73 0 .98.49.98.49.34-1.51-1.59-1.43-2.99-1.43-3.76 0-2.8.76-2.68 2.04 0 .36-.54.66 0 1.92.06.14.15.4.19.72-.48.33-.65.78-.42 1.23.48-.29 1.48-.39 2.22-.47m.67 2c-.86 0-1.16-.26-1.16-.76 0 0 .22.14 1.16.14.89 0 1.09-.14 1.09-.14 0 .5-.28.76-1.09.76Zm2.67-1.13c-1.86-.34-3.53-.36-5.36.04-.32 1.32-.73 3.99-.1 4.82.15.2 1.17.62 2.19.39.25-.15.27-1.38.31-1.9.06-.79.08-.9.15-.9h.33c.14.09.1 2.57.44 2.78.89.33 2.15-.05 2.37-.37.49-.7-.02-4.04-.34-4.86Zm-2.67 24.26c-2.83 0-6.15.31-7.44.6-.31-.7-1.14-2.69-2.24-3.9-.18-.19-.67-.68-.78-.78-.11-.09-.2-.28 0-.34.21-.06.46-.1.77-.05.4.08.62.25.71.7.02 0 .14.05.15.05-.05-.24-.05-.52.06-.65.1-.12.43-.28.86.14.21.2.32.4.39.61.09.25.17.49-.06.64-.16.08-.38.08-.61-.04v.16c.31.42 1.17.91 2.02.78 1.06-.17 1.32-.72 1.25-1.37a.18.18 0 0 0-.07-.05c-.06.05-.17.18-.34.22-.13.03-.52.03-.78-.47-.2-.37-.17-.64-.08-.75.08-.12.36-.19.85-.06 0-.02.03-.09.04-.11-.54-.17-.67-.5-.65-.7.01-.2.13-.49.81-.6.72-.13.99.16 1.06.36.04.15.01.56-.32.8.02.04.08.08.1.1.12-.09.18-.14.26-.19.09-.06.23-.11.31-.1.21 0 .45.08.57.61.16.68-.3.82-.43.82s-.38-.04-.5-.12c-.03.02-.04.04-.07.07.38.75 1.03 1.18 2.07 1.12.94-.07 1.63-.6 1.65-1.64l-.08-.04c-.04.03-.2.25-.52.25s-.56-.23-.66-.63c-.13-.48.06-.73.3-.82.29-.1.57.06.66.15a.55.55 0 0 0 .07-.09c-.19-.2-.36-.42-.32-.63.06-.26.38-.45.98-.45s.91.19.96.45c.05.21-.11.43-.3.63.02.04.05.06.08.09.09-.09.36-.25.65-.15.24.09.43.34.31.82-.1.39-.35.63-.66.63s-.46-.22-.5-.25c-.03.01-.07.03-.08.04.01 1.04.68 1.57 1.63 1.64 1.04.07 1.69-.36 2.07-1.12a.507.507 0 0 0-.06-.07c-.12.07-.38.12-.51.12-.14 0-.59-.14-.43-.82.12-.53.35-.61.57-.61a.8.8 0 0 1 .31.1c.08.05.14.11.26.19.02-.03.08-.07.1-.1a.83.83 0 0 1-.32-.8c.06-.19.33-.49 1.06-.36.66.11.77.4.8.6.02.2-.11.54-.64.7 0 .03.03.09.03.11.49-.12.76-.05.87.06.09.11.11.38-.1.75-.27.5-.65.5-.78.47-.16-.03-.28-.16-.33-.22-.03.02-.06.04-.08.05-.07.66.18 1.2 1.27 1.37.84.14 1.7-.35 2-.78v-.16c-.22.12-.44.13-.6.04-.23-.16-.13-.39-.05-.64.07-.21.18-.41.39-.61.44-.41.77-.25.86-.14.11.13.12.41.07.65.01 0 .13-.05.14-.05.09-.44.32-.62.72-.7.29-.06.54 0 .75.05.2.06.11.25 0 .34-.1.09-.6.59-.76.78-1.11 1.21-1.94 3.2-2.24 3.9-1.28-.29-4.63-.6-7.45-.6Zm-2.23 13.03c.19 0 .27-.12.38-.26l-.53-.03c0 .18.05.29.15.29Zm.13-5.33-.59-.03c0 .17.07.28.16.28.22 0 .3-.12.42-.25Zm5.32 1.67s.1.01.13.01c.36 0 .69-.22.69-.68s-.45-.64-.73-.64c-.84 0-.78.92-1.68 1.07.22-.02.33-.02.47-.02.62 0 .91.07 1.12.27Z" class="cls-4"/><path d="M37.81 41.24h-.1c-.19-.13-.75-.24-.75-.63 0-.07.02-.27.37-.27.28 0 .32.16.32.25h.22c0-.08.04-.25.35-.25.35 0 .37.21.37.27 0 .39-.59.5-.79.63Zm-.07 5.03h-.11c-.18-.13-.75-.24-.75-.63 0-.06.03-.27.38-.27.28 0 .32.16.32.25h.22c0-.09.04-.25.34-.25.36 0 .38.21.38.27 0 .39-.59.5-.78.63Zm-.29 5.21h-.11c-.18-.13-.75-.25-.75-.63 0-.06.02-.27.38-.27.27 0 .32.16.32.25h.22c0-.09.04-.25.31-.25.4 0 .41.21.41.27 0 .38-.59.5-.79.63Zm-.11 1.41s0-.1-.03-.13c-.01.01-.03.02-.04.02-.05.03-.11 0-.18-.09-.1.06-.12.13-.11.17.03.07.04.04.06.12.03.12-.08.21-.11.24v.06c0 .02.02.05.04.05-.05.02-.18-.03-.22-.14-.02-.07 0-.09-.01-.13-.01-.05-.04-.04-.07-.04-.02 0-.06 0-.06.03.02.06.03.21-.11.25-.06.02-.11 0-.13 0-.02.01-.03.06-.02.07 0 .02.02.05.02.05a.2.2 0 0 1-.13-.14c-.06-.16.11-.22.11-.31 0-.02-.04-.03-.08-.03-.06.06-.08.07-.17.11-.04.01-.08 0-.1-.02-.03.06-.04.09-.03.18a.409.409 0 0 1-.1-.18c-.04-.13.08-.29.24-.35.09-.02.12-.02.18-.04.12-.04.22-.23.18-.35l-.02-.03c-.3.1-1.21.74-2.04.74-1.14 0-.2-1.93-1.18-1.93-.91 0-1.19 1.12-2.21 1.12-.34 0-.63-.06-.74-.09-.01.35.03.5-.29.51-.23.02-.52.09-1.81.09-.08.46-.17.53-.36.53-.1 0-.14-.04-.2-.07.09-.02.2-.03.2-.08-.03 0-.08-.05-.08-.09 0-.03 0-.07.07-.12-.03 0-.05-.02-.08-.02-.19 0-.32.29-.55.29-.09 0-.19-.08-.19-.19-.05 0-.12.06-.18.12-.01-.17.05-.3.24-.31.14 0 .19-.02.19-.07 0-.01 0-.04-.01-.05-.07.01-.1.01-.17.01-.12 0-.21-.05-.21-.13 0-.02 0-.03-.03-.03s-.11.04-.15.09c0-.17.14-.29.27-.29s.14-.01.29.08c.02-.03.02-.05.02-.08 0-.08-.07-.1-.22-.15-.09-.03-.05-.15-.15-.15-.07 0-.14.06-.19.08.04-.13.19-.33.41-.33.36 0 .34.41.84.41.58 0 1.03-.11 1.18-.17-.12-.13-.25-.26-.25-.5 0-.21.2-.58.28-.72-.03 0-.08.02-.13.02-.1 0-.22-.03-.22-.2 0-.15.07-.25.13-.3h.18c0 .12.08.15.38.15s.37-.13.37-.32c0-.38-.13-.44-.47-.44-.26 0-.28.04-.28.12h-.15c-.1-.18-.19-.32-.19-.47 0-.15.1-.24.47-.24.11 0 .2 0 .26.02l-.12-.76h.08c.19.15.28.4.28.4h.06c.03-.19.13-.39.13-.39h.11c.06.15.11.4.11.4h.07s.1-.25.27-.39h.11l-.12.62c.26 0 .78.92.78 1.71.25-.05 1.27-.1 1.37-.1-.74-.09-1.26-.46-1.26-1.59.09.02.14.03.2.04.4.07.58.38.58.6 0 .15-.1.25-.18.3 0 .17.27.43.77.43 1.09 0 1.16-1.21 2.43-1.21.46 0 1.11.2 1.11 1.06s-.92 1.06-1.13 1.06c.15.14-.3.93.16.79.45-.14.93-.46 1.1-.52.37-.11.25.43.66.68.28.18.31.22.33.31.03.1 0 .24-.1.31Zm-4.25-.43c-.09.18.08.47.12.65.03.17-.04.2-.15.25-.05.03-.27.09-.56.15 0 0 .08.09.08.25 0 .2-.29.23-.41.25.08-.05.09-.13.09-.13-.16-.09-.04-.19-.04-.19-.02 0-.05 0-.11.02-.26.05-.1.52-.51.37-.05.05-.02.12 0 .15a.184.184 0 0 1-.14-.23c.05-.12.22-.23.21-.27-.01-.03-.02-.05-.08-.03-.13.03-.18.28-.35.16l-.04-.04s-.09.03-.13.1c-.02-.12 0-.2.12-.28.1-.07.27-.12.26-.16 0 0 0-.02-.02-.03-.08-.09-.2.1-.29-.04-.08.01-.12.05-.18.13-.04-.14.08-.3.28-.37.16-.06.46.07.7.04.09-.01.24-.05.24-.05.09-.02.12-.03.19-.05.15-.04.09-.1-.01-.3-.17-.34.09-1.06.35-1.24.19-.12.43-.18.67-.13.06.06.11.18.11.3.01.17 0 .27.05.51-.16-.01-.38.06-.48.23Zm-7.15-1.61c0-.06.03-.27.38-.27.28 0 .33.16.33.25h.22c0-.09.04-.25.31-.25.36 0 .38.21.38.27 0 .38-.56.5-.76.63h-.11c-.19-.13-.76-.25-.76-.63Zm2.12-1.42s.1-.04.14-.04c.39 0 .38.57.87.57.22 0 .22-.07.38-.07.08 0 .18.03.18.16 0 .12-.11.18-.35.18-.94 0-.71-.55-1.23-.8Zm.74 2.42c-.13-.09-.2-.12-.28-.2-.29-.29-.41-.77-.63-1.05-.22-.27-.37-.47-.42-.51-.16.02-.22.03-.32.04-.11 0-.32.04-.44-.29.08.03.11.05.15.05.03-.08.04-.12.09-.12.09 0 .03.03.11.03.02 0 .04-.02.04-.05 0-.11-.09-.16-.19-.16-.2 0-.24-.2-.24-.24 0-.03 0-.04-.11-.04h-.1c.1-.12.21-.18.33-.18s.21.03.34.17c.04 0 .05-.06.05-.11 0-.04-.1-.07-.14-.11-.03-.02-.05-.07-.06-.1 0-.03.01-.06.02-.07-.05-.05-.09-.05-.19-.05.14-.11.19-.13.24-.13.28 0 .39.25.4.37.05 0 .07-.04.07-.1v-.09c0-.06.01-.13.06-.15 0-.07-.05-.08-.13-.1.08-.03.1-.04.14-.04.1 0 .27.07.29.28.02.21-.09.38-.08.52 0 .15.74 1.24 1.04 1.48-.1.23-.29.66-.04.93Zm3.9-3c.28 0 .32.15.32.25h.22c0-.1.04-.25.32-.25.35 0 .37.21.37.27 0 .39-.56.51-.75.63h-.1c-.19-.12-.75-.24-.75-.63 0-.06.02-.27.37-.27Zm-.79-.59s-.05-.02-.11-.02c-.26-.01-.24.49-.61.24-.06.03-.05.11-.04.14a.174.174 0 0 1-.08-.26c.09-.1.29-.17.29-.22 0-.03 0-.04-.07-.05-.14 0-.27.22-.4.06l-.03-.05s-.08.01-.15.06c0-.12.05-.19.19-.24.12-.04.31-.04.31-.09v-.04c-.07-.1-.24.05-.28-.11-.08 0-.13.02-.2.08 0-.15.16-.28.35-.29.21-.02.46.19.71.22.09 0 .3.02.3.02h.28c.17 0 .12-.07.07-.3-.08-.37.04-.75.33-.93.21-.12.48-.18.74-.12.07.06.12.17.13.3 0 .18 0 .27.05.5-.18-.02-.42.05-.53.23-.1.18.08.37.06.54 0 .18-.1.19-.22.21-.06.01-.32.02-.65 0l.02.09c0 .11-.07.2-.21.27-.14.06-.25.07-.39.05.1-.03.13-.09.13-.09-.14-.14.01-.21.01-.21Zm-5.75-.53c.14 0 .2-.02.2-.07 0-.01 0-.04-.01-.05h-.18c-.12 0-.21-.04-.21-.13 0-.02 0-.04-.03-.04s-.12.04-.15.1c0-.18.14-.3.27-.3s.15-.01.31.08c.01-.02.02-.05.02-.07 0-.09-.07-.11-.23-.16-.1-.04-.05-.16-.15-.16-.07 0-.15.06-.19.08.04-.13.19-.34.42-.34.38 0 .4.44.92.44.64 0 1.5-.09 1.66-.15-.13-.14-.27-.26-.27-.5 0-.21.22-.58.3-.73-.03 0-.07.02-.13.02-.09 0-.22-.02-.22-.2 0-.15.07-.24.12-.3h.18c0 .12.08.16.41.16s.42-.13.42-.32c0-.37-.18-.44-.52-.44-.26 0-.28.04-.28.12h-.14c-.1-.19-.18-.32-.18-.47s.09-.23.46-.23c.11 0 .2 0 .26.01l-.14-.77h.1c.21.15.31.4.31.4h.06c.04-.19.15-.39.15-.39h.13c.06.15.13.4.13.4h.06s.11-.25.31-.39h.12l-.12.62c.28 0 .85.93.85 1.71.28-.05 1.41-.11 1.52-.11-.81-.08-1.39-.45-1.39-1.58.11.01.15.02.22.03.44.07.64.38.64.6 0 .16-.11.26-.19.31 0 .18.3.43.85.43 1.21 0 .97-1.34 2.54-1.34.57 0 1.37.23 1.37 1.17s-1 1.07-1.23 1.07c.17.15-.15.79.38.71.51-.07 1.09-.32 1.3-.35.42-.06.21.47.61.76.28.22.31.28.32.35.03.1-.03.25-.15.3 0-.04.01-.11-.03-.14-.01 0-.03.02-.05.02-.03 0-.12 0-.19-.14-.12.05-.16.12-.15.15.01.08.05.07.06.15.01.13-.12.2-.16.22 0 0-.01.04-.01.06 0 .02.02.05.03.06-.06 0-.2-.05-.21-.18v-.14c0-.04-.04-.07-.07-.07-.03 0-.05.02-.07.05 0 .01 0 .22-.15.24-.07.01-.12-.01-.15 0-.04 0-.05.06-.05.07 0 .02.02.06.02.06a.249.249 0 0 1-.13-.16c-.02-.2.15-.17.13-.27 0-.04-.05-.05-.08-.04-.05.03-.09.04-.16.05-.04 0-.09 0-.1-.02-.05.06-.06.08-.06.18-.04-.08-.07-.12-.08-.19-.02-.13.13-.29.33-.32.1-.01.13 0 .21-.01.13-.02.27-.19.25-.32 0-.02-.02-.03-.02-.03-.35.05-1.44.45-2.36.45-1.34 0-.28-1.73-1.37-1.73-1.02 0-1.32 1.12-2.45 1.12-.38 0-.7-.06-.83-.09-.02.35.03.5-.32.52-.26.01-.9.08-2.33.08-.08.48-.22.54-.4.54-.11 0-.2-.04-.26-.08.09-.01.2-.03.2-.06-.03 0-.08-.06-.08-.09 0-.04 0-.08.06-.14-.02 0-.04-.01-.06-.01-.2 0-.34.3-.58.3-.09 0-.19-.09-.19-.2-.05 0-.12.07-.18.13-.02-.17.05-.32.25-.33Zm-.62-2.09c0-.06.02-.27.38-.27.28 0 .32.16.32.25h.22c0-.09.05-.25.32-.25.35 0 .38.21.38.27 0 .39-.56.5-.77.63h-.1c-.19-.13-.76-.24-.76-.63Zm.38-5.31c.28 0 .32.16.32.25h.22c0-.08.05-.25.32-.25.35 0 .38.21.38.27 0 .39-.56.5-.77.63h-.1c-.19-.13-.76-.24-.76-.63 0-.07.02-.27.38-.27Zm.44-1.43c.18 0 .36.23.39.23.06 0 .07-.06.07-.1 0-.06-.1-.09-.17-.15-.02-.03-.05-.07-.05-.1s.01-.04.03-.06c-.05-.06-.1-.06-.21-.06.17-.1.23-.11.29-.11.26 0 .4.25.4.37.06 0 .08-.04.08-.08v-.07c0-.07.03-.13.08-.15 0-.06-.06-.09-.15-.12.09-.03.12-.03.16-.03.11 0 .29.08.29.29s-.12.37-.12.51.72 1.28 1.05 1.55c-.12.22-.38.65-.1.92-.16-.09-.22-.13-.31-.22-.3-.3-.4-.79-.62-1.08-.22-.29-.38-.49-.43-.54-.18 0-.25.01-.36.01s-.36.03-.48-.32c.08.04.12.06.16.06.03-.07.07-.12.13-.12.1 0 .08.05.16.05h.05v-.04c0-.14-.13-.18-.25-.18-.23 0-.26-.21-.26-.25 0-.03 0-.05-.12-.05h-.11c.12-.11.25-.16.38-.16Zm1.48.35c.42 0 .4.59.92.59.23 0 .23-.07.41-.07.08 0 .19.04.19.17s-.12.18-.37.18c-.99 0-.75-.58-1.29-.84.04-.02.09-.04.14-.04Zm-.14 5.08s.09-.04.14-.04c.42 0 .4.61.92.61.23 0 .23-.07.41-.07.08 0 .19.03.19.16s-.12.19-.37.19c-.99 0-.75-.59-1.29-.85Zm.71 2.45c-.16-.09-.22-.13-.31-.22-.3-.3-.4-.78-.62-1.07-.22-.29-.38-.5-.43-.54-.18.02-.25.02-.36.02s-.36.03-.48-.32c.08.04.12.07.16.07.03-.07.07-.12.13-.12.1 0 .08.05.16.05h.05v-.05c0-.15-.13-.18-.25-.18-.23 0-.26-.22-.26-.26 0-.02 0-.04-.12-.04h-.11c.12-.11.25-.15.38-.15.18 0 .36.22.39.22.06 0 .07-.06.07-.11s-.1-.08-.17-.15c-.02-.03-.05-.07-.05-.1s.01-.05.03-.07c-.05-.05-.1-.06-.21-.06.17-.1.23-.1.29-.1.26 0 .4.25.4.37.06 0 .08-.03.08-.08v-.07c0-.07.03-.13.08-.15 0-.06-.06-.09-.15-.11.09-.03.12-.03.16-.03.11 0 .29.09.29.3s-.12.36-.12.5.72 1.29 1.05 1.55c-.12.22-.38.66-.1.93Zm4.29-3c.28 0 .32.15.32.24h.22c0-.09.04-.24.32-.24.35 0 .37.2.37.27 0 .39-.56.5-.75.64h-.1c-.19-.14-.75-.25-.75-.64 0-.07.02-.27.37-.27Zm-.79-.55s-.05-.02-.11-.02c-.26-.01-.24.49-.61.23-.06.03-.05.12-.04.15-.11-.06-.14-.18-.08-.26.09-.1.29-.17.29-.22 0-.03 0-.05-.07-.06-.14 0-.27.23-.4.06l-.03-.05s-.08.01-.15.07c0-.12.05-.2.19-.24.12-.04.31-.04.31-.09v-.04c-.07-.11-.24.06-.28-.11-.08-.01-.13 0-.2.07 0-.15.16-.28.35-.29.21-.02.46.19.71.22.09 0 .3.02.3.02h.28c.17 0 .12-.07.07-.3-.08-.37.04-.75.33-.93.21-.12.48-.19.74-.13.07.06.12.18.13.3 0 .18 0 .27.05.5-.18-.01-.42.06-.53.23-.1.17.08.37.06.55 0 .17-.1.18-.22.2h-.65l.02.1c0 .11-.07.2-.21.26-.14.06-.25.08-.39.06.1-.03.13-.09.13-.09-.14-.13.01-.2.01-.2Zm-2.98-4.2h.26l-.14-.77h.1c.21.15.31.4.31.4h.06c.04-.19.15-.39.15-.39h.13c.06.16.13.41.13.41h.06s.11-.25.31-.39h.12l-.12.62c.28 0 .85.92.85 1.71.28-.05 1.41-.11 1.52-.11-.81-.08-1.39-.45-1.39-1.58.11.02.15.02.22.03.44.08.64.38.64.6 0 .16-.11.26-.19.31 0 .18.3.43.85.43 1.21 0 1.11-1.34 2.67-1.34.57 0 1.34.22 1.34 1.17s-1.1 1.08-1.33 1.08c.17.15-.07.56.47.56s1.13-.17 1.33-.17c.42 0 .15.49.5.84.25.24.28.31.28.4 0 .09-.07.23-.2.27 0-.04.02-.1 0-.13h-.06c-.03 0-.12-.01-.18-.16-.12.02-.16.09-.16.12 0 .08.03.08.03.15 0 .13-.14.18-.19.2 0 0-.02.04-.02.05 0 .03.01.06.03.07-.06 0-.19-.08-.19-.21 0-.07.02-.1.02-.15 0-.04-.03-.06-.06-.06s-.06.01-.07.03c0 0-.03.22-.19.22-.08 0-.12-.03-.15-.03s-.05.05-.05.06v.07a.225.225 0 0 1-.1-.18c0-.21.17-.15.17-.25 0-.05-.05-.06-.08-.06-.07.03-.1.03-.17.03-.04 0-.08-.01-.1-.03-.04.05-.06.07-.07.17-.03-.09-.06-.13-.06-.2 0-.14.17-.27.37-.27.1 0 .13.02.21.02.13 0 .3-.15.3-.27 0-.02-.02-.04-.02-.04-.35 0-1.47.38-2.39.38-1.34 0-.28-1.67-1.37-1.67-1.02 0-1.32 1.12-2.45 1.12-.38 0-.7-.06-.83-.08-.02.36.03.49-.32.51-.26.02-1.09.08-2.52.08-.09.48-.22.54-.4.54-.11 0-.2-.04-.26-.08.09-.02.2-.03.2-.06-.03 0-.08-.06-.08-.1 0-.03-.01-.07.07-.12a.188.188 0 0 0-.08-.02c-.19 0-.34.29-.57.29-.08 0-.2-.07-.2-.19-.05 0-.12.07-.18.13-.02-.17.05-.31.25-.33.14 0 .19-.02.19-.07v-.05c-.07.01-.1.01-.18.01-.12 0-.21-.05-.21-.14 0-.02 0-.03-.03-.03s-.12.04-.16.1c-.01-.18.14-.3.27-.3s.14-.01.3.08c.01-.03.03-.05.03-.08 0-.09-.07-.11-.24-.17-.1-.03-.05-.15-.15-.15-.07 0-.15.05-.2.08.04-.13.2-.34.43-.34.37 0 .4.44.91.44.65 0 1.7-.09 1.86-.16-.13-.13-.27-.25-.27-.5 0-.22.22-.58.3-.73-.03 0-.07.01-.13.01-.09 0-.22-.02-.22-.19 0-.15.07-.25.12-.3h.18c0 .12.08.16.41.16s.42-.13.42-.32c0-.38-.18-.44-.52-.44-.26 0-.28.03-.28.12h-.14c-.1-.18-.18-.31-.18-.46s.09-.24.46-.24Zm3.77-.35c.28 0 .32.16.32.25h.22c0-.09.04-.25.32-.25.35 0 .37.21.37.28 0 .39-.56.49-.75.63h-.1c-.19-.14-.75-.24-.75-.63 0-.07.02-.28.37-.28Zm-.68-1.24c-3.96 0-6.38.4-7.26.54.02.66.21 6.2.41 10.5.25 5.17 2.95 6.75 6.85 6.75 3.64 0 6.58-.83 6.86-6.75.21-4.3.39-9.84.42-10.5-.88-.14-3.32-.54-7.28-.54Z" class="cls-4"/><path d="M35.76 50.23c0-.44-.35-.57-.58-.57-.68 0-.86.83-1.67.98.19-.02.3-.03.42-.03.55 0 .82.07 1 .28h.12c.33 0 .7-.25.7-.66Zm-.53-9.46h.13c.36 0 .78-.22.78-.68 0-.49-.4-.66-.68-.66-.8 0-.92.94-1.82 1.09.22-.02.33-.02.47-.02.62 0 .91.07 1.12.28Zm-5.74-1.42c.22 0 .3-.11.42-.24l-.59-.03c0 .17.07.28.16.28Zm18.78-14.9c.29 0 .56.13.56.58 0 .58-.24.78-.52.78s-.82-.13-.82-.76c0-.53.62-.6.78-.6Zm-3.11.22c.29 0 .51.27.6.4.04-.23.3-.36.49-.36.35 0 .51.28.68.64.17.35.42.73.89.81 0 .63-.18 1.02-.74 1.02-.25 0-.4-.06-.49-.08-.13.16-.22.35-.62.35-.27 0-.54-.2-.66-.32-.2.2-.35.3-.62.3-.25 0-.5-.21-.63-.39-.14.04-.25.1-.4.1-.45 0-.71-.91-.71-1.17s.18-.49.48-.49c.12 0 .21.05.29.07-.04-.2.07-.6.46-.6.19 0 .38.09.48.2.07-.23.17-.47.51-.47Z" class="cls-4"/><path d="M45.07 20.96c-.73 0-2.56.89-2.56 2.69 0 .37.04.9.12 1.1.04-.04.13-.09.24-.09s.33.09.43.26c.03-.25.08-.58.53-.58.27 0 .35.11.45.18.11-.38.41-.51.66-.51s.57.19.69.45c0-.3.27-.42.5-.42.5 0 .67.32.87.69 0-.51.68-.69 1.21-.7h.18c0-1.45-.69-2.6-2.18-3 .3-2.39.14-2.58.09-2.64-.07-.09-.19-.13-.3-.14l.02-.34a.48.48 0 0 0 .4-.46c.01-.14-.15-1.29-.15-1.3 0-.12.08-.23.2-.21.05 0 1.09.43 1.24.44.26.02.47-.21.49-.51.03-.3-.16-.55-.42-.58-.13 0-1.04.23-1.28.25-.12 0-.2-.13-.19-.25 0-.01.36-1.12.37-1.26.02-.26-.22-.48-.52-.44-.3-.08-.55.11-.57.36-.01.14.18 1.29.18 1.31 0 .11-.11.22-.22.21-.23-.05-1.11-.43-1.23-.43-.25-.02-.48.21-.5.5-.02.3.16.56.41.57.15.01 1.24-.25 1.3-.25.13 0 .18.12.16.24 0 .02-.33 1.12-.35 1.26-.02.22.1.43.33.52l-.03.34c-.11 0-.24.02-.31.1-.06.05-.19.23-.25 2.64Z" class="cls-4"/><g id="Group_69" data-name="Group 69"><g id="Group_64" data-name="Group 64"><g id="Group_3" data-name="Group 3"><path id="Path_104" d="M91.68 14.93c0-2.26-.16-2.32-1.54-2.62l-.46-.1c-.23-.16-.2-.72.07-.82 1.11.07 2.13.1 3.17.1s2.06-.03 3.34-.1c.26.1.3.65.07.82l-.62.1c-1.41.23-1.54.36-1.54 2.62v4.62c0 3.27 1.08 5.49 4.25 5.49 2.94 0 4.22-2.22 4.22-5.46v-3.04c0-3.27-.2-4.02-1.6-4.22l-.69-.1a.552.552 0 0 1 .07-.82c1.05.07 1.8.1 2.75.1s1.67-.04 2.71-.1c.23.19.27.54.07.77-.01.02-.03.03-.04.05l-.98.1c-.85.1-1.11.98-1.11 4.22v3.24c0 4.19-1.93 6.38-6.09 6.38-2.09 0-3.66-.42-4.65-1.38-.98-.98-1.41-2.49-1.41-4.61v-5.23Z" class="cls-1" data-name="Path 104"/><path id="Path_105" d="M123.74 16.53c0-3.27-.2-4.12-1.41-4.22l-1.05-.1c-.21-.22-.2-.57.02-.78.02-.01.03-.03.05-.04 1.21.07 1.96.1 2.91.1s1.67-.03 2.72-.1c.23.19.27.54.07.78l-.04.04-.98.1c-.85.1-1.11.98-1.11 4.22v5.5c0 .65 0 3.3.1 3.79-.14.24-.42.35-.69.29-.36-.46-1.01-1.15-3.04-3.34l-4.97-5.3c-1.24-1.31-2.09-2.16-2.52-2.52-.13 0-.13.36-.13 1.38v4.32c0 3.27.2 4.12 1.41 4.22l1.05.1c.21.2.22.53.02.74-.03.03-.05.05-.09.07-1.21-.07-1.96-.1-2.91-.1s-1.57.03-2.72.1a.553.553 0 0 1-.08-.77c.01-.02.03-.03.04-.05l.98-.1c.85-.1 1.11-.99 1.11-4.23v-5.86c0-1.08-.03-1.54-.69-2.03-.37-.22-.78-.37-1.21-.46l-.49-.1a.532.532 0 0 1-.03-.74c.03-.03.06-.06.09-.08 1.24.1 2.13.1 2.81.1.44 0 .88-.03 1.31-.1.89 1.48 1.97 2.83 3.21 4.02l3.07 3.17c.72.72 2.62 2.78 2.98 3.04.2-.07.2-.52.2-1.31v-3.79Z" class="cls-1" data-name="Path 105"/><path id="Path_106" d="M133.66 14.93c0-2.26-.13-2.39-1.54-2.62l-.62-.1c-.23-.16-.2-.72.06-.82 1.28.07 2.29.1 3.34.1s2.06-.03 3.34-.1c.26.1.29.65.07.82l-.62.1c-1.41.23-1.54.36-1.54 2.62v7.33c0 2.26.13 2.39 1.54 2.62l.62.1c.23.16.19.72-.07.82-1.24-.07-2.32-.1-3.34-.1s-2.06.03-3.34.1c-.26-.1-.29-.65-.06-.82l.62-.1c1.41-.23 1.54-.36 1.54-2.62v-7.33Z" class="cls-1" data-name="Path 106"/><path id="Path_107" d="M145.14 14.99c-.98-2.16-1.11-2.32-1.9-2.52l-1.08-.26c-.22-.23-.21-.6.03-.81.85.07 1.93.1 2.94.1 1.18 0 2.13-.03 3.17-.1a.5.5 0 0 1 .11.71c-.03.04-.07.08-.11.11l-.69.1c-.85.13-.85.56-.13 2.16l1.6 3.63c.82 1.86 1.38 3.08 1.87 4.16.65-1.38 1.21-2.75 1.83-4.12.69-1.5 1.6-3.76 1.93-4.71.23-.69.2-.92-.78-1.11l-.52-.1a.507.507 0 0 1-.05-.72c.03-.04.08-.07.12-.1.95.07 1.8.1 2.68.1.78.01 1.55-.02 2.32-.1.26.12.37.44.25.7-.02.04-.05.09-.08.12l-.92.19c-.98.2-1.18.49-2.23 2.72l-2.49 5.33c-.98 2.09-1.93 4.48-2.32 5.56-.11.1-.25.14-.39.13-.14 0-.28-.04-.39-.13-.3-.85-.66-1.89-1.08-2.81l-3.7-8.22Z" class="cls-1" data-name="Path 107"/><path id="Path_108" d="M164.39 14.93c0-2.26-.13-2.36-1.38-2.62l-.46-.1c-.21-.22-.2-.57.02-.78.02-.01.03-.03.05-.04.95.07 1.96.1 3.04.1h4.65c1.02.02 2.03 0 3.04-.1l.36 3.34c-.2.25-.57.29-.82.09 0 0-.02-.02-.03-.02-.1-.56-.3-1.09-.59-1.57-.52-.79-2-.79-2.78-.79h-1.44c-1.14 0-1.18.03-1.18 1.05v3.63c0 .59 0 .66.62.66h1.54c1.73 0 1.89-.26 2.16-1.24l.16-.62c.22-.21.57-.2.78.02.01.02.03.03.04.05-.07.95-.07 1.54-.07 2.29 0 .82 0 1.41.07 2.36-.19.24-.53.29-.77.1a.078.078 0 0 1-.04-.04l-.16-.63c-.26-.98-.42-1.24-2.16-1.24h-1.54c-.62 0-.62.1-.62.75v2.36c-.08.8.05 1.61.36 2.36.29.33.88.46 2.75.46 2.09 0 3.3-.1 4.25-2.72.23-.2.58-.18.79.05.02.03.04.05.06.08-.14 1.25-.47 2.48-.98 3.63-2.06-.07-3.79-.1-5.56-.1h-2.88c-1.05 0-2.06.03-3.63.1-.26-.1-.29-.65-.07-.82l.88-.1c1.41-.16 1.54-.36 1.54-2.62v-7.33Z" class="cls-1" data-name="Path 108"/><path id="Path_109" d="M181.08 15.32c0-2.13-.03-2.68-.78-2.78l-.92-.13c-.26-.03-.33-.72 0-.82 1.8-.13 3.63-.2 5.43-.2 3.04 0 6.35.49 6.35 3.93 0 2.09-1.63 3.04-2.91 3.5-.11.14-.11.35 0 .49 1.08 1.97 2.48 3.74 4.16 5.23.49.41 1.1.65 1.73.69.13.15.13.37 0 .52-.45.12-.91.18-1.38.16-1.96 0-3.14-.62-4.58-2.46-.82-1.05-1.7-2.49-2.39-3.53-.32-.38-.81-.57-1.31-.52-.85 0-.92.07-.92.52v2.32c0 2.26.13 2.42 1.54 2.62l.75.1c.23.16.2.72-.07.82-1.38-.07-2.45-.1-3.47-.1s-2.06.03-3.21.1a.482.482 0 0 1-.07-.82l.49-.1c1.41-.3 1.54-.36 1.54-2.62V15.3Zm2.49 2.39c0 .82.03.82 1.63.82 2.13 0 3.24-.85 3.24-3.11 0-1.63-1.14-3.08-3.43-3.08-1.21 0-1.44.07-1.44.92v4.45Z" class="cls-1" data-name="Path 109"/><path id="Path_110" d="M201.16 19.02c-1.57-.82-2.91-2.09-2.91-3.93 0-2.39 1.83-4.06 5.14-4.06 1.03.06 2.05.23 3.04.49.36 1.03.52 2.12.46 3.21-.1.26-.69.29-.85.07-.26-1.15-1.11-2.81-3.04-2.81s-2.65 1.11-2.65 2.22c0 1.18.88 1.89 2.19 2.58l2.03 1.05c1.6.77 2.63 2.38 2.65 4.16 0 2.55-2.09 4.15-5.33 4.15-1.33.04-2.63-.31-3.76-1.01a6.904 6.904 0 0 1-.69-3.37.498.498 0 0 1 .85-.06c.26 1.18 1.7 3.5 3.89 3.5 1.67 0 2.75-.85 2.75-2.36 0-1.05-.42-2.13-2.29-3.08l-1.47-.75Z" class="cls-1" data-name="Path 110"/><path id="Path_111" d="M213.63 14.93c0-2.26-.13-2.39-1.54-2.62l-.62-.1c-.23-.16-.2-.72.06-.82 1.28.07 2.29.1 3.34.1s2.06-.03 3.34-.1c.26.1.29.65.07.82l-.62.1c-1.41.23-1.54.36-1.54 2.62v7.33c0 2.26.13 2.39 1.54 2.62l.62.1c.23.16.2.72-.07.82-1.24-.07-2.32-.1-3.34-.1s-2.06.03-3.34.1c-.26-.1-.29-.65-.06-.82l.62-.1c1.41-.23 1.54-.36 1.54-2.62v-7.33Z" class="cls-1" data-name="Path 111"/><path id="Path_112" d="M228.19 13.29c0-.85-.03-.85-.69-.85h-1.01c-2 0-2.85.2-3.63 2.45a.57.57 0 0 1-.79-.12c-.01-.01-.02-.03-.03-.04.36-1.41.72-3.04.88-3.86.18-.13.41-.13.59 0 .03.65.49.62 1.8.62h9.09c1.21 0 1.44-.03 1.7-.62.19-.13.45-.08.59.1-.29 1.25-.4 2.54-.33 3.83-.13.26-.69.29-.82.03-.23-2.13-1.08-2.39-3.04-2.39h-1.11c-.62 0-.72 0-.72.85v8.96c0 2.26.13 2.45 1.54 2.62l.88.1c.23.16.2.72-.07.82-1.34-.07-2.58-.1-3.6-.1s-2.22.03-3.6.1c-.26-.1-.29-.65-.07-.82l.88-.1c1.41-.16 1.54-.36 1.54-2.62v-8.96Z" class="cls-1" data-name="Path 112"/><path id="Path_113" d="M246.09 21.34c0-1.01-.1-1.27-.92-2.78l-2.39-4.42c-.69-1.31-1.01-1.6-1.86-1.77l-.85-.16a.55.55 0 0 1 .04-.77c.02-.02.04-.03.06-.04 1.08.07 1.83.1 3.01.1.98 0 1.73-.03 2.78-.1.23.14.31.44.17.67-.03.06-.08.1-.13.14l-.46.1c-.72.16-.82.36-.3 1.38l1.21 2.32c.52.98.98 1.86 1.47 2.71.52-.88 1.01-1.67 1.57-2.71l1.31-2.39c.49-.92.56-1.21-.23-1.31l-.69-.1a.47.47 0 0 1-.11-.67c.05-.06.11-.12.18-.15.98.07 1.73.1 2.49.1s1.41-.03 2.32-.1c.24.16.3.49.14.73-.02.03-.05.06-.08.09l-.79.16c-1.01.2-1.18.39-2.19 2.03l-2.03 3.27c-1.18 1.87-1.24 2.19-1.24 3.14v1.77c0 1.93.13 2.13 1.54 2.29l.82.1c.23.16.2.72-.07.82-1.44-.07-2.52-.1-3.53-.1s-2.06.03-3.53.1c-.26-.1-.29-.65-.07-.82l.82-.1c1.41-.16 1.54-.36 1.54-2.29v-1.25Z" class="cls-1" data-name="Path 113"/><path id="Path_114" d="M282.58 18.53c0 4.42-3.34 7.62-7.95 7.62-5.07 0-8.08-3.3-8.08-7.43 0-4.35 3.34-7.69 8.08-7.69 5.27 0 7.95 3.5 7.95 7.49Zm-13.12-.33c0 3.37 1.54 7 5.33 7 2.49 0 4.88-1.7 4.88-6.18 0-3.5-1.67-7.04-5.27-7.04-2.36 0-4.94 1.6-4.94 6.22Z" class="cls-1" data-name="Path 114"/><path id="Path_115" d="M288.44 14.93c0-2.26-.16-2.32-1.38-2.62l-.39-.1c-.23-.16-.2-.72.07-.82.88.07 1.89.1 2.94.1h4.55c1.44 0 2.68-.03 3.14-.1.03.39.07 1.93.16 3.34-.13.25-.44.34-.68.21a.552.552 0 0 1-.17-.14c-.1-.55-.3-1.09-.59-1.57-.56-.82-2-.79-2.78-.79h-1.27c-1.01 0-1.11 0-1.11 1.15v3.79c0 .59 0 .66.62.66h1.77c1.73 0 1.9-.26 2.16-1.24l.16-.62a.552.552 0 0 1 .82.07c-.07.95-.07 1.54-.07 2.29 0 .82 0 1.41.07 2.35-.18.24-.53.29-.77.11-.02-.01-.03-.03-.05-.04l-.16-.62c-.26-.98-.42-1.24-2.16-1.24h-1.77c-.62 0-.62.1-.62.75v2.42c0 2.26.13 2.49 1.54 2.62l1.01.1c.23.16.19.72-.07.82-1.63-.07-2.72-.1-3.73-.1s-2.06.03-3.34.1c-.26-.1-.29-.65-.06-.82l.62-.1c1.41-.23 1.54-.36 1.54-2.62v-7.33Z" class="cls-1" data-name="Path 115"/><path id="Path_116" d="M104.9 37.46c.03 1.33.14 2.65.32 3.96-.2.28-.58.34-.85.15-.03-.02-.06-.05-.09-.07-.54-1.98-1.76-3.67-5.01-3.67s-6.16 2.09-6.16 6.99 3.1 7.56 6.48 7.56a5.626 5.626 0 0 0 5.19-3.64.56.56 0 0 1 .94.03c-.14 1.36-.54 2.68-1.19 3.89-1.58.46-3.22.71-4.86.76-2.23.1-4.44-.47-6.34-1.66a7.612 7.612 0 0 1-3.42-6.41 7.941 7.941 0 0 1 3.02-6.49c2.05-1.45 4.52-2.18 7.02-2.09 1.66.07 3.31.3 4.93.68Z" class="cls-1" data-name="Path 116"/><path id="Path_117" d="M128.43 45.02c0 4.86-3.67 8.39-8.75 8.39-5.58 0-8.9-3.64-8.9-8.18 0-4.79 3.67-8.46 8.9-8.46 5.8 0 8.75 3.85 8.75 8.25Zm-14.44-.36c0 3.71 1.69 7.71 5.87 7.71 2.73 0 5.37-1.87 5.37-6.81 0-3.85-1.84-7.75-5.8-7.75-2.59 0-5.44 1.77-5.44 6.84Z" class="cls-1" data-name="Path 117"/><path id="Path_118" d="M135.61 41.49c0-2.34-.04-2.88-.86-3.02l-1.08-.18c-.32-.11-.29-.79.04-.9 2.02-.14 3.85-.22 5.76-.22 1.47-.05 2.93.16 4.32.61 1.79.62 2.97 2.32 2.92 4.21a4.178 4.178 0 0 1-2.99 4.11c-1.05.38-2.16.57-3.28.54a.501.501 0 0 1-.04-.65 3.782 3.782 0 0 0 3.35-4.11c0-2.38-1.48-3.67-3.93-3.67-1.48 0-1.48.22-1.48 1.22v9.69c0 2.49.14 2.67 1.69 2.88l.83.11c.25.18.22.79-.07.9-1.51-.07-2.7-.11-3.82-.11s-2.27.04-3.53.11c-.29-.11-.32-.72-.07-.9l.54-.11c1.55-.32 1.69-.4 1.69-2.88v-7.64Z" class="cls-1" data-name="Path 118"/><path id="Path_119" d="M153.71 41.06c0-2.49-.14-2.59-1.51-2.88l-.5-.11a.613.613 0 0 1 .02-.86c.02-.02.03-.03.05-.04 1.04.07 2.16.11 3.35.11h5.12c1.12.03 2.24-.01 3.35-.11l.4 3.67c-.22.28-.62.32-.9.1-.01-.01-.03-.02-.04-.03-.11-.61-.33-1.2-.65-1.73-.58-.86-2.2-.86-3.06-.86h-1.58c-1.26 0-1.3.04-1.3 1.15v4c0 .65 0 .72.68.72h1.69c1.91 0 2.09-.29 2.38-1.37l.18-.68a.6.6 0 0 1 .85.02l.05.05c-.07 1.04-.07 1.69-.07 2.52 0 .9 0 1.55.07 2.59-.2.27-.58.32-.85.12-.02-.01-.03-.03-.05-.04l-.18-.68c-.29-1.08-.47-1.37-2.38-1.37h-1.69c-.68 0-.68.11-.68.83v2.58c-.09.88.05 1.78.4 2.59.32.36.97.5 3.03.5 2.31 0 3.64-.11 4.68-2.99a.608.608 0 0 1 .94.15c-.15 1.38-.51 2.73-1.08 4-2.27-.07-4.18-.11-6.12-.11h-3.17c-1.15 0-2.27.04-4 .11-.29-.11-.32-.72-.07-.9l.97-.11c1.55-.18 1.69-.4 1.69-2.88v-8.06Z" class="cls-1" data-name="Path 119"/><path id="Path_120" d="M185.2 42.83c0-3.6-.22-4.54-1.55-4.65l-1.15-.11a.613.613 0 0 1 .02-.86c.02-.02.04-.03.05-.05 1.33.07 2.16.11 3.21.11s1.84-.04 2.99-.11c.26.21.3.59.09.85-.02.02-.03.04-.05.05l-1.08.11c-.94.11-1.22 1.08-1.22 4.65v6.05c0 .72 0 3.64.11 4.18a.7.7 0 0 1-.76.32c-.4-.5-1.12-1.26-3.35-3.67l-5.47-5.84c-1.37-1.44-2.31-2.38-2.77-2.77-.14 0-.14.4-.14 1.51v4.75c0 3.6.22 4.54 1.55 4.65l1.15.11c.23.22.24.59.03.82-.03.03-.06.06-.1.08-1.33-.07-2.16-.11-3.21-.11s-1.73.04-2.99.11a.592.592 0 0 1-.09-.84l.06-.06 1.08-.11c.94-.11 1.22-1.08 1.22-4.65V40.9c0-1.19-.04-1.69-.76-2.23-.41-.24-.86-.41-1.33-.5l-.54-.11a.583.583 0 0 1-.03-.82c.03-.03.06-.06.1-.09 1.37.11 2.34.11 3.1.11.48 0 .96-.03 1.44-.11.97 1.63 2.16 3.12 3.53 4.43l3.39 3.49c.79.79 2.88 3.06 3.28 3.35.22-.07.22-.58.22-1.44V42.8Z" class="cls-1" data-name="Path 120"/><path id="Path_121" d="M207.26 44.19c1.15 0 1.3 0 1.3-.94v-2.19c0-2.49-.14-2.63-1.69-2.88l-.68-.11c-.25-.18-.22-.79.07-.9 1.4.07 2.52.11 3.67.11s2.27-.04 3.67-.11c.29.11.32.72.07.9l-.68.11c-1.55.25-1.69.4-1.69 2.88v8.07c0 2.49.14 2.67 1.69 2.88l.83.11c.26.18.22.79-.07.9-1.51-.07-2.7-.11-3.82-.11s-2.27.04-3.67.11c-.29-.11-.32-.72-.07-.9l.68-.11c1.55-.25 1.69-.4 1.69-2.88v-2.84c0-.9-.07-.94-1.3-.94h-6.34c-1.22 0-1.3.04-1.3.94v2.84c0 2.49.14 2.7 1.69 2.88l.97.11c.25.18.22.79-.07.9-1.66-.07-2.84-.11-3.96-.11s-2.27.04-3.39.11c-.29-.11-.32-.72-.07-.9l.4-.11c1.51-.4 1.69-.4 1.69-2.88v-8.07c0-2.49-.14-2.67-1.69-2.88l-.83-.11c-.25-.18-.22-.79.07-.9 1.55.07 2.66.11 3.82.11s2.27-.04 3.53-.11c.29.11.32.72.07.9l-.54.11c-1.51.29-1.69.4-1.69 2.88v2.2c0 .94.14.94 1.3.94h6.34Z" class="cls-1" data-name="Path 121"/><path id="Path_122" d="M224.91 47.33c-.83 0-.94.04-1.22.86l-.83 2.31c-.4 1.15-.29 1.3.4 1.44l.97.18c.29.18.25.83-.11.9-.9-.07-1.84-.11-2.85-.11s-1.87.07-2.52.11a.578.578 0 0 1-.15-.8c.02-.04.05-.07.08-.1l.83-.18c1.12-.26 1.51-.65 2.23-2.38l3.46-8.29c.45-.96.77-1.98.94-3.03a3.19 3.19 0 0 0 1.51-1.37c.29-.11.5-.04.58.18.14.36.72 2.23 1.55 4.43l3.25 8.61c.43 1.19.76 1.66 2.05 1.91l.58.11c.23.18.28.51.1.74-.05.07-.13.13-.21.16-.94-.07-1.77-.11-2.99-.11-1.3 0-2.34.04-3.25.11a.521.521 0 0 1-.07-.9l.72-.11c.94-.14.9-.36.47-1.48l-.86-2.34c-.29-.83-.4-.86-1.22-.86h-3.42Zm2.85-1.15c.94 0 1.04-.07.65-1.12L227.29 42c-.14-.45-.32-.88-.54-1.3h-.07c-.23.39-.42.8-.58 1.22l-1.3 3.21c-.4.97-.32 1.04.47 1.04h2.49Z" class="cls-1" data-name="Path 122"/><path id="Path_123" d="M251.5 49.67c0-1.66-.04-1.87-1.66-2.16l-1.15-.22a.6.6 0 0 1-.02-.85l.05-.05c1.44.07 3.03.11 4.07.11s2.2-.04 3.06-.11c.28.22.33.62.11.9l-.65.14c-.94.22-1.08.43-1.08 1.98v1.01c0 .87.07 1.41.58 1.66.14.11.14.43-.04.5-.4 0-1.15.22-2.16.4-1.18.26-2.39.4-3.6.43-3.21 0-5.83-.76-7.74-2.67a7.827 7.827 0 0 1-2.23-5.47c-.02-2.11.8-4.14 2.27-5.65 1.66-1.69 4.11-2.85 7.96-2.85 1.63.07 3.25.31 4.83.72.04.72.11 2.16.32 4.07-.17.27-.53.34-.79.17a.502.502 0 0 1-.15-.14c-.94-2.85-2.49-3.78-5.12-3.78-3.78 0-6.12 2.92-6.12 7.13 0 4.43 2.73 7.42 7.1 7.42 1.91 0 2.16-.36 2.16-1.8v-.9Z" class="cls-1" data-name="Path 123"/><path id="Path_124" d="M263.32 41.06c0-2.49-.14-2.59-1.51-2.88l-.5-.11a.613.613 0 0 1 .02-.86c.02-.02.03-.03.05-.04 1.04.07 2.16.11 3.35.11h5.12c1.12.03 2.24-.01 3.35-.11l.4 3.67c-.22.28-.62.32-.9.1-.01-.01-.03-.02-.04-.03-.11-.61-.33-1.2-.65-1.73-.58-.86-2.2-.86-3.06-.86h-1.58c-1.26 0-1.3.04-1.3 1.15v4c0 .65 0 .72.68.72h1.69c1.91 0 2.09-.29 2.38-1.37l.18-.68c.24-.23.63-.22.86.02.02.02.03.03.04.05-.07 1.04-.07 1.69-.07 2.52 0 .9 0 1.55.07 2.59-.2.27-.58.32-.85.12-.02-.01-.04-.03-.05-.04l-.18-.68c-.29-1.08-.47-1.37-2.38-1.37h-1.69c-.68 0-.68.11-.68.83v2.58c-.09.88.05 1.78.4 2.59.32.36.97.5 3.03.5 2.31 0 3.64-.11 4.68-2.99a.617.617 0 0 1 .94.15c-.15 1.38-.51 2.73-1.08 4-2.27-.07-4.18-.11-6.12-.11h-3.17c-1.15 0-2.27.04-4 .11-.29-.11-.32-.72-.07-.9l.97-.11c1.55-.18 1.69-.4 1.69-2.88v-8.06Z" class="cls-1" data-name="Path 124"/><path id="Path_125" d="M294.8 42.83c0-3.6-.22-4.54-1.55-4.65l-1.15-.11a.6.6 0 0 1 .02-.85c.02-.02.04-.03.06-.05 1.33.07 2.16.11 3.21.11s1.84-.04 2.99-.11c.26.21.3.59.09.85-.02.02-.03.04-.05.05l-1.08.11c-.94.11-1.22 1.08-1.22 4.65v6.05c0 .72 0 3.64.11 4.18a.7.7 0 0 1-.76.32c-.4-.5-1.12-1.26-3.35-3.67l-5.48-5.84c-1.37-1.44-2.31-2.38-2.77-2.77-.14 0-.14.4-.14 1.51v4.75c0 3.6.22 4.54 1.55 4.65l1.15.11c.23.22.24.59.02.82-.03.03-.06.06-.1.08-1.33-.07-2.16-.11-3.21-.11s-1.73.04-2.99.11a.592.592 0 0 1-.09-.84l.06-.06 1.08-.11c.94-.11 1.22-1.08 1.22-4.65v-6.45c0-1.19-.04-1.69-.76-2.23-.41-.24-.86-.41-1.33-.5l-.54-.11a.583.583 0 0 1-.03-.82c.03-.03.06-.06.1-.09 1.37.11 2.34.11 3.1.11.48 0 .96-.03 1.44-.11.97 1.63 2.16 3.12 3.53 4.43l3.39 3.49c.79.79 2.88 3.06 3.28 3.35.22-.07.22-.58.22-1.44v-4.18Z" class="cls-1" data-name="Path 125"/></g></g></g></svg>