<svg xmlns="http://www.w3.org/2000/svg" viewBox="0 0 340.71 102.38"><defs><style>.cls-1,.cls-4{fill:#1d1d1d;stroke-width:0}.cls-4{fill:#fff}</style></defs><g id="DK_logotype"><path d="M104.92 31.88c0-2.83-.16-2.91-1.93-3.28l-.61-.12c-.29-.21-.25-.9.08-1.02 1.43.08 2.71.12 4.02.12s2.58-.04 4.1-.12c.37.12.41.82.04 1.02l-.82.12c-1.6.25-1.76.45-1.76 3.28v2.3c0 .82 0 1.31.21 1.43.21.12.82-.04 1.11-.25 1.39-.98 4.63-4.63 4.96-5 .86-.98.94-1.56.33-1.68l-.9-.21c-.37-.16-.33-.94.08-1.02a52.132 52.132 0 0 0 7.09 0c.37.12.45.82.08 1.02-.74.16-2.01.37-2.79.78-1.03.53-2.01 1.35-3.81 3.08l-1.89 1.8c-.82.82-.78.94-.16 1.68l5.12 6.15c1.48 1.76 2.09 2.34 3.9 2.46l.57.04c.33.25.25.86-.08 1.02-1.27-.08-2.21-.12-4.02-.12-1.35 0-2.67 0-4.02.12-.41-.16-.45-.78-.16-1.02l.57-.08c.94-.12 1.11-.37.49-1.11l-3.69-4.47c-.33-.41-1.52-2.17-2.3-2.17-.7 0-.7.41-.7 1.56v2.87c0 2.83.16 2.99 1.93 3.28l.78.12c.29.21.25.9-.08 1.02-1.56-.08-2.91-.12-4.18-.12s-2.58.04-3.9.12c-.33-.12-.37-.82-.08-1.02l.49-.12c1.72-.41 1.93-.45 1.93-3.28v-9.18ZM142.85 28.85c2.42 1.72 3.65 4.51 3.65 7.54 0 5.54-4.18 9.55-9.96 9.55-2.01 0-3.77-.41-5.21-1.19l-1.56 2.17c-.66-.08-.98-.37-1.07-.9l1.44-2.01c-2.42-1.72-3.73-4.39-3.73-7.38 0-5.45 4.18-9.64 10.13-9.64 2.05 0 3.77.41 5.12 1.11l1.44-2.01c.57 0 .98.33 1.07.9l-1.31 1.85Zm-2.46 1.02c-1.02-1.02-2.42-1.68-4.14-1.68-2.95 0-6.27 2.01-6.27 7.79 0 2.09.49 4.31 1.64 5.99l8.77-12.1Zm-7.87 13.24c1.07.98 2.46 1.64 4.22 1.64 3.12 0 6.19-2.13 6.19-7.75 0-2.17-.49-4.35-1.64-5.99l-8.77 12.1ZM155.01 32.37c0-2.67-.04-3.32-1.19-3.48l-1.27-.16c-.37-.12-.33-.9.04-1.03 2.05-.16 4.47-.25 6.85-.25 2.01 0 3.69.04 5.21.61 1.48.53 2.58 1.68 2.58 3.61 0 1.76-1.19 2.87-3.28 3.61-.16.29.12.33 1.02.53 1.48.33 3.65 1.64 3.65 4.47 0 2.21-1.11 3.48-2.71 4.26-1.56.74-3.65.94-5.58.94-.82 0-2.17-.12-3.65-.12-1.31 0-2.71.04-4.3.12-.33-.12-.37-.82-.08-1.02l.78-.12c1.76-.29 1.93-.45 1.93-3.28v-8.69Zm3.12 2.17c0 .66.08.7 1.39.7 2.58 0 4.35-.62 4.35-3.2s-1.85-3.4-3.94-3.4c-1.72 0-1.8.37-1.8 1.11v4.8Zm0 6.56c0 2.46.53 3.2 3.08 3.2 2.05 0 3.98-.94 3.98-3.65 0-3.24-2.46-4.22-5.12-4.22-1.85 0-1.93.16-1.93.7v3.98ZM177.55 31.88c0-2.83-.16-2.95-1.72-3.28l-.57-.12c-.29-.16-.25-.86.08-1.02 1.19.08 2.46.12 3.81.12h5.82c1.8 0 3.44-.04 3.81-.12l.45 4.18c-.16.33-.82.37-1.07.08-.25-1.07-.49-1.6-.74-1.97-.66-.98-2.5-.98-3.48-.98h-1.8c-1.44 0-1.48.04-1.48 1.31v4.55c0 .74 0 .82.78.82h1.93c2.17 0 2.38-.33 2.71-1.56l.21-.78c.21-.29.82-.25 1.02.08-.08 1.19-.08 1.93-.08 2.87 0 1.02 0 1.76.08 2.95-.21.33-.82.37-1.02.08l-.21-.78c-.33-1.23-.53-1.56-2.71-1.56h-1.93c-.78 0-.78.12-.78.94v2.95c0 1.23.08 2.5.45 2.95.37.41 1.11.57 3.44.57 2.62 0 4.14-.12 5.33-3.4.29-.29.94-.21 1.07.16-.21 1.72-.78 3.77-1.23 4.55-2.58-.08-4.76-.12-6.97-.12h-3.61c-1.31 0-2.58.04-4.55.12-.33-.12-.37-.82-.08-1.02l1.11-.12c1.76-.21 1.93-.45 1.93-3.28v-9.18ZM213.68 33.89c0-4.1-.25-5.17-1.76-5.29l-1.31-.12c-.29-.25-.25-.82.08-1.02 1.52.08 2.46.12 3.65.12s2.09-.04 3.4-.12c.33.21.33.82.04 1.02l-1.23.12c-1.07.12-1.39 1.23-1.39 5.29v6.89c0 .82 0 4.14.12 4.76-.12.25-.49.45-.86.37-.45-.57-1.27-1.44-3.81-4.18l-6.23-6.64c-1.56-1.64-2.62-2.71-3.16-3.16-.16 0-.16.45-.16 1.72v5.41c0 4.1.25 5.17 1.76 5.29l1.31.12c.33.25.25.82-.08 1.02-1.52-.08-2.46-.12-3.65-.12s-1.97.04-3.4.12c-.33-.16-.33-.82-.04-1.02l1.23-.12c1.07-.12 1.39-1.23 1.39-5.29v-7.34c0-1.35-.04-1.93-.86-2.54-.33-.25-1.11-.49-1.52-.57l-.62-.12c-.29-.25-.29-.86.08-1.02 1.56.12 2.67.12 3.53.12.57 0 1.15-.04 1.64-.12.82 1.56 2.34 3.32 4.02 5.04l3.85 3.98c.9.9 3.28 3.48 3.73 3.81.25-.08.25-.66.25-1.64V33.9ZM237.11 35.45c1.31 0 1.48 0 1.48-1.07v-2.5c0-2.83-.16-2.99-1.93-3.28l-.78-.12c-.29-.21-.25-.9.08-1.02 1.6.08 2.87.12 4.18.12s2.58-.04 4.18-.12c.33.12.37.82.08 1.02l-.78.12c-1.76.29-1.93.45-1.93 3.28v9.18c0 2.83.16 3.03 1.93 3.28l.94.12c.29.21.25.9-.08 1.02-1.72-.08-3.08-.12-4.35-.12s-2.58.04-4.18.12c-.33-.12-.37-.82-.08-1.02l.78-.12c1.76-.29 1.93-.45 1.93-3.28v-3.24c0-1.02-.08-1.07-1.48-1.07h-7.22c-1.39 0-1.48.04-1.48 1.07v3.24c0 2.83.16 3.08 1.93 3.28l1.11.12c.29.21.25.9-.08 1.02-1.89-.08-3.24-.12-4.51-.12s-2.58.04-3.85.12c-.33-.12-.37-.82-.08-1.02l.45-.12c1.72-.45 1.93-.45 1.93-3.28v-9.18c0-2.83-.16-3.03-1.93-3.28l-.94-.12c-.29-.21-.25-.9.08-1.02 1.76.08 3.03.12 4.35.12s2.58-.04 4.02-.12c.33.12.37.82.08 1.02l-.61.12c-1.72.33-1.93.45-1.93 3.28v2.5c0 1.07.16 1.07 1.48 1.07h7.22ZM254.53 39.01c-.94 0-1.07.04-1.39.98l-.94 2.62c-.45 1.31-.33 1.48.45 1.64l1.11.21c.33.21.29.94-.12 1.02-1.03-.08-2.09-.12-3.24-.12s-2.13.08-2.87.12c-.37-.16-.37-.82-.08-1.02l.94-.21c1.27-.29 1.72-.74 2.54-2.71l3.94-9.43c.7-1.68.98-2.67 1.07-3.44.74-.29 1.52-1.07 1.72-1.56.33-.12.57-.04.66.21.16.41.82 2.54 1.76 5.04l3.69 9.8c.49 1.35.86 1.89 2.34 2.17l.66.12c.37.21.29.94-.12 1.02-1.07-.08-2.01-.12-3.4-.12-1.48 0-2.67.04-3.69.12-.41-.12-.45-.86-.08-1.02l.82-.12c1.07-.16 1.02-.41.53-1.68l-.98-2.67c-.33-.94-.45-.98-1.39-.98h-3.9Zm3.24-1.31c1.07 0 1.19-.08.74-1.27l-1.27-3.49c-.33-.94-.49-1.27-.62-1.48h-.08c-.12.16-.29.53-.66 1.39l-1.48 3.65c-.45 1.11-.37 1.19.53 1.19h2.83ZM270.37 31.96c-1.23-2.71-1.39-2.91-2.38-3.16l-1.35-.33c-.25-.25-.29-.82.04-1.02 1.07.08 2.42.12 3.69.12 1.48 0 2.67-.04 3.98-.12.33.16.37.82 0 1.02l-.86.12c-1.07.16-1.07.7-.16 2.71l2.01 4.55c1.02 2.34 1.72 3.85 2.34 5.21.82-1.72 1.52-3.44 2.3-5.17.86-1.89 2.01-4.71 2.42-5.9.29-.86.25-1.15-.98-1.39l-.66-.12c-.37-.25-.25-.78.08-1.02 1.19.08 2.26.12 3.36.12 1.31 0 2.25-.04 2.91-.12.41.16.49.82.2 1.02l-1.15.25c-1.23.25-1.48.61-2.79 3.4l-3.12 6.68a96.218 96.218 0 0 0-2.91 6.97c-.12.12-.29.16-.49.16-.16 0-.33-.04-.49-.16-.37-1.07-.82-2.38-1.35-3.53l-4.63-10.29ZM308.09 33.89c0-4.1-.25-5.17-1.76-5.29l-1.31-.12c-.29-.25-.25-.82.08-1.02 1.52.08 2.46.12 3.65.12s2.09-.04 3.4-.12c.33.21.33.82.04 1.02l-1.23.12c-1.07.12-1.39 1.23-1.39 5.29v6.89c0 .82 0 4.14.12 4.76-.12.25-.49.45-.86.37-.45-.57-1.27-1.44-3.81-4.18l-6.23-6.64c-1.56-1.64-2.62-2.71-3.16-3.16-.16 0-.16.45-.16 1.72v5.41c0 4.1.25 5.17 1.76 5.29l1.31.12c.33.25.25.82-.08 1.02-1.52-.08-2.46-.12-3.65-.12s-1.97.04-3.4.12c-.33-.16-.33-.82-.04-1.02l1.23-.12c1.07-.12 1.39-1.23 1.39-5.29v-7.34c0-1.35-.04-1.93-.86-2.54-.33-.25-1.11-.49-1.52-.57l-.62-.12c-.29-.25-.29-.86.08-1.02 1.56.12 2.67.12 3.53.12.57 0 1.15-.04 1.64-.12.82 1.56 2.34 3.32 4.02 5.04l3.85 3.98c.9.9 3.28 3.48 3.73 3.81.25-.08.25-.66.25-1.64V33.9ZM320.34 37.01c-1.97-1.02-3.65-2.62-3.65-4.92 0-2.99 2.3-5.08 6.44-5.08 1.44 0 2.42.37 3.81.62.33.7.62 2.25.57 4.02-.12.33-.86.37-1.07.08-.33-1.43-1.39-3.53-3.81-3.53s-3.32 1.39-3.32 2.79c0 1.48 1.11 2.38 2.75 3.24l2.54 1.31c1.48.74 3.32 2.46 3.32 5.21 0 3.2-2.62 5.21-6.68 5.21-2.5 0-4.14-.86-4.72-1.27-.37-.57-.86-2.05-.86-4.22.16-.41.78-.45 1.07-.08.33 1.48 2.13 4.39 4.88 4.39 2.09 0 3.44-1.07 3.44-2.95 0-1.31-.53-2.67-2.87-3.85l-1.85-.94ZM104.55 60.88c0-2.83-.21-2.91-1.93-3.28l-.57-.12c-.29-.21-.25-.9.08-1.02 1.39.08 2.67.12 3.98.12s2.58-.04 4.18-.12c.33.12.37.82.08 1.02l-.78.12c-1.76.29-1.93.45-1.93 3.28v5.78c0 4.1 1.35 6.89 5.33 6.89 3.69 0 5.29-2.79 5.29-6.85v-3.81c0-4.1-.25-5.04-2.01-5.29l-.86-.12c-.29-.25-.25-.82.08-1.02 1.31.08 2.25.12 3.44.12s2.09-.04 3.4-.12c.33.21.33.82.04 1.02l-1.23.12c-1.07.12-1.39 1.23-1.39 5.29v4.06c0 5.25-2.42 8-7.63 8-2.62 0-4.59-.53-5.82-1.72-1.23-1.23-1.76-3.12-1.76-5.78v-6.56ZM143.84 62.89c0-4.1-.25-5.17-1.76-5.29l-1.31-.12c-.29-.25-.25-.82.08-1.02 1.52.08 2.46.12 3.65.12s2.09-.04 3.4-.12c.33.21.33.82.04 1.02l-1.23.12c-1.07.12-1.39 1.23-1.39 5.29v6.89c0 .82 0 4.14.12 4.76-.12.25-.49.45-.86.37-.45-.57-1.27-1.44-3.81-4.18l-6.23-6.64c-1.56-1.64-2.62-2.71-3.16-3.16-.16 0-.16.45-.16 1.72v5.41c0 4.1.25 5.17 1.76 5.29l1.31.12c.33.25.25.82-.08 1.02-1.52-.08-2.46-.12-3.65-.12s-1.97.04-3.4.12c-.33-.16-.33-.82-.04-1.02l1.23-.12c1.07-.12 1.39-1.23 1.39-5.29v-7.34c0-1.35-.04-1.93-.86-2.54-.33-.25-1.11-.49-1.52-.57l-.62-.12c-.29-.25-.29-.86.08-1.02 1.56.12 2.67.12 3.53.12.57 0 1.15-.04 1.64-.12.82 1.56 2.34 3.32 4.02 5.04l3.85 3.98c.9.9 3.28 3.48 3.73 3.81.25-.08.25-.66.25-1.64V62.9ZM156.37 60.88c0-2.83-.16-2.99-1.93-3.28l-.78-.12c-.29-.21-.25-.9.08-1.02 1.6.08 2.87.12 4.18.12s2.58-.04 4.18-.12c.33.12.37.82.08 1.02l-.78.12c-1.76.29-1.93.45-1.93 3.28v9.18c0 2.83.16 2.99 1.93 3.28l.78.12c.29.21.25.9-.08 1.02-1.56-.08-2.91-.12-4.18-.12s-2.58.04-4.18.12c-.33-.12-.37-.82-.08-1.02l.78-.12c1.76-.29 1.93-.45 1.93-3.28v-9.18ZM170.88 60.96c-1.23-2.71-1.39-2.91-2.38-3.16l-1.35-.33c-.25-.25-.29-.82.04-1.02 1.07.08 2.42.12 3.69.12 1.48 0 2.67-.04 3.98-.12.33.16.37.82 0 1.02l-.86.12c-1.07.16-1.07.7-.16 2.71l2.01 4.55c1.02 2.34 1.72 3.85 2.34 5.21.82-1.72 1.52-3.44 2.3-5.17.86-1.89 2.01-4.71 2.42-5.9.29-.86.25-1.15-.98-1.39l-.66-.12c-.37-.25-.25-.78.08-1.02 1.19.08 2.26.12 3.36.12 1.31 0 2.25-.04 2.91-.12.41.16.49.82.2 1.02l-1.15.25c-1.23.25-1.48.61-2.79 3.4l-3.12 6.68a96.218 96.218 0 0 0-2.91 6.97c-.12.12-.29.16-.49.16-.16 0-.33-.04-.49-.16-.37-1.07-.82-2.38-1.35-3.53l-4.63-10.29ZM194.13 60.88c0-2.83-.16-2.95-1.72-3.28l-.57-.12c-.29-.16-.25-.86.08-1.02 1.19.08 2.46.12 3.81.12h5.82c1.8 0 3.44-.04 3.81-.12l.45 4.18c-.16.33-.82.37-1.07.08-.25-1.07-.49-1.6-.74-1.97-.66-.98-2.5-.98-3.48-.98h-1.8c-1.44 0-1.48.04-1.48 1.31v4.55c0 .74 0 .82.78.82h1.93c2.17 0 2.38-.33 2.71-1.56l.21-.78c.21-.29.82-.25 1.02.08-.08 1.19-.08 1.93-.08 2.87 0 1.02 0 1.76.08 2.95-.21.33-.82.37-1.02.08l-.21-.78c-.33-1.23-.53-1.56-2.71-1.56h-1.93c-.78 0-.78.12-.78.94v2.95c0 1.23.08 2.5.45 2.95.37.41 1.11.57 3.44.57 2.62 0 4.14-.12 5.33-3.4.29-.29.94-.21 1.07.16-.2 1.72-.78 3.77-1.23 4.55-2.58-.08-4.76-.12-6.97-.12h-3.61c-1.31 0-2.58.04-4.55.12-.33-.12-.37-.82-.08-1.02l1.11-.12c1.76-.21 1.93-.45 1.93-3.28v-9.18ZM215.14 61.37c0-2.67-.04-3.36-.98-3.48l-1.15-.16c-.33-.04-.41-.9 0-1.03 2.26-.16 4.55-.25 6.81-.25 3.81 0 7.95.61 7.95 4.92 0 2.62-2.05 3.81-3.65 4.39-.16.16-.12.41 0 .61 2.05 3.44 3.85 5.45 5.21 6.56.74.62 1.52.82 2.17.86.16.16.16.53 0 .66-.37.12-.94.21-1.72.21-2.46 0-3.94-.78-5.74-3.08-1.02-1.31-2.13-3.12-2.99-4.43-.33-.49-.98-.66-1.64-.66-1.07 0-1.15.08-1.15.66v2.91c0 2.83.16 3.03 1.93 3.28l.94.12c.29.21.25.9-.08 1.02-1.72-.08-3.07-.12-4.35-.12s-2.58.04-4.02.12c-.41-.12-.45-.86-.08-1.02l.61-.12c1.76-.37 1.93-.45 1.93-3.28v-8.69Zm3.12 2.99c0 1.02.04 1.02 2.05 1.02 2.67 0 4.06-1.07 4.06-3.9 0-2.05-1.44-3.85-4.31-3.85-1.52 0-1.8.08-1.8 1.15v5.58ZM240.43 66.01c-1.97-1.02-3.65-2.62-3.65-4.92 0-2.99 2.3-5.08 6.44-5.08 1.44 0 2.42.37 3.81.62.33.7.62 2.25.57 4.02-.12.33-.86.37-1.07.08-.33-1.43-1.39-3.53-3.81-3.53s-3.32 1.39-3.32 2.79c0 1.48 1.11 2.38 2.75 3.24l2.54 1.31c1.48.74 3.32 2.46 3.32 5.21 0 3.2-2.62 5.21-6.68 5.21-2.5 0-4.14-.86-4.72-1.27-.37-.57-.86-2.05-.86-4.22.16-.41.78-.45 1.07-.08.33 1.48 2.13 4.39 4.88 4.39 2.09 0 3.44-1.07 3.44-2.95 0-1.31-.53-2.67-2.87-3.85l-1.85-.94ZM257.13 60.88c0-2.83-.16-2.99-1.93-3.28l-.78-.12c-.29-.21-.25-.9.08-1.02 1.6.08 2.87.12 4.18.12s2.58-.04 4.18-.12c.33.12.37.82.08 1.02l-.78.12c-1.76.29-1.93.45-1.93 3.28v9.18c0 2.83.16 2.99 1.93 3.28l.78.12c.29.21.25.9-.08 1.02-1.56-.08-2.91-.12-4.18-.12s-2.58.04-4.18.12c-.33-.12-.37-.82-.08-1.02l.78-.12c1.76-.29 1.93-.45 1.93-3.28v-9.18ZM275.48 58.83c0-1.07-.04-1.07-.86-1.07h-1.27c-2.5 0-3.57.25-4.55 3.07-.41.25-.86.12-1.02-.21.45-1.76.9-3.81 1.11-4.84.16-.16.57-.16.74 0 .04.82.62.78 2.26.78h11.4c1.52 0 1.8-.04 2.13-.78.29-.16.62-.08.74.12-.33 1.07-.49 3.24-.41 4.8-.16.33-.86.37-1.02.04-.29-2.67-1.35-2.99-3.81-2.99h-1.39c-.78 0-.9 0-.9 1.07v11.23c0 2.83.16 3.08 1.93 3.28l1.11.12c.29.21.25.9-.08 1.02-1.68-.08-3.24-.12-4.51-.12s-2.79.04-4.51.12c-.33-.12-.37-.82-.08-1.02l1.11-.12c1.76-.21 1.93-.45 1.93-3.28V58.82ZM293.8 60.88c0-2.83-.16-2.95-1.72-3.28l-.57-.12c-.29-.16-.25-.86.08-1.02 1.19.08 2.46.12 3.81.12h5.82c1.8 0 3.44-.04 3.81-.12l.45 4.18c-.16.33-.82.37-1.07.08-.25-1.07-.49-1.6-.74-1.97-.66-.98-2.5-.98-3.48-.98h-1.8c-1.44 0-1.48.04-1.48 1.31v4.55c0 .74 0 .82.78.82h1.93c2.17 0 2.38-.33 2.71-1.56l.21-.78c.21-.29.82-.25 1.02.08-.08 1.19-.08 1.93-.08 2.87 0 1.02 0 1.76.08 2.95-.21.33-.82.37-1.02.08l-.21-.78c-.33-1.23-.53-1.56-2.71-1.56h-1.93c-.78 0-.78.12-.78.94v2.95c0 1.23.08 2.5.45 2.95.37.41 1.11.57 3.44.57 2.62 0 4.14-.12 5.33-3.4.29-.29.94-.21 1.07.16-.2 1.72-.78 3.77-1.23 4.55-2.58-.08-4.76-.12-6.97-.12h-3.61c-1.31 0-2.58.04-4.55.12-.33-.12-.37-.82-.08-1.02l1.11-.12c1.76-.21 1.93-.45 1.93-3.28v-9.18ZM318.64 58.83c0-1.07-.04-1.07-.86-1.07h-1.27c-2.5 0-3.57.25-4.55 3.07-.41.25-.86.12-1.02-.21.45-1.76.9-3.81 1.11-4.84.16-.16.57-.16.74 0 .04.82.62.78 2.26.78h11.4c1.52 0 1.8-.04 2.13-.78.29-.16.62-.08.74.12-.33 1.07-.49 3.24-.41 4.8-.16.33-.86.37-1.02.04-.29-2.67-1.35-2.99-3.81-2.99h-1.39c-.78 0-.9 0-.9 1.07v11.23c0 2.83.16 3.08 1.93 3.28l1.11.12c.29.21.25.9-.08 1.02-1.68-.08-3.24-.12-4.51-.12s-2.79.04-4.51.12c-.33-.12-.37-.82-.08-1.02l1.11-.12c1.76-.21 1.93-.45 1.93-3.28V58.82Z" class="cls-1"/></g><path id="Line" fill="#b2b2b2" stroke-width="0" d="M87.11 15.7h1v71.22h-1z"/><g id="Seal"><g id="Group_69" data-name="Group 69"><g id="Group_63" data-name="Group 63"><path id="Path_126" fill="#901a1e" stroke-width="0" d="M36.54 87.49C16.36 87.49 0 71.13 0 50.95s16.36-36.54 36.54-36.54 36.54 16.36 36.54 36.54c-.02 20.17-16.37 36.52-36.54 36.54Z" data-name="Path 126"/><g id="Group_14" data-name="Group 14"><g id="Group_13" data-name="Group 13"><g id="Group_12" data-name="Group 12"><g id="Group_11" data-name="Group 11"><g id="Group_9" data-name="Group 9"><g id="Group_8" data-name="Group 8"><path id="Path_132" d="M60.01 49.73v-.16c.01-.24.06-.41.48-.44.09 0 .46-.03.57-.04 0 .1.04.74.04.83.1.03.22.03.31-.02 0-.07-.06-.72-.06-.85.1-.01.8-.06.89-.07s.13 0 .15.14c.03.22.04.44.04.67 0 .47-.48.51-.64.54-.05.1-.03.22.04.3.24-.01.67-.06.9-.08-.02-.87-.08-1.75-.19-2.62a.287.287 0 0 0-.24.02v.11c0 .31-.23.33-.57.37-.22.02-.72.06-1.21.12-.55.07-.6-.02-.64-.26 0-.03-.02-.06-.02-.09a.277.277 0 0 0-.25.03c.06.47.1.96.14 1.5.08.03.17.03.25 0Z" class="cls-4" data-name="Path 132"/><path id="Path_133" d="M19.22 66.96s.07.08.09.12c.14.19.21.35-.09.64-.07.06-.34.32-.41.38-.06-.06-.5-.53-.56-.6-.1.04-.19.11-.24.21.05.05.5.53.57.61l-.63.62c-.06.06-.11.08-.21-.01-.16-.15-.3-.31-.44-.48-.29-.37.04-.7.15-.83a.266.266 0 0 0-.23-.2c-.17.16-.47.46-.64.64.56.66 1.15 1.29 1.78 1.88.08-.02.15-.08.18-.17-.03-.03-.03-.04-.07-.09-.21-.23-.04-.38.21-.64.16-.16.52-.5.86-.85.39-.4.48-.37.68-.21.03.03.04.03.08.07.08-.03.14-.11.17-.19-.34-.32-.68-.68-1.05-1.07-.06 0-.16.12-.19.16Z" class="cls-4" data-name="Path 133"/><path id="Path_134" d="M60.22 53.31c.96-.23 1.06-.28 1.81-.43.28-.06.39-.08.4.15v.13c.07.06.16.06.24.01.04-.45.06-.91.07-1.42-.07-.06-.18-.07-.25-.01 0 .06 0 .11-.01.17-.05.23-.14.28-.49.38-.2.05-2.29.55-2.35.57s-.04.03-.04.06c.02.03.09.39.13.53.68.32 1.68.84 2.07 1.06.4.21.42.37.41.5 0 .06 0 .11-.01.15a.2.2 0 0 0 .24.05c.05-.31.12-.89.16-1.21-.06-.07-.17-.09-.24-.03 0 .04-.01.1-.02.13-.03.16-.08.22-.41.07-.53-.23-1.16-.57-1.69-.85Z" class="cls-4" data-name="Path 134"/><path id="Path_135" d="M54.37 36.17a.35.35 0 0 1 .19-.17l.14.14c.21.17.28.19.68-.13.26-.21.76-.61.94-.76s.47-.33.29-.59c-.04-.05-.07-.1-.1-.15.02-.09.1-.15.19-.15.33.4.71.88.93 1.19 0 .07-.13.16-.19.14-.05-.05-.08-.09-.1-.11-.22-.23-.43-.08-.68.12-.35.27-.76.6-.96.75-.35.26-.42.36-.3.59.03.04.09.14.12.19-.03.08-.11.13-.2.13-.3-.4-.66-.85-.95-1.19Z" class="cls-4" data-name="Path 135"/><path id="Path_136" d="M14.56 43.55c-.08 0-.17-.03-.23-.09.01-.06.04-.15.05-.2.05-.25.02-.33-.47-.51-.32-.12-.91-.33-1.14-.42s-.52-.22-.66.07c-.02.05-.05.1-.07.16-.07.03-.21-.02-.23-.08.19-.55.4-1.09.53-1.41.09-.03.18 0 .23.09-.02.05-.04.1-.05.15-.1.3.15.39.44.51.42.15.92.35 1.15.44.41.15.54.17.68-.06.02-.04.07-.16.09-.2.09-.02.18.02.23.1-.13.31-.43 1.06-.56 1.44Z" class="cls-4" data-name="Path 136"/><path id="Path_137" d="M56.4 38.99c0-.1.09-.17.18-.16h.02c.02.04.05.08.08.12.04.06.13.23.31.14s.27-.15.36-.2c-.09-.16-.45-.73-.73-1.14 0-.09.05-.18.12-.24.06 0 2.77.38 2.94.41.06.12.05.25-.03.36-.13-.01-2.35-.33-2.54-.36.19.29.44.69.51.83.12-.07.44-.23.63-.34.03-.01.05-.01.08.02l.33.36s0 .05-.02.07c-.2.11-.6.33-.72.4.06.1.2.38.2.38-.04.12-.16.19-.28.16 0 0-.16-.31-.21-.39-.07.04-.27.15-.38.21-.14.08-.04.24-.01.3s.06.12.08.17c-.05.08-.14.12-.23.1-.2-.37-.38-.69-.68-1.18Z" class="cls-4" data-name="Path 137"/><path id="Path_138" d="M57.44 41.69c-.09-.1-.08-.26.02-.35.12 0 2.71.07 2.96.09-.13-.31-.32-.8-.41-1a.407.407 0 0 0-.39-.23c-.05 0-.1-.01-.15 0a.179.179 0 0 1-.02-.26c.13-.01.7-.08.85-.11.04.11.08.22.12.31s.42 1.01.49 1.16.15.34.22.45c-.04.06-.07.09-.11.16-.17-.04-.33-.07-.51-.09-.13 0-2.82-.11-3.08-.11Z" class="cls-4" data-name="Path 138"/><path id="Path_139" d="M18.8 36.65c-.05.13-.19.19-.32.15-.05-.11-1.2-2.42-1.29-2.64-.21.26-.57.65-.69.82-.1.13-.1.31-.02.45.02.06.04.08.06.13-.02.1-.12.17-.23.14-.16-.25-.33-.49-.51-.71.07-.09.15-.17.21-.25s.7-.85.79-.98c.11-.13.21-.27.3-.41.07 0 .12.01.19.03.04.17.09.33.16.49.05.12 1.23 2.54 1.35 2.78Z" class="cls-4" data-name="Path 139"/><path id="Path_140" d="M58.41 44.05c.04-.08.13-.13.23-.11.19.37.47.68.81.91.42.24.91.3 1.38.18.51-.13 1-.49.82-.93a.532.532 0 0 0-.7-.28c-.01 0-.03.01-.04.02a.567.567 0 0 0-.39.85c0 .08-.07.14-.16.14h-.01a.78.78 0 0 1-.3-.54c-.07-.43.18-.85.59-.99a.985.985 0 0 1 1.27.59l.03.09a1.197 1.197 0 0 1-.97 1.6 2.27 2.27 0 0 1-2.56-1.53Z" class="cls-4" data-name="Path 140"/><path id="Path_141" d="M60.35 61.47c-.03.06-.06.11-.09.16-.1.11-.18.17-.59-.03l-1.26-.58c-.4-.19-.4-.21-.32-.45l.03-.14c-.03-.11-.15-.12-.24-.08l-.26.6-.34.68a1.503 1.503 0 0 0 .41 2.18c.79.5 1.66.32 2.3-.99.24-.49.41-.85.56-1.23.03-.09-.12-.15-.21-.12Zm-.53 1.05a.64.64 0 0 1-.08.19c-.19.59-.82.91-1.41.72-.07-.02-.13-.05-.19-.08-.4-.14-.68-.5-.72-.92-.03-.22 0-.45.11-.65.09-.18.15-.27.24-.3.16-.03.33 0 .47.1 0 0 1.49.73 1.52.75.06.03.09.06.05.2Z" class="cls-4" data-name="Path 141"/><path id="Path_142" d="M54.79 68.75c.07.09.11.19.13.3.02.19-.06.38-.2.5-.05.05-.16.15-.28.27 0-.01-.99-1.05-1.22-1.29-.34-.36-.36-.44-.2-.65l.09-.09a.302.302 0 0 0-.17-.18c-.28.27-.75.72-1.02.95.02.09.08.16.16.19.05-.03.09-.07.13-.09.22-.14.32-.07.62.25.16.17 1.2 1.27 1.22 1.28-.16.16-.31.29-.38.35-.14.11-.33.12-.48.03-.07-.05-.13-.1-.19-.16-.09.02-.16.09-.17.18.08.09.45.51.55.62.72-.6 1.4-1.24 2.04-1.92-.02-.03-.35-.6-.4-.67-.09 0-.18.06-.22.14Z" class="cls-4" data-name="Path 142"/><path id="Path_143" d="M55.25 64.92c0 .11.14.16.19.16.02-.02.04-.05.06-.08.17-.16.22-.07.36.17.09.16.15.23.19.3-.09.12-.57.73-.66.84-.11-.03-.13-.05-.35-.12-.19-.07-.37-.11-.23-.3.05-.05.05-.06.08-.08a.225.225 0 0 0-.22-.16c-.12.16-.41.51-.8.95.01.09.08.17.17.18l.12-.12c.22-.2.45-.07.65 0s2.29.75 2.34.76.06 0 .07-.04.09-.3.1-.38c-.08-.13-.96-1.65-1.18-2.05-.25-.41-.2-.51-.15-.63.03-.07.05-.11.06-.13a.196.196 0 0 0-.21-.13c-.07.12-.53.77-.59.85Zm1.58 1.86-1.19-.39.54-.69.65 1.08Z" class="cls-4" data-name="Path 143"/><path id="Path_144" d="M11.18 51.77a.908.908 0 0 1-.31-.12.604.604 0 0 1-.21-.49v-.39l1.77.04c.5 0 .58.04.61.3 0 .04 0 .08.01.13.08.04.17.04.25 0 0-.4 0-1.06.03-1.4a.249.249 0 0 0-.25-.02c0 .05-.01.1-.03.15-.05.26-.18.28-.61.28-.24 0-1.76-.04-1.77-.04 0-.22 0-.42.02-.51.01-.18.14-.32.31-.36.08-.02.16-.04.25-.04a.21.21 0 0 0 0-.24c-.12 0-.66-.03-.81-.03-.08.93-.1 1.87-.07 2.8.05.01.68.17.76.19.07-.06.09-.16.05-.25Z" class="cls-4" data-name="Path 144"/><path id="Path_145" d="M13.5 54.12c-.08-.05-.18-.05-.25.01 0 .05.01.04.01.11-.01.23-.11.2-.38.13-.18-.05-.27-.07-.33-.09-.02-.15-.1-.9-.11-1.05.1-.05.14-.06.34-.16s.33-.18.37.06c.01.03.02.07.02.1.08.05.18.04.24-.03-.02-.19-.05-.65-.08-1.25a.227.227 0 0 0-.25 0v.17c-.02.27-.28.37-.47.45s-2.16 1.05-2.21 1.06-.05.04-.03.08.16.27.2.34c.14.03 1.82.52 2.26.64.47.14.49.25.56.37.02.06.02.11.04.13.08.05.18.03.24-.04-.03-.13-.15-.9-.16-1.02Zm-2.43-.24 1.14-.54.09.87-1.23-.33Z" class="cls-4" data-name="Path 145"/><path id="Path_146" d="M17.62 64.35c-.25-.39-.64-.66-1.09-.76-.41-.07-.84.02-1.19.26-.36.22-.61.59-.69 1-.08.46.04.92.31 1.29.46.77 1.45 1.02 2.21.56l.09-.06c.34-.22.59-.57.67-.97.07-.47-.04-.95-.32-1.33Zm-.83 1.79c-.28.21-.63.31-.97.27a.937.937 0 0 1-.58-.39.901.901 0 0 1-.13-.68c.1-.4.36-.74.72-.96.62-.42 1.19-.38 1.52.11.42.64-.03 1.28-.56 1.64Z" class="cls-4" data-name="Path 146"/><path id="Path_147" d="M23.01 69.99c0 .09-.06.16-.14.2l-.09-.04c-.21-.13-.33-.14-.66.3-.25.34-.55.71-.74.97-.21.28-.35.44-.11.65.05.04.06.06.09.08-.02.08-.07.15-.15.19-.47-.33-1.21-.92-2-1.6.15-.21.3-.42.47-.62.1 0 .19.05.24.14-.04.08-.08.16-.11.24-.06.16-.02.35.11.47.16.16.34.31.53.44.11.09.17.05.21 0 .07-.07.49-.62.55-.69-.08-.08-.6-.49-.66-.53.03-.1.1-.18.2-.23.05.06.57.47.64.53 0 0 .34-.4.37-.45.3-.36.22-.42-.05-.65-.1-.08-.18-.14-.23-.19a.525.525 0 0 0-.64-.01c-.06.03-.12.06-.17.1-.1-.03-.18-.12-.18-.22.07-.06.54-.46.66-.53.51.45 1.17.99 1.87 1.49Z" class="cls-4" data-name="Path 147"/><path id="Path_148" d="M14.23 58.43c.05-.08.15-.11.24-.07.16.47.24.69.39 1.09-.04.09-.14.13-.23.09-.02-.04-.03-.07-.05-.11-.08-.15-.12-.24-.61-.17-.31.05-1.15.21-1.32.26-.29.08-.58.16-.48.46l.05.12c-.04.09-.14.12-.23.09-.15-.39-.25-.7-.39-1.12.18-.06.35-.16.49-.29.25-.24.99-.8 1.3-1.11-.26-.06-1.56-.26-1.64-.27-.2-.05-.41-.06-.62-.05-.05-.2-.19-.77-.25-1.11.05-.08.16-.09.24-.04 0 .04.02.08.03.12.05.18.1.26.47.17.46-.13.9-.29 1.34-.47.4-.16.56-.22.53-.42 0-.1 0-.11-.01-.18.06-.07.15-.09.24-.05.13.66.2.97.3 1.34-.06.07-.15.09-.24.07 0-.04-.02-.07-.04-.1-.08-.21-.1-.3-.56-.15-.41.14-1.31.46-1.55.53.34.08 1.26.2 1.75.3.28.06.56.1.84.12.05.05.07.12.05.19-.23.16-.45.34-.66.54-.32.3-1.13.97-1.29 1.1.35-.09 1.16-.26 1.44-.33.32-.07.61-.14.53-.4" class="cls-4" data-name="Path 148"/><path id="Path_149" d="M59.33 55.79a.16.16 0 0 1 .23.02l.01.01c0 .03-.02.11-.02.15-.02.22.09.32.54.42.4.09.88.18 1.19.24s.56.16.64-.12c0-.05.02-.09.04-.14.08-.04.18-.03.24.03-.04.21-.14.64-.2.88 0 .05-.01.09-.01.14-.1.02-.2.05-.29.11-.07.02-2.04 1-2.27 1.12.21.08.98.36 1.19.43.41.13.54.19.66-.1.01-.05.03-.09.05-.14.09-.02.18 0 .24.07-.13.4-.28.87-.39 1.15-.09.03-.18 0-.22-.09 0-.03.03-.08.03-.12.06-.22 0-.3-.47-.47-.33-.12-1.82-.68-1.97-.7a.24.24 0 0 1-.04-.2c.41-.21 2.83-1.42 2.98-1.49-.2-.05-1.16-.25-1.47-.31-.47-.08-.59-.05-.67.15-.03.07-.03.1-.05.14a.2.2 0 0 1-.24-.07c.08-.27.23-.93.26-1.13Z" class="cls-4" data-name="Path 149"/><path id="Path_150" d="M10.61 47.52c.22.01.43.09.6.22.04.04 1.42.9 1.66 1.06s.24.28.25.34 0 .1.01.15c.06.07.17.08.24.01l.02-.02c0-.12.04-.61.08-.98-.02-.1-.18-.1-.24-.04 0 .05-.02.1-.04.15-.02.08-.11.11-.23.03s-.49-.29-.59-.36c0-.12.11-.84.12-.94.1 0 .49.02.57.03.31.06.26.27.26.31s0 .09-.01.14c.05.07.14.1.22.05 0 0 .02-.01.02-.02.13-.78.23-1.35.47-2.33-.24-.13-.5-.24-.76-.32-.12.01-.15.18-.1.25.08.04.12.08.15.09.21.12.32.36.26.59-.03.15-.03.19-.08.41-.05.26-.2.27-.48.26-.22 0-.51-.01-.6-.02l.14-.8a.367.367 0 0 0-.29-.03l-.13.81c-.13-.01-.86-.06-1.02-.07-.09 0-.07-.07-.07-.13s.05-.29.1-.56c.01-.2.15-.36.35-.41.09-.02.19-.04.28-.04.08-.05.1-.15.06-.23 0-.01-.02-.03-.03-.04-.19-.01-.53-.04-.76-.04-.16.69-.24 1.12-.34 1.69-.04.25-.1.49-.18.73 0 .03.03.05.08.05Zm.34-.41s.07-.08.12-.06c.14 0 .99.05 1.14.07-.03.19-.1.68-.11.8-.25-.16-1.01-.64-1.09-.69-.04-.02-.07-.07-.06-.11Z" class="cls-4" data-name="Path 150"/><path id="Path_151" d="M51.59 72.56c-.14-.17-.22-.38-.24-.6-.01-.05-.31-1.65-.35-1.94-.04-.14-.01-.3.08-.42.03-.03.07-.06.1-.1.02-.08-.03-.15-.11-.17h-.06c-.1.06-.49.37-.79.59-.05.09.05.21.14.21.04-.03.08-.06.13-.08.08-.04.16 0 .18.14s.12.56.14.69c-.1.08-.7.49-.77.55 0 0-.27-.31-.35-.44-.2-.27.01-.38.05-.41 0 0 .04-.03.1-.08.02-.09-.03-.19-.12-.21h-.02c-.65.45-1.33.87-2.03 1.26.07.27.17.53.3.78.09.08.23-.01.25-.1-.02-.09-.03-.15-.04-.18-.06-.23.05-.48.26-.58.12-.09.16-.11.35-.22.21-.13.33-.04.52.17.12.15.33.38.38.45-.12.08-.58.39-.69.45.02.09.08.17.17.23.13-.08.54-.35.69-.45l.63.8c.06.06 0 .08-.05.12s-.24.17-.47.3c-.15.13-.38.14-.54.03-.08-.05-.16-.11-.22-.17-.08-.03-.17.02-.2.1v.06c.11.15.34.43.49.6.61-.35.99-.58 1.48-.91.21-.13.42-.25.64-.35.04-.03.04-.06 0-.09Zm-.52.02s-.11 0-.13-.04c-.09-.11-.63-.76-.72-.88.15-.12.56-.39.65-.46.05.29.22 1.18.24 1.26.02.05 0 .1-.05.12Z" class="cls-4" data-name="Path 151"/><g id="Group_5" data-name="Group 5"><path id="Path_152" d="M13.49 62.95c.51-.28 1.39-.74 1.6-.85.4-.19.47-.29.39-.54a.471.471 0 0 0-.06-.15c.05-.08.15-.12.24-.11.17.35.46.89.65 1.22a.36.36 0 0 1-.23.13.673.673 0 0 0-.07-.11c-.15-.2-.23-.2-.68.03-.29.16-.87.49-1.08.59-.44.24-.49.3-.38.54.02.04.04.08.05.12-.01.07-.16.13-.21.12-.26-.46-.59-1.1-.66-1.23-.06-.11-.12-.26-.18-.38a.8.8 0 0 1 .29-1.09c.03-.02.07-.03.1-.05a.79.79 0 0 1 .93.24c.18-.29.34-.59.47-.9.12-.32.16-.42.1-.62 0-.03-.01-.07-.03-.1.05-.07.14-.11.23-.09.03.06.17.42.32.75-.13.31-.67 1.38-.75 1.55h-.12a.612.612 0 0 0-.45-.36c-.15-.01-.3.02-.42.1-.14.07-.25.18-.31.33a.76.76 0 0 0 .03.47c.05.11.1.2.14.27s.06.1.08.13Z" class="cls-4" data-name="Path 152"/></g><g id="Group_6" data-name="Group 6"><path id="Path_153" d="M23.88 73.73c.26-.52.74-1.38.86-1.59.23-.39.24-.51.03-.67-.04-.03-.08-.06-.13-.09 0-.09.05-.18.14-.22.34.2.88.5 1.21.67 0 .09-.04.18-.11.24-.04-.02-.08-.04-.12-.05-.24-.08-.31-.05-.55.39-.15.3-.48.88-.58 1.08-.23.45-.24.52-.02.66.04.03.07.04.1.07.04.07-.06.2-.11.22-.47-.23-1.1-.58-1.21-.65s-.25-.16-.36-.22a.796.796 0 0 1-.36-1.06c.02-.03.04-.07.06-.1.19-.3.56-.43.9-.32-.01-.34-.05-.67-.11-1-.07-.33-.1-.44-.25-.58a.572.572 0 0 0-.08-.07c0-.09.05-.16.13-.2.05.03.37.26.68.46.06.33.2 1.53.23 1.72-.04.02-.07.03-.11.05a.59.59 0 0 0-.56-.05c-.13.07-.23.18-.3.31-.07.13-.1.29-.07.44.05.15.15.28.28.37.08.06.17.11.27.15.04.02.09.04.14.06Z" class="cls-4" data-name="Path 153"/></g><path id="Path_154" d="M15.45 41.44c.03-.1.45-.92-.15-1.42-.58-.5-1.08.07-1.37.79-.22-.19-.9-.84-1.04-.96.03-.12.44-1.37.49-1.49.17.06.31.18.39.34-.07.19-.37 1.1-.39 1.19.06.07.21.2.28.26.13-.25.45-.86 1.08-.88.97-.03 1.51 1.02 1 2.3-.09.06-.21.04-.27-.05a.108.108 0 0 1-.03-.07Z" class="cls-4" data-name="Path 154"/><path id="Path_155" d="M14.4 37.66c-.13-.35-.08-.73.12-1.04.11-.22.32-.37.56-.42.38 0 .69.31.69.7 0 .04 0 .08-.01.12.14-.23.4-.35.67-.31.05 0 .73.11.88 1.12.09.62-.23 1.3-.54 1.38s-.59-.27-.29-.51c.13-.1.31.02.43-.11.19-.35.1-.78-.2-1.03a.616.616 0 0 0-.87-.03c-.11.16-.14.37-.07.56-.07.11-.21.15-.32.08a.304.304 0 0 1-.08-.08c.09-.32.12-.65.07-.98-.02-.2-.2-.34-.4-.32-.08 0-.15.04-.21.1a.74.74 0 0 0-.09.69c-.05.11-.18.15-.29.1 0 0-.01 0-.02-.01Z" class="cls-4" data-name="Path 155"/><path id="Path_156" d="M48.69 24.99c0-.14.06-.27.17-.35.07.04.15.06.23.08.4.12.52.1.88-.65.25-.48.7-1.38.88-1.74s.46-.78.02-1.06c-.07-.04-.11-.07-.18-.1-.03-.14.04-.29.16-.36.78.37 1.53.76 2.03 1.05a.33.33 0 0 1-.2.35 1.22 1.22 0 0 0-.17-.07c-.47-.19-.64.18-.88.62-.33.65-.72 1.39-.9 1.74-.33.61-.37.81-.04 1.07.06.05.15.09.23.15.03.09-.1.28-.21.33-.48-.27-1.42-.76-2.02-1.05Z" class="cls-4" data-name="Path 156"/><path id="Path_157" d="M57 30.86c.05-.13.15-.23.28-.28.06.06.13.11.19.17.33.24.44.26 1.06-.3.39-.37 1.13-1.05 1.41-1.33.3-.28.71-.58.39-.99-.05-.07-.08-.1-.13-.16a.34.34 0 0 1 .27-.28c.62.63 1.17 1.27 1.54 1.69.01.12-.19.27-.3.25l-.13-.13c-.37-.33-.66-.05-1.03.28-.53.48-1.16 1.04-1.46 1.31-.51.47-.62.64-.4.99l.15.21c0 .1-.19.24-.31.24-.36-.42-1.07-1.23-1.54-1.68Z" class="cls-4" data-name="Path 157"/><path id="Path_158" d="M59.31 68.68c.13.03.25.12.32.24-.04.07-.1.15-.14.21-.19.37-.2.48.44 1.02.42.34 1.2 1 1.5 1.25s.65.62 1.02.25c.06-.06.1-.09.15-.15.14 0 .26.1.3.23-.55.72-1.1 1.34-1.46 1.75-.12.03-.29-.15-.29-.26.04-.05.08-.11.12-.16.28-.41-.04-.66-.42-.99-.54-.45-1.19-1-1.5-1.27-.53-.46-.71-.54-1.04-.27-.06.05-.12.12-.19.19a.374.374 0 0 1-.25-.28c.37-.41 1.08-1.25 1.45-1.75Z" class="cls-4" data-name="Path 158"/><path id="Path_159" d="M36.88 79.86c.06.13.07.27 0 .4-.08 0-.17.01-.25.03-.41.06-.5.13-.51.96-.01.56-.03 1.56-.03 1.96s-.07.91.44.95c.09.01.12.02.21.03.08.11.09.27.01.38-.87 0-1.7-.03-2.29-.07a.303.303 0 0 1 .02-.39h.19c.5-.05.5-.45.51-.95.01-.71.05-1.55.07-1.96.02-.69-.03-.89-.44-.98-.07-.01-.17-.02-.26-.03a.367.367 0 0 1 .04-.39c.56.04 1.65.07 2.28.06Z" class="cls-4" data-name="Path 159"/><path id="Path_160" d="M18.54 73.53c-.03.13-.12.25-.25.31-.06-.05-.13-.09-.2-.13-.37-.2-.48-.22-1.02.41-.36.42-1.01 1.18-1.26 1.48s-.63.66-.27 1.02c.06.07.09.09.15.15 0 .15-.1.27-.25.31-.68-.56-1.32-1.11-1.73-1.52-.03-.12.15-.28.27-.28.05.04.09.08.15.12.42.28.68-.02 1.01-.4.47-.54 1.03-1.17 1.3-1.47.47-.52.55-.7.29-1.03-.06-.07-.12-.13-.18-.19 0-.1.17-.26.29-.28.39.39 1.21 1.1 1.71 1.5Z" class="cls-4" data-name="Path 160"/><path id="Path_161" d="M9.26 42.01a.481.481 0 0 1-.38-.13c.02-.08.05-.17.06-.24.06-.41.04-.52-.75-.81-.52-.18-1.45-.52-1.83-.66s-.83-.36-1.05.11c-.04.07-.06.11-.09.18-.14.04-.28 0-.37-.11.29-.87.59-1.63.81-2.15.14-.04.29.02.35.15-.03.1-.05.15-.05.18-.12.49.25.62.72.8.66.26 1.45.55 1.82.7.66.25.85.27 1.08-.09.03-.06.07-.15.11-.23.14-.02.29.05.37.17-.22.51-.61 1.52-.82 2.13Z" class="cls-4" data-name="Path 161"/><path id="Path_162" d="M61.59 36.95c-.62-1.09-1.31-2.14-2.06-3.14.07-.13.18-.22.32-.26.06.08.11.14.13.17.29.29.43.28 1.08-.19.42-.3 1.32-.92 1.59-1.11.34-.23.79-.47.53-.92-.04-.08-.07-.12-.1-.18 0-.12.21-.25.31-.24.53.7.99 1.41 1.3 1.87 0 .12-.18.25-.33.24-.06-.08-.08-.12-.11-.16-.29-.39-.7-.09-1.07.16-.56.39-1.11.77-1.6 1.1-.56.39-.68.48-.51.86.07.15.15.3.24.44.13.21.3.39.5.53.2.08.42.11.64.09.09-.02.28-.07.38-.1.14.06.21.23.15.38-.33.12-.79.3-1.38.47Z" class="cls-4" data-name="Path 162"/><path id="Path_163" d="M63.75 41.71c-.42-1.18-.9-2.34-1.46-3.47.08-.11.21-.18.35-.18.03.07.08.14.1.19.22.34.37.34 1.09.02.48-.22 1.5-.67 1.81-.81.36-.17.86-.32.68-.8-.03-.08-.04-.12-.07-.19.07-.12.21-.19.35-.18.4.8.73 1.56.94 2.07-.02.11-.22.21-.36.17-.04-.09-.07-.13-.08-.17-.22-.43-.67-.22-1.08-.04-.64.28-1.24.55-1.82.79-.63.28-.76.34-.66.76.04.16.1.32.17.47.09.23.22.44.39.61.19.13.42.19.65.2.13 0 .26 0 .39-.02.13.08.17.25.09.38v.01c-.33.05-.86.15-1.47.2Z" class="cls-4" data-name="Path 163"/><path id="Path_164" d="M44.4 23.12c0-.41.07-.81.21-1.19.15-.03.31 0 .43.1-.01.45-.13 1.14.73 1.45.37.19.82.05 1.01-.32v-.02c.2-.44-.04-.81-.58-1.32-.79-.74-.9-1.18-.84-1.56.08-.53.58-1.5 2.02-.97.43.16.84.36 1.22.6-.04.37-.12.73-.24 1.08-.14.06-.31.02-.4-.1a.953.953 0 0 0-.58-1.14c-.71-.29-1.01.13-1.08.38-.1.36.08.52.66 1.14.48.5 1.08 1 .77 1.87-.33.78-1.22 1.15-2 .82-.03-.01-.05-.02-.08-.03-.49-.15-.93-.42-1.28-.8Z" class="cls-4" data-name="Path 164"/><path id="Path_165" d="M41.58 79.67c.18.36.29.75.34 1.14-.12.1-.28.13-.43.1-.19-.4-.39-1.08-1.3-.95-.58.09-.77.43-.76.77.01.47.39.69 1.12.91 1.03.3 1.33.63 1.46 1.01.17.51.16 1.61-1.38 1.78-.45.05-.91.06-1.37.02-.13-.35-.22-.71-.26-1.07.1-.12.26-.16.4-.09.1.48.55.8 1.03.75.76-.06.84-.57.79-.81-.06-.37-.31-.44-1.12-.72-.64-.22-1.4-.41-1.51-1.31-.07-.84.56-1.58 1.4-1.65h.1c.5-.09 1.02-.04 1.5.14Z" class="cls-4" data-name="Path 165"/><path id="Path_166" d="M15.38 70.83c-.2.35-.45.66-.75.93a.61.61 0 0 1-.35-.3c.23-.38.69-.94.08-1.63a.768.768 0 0 0-1.06-.21c-.39.28-.36.72-.13 1.44.32 1.02.22 1.46-.03 1.76-.34.43-1.25 1.03-2.24-.14-.3-.35-.56-.73-.77-1.13.22-.29.47-.57.74-.82.16 0 .25.11.3.29a.95.95 0 0 0-.05 1.27c.48.6.94.38 1.12.2.27-.26.18-.49-.02-1.32-.17-.68-.43-1.4.24-2.01.68-.52 1.65-.39 2.17.28.01.01.02.03.03.04.36.37.6.83.72 1.33Z" class="cls-4" data-name="Path 166"/><path id="Path_167" d="M22.21 26.16a.46.46 0 0 1-.21-.34c.07-.04.14-.09.21-.14.32-.26.38-.37-.02-1.1-.26-.49-.73-1.36-.93-1.72s-.38-.82-.85-.62c-.09.03-.12.05-.19.08a.33.33 0 0 1-.2-.33c.77-.44 1.48-.8 2.03-1.06.12.01.22.25.17.35-.05.03-.11.06-.16.1-.42.28-.22.63 0 1.07.33.64.71 1.39.89 1.75.32.62.45.76.86.65.08-.03.16-.06.24-.1.11.08.17.22.15.36-.49.24-1.4.72-1.99 1.05Z" class="cls-4" data-name="Path 167"/><path id="Path_168" d="M25.81 24.15c-.26-.31-.46-.66-.59-1.04.1-.12.24-.2.4-.2.28.36.61.98 1.48.66.41-.09.67-.49.58-.9v-.02c-.11-.47-.54-.59-1.28-.65-1.07-.08-1.44-.34-1.64-.68-.28-.46-.5-1.53.97-2.03.43-.15.88-.25 1.34-.31.19.31.36.64.48.99-.07.14-.22.21-.38.18a.927.927 0 0 0-1.16-.51c-.74.22-.7.74-.6.97.15.34.39.35 1.24.46.68.09 1.46.1 1.77.96.24.82-.24 1.68-1.06 1.92-.02 0-.03 0-.05.01-.47.19-.99.26-1.49.18Z" class="cls-4" data-name="Path 168"/><path id="Path_169" d="M18.21 28.61c-.33-.23-.62-.52-.86-.84a.55.55 0 0 1 .34-.31c.36.26.86.76 1.6.21.36-.18.51-.62.33-.98 0-.02-.02-.03-.03-.05-.24-.42-.68-.42-1.41-.26-1.06.23-1.47.07-1.76-.2-.4-.36-.9-1.33.36-2.21.37-.27.77-.49 1.2-.66.28.24.52.51.73.81a.32.32 0 0 1-.3.27.944.944 0 0 0-1.26-.17c-.65.41-.48.9-.3 1.09.23.3.47.23 1.32.1.67-.11 1.43-.31 1.96.43.46.7.26 1.65-.44 2.11-.03.02-.06.04-.09.05-.4.33-.88.53-1.39.6Z" class="cls-4" data-name="Path 169"/><path id="Path_170" d="M62.87 62.71c.13-.07.28-.02.35.11 0 .01.01.02.02.04-.02.04-.07.16-.09.22-.12.32.04.53.7.84.59.27 1.31.6 1.8.83.47.22.81.44 1.04.04.04-.06.08-.13.11-.2.14-.02.28.04.35.16-.1.24-.42.93-.59 1.28-.04.06-.06.14-.07.21-.17-.02-.34 0-.5.04-.11.02-3.6.8-4.03.91.31.19 1.4.92 1.7 1.11.57.36.78.5 1.11.1.03-.06.1-.13.14-.2.14-.01.28.07.33.21-.35.56-.79 1.21-1.08 1.62-.12.05-.3-.1-.31-.22.03-.05.07-.11.1-.18.17-.31.1-.47-.57-.91-.47-.3-2.57-1.72-2.79-1.8-.05-.1-.04-.22.02-.32.71-.17 4.95-1.15 5.21-1.23-.31-.14-1.74-.8-2.2-1-.7-.3-.9-.29-1.08 0-.07.1-.08.15-.13.2a.3.3 0 0 1-.34-.2c.22-.39.68-1.37.81-1.66Z" class="cls-4" data-name="Path 170"/><path id="Path_171" d="M7.9 48.67c-.1.1-.27.11-.37 0l-.02-.02v-.24c0-.34-.2-.49-.93-.57-.65-.07-1.41-.14-1.94-.2s-.9-.15-1.01.3c-.02.07-.02.12-.04.22a.33.33 0 0 1-.39-.02c0-.27.1-1.02.15-1.39a.81.81 0 0 0 0-.22c.17-.04.32-.11.46-.2.1-.06 3.11-1.92 3.47-2.18-.35-.08-1.61-.41-1.96-.49-.67-.15-.9-.2-1.05.27-.02.06-.05.16-.07.23a.31.31 0 0 1-.37-.09c.14-.65.32-1.4.45-1.87.13-.07.29-.02.37.1-.01.06-.03.14-.05.21-.05.35.05.46.84.66.54.14 2.97.79 3.21.8.09.08.12.2.1.31-.61.39-4.26 2.69-4.49 2.84.33.04 1.88.21 2.38.24.75.05.94-.02 1.02-.35.02-.08.04-.16.05-.24.13-.07.3-.03.39.08-.07.43-.19 1.51-.21 1.83Z" class="cls-4" data-name="Path 171"/><path id="Path_172" d="M13.58 33.8a.25.25 0 0 1-.31-.18v-.06c.02-.04.1-.14.13-.2.19-.29.08-.52-.48-.98-.51-.4-1.11-.88-1.53-1.21s-.68-.61-1-.29c-.05.06-.09.1-.15.18-.14 0-.26-.1-.31-.24.15-.21.62-.81.87-1.1.05-.06.08-.12.11-.19.16.05.32.08.49.07.12 0 3.68.02 4.1.02-.25-.26-1.14-1.22-1.4-1.48-.47-.49-.65-.66-1.02-.33-.05.04-.13.11-.19.15a.329.329 0 0 1-.27-.28c.47-.47 1.02-1.01 1.39-1.34.12 0 .26.17.26.29l-.15.15c-.23.27-.2.43.36 1.02.38.39 2.1 2.26 2.3 2.38.03.11 0 .23-.09.31h-5.33c.27.22 1.48 1.17 1.89 1.47.6.45.8.49 1.06.25.06-.05.12-.11.18-.17.15 0 .26.12.28.27-.29.34-.98 1.19-1.16 1.46Z" class="cls-4" data-name="Path 172"/><path id="Path_173" d="M10.64 63.57a.344.344 0 0 0-.36.15c.02.08.06.16.08.23.13.41-.03.53-.64.85-.17.09-.42.23-.74.38l-1.04-2.25c.28-.12.56-.23.76-.31.75-.3.87-.29 1.08.06.04.06.07.12.1.19.14 0 .27-.06.36-.17-.27-.6-.64-1.5-.8-2.03a.41.41 0 0 0-.38.11c.02.08.04.16.06.25.08.37-.09.52-.74.77-.35.14-1.16.45-1.82.72-.42.18-.81.36-1.04-.07-.02-.06-.05-.12-.08-.18a.316.316 0 0 0-.36.16c.18.53.48 1.28.81 2.05.09.03.33-.04.37-.15-.02-.08-.02-.09-.05-.17-.13-.44.17-.58.7-.8.13-.05.37-.15.64-.26l1.06 2.28c-.21.12-.42.24-.61.34-.41.22-.78.45-1.05.04-.03-.04-.04-.08-.1-.16-.14-.03-.34.08-.35.19.24.51.62 1.23 1.03 1.95.08.01.31-.08.34-.2-.03-.07-.03-.08-.06-.16-.18-.4.11-.6.61-.87l1.73-.92c.7-.38.83-.38 1.08-.06.03.05.07.11.12.18.14-.01.26-.08.34-.2a22.5 22.5 0 0 1-1-1.94Z" class="cls-4" data-name="Path 173"/><path id="Path_174" d="M56.11 28.97c-.13.16-.25.33-.35.51-.57-.25-1.11-.57-1.61-.95a2.64 2.64 0 0 1-1.16-2.3c.05-.95.64-1.79 1.51-2.16.95-.34 2-.13 2.75.54.46.34.88.75 1.23 1.21-.25.34-.49.68-.74 1.1-.12.02-.32-.07-.35-.17.13-.25.21-.52.21-.8-.06-.4-.28-.75-.61-.98-.84-.61-2-.42-2.61.42-.06.08-.12.17-.16.27-.64.75-.55 1.87.2 2.51 0 0 .01 0 .02.01.11.1.23.2.35.28.28.19.44.16.64-.06.08-.09.15-.18.26-.33.24-.29.25-.31 0-.6-.11-.13-.19-.22-.26-.3 0-.16.13-.29.29-.3.52.47 1.08.91 1.65 1.32.03.1-.12.34-.23.34-.09-.04-.12-.06-.19-.09-.19-.1-.28-.15-.55.18-.18.22-.24.29-.3.35Z" class="cls-4" data-name="Path 174"/><path id="Path_175" d="M10.72 38.42c-.14 0-.26-.07-.35-.17.03-.05.05-.09.07-.14.14-.38.13-.58-.64-.99-.58-.3-1.26-.68-1.69-.92-.5-.28-.79-.47-1.06-.04-.05.07-.07.11-.1.15-.14 0-.26-.07-.34-.19.61-1.22 1.29-2.39 2.03-3.53.3.14.81.43 1.08.58.03.16-.03.32-.17.42-.14-.06-.28-.1-.42-.13a.652.652 0 0 0-.71.29c-.2.31-.39.63-.56.95-.1.18-.04.25.07.33s1.09.62 1.23.7c.68-1.17.67-1.16.68-1.18.16.03.3.12.39.25 0 0-.65 1.15-.67 1.15s.71.42.81.48c.63.38.71.24 1-.23.1-.17.18-.31.24-.41.19-.33.14-.76-.14-1.03-.09-.13-.15-.19-.18-.24.01-.17.14-.31.31-.34.11.1.85.74 1.01.92-.7 1.06-1.34 2.16-1.91 3.3Z" class="cls-4" data-name="Path 175"/><path id="Path_176" d="M52.36 75.14c.12.07.2.19.22.33-.07.05-.07.06-.12.1-.32.25-.4.42.05 1.18.35.56.73 1.23.98 1.65.29.5.44.81.89.58.08-.05.12-.06.17-.08.12.07.19.2.2.34a36.07 36.07 0 0 1-3.54 1.99c-.18-.28-.48-.75-.63-1.03.05-.15.19-.26.36-.27.08.08.16.19.3.3.2.2.5.25.75.11.34-.15.66-.33.97-.53.19-.12.17-.2.11-.32s-.61-1.09-.7-1.22l-1.19.67a.631.631 0 0 1-.21-.42l1.16-.65s-.4-.73-.46-.82c-.35-.65-.5-.57-.98-.33-.14.07-.28.15-.41.24-.34.19-.51.59-.4.96 0 .16.02.24.03.3-.1.14-.28.19-.44.13-.16-.43-.29-.87-.4-1.31 1.14-.56 2.25-1.19 3.31-1.89Z" class="cls-4" data-name="Path 176"/><path id="Path_177" d="M65.43 44.61c1.34-.85 1.49-.97 2.55-1.62.38-.23.54-.32.67.03.02.06.04.12.06.19.13.06.29.02.37-.1-.17-.7-.36-1.41-.61-2.17-.13-.09-.32.03-.37.1.03.08.04.17.05.26.04.38-.07.51-.53.84-.27.18-3.25 2.04-3.32 2.09-.05.03-.07.1-.03.16 0 0 0 .01.01.01.02.03.27.44.41.62 1.23.16 3.01.47 3.72.6s.84.29.87.49c.02.08.03.16.04.24.11.08.34.06.38-.04-.06-.54-.19-1.32-.3-1.83a.29.29 0 0 0-.38.04l.03.21c.02.26 0 .42-.59.34-.92-.11-2.07-.29-3.02-.44Z" class="cls-4" data-name="Path 177"/><path id="Path_178" d="M64.82 59.89c1.58-.06 1.77-.09 3.02-.12.44-.01.62-.01.56.35-.02.09-.03.16-.04.21.09.11.25.15.38.09.2-.69.38-1.42.55-2.19a.3.3 0 0 0-.37-.1c-.03.07-.05.15-.09.24-.16.35-.32.4-.88.45-.32.02-3.83.17-3.92.18-.07 0-.11.07-.11.13 0 .05.03.52.03.74 1 .75 2.39 1.9 2.94 2.37s.58.65.51.85c-.02.08-.05.16-.09.23.05.13.27.22.36.15.2-.5.49-1.25.64-1.74a.299.299 0 0 0-.36-.15c-.02.07-.04.13-.07.2-.12.23-.21.36-.68 0-.74-.57-1.65-1.29-2.39-1.9Z" class="cls-4" data-name="Path 178"/><path id="Path_179" d="M55.6 73.72c1.36.8 1.54.86 2.6 1.52.39.22.54.32.29.6-.06.07-.11.11-.14.14 0 .15.15.31.25.29.55-.48 1.1-.98 1.66-1.55.02-.17-.19-.27-.27-.28-.07.06-.13.11-.21.15-.33.21-.49.19-.99-.09-.31-.17-3.3-1.89-3.36-1.93-.06-.03-.13-.01-.16.04-.02.04-.26.46-.37.65.42 1.15.96 2.87 1.17 3.57s.14.87-.02 1c-.09.06-.14.1-.21.14-.01.13.11.34.22.32.44-.31 1.08-.79 1.48-1.12a.28.28 0 0 0-.22-.32c-.05.05-.11.09-.18.12-.22.13-.37.19-.57-.37-.31-.88-.68-1.98-.99-2.89Z" class="cls-4" data-name="Path 179"/><g id="Group_7" data-name="Group 7"><path id="Path_180" d="M47.48 82.27c-.32-.87-.84-2.34-.97-2.71-.23-.67-.36-.82-.77-.74-.08.01-.17.03-.26.05a.38.38 0 0 1-.1-.38c.68-.22 1.45-.5 2.07-.75.1.09.16.23.15.36-.08.03-.14.07-.19.09-.35.2-.37.35-.09 1.1.18.49.56 1.48.68 1.81.28.75.35.86.75.74.07-.02.13-.04.2-.05.11.03.17.28.15.36-1.21.49-1.87.69-2.08.75s-.44.13-.64.18c-.64.26-1.37-.04-1.64-.68a.697.697 0 0 1-.06-.19c-.16-.55.08-1.14.58-1.42-.42-.34-.86-.66-1.32-.94a1.44 1.44 0 0 0-1-.29c-.03 0-.12.02-.22.04a.576.576 0 0 1-.1-.38c.11-.02.73-.15 1.31-.3.3.18 1.96 1.26 2.3 1.47l-.05.23a.91.91 0 0 0-.62.6c-.05.23-.03.48.06.7.07.24.23.44.45.56.23.1.5.12.74.05.18-.05.34-.1.47-.15.07-.03.14-.07.21-.11Z" class="cls-4" data-name="Path 180"/></g><path id="Path_181" d="M27.08 78.28c-.12.06-.19.21-.15.34.07.04.06.03.17.09.32.17.25.26-.09.63l-.33.38c-.22-.09-1.31-.5-1.52-.59 0-.17 0-.17.02-.53s0-.61.36-.49c.06.02.11.04.16.07.13-.07.19-.23.15-.37-.3-.11-.98-.4-1.84-.81a.33.33 0 0 0-.2.35c.08.03.16.08.23.12.41.26.31.68.3 1s-.14 3.84-.14 3.92.02.08.08.09.5-.01.62-.02c.18-.19 2.05-2.26 2.54-2.81.52-.56.69-.55.91-.54.08 0 .15.01.22.04.13-.08.17-.25.09-.38-.56-.15-1.39-.42-1.58-.49Zm-2.03 3.3.08-2.04 1.27.48-1.35 1.56Z" class="cls-4" data-name="Path 181"/><path id="Path_182" d="M8.64 58.04a.321.321 0 0 0-.39.07c.01.06.02.11.02.17.04.36-.06.36-.57.29-.29-.05-.39-.05-.49-.08-.05-.23-.3-1.38-.34-1.59.15-.1.15-.09.45-.28.29-.18.51-.33.61.04l.03.17c.13.07.3.04.39-.09-.06-.3-.19-1.02-.32-1.97a.362.362 0 0 0-.41.02c0 .09.02.18.02.27.02.49-.39.62-.67.79s-3.28 1.99-3.35 2.03-.05.07-.04.13c.03.04.3.41.37.51.25.03 3 .46 3.72.58.76.12.84.28.95.47.04.06.07.13.09.2.14.06.31 0 .38-.13-.08-.2-.4-1.34-.45-1.58Zm-3.89.11 1.75-1.04.29 1.32-2.04-.28Z" class="cls-4" data-name="Path 182"/><path id="Path_183" d="M65.72 49.77c-.1.11-.28.12-.4.02-.06-.8-.07-1.17-.14-1.83.08-.12.24-.16.36-.09.01 0 .03.02.04.03.01.09.01.13.03.2.06.27.08.43.85.51.49.05 1.86.12 2.14.11.48-.01.97.02.93-.5 0-.07 0-.13-.01-.2.11-.1.28-.12.4-.03.06.67.09 1.12.11 1.81-.31 0-.61.09-.88.24-.51.24-1.89.88-2.48 1.21.35.2 2.27 1.1 2.39 1.16.3.17.63.28.97.35-.02.5-.08 1.24-.13 1.79-.13.09-.3.07-.4-.04v-.2c0-.28-.04-.43-.63-.44-.66 0-1.69 0-2.25.02-.67.05-.96.08-1.02.39-.03.15-.03.16-.04.29-.13.07-.29.05-.4-.05.12-1.1.14-1.45.18-2.06.13-.07.28-.07.4.01v.18c.02.25.01.39.77.37.67 0 2.2-.04 2.6-.06-.43-.24-1.83-.85-2.54-1.22-.74-.37-.99-.47-1.24-.58a.272.272 0 0 1 0-.3c.42-.15.84-.33 1.24-.53.62-.31 2.23-1.01 2.53-1.13-.57-.04-1.96-.05-2.41-.06-.54-.01-.97-.03-.96.38" class="cls-4" data-name="Path 183"/><path id="Path_184" d="M32.43 83c-.06.17-.15.33-.27.47-.23.19-.53.27-.82.19l-.61-.11s.44-2.25.53-2.77c.15-.78.24-.89.64-.87.07 0 .14 0 .21.01.07-.11.09-.26.06-.39-.64-.1-1.64-.3-2.18-.43-.1.1-.14.24-.11.37.09.03.17.06.23.09.4.15.41.36.28 1.04-.08.37-.56 2.77-.56 2.77-.34-.06-.65-.13-.8-.16a.633.633 0 0 1-.45-.6 2.41 2.41 0 0 1 0-.38c-.1-.1-.26-.13-.39-.07-.03.19-.22 1.05-.28 1.29 1.44.39 2.91.67 4.39.85.04-.06.47-1.03.52-1.14a.379.379 0 0 0-.39-.16Z" class="cls-4" data-name="Path 184"/><path id="Path_185" d="M21.56 79.56c-.12.15-.26.27-.43.36-.28.08-.58.04-.83-.11-.1-.06-.29-.18-.53-.32 0 0 1.2-1.95 1.46-2.4.42-.68.53-.76.91-.6.07.02.13.05.19.09.11-.08.18-.21.19-.34-.56-.32-1.43-.85-1.89-1.18-.13.05-.23.18-.24.32.07.05.14.1.2.16.3.27.24.47-.12 1.07-.2.33-1.49 2.4-1.49 2.4-.3-.19-.56-.35-.69-.44a.63.63 0 0 1-.23-.72c.03-.13.08-.25.15-.37a.352.352 0 0 0-.34-.2c-.1.17-.57.91-.71 1.11 1.21.87 2.48 1.66 3.81 2.34.06-.05.8-.81.88-.9a.374.374 0 0 0-.31-.28Z" class="cls-4" data-name="Path 185"/><path id="Path_186" d="M7.4 51.29c0 .08 0 .16-.01.24-.04.4-.11.63-.78.67-.14 0-.69.02-.85.03l-.02-1.32a.575.575 0 0 0-.48 0l.02 1.34c-.15.01-1.34.06-1.47.06s-.22-.02-.24-.24a8.01 8.01 0 0 1 0-.98c.05-.75.99-.89 1.25-.94.09-.15.07-.34-.06-.46-.39.02-1.26.14-1.63.15-.05 1.37-.02 2.74.1 4.1.12.05.27.04.38-.02v-.18c0-.51.38-.5.94-.53.37-.03 1.16-.04 1.95-.1.87-.06.94.08 1.01.47 0 .05.02.1.02.16.13.05.28.03.4-.04-.08-.76-.11-1.67-.12-2.4a.445.445 0 0 0-.39 0Z" class="cls-4" data-name="Path 186"/><path id="Path_187" d="M23.07 29.62c-.38.07-.51.75-.56 1s-.11.7-.11.7c-.04.05-.13.05-.25.03-.22-.03-.39-.35-.43-.58a3.4 3.4 0 0 1-.06-.46c.08.02.17.06.24.01.17-.08.23-.3.2-.6 0-.14-.08-.26-.19-.33a.333.333 0 0 0-.22-.01c.03-.07.04-.15.04-.23a.285.285 0 0 0-.15-.19.668.668 0 0 0-.37-.02h-.04c-.12.01-.24.06-.34.14-.07.05-.1.13-.09.22.01.08.05.16.11.23-.08 0-.15.03-.21.08-.09.11-.12.25-.08.39.07.28.2.47.36.5.08.01.17-.02.22-.09.04.15.07.3.08.46.03.26-.05.52-.21.73-.06.05-.14.06-.22.03l-.36-.61c-.29-.43-.53-.8-.83-.79a.51.51 0 0 0-.34.19c-.13.24-.09.54.11.73.15.16.37.23.58.17.21.36.39.74.51 1.13.08.28.26.73.35 1.04.11.32.37.43.72.54 0 .04.15 2.59.95 7.69.05.2.51.24.73.19s.6-.2.55-.5c-.81-5.13-1.35-7.61-1.33-7.49.3-.13.51-.42.54-.75 0-.26.01-.74 0-1.21 0-.4.03-.8.11-1.19.2.02.4-.09.47-.28.13-.22.11-.5-.05-.71a.4.4 0 0 0-.43-.14Z" class="cls-4" data-name="Path 187"/><path id="Path_188" d="M22.42 47.53c.39.4.96.57 1.5.45a1.62 1.62 0 0 0 1.32-.87c.22.17.6 2.06-1.03 2.28-.86.13-1.67-.46-1.79-1.33-.03-.18-.02-.36.01-.54Z" class="cls-4" data-name="Path 188"/><path id="Path_189" d="M25.78 44.36c-.07-.12-.16-.16-.33-.21.09-.1.16-.21.22-.33.1-.24.09-.51-.02-.74-.09-.2-.28-.22-.43-.25.04-.08.06-.17.08-.25.06-.19 0-.39-.13-.53-.19-.23-.81-.27-.88-.14-.23.33-.59.54-1 .59-.4.06-.81 0-1.17-.19-.31-.16-.42-.18-.61-.03-.23.22-.35.52-.34.83 0 .38.27.52.3.72.06.32-.14.49-.09.74.05.25.26.35.33.55s0 .34.02.6.28.43.34.57 0 .46.12.58c.14.16.29.19.59.23.61.11 1.24.04 1.81-.2.44-.14.82-.44 1.04-.84.07-.23.02-.49-.12-.68.14-.08.25-.21.3-.37.06-.22.05-.45-.04-.65Zm-1.62 1.23c-.08.07-.29.05-.33.06 0 .06.12.26.06.29-.03.04-.32.12-.4.04s-.07-.17-.08-.26a.58.58 0 0 1-.32 0 .468.468 0 0 1-.14-.46c.06-.08.19-.04.33-.07-.05-.1-.09-.25-.05-.31.05-.03.33-.09.39-.03s.06.2.1.28c.06 0 .29-.07.37 0 .06.07.18.38.09.47Z" class="cls-4" data-name="Path 189"/><path id="Path_190" d="M31.69 31.38c.09-.65.28-1.28.56-1.88.04-.09-.17-.29-.22-.3a26.14 26.14 0 0 0-7.31 3.02c-.61.4-.15 1.8.31 2.88 1.43 3.47 3.1 2.98 3.7 5.7.19.89.98 4.21 1.14 4.64.3.89 1.17 1.46 2.11 1.39-.31-4.35-.71-11.42-.28-15.44Zm-4.16 2.81c-.08.42-.51 1.37-.75 1.33-.3-.05-.54-1.14-.51-1.56 0-.27.06-.42.18-.43.09 0 .23.35.26.88H27c.11-.58.36-.79.45-.75.1.06.13.27.08.54Zm1.4-2.86c.06-.25.12-.36.23-.35.08.01.17.34.11.82l.26.05c.19-.5.45-.65.52-.61.09.07.08.26 0 .49-.14.36-.66 1.15-.86 1.08-.27-.09-.32-1.1-.24-1.48Zm1.38 5.11c-.15.44-.73 1.44-.97 1.37-.32-.09-.46-1.31-.4-1.77.05-.3.11-.44.25-.44.09 0 .23.4.2.98l.31.03c.19-.62.49-.82.59-.77.11.07.12.3.03.59Z" class="cls-4" data-name="Path 190"/><path id="Path_191" d="M48.9 32.32a25.583 25.583 0 0 0-7.61-3.08c-.06 0-.26.2-.22.3.27.58.45 1.2.55 1.84.42 4.02.02 11.09-.28 15.44.94.07 1.8-.5 2.11-1.39.17-.43.85-3.77 1.09-4.64.58-2.17 3.3-3.09 4.04-5.45.37-1.22.92-2.65.32-3.02Zm-5.69-1.08c.06-.05.36.1.54.61l.26-.05c-.06-.48.03-.81.11-.82.11 0 .18.1.23.35.08.38.04 1.4-.23 1.48-.19.08-.75-.71-.89-1.08-.1-.23-.1-.42 0-.49Zm.94 7.27c-.26.06-.86-.93-1-1.38-.09-.28-.08-.51.03-.6.09-.05.44.16.62.78l.3-.03c-.03-.58.1-.98.2-.99.13 0 .2.15.24.45.07.47-.08 1.67-.39 1.77Zm2.66-2.82c-.23.04-.67-.91-.74-1.32-.05-.27-.03-.48.08-.54.08-.03.35.18.46.76h.27c.04-.53.19-.88.28-.88.12.01.17.15.18.43.02.42-.22 1.51-.52 1.56Z" class="cls-4" data-name="Path 191"/></g><path id="Path_192" d="M39.58 24.45a1 1 0 0 0-.63-.93v-.15c.34-.04.68.03.97.19 0 .09 0 .17.02.26.47 1.13-.31 1.52-.31 2.35-.48-.34-1.05-.53-1.64-.55l-.46-1.16c.21-.05.43-.08.64-.09.47-.07.95-.04 1.41.08Z" class="cls-4" data-name="Path 192"/><path id="Path_193" d="M36.55 20.7c-1.2-.06-2.39.12-3.52.53-.21-.9-.53-1.77-.97-2.59-.08-.1-.31-.35-.36-.39s-.09-.15 0-.18c.11-.04.24-.05.36-.02.18.04.27.13.33.36l.06.03a.45.45 0 0 1 .03-.34c.04-.06.19-.14.4.07.08.09.15.2.18.32.05.12.08.24-.03.33a.31.31 0 0 1-.28-.02v.08c.22.29.57.44.93.39.5-.08.61-.36.58-.7l-.04-.03c-.04.05-.09.09-.15.11-.06.01-.23.02-.35-.23a.447.447 0 0 1-.05-.39c.05-.05.17-.09.4-.03 0-.02 0-.04.01-.07a.365.365 0 0 1-.3-.36c0-.1.06-.24.37-.3.33-.07.46.08.49.18a.44.44 0 0 1-.15.42c0 .02.04.04.05.05.04-.04.08-.07.13-.1.04-.03.09-.05.14-.05.1 0 .21.05.26.32.08.35-.13.42-.2.42-.08 0-.16-.02-.23-.05-.01 0-.02.02-.03.03.15.39.55.63.96.57.43 0 .77-.36.77-.79v-.05s-.03 0-.03-.02c-.06.08-.15.12-.25.13-.14 0-.25-.11-.3-.33-.05-.24.02-.38.14-.42.11-.04.22 0 .3.07l.04-.05a.441.441 0 0 1-.15-.32c.03-.13.17-.23.45-.23s.43.1.46.23c.02.1-.05.21-.15.32.01.01.02.03.03.05.08-.08.2-.11.31-.07.11.04.2.18.14.42-.04.21-.15.33-.3.33-.1 0-.19-.05-.24-.13l-.04.02c-.03.43.28.8.71.83h.05c.41.06.81-.18.96-.57 0-.01-.01-.02-.02-.03-.07.04-.16.06-.24.05-.06 0-.28-.06-.2-.42.06-.27.16-.32.27-.32.05 0 .1.02.14.05.04.03.07.05.13.1 0-.01.04-.03.05-.05a.42.42 0 0 1-.15-.42c.03-.1.15-.24.49-.18.31.05.36.2.37.3 0 .18-.13.33-.3.36 0 .02.01.04.02.06.22-.06.35-.02.39.03.05.13.04.27-.04.39-.12.25-.3.25-.36.23a.419.419 0 0 1-.16-.11c0 .01-.03.02-.03.03-.04.34.08.62.57.7.36.05.72-.1.94-.39v-.08c-.08.05-.18.06-.28.02-.11-.09-.07-.2-.03-.33.04-.12.1-.23.18-.32.21-.21.36-.14.4-.07.05.11.06.22.03.34.03 0 .05-.02.07-.03.01-.18.15-.33.33-.36a.82.82 0 0 1 .35.02c.09.03.05.13 0 .18s-.27.3-.35.39a9.91 9.91 0 0 0-.99 2.59 8.928 8.928 0 0 0-3.51-.53" class="cls-4" data-name="Path 193"/><path id="Path_194" d="M35.77 27.66c.33-.04.6-.47.6-.47h.31s.18.42.54.46c.91.05 1.8.24 2.65.56.3-.43.2-.96-.51-1.38-.66-.32-1.39-.47-2.12-.44-.68.69-1.4-.17-2.16.11.3-.31.65-.67.99-.67.11.07.23.13.36.18.27.06.55-.03.75-.22.06-.09-.35-2.6-.35-2.6.61-.35 1.3-.56 2-.63.44-.03.87.18 1.11.55.38-1.72-1.8-1.62-3.4-1.62-4.27 0-3.17.87-3.05 2.31 0 .41-.62.75 0 2.18.11.26.18.54.21.82-.52.26-.73.88-.48 1.4.8-.32 1.66-.51 2.52-.54m.49-4.45c-.13.65-.27 1.3-.27 1.3-.26-.08-.53-.12-.8-.12-.45-.03-.9-.02-1.35.01 0-.45.35-.82.8-.85v-.13l-.82-.19c.61-1.38 2.17-.19 2.44-.03Z" class="cls-4" data-name="Path 194"/><path id="Path_195" d="M39.58 28.67c-2.01-.4-4.09-.39-6.09.04-.36 1.5-.83 4.53-.11 5.48.73.49 1.63.65 2.49.44.28-.17.3-1.57.35-2.16.07-.9.1-1.02.18-1.02h.37c.15.1.12 2.91.5 3.16.92.3 1.92.14 2.7-.42.56-.8-.02-4.59-.39-5.52Zm-3.03 1.28c-.97 0-1.31-.29-1.31-.86.42.15.87.21 1.31.16.42.05.85 0 1.24-.16 0 .57-.32.86-1.24.86Z" class="cls-4" data-name="Path 195"/></g><path id="Path_196" d="M36.56 56.22c-2.83-.01-5.66.21-8.45.68-.63-1.59-1.48-3.09-2.54-4.43-.2-.21-.76-.78-.88-.88s-.23-.32 0-.38c.28-.09.58-.1.87-.05.42.03.76.37.81.79.02 0 .16.06.17.06a.954.954 0 0 1 .07-.74c.11-.13.49-.31.98.15.2.19.36.43.44.69.1.28.2.55-.06.73-.23.1-.49.08-.7-.05v.18c.58.66 1.44.99 2.3.88 1.21-.2 1.5-.82 1.41-1.56-.02-.02-.05-.04-.08-.06-.1.12-.23.2-.38.24a.838.838 0 0 1-.89-.54c-.23-.42-.19-.72-.09-.85s.4-.21.96-.07c0-.02.03-.1.04-.13-.62-.19-.76-.57-.74-.79s.15-.56.92-.67c.82-.15 1.13.19 1.2.41a.9.9 0 0 1-.37.9c.02.04.1.09.12.12.13-.1.2-.16.3-.22.11-.06.22-.1.35-.11.24 0 .51.09.65.7.18.77-.34.93-.49.93-.2 0-.39-.05-.57-.13-.03.02-.06.05-.08.08.42.89 1.37 1.41 2.35 1.27 1 .03 1.84-.75 1.87-1.75v-.11c-.03-.02-.06-.03-.09-.05-.15.17-.36.28-.59.28-.36 0-.63-.26-.75-.71-.15-.54.07-.83.35-.93.26-.07.55-.01.75.17.03-.03.06-.07.08-.11-.22-.23-.41-.48-.36-.72.07-.3.43-.51 1.11-.51.68 0 1.03.21 1.09.51.06.24-.12.49-.34.72.02.04.05.08.09.11.2-.18.48-.25.74-.17.27.1.49.39.35.93-.12.45-.4.71-.75.71-.22 0-.43-.11-.56-.28-.04 0-.07.02-.1.05-.04.99.73 1.82 1.72 1.86h.14c.98.14 1.93-.37 2.35-1.27a.27.27 0 0 0-.07-.08c-.18.09-.38.13-.58.13-.16 0-.67-.16-.49-.93.14-.6.4-.7.65-.7.13 0 .25.05.35.11.1.06.16.12.3.22.02-.03.1-.08.11-.12a.929.929 0 0 1-.36-.9c.07-.22.37-.55 1.21-.41.74.12.88.45.9.67s-.13.61-.72.79l.03.13c.55-.14.86-.06.99.07.1.13.13.44-.11.85-.14.36-.51.58-.89.54a.726.726 0 0 1-.37-.24l-.09.06c-.08.74.2 1.37 1.45 1.56.86.11 1.71-.22 2.27-.88v-.18c-.2.13-.46.14-.69.05-.26-.18-.15-.45-.06-.73.09-.26.24-.5.44-.69.5-.47.87-.29.98-.15.12.23.15.49.07.74.02 0 .15-.06.17-.06.05-.42.39-.75.82-.79.29-.05.58-.03.85.05.23.07.12.28.01.38s-.68.67-.87.88a17.017 17.017 0 0 0-2.55 4.43c-2.8-.46-5.63-.69-8.47-.68Z" class="cls-4" data-name="Path 196"/><g id="Group_10" data-name="Group 10"><path id="Path_197" d="M34.03 71.02c.21 0 .3-.13.43-.29l-.6-.03c0 .2.06.32.17.32Z" class="cls-4" data-name="Path 197"/><path id="Path_198" d="m34.17 64.97-.67-.03c0 .19.08.32.19.32.24 0 .34-.14.48-.28Z" class="cls-4" data-name="Path 198"/><path id="Path_199" d="M40.21 66.87s.1.01.15.01c.4.03.75-.28.78-.68v-.1a.769.769 0 0 0-.8-.73h-.03c-.95 0-.89 1.04-1.91 1.21.25-.02.38-.03.54-.03.7 0 1.03.08 1.27.31Z" class="cls-4" data-name="Path 199"/><path id="Path_200" d="M36.56 57.34c-2.76-.03-5.52.18-8.25.62.02.75.23 7.05.47 11.93.29 5.88 3.35 7.67 7.78 7.67 4.14 0 7.48-.94 7.8-7.67.24-4.88.44-11.17.47-11.93-2.74-.44-5.5-.64-8.27-.62Zm.78 1.41c.31 0 .37.19.37.28h.25c0-.1.05-.28.37-.28.39 0 .42.24.42.31 0 .44-.63.56-.85.72h-.12c-.22-.16-.85-.28-.85-.72 0-.08.02-.31.42-.31Zm-4.28.4c.13 0 .23 0 .29.01l-.16-.88h.11c.15.12.28.28.36.46h.07c.03-.15.09-.3.17-.44h.15c.06.16.1.31.14.46h.07c.08-.17.2-.33.35-.45h.13l-.13.7c.32 0 .97 1.04.97 1.94.32-.05 1.6-.12 1.73-.12-.86.02-1.57-.66-1.59-1.52 0-.09 0-.18.02-.26.12.02.17.03.26.03.37.03.67.31.72.68 0 .15-.09.28-.22.35 0 .21.34.49.97.49 1.38 0 1.26-1.52 3.04-1.52.65 0 1.52.25 1.52 1.33s-1.25 1.23-1.51 1.23c.2.17-.07.63.54.63s1.28-.19 1.51-.19c.48 0 .17.55.56.96.29.28.32.35.32.45 0 .14-.1.26-.22.31 0-.04.03-.12 0-.15h-.07c-.02 0-.13-.01-.2-.18-.13.03-.19.1-.19.14 0 .09.03.09.03.17 0 .15-.16.21-.21.23l-.03.06c0 .03.01.06.03.08-.12-.01-.21-.12-.21-.24 0-.07.03-.11.03-.17 0-.04-.03-.07-.07-.07-.03 0-.06.01-.08.03 0 .01-.03.25-.21.25-.06 0-.11-.01-.17-.03-.03 0-.06.05-.06.07v.08a.23.23 0 0 1-.11-.2c0-.23.19-.17.19-.28 0-.05-.05-.06-.09-.06a.34.34 0 0 1-.2.03c-.04 0-.08-.01-.12-.04-.05.05-.08.12-.08.19a.568.568 0 0 1-.07-.22c0-.16.19-.3.42-.3.11 0 .15.02.23.02.17-.02.31-.14.34-.31 0-.02 0-.03-.02-.04-.89.19-1.8.34-2.71.43-1.52 0-.32-1.9-1.55-1.9-1.16 0-1.5 1.28-2.78 1.28-.32 0-.63-.03-.94-.09-.02.4.03.56-.36.58-.29.02-1.24.09-2.87.09-.1.54-.25.62-.46.62a.53.53 0 0 1-.3-.09c.1-.02.23-.03.23-.07-.03 0-.09-.07-.09-.11s-.02-.08.08-.14a.292.292 0 0 0-.09-.02c-.21 0-.39.33-.65.33-.12 0-.22-.1-.22-.22-.05 0-.14.08-.2.15-.02-.2.06-.36.28-.37.16 0 .22-.03.22-.08 0-.02 0-.04-.01-.06-.07.01-.13.02-.2.02-.14 0-.24-.06-.24-.16 0-.02 0-.04-.03-.04-.07.01-.14.05-.18.11 0-.18.13-.33.31-.34.12-.02.25.02.34.1.02-.03.03-.06.03-.09 0-.1-.09-.12-.27-.19-.11-.03-.05-.17-.17-.17a.65.65 0 0 0-.23.09c.07-.22.26-.37.49-.39.42 0 .45.5 1.04.5.71 0 1.41-.06 2.11-.18a.78.78 0 0 1-.31-.57c.06-.29.17-.57.34-.83-.03 0-.08.01-.14.01-.11 0-.25-.02-.25-.22 0-.13.05-.25.14-.34h.2c0 .14.1.18.47.18s.48-.15.48-.36c0-.43-.2-.5-.59-.5-.29 0-.33.03-.33.13h-.16c-.11-.15-.19-.33-.21-.52 0-.18.11-.28.53-.28Zm3.38 4.77s-.08-.02-.12-.02c-.3-.01-.27.56-.7.26-.07.04-.05.13-.04.18a.219.219 0 0 1-.11-.27s0-.02.02-.03c.1-.12.33-.19.33-.24 0-.03 0-.05-.08-.06-.16 0-.31.27-.46.07l-.03-.06c-.06 0-.12.03-.17.08 0-.13.09-.25.21-.27.14-.04.35-.05.35-.11v-.05c-.08-.12-.28.07-.32-.12a.286.286 0 0 0-.23.08.4.4 0 0 1 .4-.33c.24-.03.52.22.81.26.1 0 .34.02.34.02h.32c.19 0 .13-.08.08-.34a.96.96 0 0 1 .38-1.05c.25-.15.55-.21.84-.15.09.09.14.22.15.35 0 .19.01.38.05.57a.64.64 0 0 0-.59.26c-.11.2.08.42.06.62s-.11.21-.25.23c-.07.01-.36.01-.74 0l.03.11c0 .14-.1.25-.23.29-.14.07-.29.09-.44.06.06 0 .12-.05.15-.1-.15-.15.01-.24.01-.24Zm.9.63c.31 0 .37.17.37.28h.25c0-.1.05-.28.37-.28.39 0 .42.23.42.31 0 .44-.63.57-.85.72h-.12c-.22-.15-.85-.28-.85-.72 0-.08.03-.31.42-.31Zm-4.87 3.41c-.13-.06-.25-.15-.35-.25-.34-.34-.46-.89-.71-1.22s-.43-.56-.48-.62c-.14.01-.27.02-.41.02a.472.472 0 0 1-.54-.37c.05.04.12.07.18.07.04-.08.08-.13.14-.13.11 0 .09.06.18.06h.06v-.05c0-.17-.15-.2-.29-.2a.29.29 0 0 1-.29-.29c0-.03 0-.05-.14-.05h-.12c.11-.11.27-.17.43-.17.21 0 .41.25.44.25.07 0 .07-.06.07-.12s-.11-.09-.2-.17a.166.166 0 0 1-.05-.12c0-.03 0-.06.03-.08-.06-.06-.11-.07-.24-.07.1-.07.21-.11.33-.11.23 0 .43.19.46.42.05 0 .09-.03.09-.07v-.11c0-.07.03-.14.1-.17 0-.07-.07-.1-.17-.13.06-.02.12-.04.18-.04.19 0 .33.15.33.34 0 .24-.13.41-.13.57.3.65.7 1.24 1.19 1.76-.14.25-.44.75-.11 1.05Zm-.8-2.78s.11-.05.16-.05c.48 0 .45.69 1.04.69.26 0 .26-.08.46-.08.1-.01.2.06.21.16v.02c0 .15-.13.22-.42.22-1.12 0-.85-.67-1.46-.96Zm.16-5.77c.48 0 .45.67 1.04.67.26 0 .26-.08.46-.08.11-.01.2.07.21.17v.03c0 .16-.13.21-.42.21-1.12 0-.85-.67-1.46-.96.05-.03.11-.04.16-.05Zm-1.69-.4c.21 0 .41.26.44.26.07 0 .07-.06.07-.11 0-.06-.11-.1-.2-.18a.185.185 0 0 1-.05-.12c0-.03.01-.05.03-.07-.06-.07-.11-.07-.24-.07.1-.07.21-.11.33-.13.24.01.43.19.46.43.05 0 .09-.03.09-.08V58.85c0-.07.03-.14.1-.17 0-.07-.07-.1-.17-.13.06-.03.12-.04.18-.04.18 0 .33.15.33.33 0 .24-.13.42-.13.57.3.65.7 1.24 1.19 1.76-.14.25-.44.74-.11 1.04-.13-.06-.25-.15-.35-.25-.34-.34-.46-.9-.71-1.22s-.43-.56-.48-.61c-.21.01-.28.01-.41.01a.473.473 0 0 1-.54-.36c.06.03.12.06.18.07.04-.08.08-.13.14-.13.11 0 .09.05.18.05h.06v-.05c0-.16-.15-.2-.29-.2a.29.29 0 0 1-.29-.29c0-.03 0-.05-.14-.05h-.12c.11-.11.27-.17.43-.17Zm-.5 1.62c.31 0 .36.19.36.28h.26c0-.09.05-.28.36-.28.4 0 .43.23.43.31 0 .44-.64.56-.87.71h-.11c-.22-.15-.86-.27-.86-.71 0-.07.02-.31.44-.31Zm-.43 6.03c0-.07.02-.31.44-.31.31 0 .36.18.36.28h.26c0-.1.05-.28.36-.28.4 0 .43.24.43.31 0 .44-.64.56-.87.71h-.11c-.22-.15-.86-.27-.86-.71Zm.7 2.37c.16 0 .22-.03.22-.08 0-.01 0-.05-.01-.06-.07 0-.14.01-.21 0-.13 0-.24-.05-.24-.15 0-.02 0-.04-.03-.04-.07.02-.13.06-.18.11 0-.18.12-.33.3-.34.12-.02.25.01.35.08.02-.02.02-.05.02-.08 0-.1-.08-.12-.26-.18-.11-.04-.05-.18-.17-.18-.08.01-.15.05-.22.09.06-.21.25-.36.47-.38.43 0 .46.5 1.04.5.63 0 1.27-.05 1.89-.18a.818.818 0 0 1-.31-.57c.06-.29.17-.57.34-.83l-.14.03c-.11 0-.25-.03-.25-.23 0-.13.05-.25.14-.34h.2c0 .13.1.18.47.18s.48-.15.48-.37c0-.42-.2-.5-.59-.5-.29 0-.33.04-.33.14h-.16c-.11-.16-.19-.34-.21-.54 0-.17.11-.27.52-.27.1 0 .2 0 .29.02l-.16-.87h.11c.16.12.28.28.36.45h.07c.03-.15.09-.3.17-.44h.15c.06.15.1.3.14.46h.07c.08-.17.2-.32.34-.44h.13l-.13.7c.32 0 .97 1.05.97 1.94.32-.06 1.6-.12 1.73-.12-.86.02-1.57-.66-1.6-1.52 0-.09 0-.18.02-.27.12.01.17.03.26.04.37.02.68.31.72.68 0 .15-.09.28-.22.35 0 .2.34.49.97.49 1.38 0 1.1-1.52 2.88-1.52.65 0 1.56.26 1.56 1.33s-1.13 1.22-1.4 1.22c.2.17-.18.9.43.81.5-.11.99-.24 1.47-.4.48-.06.24.53.69.87.32.24.36.32.37.4.03.14-.04.28-.17.34 0-.04.01-.12-.03-.15-.02.01-.03.02-.05.02-.04 0-.14 0-.22-.16-.13.06-.18.13-.17.18.02.09.05.08.06.17.02.15-.13.22-.18.24 0 .02-.01.05-.01.07 0 .03.02.05.04.07-.12 0-.22-.08-.24-.2v-.16c0-.04-.04-.07-.08-.08-.03 0-.06.02-.08.05 0 .01.01.24-.17.27-.08.02-.13-.01-.17 0s-.05.07-.05.08l.02.07a.298.298 0 0 1-.15-.18c-.03-.23.17-.2.15-.3 0-.05-.06-.06-.1-.05-.06.03-.12.05-.19.06-.04 0-.08 0-.12-.03-.05.06-.07.13-.07.2a.849.849 0 0 1-.09-.22c-.03-.15.15-.33.37-.36.11-.01.15 0 .24-.01.17-.04.29-.19.29-.36 0-.01-.01-.03-.02-.03-.87.26-1.77.43-2.67.51-1.52 0-.32-1.96-1.55-1.96-1.16 0-1.5 1.28-2.78 1.28-.32 0-.63-.04-.94-.1-.02.4.03.56-.36.58-.29.01-1.02.09-2.65.09-.09.54-.25.62-.46.62-.1 0-.21-.03-.29-.09.1-.01.23-.03.23-.07-.04 0-.09-.06-.09-.11-.01-.06.01-.12.07-.16h-.07c-.22 0-.39.34-.66.34-.12 0-.21-.11-.22-.23-.05 0-.14.08-.2.15-.03-.2.05-.36.28-.37Zm6.53.6s-.08-.02-.12-.02c-.3-.02-.27.55-.7.27-.07.04-.05.13-.04.16a.203.203 0 0 1-.11-.26c0-.01.01-.02.02-.03.1-.12.33-.19.33-.24 0-.03 0-.05-.08-.06-.16 0-.31.25-.46.07l-.03-.06c-.06 0-.12.03-.17.07 0-.13.09-.25.21-.28.14-.04.35-.05.35-.11v-.05c-.08-.12-.28.06-.32-.13-.09 0-.17.02-.23.09 0-.17.18-.32.4-.33.24-.02.52.22.81.26.1 0 .34.02.34.02h.32c.19 0 .13-.09.08-.34-.11-.4.04-.82.38-1.06.25-.15.55-.2.84-.14.09.09.14.21.15.34 0 .19.01.39.05.57a.619.619 0 0 0-.59.26c-.11.2.08.42.06.62s-.11.21-.25.23c-.25.02-.5.02-.74 0l.03.11c-.01.14-.11.25-.23.3-.14.06-.29.08-.44.06.06 0 .12-.05.15-.1-.16-.15.01-.23.01-.23Zm.9.67c.31 0 .37.18.37.29h.25c0-.11.05-.29.37-.29.39 0 .42.24.42.31 0 .45-.63.58-.85.72h-.12c-.22-.14-.85-.27-.85-.72 0-.07.02-.31.41-.31Zm-4.43 3.4c-.11-.06-.22-.14-.31-.22-.33-.33-.47-.88-.72-1.19s-.42-.53-.48-.58c-.12.02-.24.03-.36.04a.415.415 0 0 1-.5-.32c.05.03.11.05.17.06.03-.09.05-.14.1-.14.1 0 .04.03.13.03.03 0 .04-.03.04-.05 0-.11-.09-.19-.2-.18h-.01c-.15 0-.26-.12-.27-.27 0-.03 0-.05-.12-.04-.04 0-.08 0-.12.01.09-.12.23-.2.38-.21.15 0 .3.08.39.2.04 0 .05-.06.05-.12s-.11-.08-.16-.12c-.03-.03-.06-.07-.06-.11 0-.03 0-.06.03-.08a.234.234 0 0 0-.21-.05c.16-.12.22-.15.28-.15.24 0 .43.19.45.42.06 0 .08-.04.08-.11s0-.02-.01-.1.02-.15.07-.17c-.01-.08-.06-.1-.15-.12.05-.02.1-.04.15-.05.18 0 .32.14.33.32.02.24-.1.43-.09.59.3.62.7 1.18 1.18 1.68-.11.26-.33.75-.05 1.05Zm-.84-2.75s.1-.04.16-.04c.44 0 .43.65.99.65.25 0 .25-.08.44-.08.1-.01.19.06.2.16v.02c0 .13-.13.2-.4.2-1.06 0-.8-.62-1.39-.9Zm-2.41 1.61c0-.07.03-.31.43-.31.33 0 .37.18.37.29h.25c0-.11.05-.29.36-.29.41 0 .44.24.44.31 0 .44-.64.57-.86.72h-.12c-.21-.15-.87-.28-.87-.71Zm8.12 1.83c-.11.2.09.54.13.74s-.05.23-.17.28c-.21.07-.42.13-.64.18.07.08.1.18.1.28 0 .23-.32.26-.47.28.05-.03.09-.08.1-.14-.18-.1-.04-.22-.04-.22-.04 0-.08 0-.12.02-.29.05-.11.59-.58.42-.06.06-.02.13 0 .17a.195.195 0 0 1-.16-.23v-.03c.05-.13.25-.26.24-.31s-.02-.06-.09-.04c-.15.04-.2.32-.39.18l-.04-.05c-.06.01-.12.06-.15.12-.04-.13.02-.26.14-.32.12-.08.31-.13.3-.19 0-.01 0-.03-.02-.04-.09-.1-.23.12-.33-.04a.27.27 0 0 0-.2.14c-.04-.16.09-.34.32-.42.19-.07.52.08.79.04.1-.01.28-.06.28-.06.1-.03.13-.03.22-.06.17-.04.1-.12-.02-.34-.13-.51.03-1.04.4-1.41.22-.15.5-.2.76-.14.08.1.12.22.13.35 0 .19.02.39.05.58a.594.594 0 0 0-.55.26Zm4.83.49s0-.12-.04-.14c-.01.01-.03.02-.05.03-.06.03-.13 0-.2-.11-.11.07-.13.14-.13.19.03.08.04.05.06.14.02.11-.03.22-.13.27v.07s.03.06.05.06a.238.238 0 0 1-.25-.16c0-.05-.01-.1-.02-.14-.01-.05-.04-.05-.08-.05s-.07 0-.07.03c.02.07.04.24-.12.28-.05 0-.1.01-.15 0-.03.01-.03.06-.03.09l.02.06a.212.212 0 0 1-.14-.15c-.07-.18.12-.25.12-.36 0-.02-.05-.03-.1-.03-.05.06-.12.1-.19.12-.04.02-.08 0-.11-.02a.34.34 0 0 0-.03.2.564.564 0 0 1-.11-.2c-.04-.15.09-.33.28-.39.1-.03.14-.02.2-.04.15-.07.24-.24.21-.4 0-.01-.01-.03-.02-.04-.71.43-1.5.71-2.32.84-1.29 0-.23-2.19-1.33-2.19-1.04 0-1.35 1.27-2.51 1.27-.28 0-.56-.04-.84-.1-.01.4.03.57-.33.58-.68.08-1.37.12-2.05.1-.09.53-.2.6-.4.6a.4.4 0 0 1-.23-.08c.1-.02.22-.03.22-.08a.109.109 0 0 1-.09-.11c0-.03 0-.08.08-.13a.292.292 0 0 0-.09-.02c-.21 0-.36.33-.62.33-.11 0-.21-.1-.21-.21-.06 0-.14.07-.21.14-.02-.19.06-.34.28-.35.16 0 .22-.02.22-.08 0-.02 0-.04-.01-.05-.06.01-.13.01-.19.01-.14 0-.24-.05-.24-.15 0-.02 0-.04-.03-.04-.07.01-.13.05-.17.11 0-.17.12-.32.3-.33a.4.4 0 0 1 .33.1c.02-.03.02-.07.02-.1 0-.09-.08-.11-.25-.18-.1-.03-.05-.17-.17-.17-.07 0-.16.07-.22.09.07-.21.25-.36.47-.37.41 0 .39.47.95.47.46 0 .91-.06 1.34-.2a.785.785 0 0 1-.28-.57c.05-.29.16-.57.32-.82-.05.01-.1.02-.15.02-.11 0-.25-.03-.25-.23 0-.13.05-.25.15-.34h.2c0 .13.09.18.43.18s.42-.15.42-.36c0-.43-.15-.5-.53-.5-.29 0-.32.04-.32.14h-.18c-.11-.16-.19-.34-.21-.53 0-.18.11-.28.53-.28.1 0 .2 0 .29.02l-.13-.87h.09c.14.12.25.28.32.46h.07c.03-.15.08-.3.15-.44h.13c.05.15.1.3.13.46h.07c.07-.17.17-.32.3-.44h.13l-.13.71c.29 0 .88 1.05.88 1.94.28-.06 1.44-.12 1.56-.12-.83-.1-1.43-.52-1.43-1.8.07.02.15.04.23.05.35.04.63.33.66.69 0 .14-.08.27-.2.35 0 .2.31.49.87.49 1.24 0 1.32-1.37 2.76-1.37.63-.07 1.19.38 1.26 1.01v.19c0 .96-1.05 1.2-1.28 1.2.17.16-.34 1.05.19.9.43-.17.85-.37 1.26-.59.42-.13.29.49.74.77.31.2.35.26.38.35.05.13 0 .28-.1.37Zm.12-1.61h-.12c-.21-.15-.85-.28-.85-.72 0-.07.03-.31.43-.31.31 0 .36.18.36.29h.26c0-.11.05-.29.36-.29.45 0 .47.24.47.31 0 .44-.68.57-.9.72Zm.34-5.92h-.13c-.21-.15-.85-.27-.85-.71 0-.07.03-.31.43-.31.31 0 .36.18.36.28h.25c0-.1.05-.28.39-.28.41 0 .44.24.44.31 0 .45-.67.57-.89.72Zm.08-5.72h-.12c-.21-.15-.85-.27-.85-.71 0-.08.03-.31.42-.31.32 0 .37.19.37.28h.25c0-.09.04-.28.4-.28.4 0 .43.23.43.31 0 .45-.68.57-.9.71Z" class="cls-4" data-name="Path 200"/><path id="Path_201" d="M40.82 71.88a.626.626 0 0 0-.6-.65h-.06c-.78 0-.98.94-1.89 1.11.16-.02.32-.03.49-.03.63 0 .93.08 1.14.32h.13c.43.01.78-.32.8-.75Z" class="cls-4" data-name="Path 201"/><path id="Path_202" d="M40.21 61.14h.15c.45.04.84-.29.88-.74v-.03c0-.41-.31-.74-.72-.75h-.06c-.91 0-1.04 1.07-2.07 1.23.18-.02.36-.03.54-.03.71 0 1.03.08 1.27.31Z" class="cls-4" data-name="Path 202"/><path id="Path_203" d="M33.69 59.52c.2 0 .37-.11.48-.28l-.67-.04c0 .2.08.32.19.32Z" class="cls-4" data-name="Path 203"/></g><path id="Path_204" d="M55.03 42.59c.32-.03.6.19.64.51v.15c0 .66-.28.88-.59.88a.861.861 0 0 1-.93-.78v-.08c0-.6.71-.69.89-.69Z" class="cls-4" data-name="Path 204"/><path id="Path_205" d="M51.5 42.85c.28.04.53.21.68.46.07-.24.3-.41.55-.4.4 0 .58.32.77.73.17.46.55.8 1.02.92 0 .72-.21 1.16-.84 1.16-.19 0-.38-.03-.56-.09-.14.26-.41.42-.71.4-.29-.03-.55-.16-.75-.37-.17.22-.43.34-.71.34-.29-.04-.55-.2-.72-.45-.15.06-.3.1-.46.11-.51 0-.8-1.04-.8-1.33-.01-.3.22-.55.51-.56h.04c.11 0 .23.04.33.08-.07-.31.13-.61.43-.67.03 0 .06-.01.09-.01.2 0 .4.08.55.22.07-.26.19-.54.58-.54Z" class="cls-4" data-name="Path 205"/><path id="Path_206" d="M51.4 38.64a3.257 3.257 0 0 0-2.91 3.06c-.01.42.03.84.13 1.24.07-.07.17-.1.27-.1.2.02.39.13.5.3.04-.28.09-.66.6-.66.19 0 .37.07.5.21.09-.34.4-.58.75-.58.33.02.63.22.79.51.02-.28.26-.5.54-.48h.03c.57 0 .76.37.99.78 0-.58.77-.79 1.37-.79h.2c.13-1.59-.92-3.04-2.47-3.41.34-2.71.16-2.93.1-3a.543.543 0 0 0-.33-.16l.02-.39c.26-.04.45-.26.45-.52.01-.16-.17-1.46-.17-1.48 0-.14.09-.26.23-.24.05 0 1.24.49 1.4.5.34-.03.59-.34.56-.68a.655.655 0 0 0-.47-.55c-.15 0-1.18.26-1.46.28a.256.256 0 0 1-.22-.28c0-.01.4-1.27.42-1.43 0-.28-.21-.51-.49-.51h-.1a.48.48 0 0 0-.62.31c-.01.03-.02.06-.02.1-.01.16.2 1.47.2 1.49 0 .14-.12.24-.25.24-.27-.06-1.26-.49-1.4-.49-.34.03-.6.33-.57.68.02.26.21.48.47.55.17.01 1.41-.29 1.47-.29.14 0 .2.13.18.27 0 .02-.38 1.27-.4 1.43-.03.26.13.5.37.59l-.03.39c-.13 0-.25.03-.35.11-.06.06-.21.26-.28 3.01Z" class="cls-4" data-name="Path 206"/></g></g></g></g></g></g></g></svg>