<svg xmlns="http://www.w3.org/2000/svg" width="27" height="40"><path fill="#901a1e" d="M26.504 11.566c0 5.403-4.41 9.813-9.832 9.813-5.45 0-9.836-4.387-9.836-9.813 0-5.421 4.387-9.812 9.836-9.812 5.422 0 9.832 4.39 9.832 9.812M9.34 25.867a4.641 4.641 0 0 1-4.656 4.637C2.105 30.504 0 28.434 0 25.867c0-2.562 2.105-4.633 4.684-4.633 2.574-.027 4.656 2.07 4.656 4.633m9.758 9.961a2.426 2.426 0 0 1-2.426 2.418 2.427 2.427 0 0 1-2.43-2.418 2.424 2.424 0 0 1 2.43-2.414c1.336-.027 2.426 1.059 2.426 2.414"/><path fill="#fff" d="M15.184 20.297Zm0 0Zm7.851-9.149v-.05c0-.075.027-.098.125-.121h.149c0 .023.023.195.023.222h.078c0-.027-.027-.199-.027-.222.027 0 .222-.024.25-.024.023 0 .047 0 .047.047v.172c0 .125-.121.148-.172.148-.024.028 0 .051.023.075.074 0 .176-.024.25-.024 0-.297-.027-.469-.05-.715h-.075v.024c0 .074-.05.097-.148.097-.074 0-.2.028-.324.028-.149.023-.149 0-.172-.075v-.027h-.075c.024.125.024.274.051.395 0 .074.024.074.047.05m-11.047 4.66.028.024c.046.05.046.102-.028.172-.023.027-.097.074-.125.101-.023-.027-.12-.148-.148-.171-.024 0-.047.023-.074.046.027.024.125.149.148.172l-.172.176c-.023.024-.023.024-.05 0l-.122-.125c-.074-.098 0-.2.047-.223a.05.05 0 0 0-.047-.046l-.175.171c.199.223.296.344.472.516a.05.05 0 0 0 .047-.047l-.023-.027c-.051-.074 0-.098.05-.172l.223-.223c.098-.097.125-.097.172-.047l.027.024c.024 0 .047-.024.047-.05-.098-.099-.172-.196-.27-.294 0-.027-.027 0-.027.024m11.098-3.676c.246-.07.297-.07.496-.121.074-.024.098-.024.098.05v.024c.027.023.05.023.074 0 0-.125.027-.246.027-.395-.027-.023-.05-.023-.074 0v.051c-.027.047-.027.07-.125.098-.05.023-.621.148-.645.148-.023 0 0 0 0 .024 0 0 .024.097.024.148.2.098.45.223.57.297.102.047.125.098.125.121v.05c.024.024.051.024.074 0 .024-.073.024-.245.051-.32-.027-.027-.05-.027-.074 0v.047c0 .051-.027.051-.102.028-.195-.102-.37-.176-.52-.25M21.5 7.5c0-.023.027-.05.05-.05l.052.05c.046.047.074.047.171-.023.075-.051.2-.176.247-.2.05-.05.125-.097.074-.148 0-.024-.024-.024-.024-.047 0-.027.024-.05.051-.05.098.097.195.245.246.32 0 .023-.023.05-.05.05 0-.027-.024-.027-.024-.027-.05-.047-.125-.023-.172.027-.101.075-.2.172-.273.196-.098.074-.125.097-.075.172l.024.05c0 .024-.024.051-.047.024-.074-.121-.176-.246-.25-.344M10.727 9.496c-.028 0-.051 0-.075-.023 0-.028 0-.051.024-.051 0-.074 0-.098-.125-.149a3.863 3.863 0 0 1-.297-.12c-.074-.028-.149-.075-.172.023 0 .023-.023.023-.023.05-.028 0-.051 0-.075-.027.047-.144.098-.293.149-.367.023 0 .047 0 .047.023 0 .024 0 .024-.024.051-.023.074.051.098.125.149.121.047.246.097.32.12.098.052.149.052.172-.023l.028-.05c.023 0 .047 0 .047.023-.024.074-.098.273-.121.371m11.32-1.23c0-.028.023-.051.047-.051l.027.023c0 .028.024.051.074.028.047-.028.075-.051.098-.051-.023-.05-.125-.2-.2-.32 0-.024.028-.051.028-.075.024 0 .742.098.793.098.023.023 0 .074 0 .098-.027 0-.644-.098-.695-.098.05.074.125.2.148.223a1.18 1.18 0 0 1 .176-.098h.023l.098.098v.023c-.047.027-.172.102-.195.102a.342.342 0 0 1 .047.097c0 .024-.047.047-.075.047 0 0-.046-.074-.046-.098-.028 0-.079.051-.102.051-.05.024 0 .075 0 .075 0 .023.023.023.023.046 0 .028-.046.028-.046.028-.075-.028-.149-.125-.223-.246m.297.738c-.028-.024-.028-.074 0-.098.023 0 .742.024.793.024-.028-.075-.075-.223-.102-.27-.023-.05-.074-.05-.098-.074h-.05c-.024 0-.024-.05 0-.074.05 0 .199-.028.222-.028 0 .028.028.051.028.075 0 .027.12.273.12.32a.39.39 0 0 1 .052.125c0 .023-.024.023-.024.05-.05-.027-.101-.027-.125-.027-.023 0-.742-.023-.816-.023m-10.48-1.356c0 .024-.048.047-.098.047-.024-.023-.32-.64-.348-.715-.047.075-.148.172-.195.223-.028.05-.028.074 0 .125 0 .024 0 .024.023.024 0 .023-.023.05-.05.05-.024-.027-.122-.175-.15-.199.028-.023.052-.05.052-.074.023-.024.199-.223.222-.27.024-.027.075-.074.075-.101h.05c0 .05.024.101.047.125.028.023.348.691.371.765M22.59 9.645c0-.024.05-.051.074-.024.05.074.102.172.223.246.125.074.222.074.37.047.153-.023.274-.121.227-.246-.05-.121-.152-.074-.199-.074-.148.05-.148.148-.101.222 0 .024-.024.051-.047.024-.028-.024-.075-.047-.075-.145-.027-.148.098-.25.149-.273.2-.047.32.05.348.172.046.176 0 .37-.274.422-.297.097-.594-.102-.695-.371m.547 4.683s-.028.027-.028.05c-.023.024-.047.052-.148 0l-.344-.148c-.101-.05-.101-.05-.101-.125v-.023c0-.023-.047-.023-.075-.023l-.074.171-.074.149c-.098.172-.148.418.125.59.223.148.445.074.617-.27.074-.125.102-.222.149-.32 0-.05-.047-.05-.047-.05m-.149.273c0 .023 0 .023-.027.046-.098.2-.246.274-.445.172-.149-.07-.2-.172-.2-.246 0-.047 0-.12.028-.172.023-.047.05-.074.074-.074.023 0 .074 0 .125.027 0 0 .395.196.418.196.027.023.027.023.027.05m-1.363 1.7c.023.027.023.05.023.074 0 .023 0 .098-.046.125l-.075.074s-.273-.273-.324-.347c-.098-.098-.098-.122-.05-.172l.027-.024c0-.027-.028-.05-.051-.05-.074.074-.2.199-.274.246 0 .027.028.05.051.05l.024-.023c.05-.05.101-.027.175.074.047.047.32.344.32.344l-.097.098c-.05.05-.101.023-.125 0-.023 0-.023-.024-.05-.047a.05.05 0 0 0-.048.047c.024.023.122.125.149.171.223-.195.348-.32.543-.515l-.098-.172c-.05 0-.074.023-.074.047m.125-1.035c0 .023.047.05.047.05l.027-.027c.047-.047.047-.023.098.05.023.052.05.075.05.075-.027.024-.148.195-.175.223-.024 0-.024-.028-.098-.028-.05-.023-.097-.023-.074-.07 0-.027.023-.027.023-.027a.05.05 0 0 0-.046-.047c-.028.047-.125.12-.223.246a.05.05 0 0 0 .047.047l.027-.024c.047-.05.121-.023.172 0 .05.024.617.2.645.2h.023s.023-.075.023-.102a8.132 8.132 0 0 1-.32-.543c-.074-.121-.05-.144-.05-.172 0-.023.027-.023.027-.023 0-.024-.028-.051-.051-.024-.05 0-.172.172-.172.196m.418.492-.32-.098.148-.195Zm-12.36-4.043c-.023 0-.05-.024-.074-.024-.05-.023-.074-.074-.074-.148v-.098h.473c.12 0 .148.024.172.075v.023h.074v-.371c-.024-.024-.05-.024-.074 0v.05c-.024.075-.051.075-.172.075H9.66v-.149c0-.074.074-.097.074-.097h.075c.023-.028 0-.051 0-.074h-.223c-.024.296-.024.468-.024.765.024 0 .196.047.196.047.05-.023.05-.047.05-.074m.622.64c-.028-.023-.051 0-.075 0v.028c0 .047-.027.047-.101.023-.047-.023-.074-.023-.098-.023 0-.051-.023-.25-.023-.297.023-.024.023-.024.097-.05.051-.024.098-.048.098.027v.023c.027.023.05 0 .074 0 0-.05-.023-.172-.023-.344-.024-.027-.05 0-.074 0v.047c0 .074-.075.098-.125.125-.047.024-.594.27-.594.293-.024 0-.024 0 0 .027 0 0 .05.075.05.098.048 0 .497.148.618.172.125.05.125.074.148.098v.027c.028.023.051 0 .075-.027 0-.024-.047-.22-.047-.247m-.645-.074.297-.148.023.25Zm1.758 2.813a.508.508 0 0 0-.297-.2.396.396 0 0 0-.32.075.509.509 0 0 0-.2.273c-.027.121 0 .223.075.344a.45.45 0 0 0 .617.148.41.41 0 0 0 .176-.27c.074-.124.023-.25-.051-.37m-.223.492c-.097.074-.172.098-.273.074-.047 0-.121-.05-.149-.098-.05-.05-.05-.124-.05-.171a.392.392 0 0 1 .199-.246c.176-.125.324-.102.422.023.125.148 0 .32-.149.418m1.684 1.035c0 .027-.024.05-.05.05 0 0-.024 0-.024-.023-.051-.027-.098-.027-.172.075a2.922 2.922 0 0 1-.2.246c-.05.074-.097.12-.023.172l.024.023c0 .023-.024.05-.051.05-.121-.097-.32-.245-.543-.421.023-.047.098-.121.125-.172.023 0 .047.027.074.05 0 .024-.027.052-.027.075 0 .024-.024.074.027.121.047.051.121.102.149.125.023.024.046 0 .046 0 .028-.023.125-.172.149-.199-.024-.023-.172-.121-.172-.145 0-.027.023-.05.05-.05.024.023.15.125.173.148 0 0 .097-.098.097-.125.074-.098.051-.121 0-.172-.023-.023-.047-.05-.074-.05-.047-.047-.098-.047-.172 0-.023.027-.023.027-.05.027-.024 0-.047-.028-.047-.051.023-.023.148-.121.171-.148.149.125.32.273.52.394m-2.379-3.105c0-.024.05-.024.074-.024.051.121.074.195.102.293 0 .027-.028.05-.074.027 0-.027 0-.027-.028-.027-.023-.047-.023-.074-.172-.047-.074.024-.32.047-.37.075-.075.023-.15.046-.126.12v.028c0 .023-.047.023-.074.023a1.466 1.466 0 0 1-.098-.296c.051 0 .075-.024.125-.075.075-.074.27-.222.344-.297a4.25 4.25 0 0 0-.445-.07c-.051 0-.125-.027-.172 0-.027-.05-.05-.2-.074-.297 0-.027.047-.027.074 0v.024c.023.05.023.074.121.05.102-.027.273-.101.375-.125.098-.046.148-.074.148-.12v-.051c0-.024.047-.024.075-.024.023.172.047.27.074.367 0 .028-.05.028-.074.028v-.028c-.028-.047-.028-.074-.149-.047-.101.047-.347.122-.422.149.098.023.348.047.47.074.148.024.175.024.222.024.027 0 .027.023.027.046-.027 0-.101.075-.176.149-.097.074-.297.273-.343.297.097-.024.32-.075.394-.075.098-.023.172-.046.149-.097m12.238-.79c.023-.023.047 0 .074 0v.052c0 .046.023.097.148.12.098.024.223.051.32.075.102.023.15.05.177-.024v-.05h.074c0 .05-.051.172-.051.246v.05c-.023 0-.023 0-.074.024-.024 0-.547.273-.621.297.05.023.273.098.324.12.098.028.148.052.172-.023 0 0 0-.023.027-.046.024 0 .047 0 .074.023-.027.098-.074.223-.101.32-.024 0-.051 0-.074-.023v-.027c.023-.047 0-.075-.125-.121a6.886 6.886 0 0 1-.543-.2s-.024-.023 0-.047c.125-.05.77-.394.816-.394a1.686 1.686 0 0 0-.395-.074c-.125-.028-.148-.028-.175.047 0 .027 0 .027-.024.05-.023 0-.05 0-.074-.023 0-.149.05-.32.05-.371M9.66 10.559c.024 0 .098.023.172.046l.45.297c.073.051.073.075.073.098v.05c.024.024.047.024.075 0 0-.027.023-.171.023-.273 0-.023-.05-.023-.074 0v.051c0 .024-.024.024-.074 0a1.12 1.12 0 0 0-.172-.098c0-.027.023-.222.023-.246h.149c.074.024.074.075.074.075v.046c0 .024.05.024.074 0 .024-.222.074-.37.125-.617a.455.455 0 0 0-.2-.097c-.023 0-.05.05-.023.074.024 0 .024.023.047.023.075.051.075.102.075.149 0 .05 0 .05-.024.097-.023.075-.05.075-.125.075h-.172l.024-.22c-.024 0-.047-.027-.075 0l-.023.22c-.023 0-.223-.024-.273-.024-.024 0-.024-.023-.024-.023 0-.028 0-.075.024-.149.023-.097.074-.097.101-.097h.074c.024-.028.024-.075 0-.075h-.199a5.51 5.51 0 0 0-.101.442c-.024.074-.024.101-.024.176-.023 0-.023 0 0 0m.074-.102.024-.023c.05 0 .273.023.3.023 0 .05-.027.172-.027.223-.074-.051-.273-.172-.297-.196v-.027m11.024 6.855c-.024-.023-.051-.074-.074-.171 0-.024-.075-.446-.098-.52 0-.074 0-.098.023-.121l.024-.027a.05.05 0 0 0-.047-.047 9.02 9.02 0 0 1-.223.172c-.027.023.024.05.047.05.027 0 .027-.027.05-.027.024 0 .052 0 .052.05 0 .024.023.15.023.173-.023.023-.2.125-.2.148 0 0-.073-.074-.097-.125-.05-.074 0-.097.024-.12l.027-.024c0-.028-.027-.051-.05-.051-.177.121-.325.195-.548.344.028.101.075.172.075.222.027.024.074 0 .074-.023v-.05c-.024-.075.027-.122.074-.15.027-.023.05-.023.102-.046.047-.051.097 0 .148.047.023.05.098.101.098.125-.024.023-.149.097-.172.12 0 .028.023.052.047.052.027-.024.152-.098.199-.125.027.027.148.175.176.222.023.027 0 .027-.028.027-.023 0-.074.047-.12.07-.075.052-.126.028-.153 0a.05.05 0 0 1-.047-.046c-.05 0-.05.023-.05.047a.61.61 0 0 0 .124.148c.172-.097.274-.148.395-.246.027-.023.05-.047.125-.098 0 .024 0 0 0 0m-.149 0s-.023 0-.023-.023a2.181 2.181 0 0 1-.2-.246c.052-.027.15-.102.173-.125.027.074.05.32.074.344l-.024.05m-10.18-2.59c.15-.074.372-.195.419-.222.101-.047.125-.07.101-.145 0 0 0-.027-.023-.05 0-.024.047-.024.074-.024.047.098.121.246.172.32 0 .024-.05.047-.074.047l-.024-.023c-.05-.05-.074-.05-.176 0-.074.05-.246.125-.296.148-.125.075-.125.075-.098.149 0 .023 0 .023.023.023 0 .024-.05.024-.05.024-.075-.121-.172-.293-.172-.32-.024-.024-.024-.075-.051-.098-.047-.098-.047-.246.101-.297.098-.047.196 0 .247.074a.811.811 0 0 0 .125-.246c.023-.074.046-.098.023-.172v-.023c0-.028.05-.028.05-.028 0 .028.048.125.075.2a8.66 8.66 0 0 1-.2.418h-.023c-.027-.047-.05-.098-.125-.098-.05 0-.097.023-.125.023-.023.028-.074.051-.074.098-.023.05 0 .102 0 .125 0 .023.027.05.05.074.052 0 .052.024.052.024m2.824 2.91c.074-.149.195-.371.223-.418.046-.098.074-.149 0-.172l-.028-.027c0-.024.028-.047.028-.047.097.047.246.12.32.172 0 .023-.024.047-.024.074-.027 0-.027 0-.027-.027-.074-.024-.074 0-.148.101-.047.074-.121.246-.149.293-.074.125-.074.148 0 .176 0 0 .028 0 .028.023 0 .024-.028.051-.028.051-.12-.074-.297-.148-.32-.176a.188.188 0 0 0-.098-.047c-.078-.05-.176-.172-.078-.32.078-.102.152-.102.25-.074 0-.074 0-.172-.023-.274-.051-.12-.051-.148-.102-.171l-.023-.024c0-.023.023-.05.05-.05.024 0 .098.074.172.124.024.098.051.418.075.47 0 0-.024 0-.024.023-.05-.024-.101-.051-.148-.024-.051.023-.075.047-.075.098-.027.023-.027.074-.027.12 0 .052.05.075.074.102.028.024.051.024.075.047 0-.023 0-.023.027-.023M10.949 8.93c0-.024.125-.246-.05-.395-.149-.125-.297.024-.372.223-.05-.051-.246-.223-.273-.274 0-.023.125-.367.125-.394a.19.19 0 0 1 .098.101 2.231 2.231 0 0 0-.098.32l.074.075a.398.398 0 0 1 .297-.25c.273 0 .422.273.273.617 0 .027-.05.027-.074-.023m-.273-1.012c0-.023-.051-.148.023-.27a.381.381 0 0 1 .149-.125c.05 0 .199.051.175.223.051-.074.125-.098.172-.074.028 0 .2.023.25.297.024.172-.074.343-.148.367-.074.027-.149-.07-.074-.121.023-.024.074 0 .12-.024.028-.05.052-.199-.046-.273-.05-.047-.176-.098-.25 0-.024.023-.024.074-.024.148-.023.051-.097.024-.097 0 0-.05.047-.171.023-.27-.023-.073-.101-.124-.176-.05-.046.05-.023.149-.023.195 0-.023-.05-.023-.074-.023m9.289-3.426a.16.16 0 0 1 .05-.097c.024 0 .047.023.075.023.098.023.148.023.246-.172.074-.125.2-.371.25-.469.047-.097.121-.222 0-.297-.027 0-.027-.023-.05-.023-.024-.027.023-.102.05-.102.223.102.418.2.543.274a.466.466 0 0 1-.074.121c-.024-.023-.051-.023-.051-.023-.121-.047-.172.05-.246.171-.098.172-.2.372-.246.47-.102.171-.102.222 0 .296.023.024.047.024.047.05a.188.188 0 0 1-.047.098 4.18 4.18 0 0 0-.547-.32m2.254 1.578c0-.027.05-.074.074-.074l.05.047c.098.074.126.074.298-.07a4.91 4.91 0 0 1 .394-.371c.074-.075.2-.149.102-.274-.028-.023-.028-.023-.028-.047 0-.027.051-.074.075-.074.175.172.324.344.421.441 0 .028-.046.075-.074.075l-.023-.024c-.098-.097-.176-.023-.274.074-.148.125-.32.27-.394.344-.149.125-.176.176-.102.274 0 .023.028.046.051.046 0 .028-.05.075-.074.075-.172-.098-.371-.32-.496-.442m.62 10.207c.024 0 .075.051.099.075-.024.023-.024.046-.024.046-.05.102-.05.125.121.274.125.098.324.27.399.344.074.074.171.172.273.074l.047-.047c.027 0 .074.023.074.074a4.98 4.98 0 0 1-.394.465c-.024 0-.075-.047-.075-.074.024-.024.024-.024.024-.047.074-.125 0-.172-.125-.273a6.702 6.702 0 0 1-.395-.344c-.148-.121-.199-.149-.273-.074-.024 0-.024.023-.047.05-.027 0-.074-.05-.074-.074.074-.125.27-.348.37-.469m-6.07 3.008c.024.024.024.074 0 .098h-.074c-.097.027-.148.027-.148.273v.516c0 .098-.024.246.125.273h.047c.027.024.027.075 0 .098-.246 0-.469 0-.617-.023a.073.073 0 0 1 0-.102h.05c.121 0 .121-.121.149-.246 0-.195.023-.418.023-.516 0-.199 0-.246-.125-.273h-.074c-.023-.024 0-.074 0-.098.176 0 .473.024.645 0m-4.98-1.703c0 .027-.048.074-.075.074-.024-.023-.047-.023-.047-.047-.102-.05-.125-.05-.273.121-.098.125-.274.32-.348.395-.074.074-.172.172-.074.273l.05.047c0 .028-.05.075-.074.075a36.417 36.417 0 0 0-.472-.395c0-.023.05-.074.074-.074.027.027.027.027.05.027.098.074.172 0 .274-.101.125-.145.273-.32.348-.395.12-.145.148-.195.074-.27l-.05-.05c0-.024.05-.075.073-.075.125.102.348.274.47.395m-2.5-8.504c-.024 0-.075 0-.099-.023 0-.028 0-.051.024-.075.023-.125 0-.148-.2-.222-.148-.051-.394-.149-.495-.172-.098-.027-.223-.102-.27.023 0 .024-.027.024-.027.051-.024.024-.098 0-.098-.027.074-.223.148-.442.223-.567.023-.023.074 0 .097.051 0 .024-.023.047-.023.047-.024.125.074.172.2.223.171.074.394.148.495.199.172.074.223.074.297-.027 0-.024.024-.047.024-.075.023 0 .074.028.097.051-.098.098-.195.395-.246.543m14.168-1.355c-.2-.348-.445-.715-.57-.84 0-.024.05-.074.074-.074l.05.05c.075.075.126.075.298-.05.125-.075.347-.247.445-.297.101-.074.223-.121.148-.246 0-.024-.023-.024-.023-.047 0-.028.05-.074.074-.074.149.195.274.367.348.492 0 .023-.051.074-.074.074-.028-.024-.028-.024-.028-.05-.074-.098-.195-.024-.297.05l-.445.297c-.148.097-.2.12-.148.219 0 .027.023.074.074.125.027.05.074.125.125.148.05.023.148.023.172.023.027 0 .074-.023.101-.023.024 0 .047.047.047.098-.074.023-.195.074-.371.125m.594 1.28a7.782 7.782 0 0 0-.395-.937.197.197 0 0 1 .098-.05c0 .027.027.05.027.05.047.098.098.098.297 0a4.45 4.45 0 0 0 .469-.222c.101-.047.223-.074.176-.223 0-.023 0-.023-.028-.047 0-.027.075-.05.102-.05.098.222.195.417.246.566 0 .027-.05.05-.098.05-.027-.023-.027-.023-.027-.05-.047-.121-.172-.047-.297 0-.172.074-.348.148-.469.223-.175.074-.199.097-.175.199 0 .023.027.074.05.12.024.052.051.126.098.173.05.05.148.05.176.05h.097c.028.024.051.051.028.098-.078 0-.227.027-.375.05M18.8 4a.98.98 0 0 1 .05-.32c.024 0 .098 0 .122.023 0 .121-.024.297.199.395.148.047.25 0 .273-.098.051-.125 0-.223-.148-.348-.223-.195-.25-.32-.223-.418.024-.148.149-.394.543-.273.2.074.274.125.324.176 0 .023-.05.218-.074.293-.027.027-.074 0-.101-.024 0-.023.05-.222-.149-.297-.195-.074-.27.028-.297.102-.023.098.028.144.176.293.121.125.297.273.195.496-.074.195-.32.293-.57.219-.223-.098-.32-.219-.32-.219m-.77 15.234c.051.102.074.223.102.32-.028.028-.074.051-.125.028-.051-.102-.098-.297-.348-.246-.148.023-.195.121-.195.195 0 .125.098.2.297.246.27.075.37.172.394.274.051.144.051.441-.37.492-.2.023-.298 0-.372 0a1.102 1.102 0 0 1-.074-.297c.023-.023.074-.05.098-.023 0 .023.05.222.273.195.2-.023.223-.148.223-.223-.024-.097-.075-.12-.297-.195-.172-.074-.371-.125-.422-.344-.024-.222.148-.422.398-.445.297-.05.418.023.418.023m-7.082-2.39c-.05.097-.148.199-.199.246-.023 0-.074-.047-.098-.074.075-.098.172-.246.024-.442-.098-.125-.223-.101-.297-.05-.098.074-.098.199-.024.394.098.27.047.395 0 .469-.101.12-.347.27-.62-.051-.126-.148-.172-.246-.2-.293.027-.027.149-.176.2-.223.05 0 .074.024.074.075-.024.023-.149.171-.024.343.125.172.246.098.297.051.074-.074.05-.125 0-.348-.05-.171-.125-.367.074-.543.172-.144.422-.12.594.102.176.195.2.344.2.344M12.78 4.812a.197.197 0 0 1-.05-.097c.027 0 .05-.027.05-.05.098-.075.098-.099 0-.298a6.166 6.166 0 0 1-.246-.469c-.05-.097-.101-.218-.223-.171-.027 0-.027.023-.05.023-.024 0-.051-.07-.051-.098.2-.12.398-.222.547-.297.023 0 .047.075.047.102-.024.023-.024.023-.047.023-.125.075-.051.172 0 .297.097.172.195.368.246.47.101.171.125.194.223.171.027 0 .05-.023.074-.023.027 0 .05.07.05.097-.148.098-.398.223-.57.32m.992-.542a1 1 0 0 1-.148-.27c0-.027.047-.074.098-.074.074.097.148.27.398.195.149-.05.172-.148.149-.246-.028-.148-.149-.172-.348-.172-.297-.023-.399-.098-.445-.172-.075-.125-.125-.422.246-.543.199-.074.297-.074.37-.074.028.023.102.195.126.27-.024.027-.051.05-.098.05 0-.074-.074-.246-.3-.171-.196.046-.196.195-.173.246.051.097.098.097.348.12.172.028.395.028.469.25.074.196-.047.419-.297.516-.246.125-.395.075-.395.075m-2.058 1.207c-.098-.075-.172-.172-.223-.223 0-.024.051-.07.102-.07.097.07.222.195.445.046.125-.097.125-.195.074-.27-.074-.124-.175-.124-.37-.073-.274.047-.4.023-.473-.051-.098-.098-.247-.371.101-.59.172-.125.27-.148.32-.176.024.028.149.149.2.223 0 .05-.028.074-.075.074-.027-.023-.148-.172-.347-.047-.172.121-.125.246-.074.293.074.074.125.074.347.028.172-.028.395-.075.52.12.125.173.074.423-.149.594-.25.098-.398.122-.398.122m12.09 9.199c.05-.028.074 0 .097.047l-.023.05c-.024.098 0 .149.2.223.148.074.347.172.468.219.125.05.223.125.273.027 0-.027.024-.027.024-.05.027 0 .074 0 .101.05-.027.074-.125.246-.175.344 0 .023-.024.023-.024.05-.023 0-.05 0-.125.024-.023 0-.965.223-1.09.246l.446.297c.148.098.222.125.296.024 0-.024.028-.024.051-.047.024 0 .074.023.102.047-.102.148-.2.32-.274.445-.027.023-.074-.024-.101-.05 0-.024.027-.024.027-.048.047-.074.024-.125-.148-.246-.125-.074-.696-.469-.77-.496 0-.023-.023-.047 0-.098.2-.05 1.34-.32 1.414-.32a5.853 5.853 0 0 0-.597-.27c-.196-.074-.247-.074-.297 0-.024.024-.024.047-.024.047-.023 0-.074 0-.097-.046.097-.149.222-.395.246-.47M8.918 10.88c-.023.023-.074.023-.102 0v-.074c0-.102-.046-.125-.246-.149a3.642 3.642 0 0 0-.52-.05c-.148-.024-.245-.047-.273.074v.05c-.023.024-.074.024-.097 0 0-.074.023-.273.047-.37v-.051c.027 0 .05-.024.125-.047.027-.028.843-.52.941-.594-.098-.023-.445-.121-.52-.121-.171-.05-.246-.05-.273.074 0 .024-.023.047-.023.074-.024.024-.075 0-.098-.027.047-.172.098-.367.121-.492.027-.024.102 0 .102.023v.051c-.028.098.023.125.222.172.149.05.817.223.867.223.024.023.024.05.024.074-.172.097-1.164.738-1.215.765.102 0 .52.047.645.075.199.023.25 0 .273-.102 0-.023 0-.047.023-.074.028-.024.075-.024.102.027-.102.098-.125.395-.125.469m1.535-4.02c-.05 0-.074-.027-.098-.05 0 0 .024-.051.047-.051.051-.07.028-.145-.12-.27-.15-.097-.298-.246-.423-.32-.101-.098-.175-.172-.273-.074l-.05.05c-.024 0-.075-.027-.075-.074.05-.05.176-.222.25-.297 0-.023.023-.023.023-.05.024.027.051.027.125.027h1.114c-.075-.074-.297-.32-.371-.395-.125-.125-.172-.171-.274-.101-.023 0-.023.027-.047.05-.027 0-.074-.05-.074-.074l.371-.37c.024 0 .074.05.074.074l-.05.05c-.075.075-.051.125.097.27.102.101.57.617.621.644 0 .024 0 .047-.023.075H9.859c.075.047.395.32.52.394.172.121.223.121.297.07l.05-.046c.047 0 .075.023.075.074-.102.098-.297.344-.348.394m-.793 8.036c-.023 0-.098.027-.098.05 0 .024.024.051.024.075.023.097 0 .148-.172.222-.05.024-.125.047-.2.098l-.296-.617c.074-.024.148-.075.2-.075.194-.074.222-.074.296.028 0 .023.024.023.024.047a.188.188 0 0 0 .097-.047c-.074-.176-.172-.395-.223-.543-.023 0-.097 0-.097.023 0 .024 0 .051.023.074.028.098-.023.149-.195.223-.102.047-.324.121-.496.195-.125.051-.223.102-.274-.023 0 0 0-.023-.023-.05-.027 0-.102 0-.102.05.051.148.125.344.223.543.027 0 .102 0 .102-.05 0-.024 0-.024-.028-.048-.023-.125.051-.148.2-.222.023-.028.097-.051.171-.075l.301.618c-.05.023-.125.046-.176.097-.097.051-.222.121-.273 0 0 0-.023-.023-.023-.05-.051 0-.098.027-.098.05.074.149.172.32.27.516a.186.186 0 0 0 .101-.047c0-.023 0-.023-.023-.05-.051-.122.023-.173.171-.247.075-.05.348-.172.47-.246.198-.098.222-.098.296-.023 0 0 .027.023.027.046a.188.188 0 0 0 .098-.046c-.125-.125-.246-.371-.297-.496m12.313-9.317a.304.304 0 0 0-.102.145 2.534 2.534 0 0 1-.445-.27c-.149-.125-.32-.297-.32-.617.023-.27.199-.492.421-.59.27-.125.543 0 .743.149.222.171.296.293.347.32a3.172 3.172 0 0 0-.199.293c-.023 0-.102-.024-.102-.047.028-.05.079-.125.051-.223 0-.097-.05-.172-.172-.273a.5.5 0 0 0-.742.176c-.25.394-.027.613.047.687.05.05.074.05.102.074.074.051.12.051.171-.023l.075-.074c.05-.075.074-.075 0-.172l-.075-.074c0-.024.024-.075.075-.075.148.149.32.27.445.344 0 .027-.023.102-.074.102-.024 0-.024-.028-.051-.028-.047-.023-.074-.047-.148.051-.024.074-.024.098-.047.125m-12.29 2.54a.197.197 0 0 1-.097-.052c0-.023 0-.023.023-.05.051-.098.028-.145-.171-.27-.149-.074-.348-.172-.446-.246-.125-.074-.222-.125-.297 0-.027.023-.027.023-.027.047A.188.188 0 0 1 8.57 7.5c.098-.223.325-.594.547-.96.074.046.223.12.297.147 0 .047 0 .098-.05.122-.024 0-.075-.024-.098-.024-.051 0-.125-.027-.2.074-.074.075-.125.196-.148.246-.023.047 0 .075.023.098.028.024.297.172.325.2.171-.321.171-.321.195-.321.05 0 .074.023.101.07l-.175.325s.199.12.222.12c.176.098.2.075.274-.05.027-.047.05-.07.074-.121.05-.098.05-.172-.023-.274-.024-.023-.051-.047-.051-.07 0-.05.027-.074.074-.102.027.028.223.2.273.247-.199.25-.398.57-.546.89m11.273 9.887c.023 0 .047.047.047.098l-.024.023c-.097.074-.097.125.024.32.101.149.2.32.273.446.075.125.125.222.25.148.024 0 .024-.023.047-.023.028 0 .051.047.051.097-.2.149-.57.344-.965.543-.05-.074-.125-.199-.176-.273.028-.047.051-.074.102-.074l.074.074c.024.027.098.074.195.027.102-.05.223-.125.274-.148.05-.028.05-.051.023-.075a4.613 4.613 0 0 1-.195-.347l-.324.2c-.047-.024-.074-.075-.074-.099l.324-.199s-.102-.195-.125-.222c-.098-.172-.125-.149-.274-.098-.047.023-.074.05-.12.074-.102.074-.126.125-.102.246v.074c-.024.024-.075.075-.125.024-.024-.047-.075-.27-.098-.344a4.19 4.19 0 0 0 .918-.492M24.5 9.793c.371-.223.395-.246.691-.445.098-.047.149-.075.172 0 0 .027.028.05.028.05.023.024.097 0 .097-.023-.05-.2-.097-.371-.172-.594-.027-.023-.101 0-.101.024 0 .027 0 .05.027.074 0 .101-.027.148-.148.223-.074.05-.867.543-.895.566-.023.027-.023.027 0 .05 0 0 .074.122.102.173.32.05.816.125.988.171.2.028.227.075.25.126v.074c.023.023.098.023.098 0-.024-.149-.047-.371-.075-.492-.023-.028-.097-.028-.097.023v.047c0 .074 0 .125-.149.101a4.668 4.668 0 0 0-.816-.148m-.176 4.117c.422-.023.473-.023.817-.023.125 0 .175 0 .148.097v.051c.027.024.074.047.102.024.047-.2.097-.371.148-.594-.023-.047-.074-.024-.102-.024 0 .024-.023.051-.023.075-.05.097-.074.097-.246.125-.074 0-1.043.046-1.043.046-.023 0-.023.024-.023.024v.2c.273.194.644.519.793.64.148.125.148.172.148.222 0 .024-.023.047-.023.075a.188.188 0 0 0 .097.047c.051-.122.125-.344.172-.465 0-.028-.074-.051-.098-.051 0 .023-.023.05-.023.05-.027.071-.05.098-.176 0-.222-.175-.469-.37-.668-.519m-2.476 3.723c.37.222.422.246.695.418.098.05.148.101.074.176l-.05.046c0 .051.05.075.074.075.148-.121.297-.27.445-.418 0-.051-.05-.075-.074-.075l-.051.047c-.098.051-.121.051-.27-.023a23.045 23.045 0 0 0-.918-.516h-.05s-.075.121-.098.172c.125.32.273.762.32.961.051.195.051.246 0 .27-.023.027-.047.027-.047.05 0 .024.024.098.047.075.125-.075.297-.223.399-.297 0-.047-.028-.098-.051-.098-.023.024-.023.024-.05.024-.048.027-.098.05-.15-.098-.073-.246-.171-.543-.245-.79m-2.203 2.317c-.102-.219-.223-.64-.274-.738-.074-.172-.098-.223-.2-.195-.023 0-.05 0-.073.023-.024-.023-.051-.074-.024-.125.172-.074.395-.148.57-.223a.2.2 0 0 1 .047.102c-.023 0-.046.023-.046.023-.102.075-.102.098-.028.297.051.121.149.395.176.492.074.2.098.223.195.2.028 0 .028 0 .051-.028.023 0 .05.075.05.098-.323.125-.495.176-.57.2a.504.504 0 0 1-.171.05c-.153.023-.399.047-.473-.25-.05-.172.023-.293.148-.367-.097-.074-.222-.172-.347-.246-.121-.075-.172-.102-.27-.075h-.074c-.027-.027-.027-.074-.027-.101.027 0 .199-.047.347-.07.075.047.52.343.621.394v.098c-.078.023-.152.074-.175.148a.249.249 0 0 0 .023.196c.027.05.05.125.125.148a.289.289 0 0 0 .2 0c.05-.023.097-.023.124-.05h.075m-5.524-1.083c-.05.024-.05.074-.05.098.023 0 .023 0 .05.023.074.051.074.075-.027.172l-.098.102c-.05-.028-.348-.149-.422-.149v-.148c0-.098 0-.172.098-.149.027 0 .027 0 .05.024a.197.197 0 0 0 .051-.098 4.097 4.097 0 0 1-.496-.222c-.05.027-.05.074-.05.101.027 0 .05.024.05.024.125.074.075.171.075.27 0 .1-.024 1.034-.024 1.062 0 .023 0 .023.024.023h.171c.051-.05.547-.617.696-.766.148-.148.172-.148.246-.148h.05c.024-.023.051-.07.024-.098-.148-.023-.371-.12-.418-.12m-.57.886.023-.543.348.125Zm-4.434-6.336c-.05-.027-.101 0-.101.023v.051c0 .098-.024.098-.149.074-.074 0-.097-.027-.125-.027-.023-.074-.074-.367-.097-.418.05-.023.05-.023.125-.074.074-.05.148-.098.171 0v.05c.028.024.102 0 .102-.027-.027-.074-.05-.27-.102-.543-.023-.023-.097 0-.097 0v.075c0 .125-.102.175-.176.222-.074.051-.89.543-.914.543-.027.024-.027.024 0 .024 0 0 .074.125.098.148.074 0 .816.125 1.015.149.2.023.223.074.25.124a.073.073 0 0 1 .024.047c.023.028.097 0 .097-.023-.023-.05-.097-.371-.12-.418m-1.044.023.473-.27.074.368Zm16.5-2.27a.073.073 0 0 1-.101 0c-.024-.218-.024-.32-.047-.491.023-.024.074-.051.097-.024v.047c.024.074.024.125.223.149.125.027.496.027.57.027.122 0 .274 0 .247-.149v-.05a.082.082 0 0 1 .101 0c.023.172.023.297.023.492-.074 0-.125.027-.25.074-.12.074-.519.246-.667.32.101.051.62.297.644.32.074.028.176.075.273.102 0 .121-.023.32-.023.492-.027.024-.074.024-.102-.023v-.05c0-.075-.023-.126-.171-.126h-.621c-.172.028-.27.028-.27.102v.074c-.027.023-.074.023-.102-.027.028-.297.051-.395.051-.567.024-.023.074-.023.098 0v.051c0 .074 0 .098.223.098.175 0 .593 0 .695-.024-.125-.074-.496-.222-.695-.32-.196-.102-.27-.125-.344-.148-.028-.028-.028-.051 0-.075.023 0 .172-.05.344-.148.175-.074.593-.274.695-.297-.149 0-.547-.023-.645-.023-.148 0-.273 0-.246.097m-9.02 9.074c0 .024-.046.075-.074.122-.046.05-.12.074-.222.05-.024 0-.098-.023-.172-.023l.148-.742c.051-.22.075-.246.172-.246h.051c.023-.024.023-.075.023-.098a3.89 3.89 0 0 1-.593-.125c-.024.027-.024.074-.024.102.024 0 .047.023.075.023.097.05.097.098.074.27-.028.101-.149.742-.149.742-.101-.028-.175-.028-.222-.051-.102-.024-.125-.121-.125-.172v-.098c-.024-.027-.075-.027-.098-.027 0 .05-.05.273-.074.348.469.12.742.172 1.187.222 0-.027.125-.273.149-.32-.024.023-.098 0-.125.023m-2.946-.937c-.027.023-.074.074-.125.098-.05.027-.148.027-.222-.024-.024-.023-.075-.05-.149-.098l.395-.667c.125-.172.148-.196.25-.172.023 0 .023.023.047.023a.17.17 0 0 0 .05-.098 3.856 3.856 0 0 1-.52-.32c-.023 0-.073.05-.073.074.023.024.05.024.05.051.075.074.075.121-.027.293-.047.102-.394.668-.394.668a2.468 2.468 0 0 0-.2-.125c-.097-.074-.074-.172-.05-.195 0-.028.027-.074.05-.098-.023-.05-.074-.05-.097-.05-.028.05-.149.245-.2.296.395.27.622.418 1.04.64l.25-.245c0-.028-.028-.051-.075-.051m-3.84-7.617v.074c-.027.098-.027.172-.199.172h-.222v-.348c-.051-.023-.098-.023-.125 0v.371c-.047 0-.371.024-.395.024-.023 0-.05 0-.074-.075v-.269c.023-.195.273-.246.348-.246.023-.05.023-.074-.028-.125-.097 0-.347.05-.445.05-.024.47 0 .766.023 1.11a.082.082 0 0 0 .102 0v-.05c0-.122.098-.122.246-.15.102 0 .324 0 .52-.023.25-.023.25.024.273.125v.047c.023.028.102 0 .102 0-.028-.195-.028-.441-.028-.64 0-.075-.074-.075-.097-.047M13.03 5.75c-.101.023-.152.195-.152.27-.024.074-.024.199-.024.199 0 .023-.023.023-.074 0-.05 0-.097-.102-.125-.149 0-.05 0-.097-.023-.125.023 0 .05.028.074 0 .05-.023.05-.074.05-.172 0-.05-.027-.074-.05-.097h-.05v-.074c0-.024-.024-.051-.048-.051-.027 0-.074-.024-.101 0-.047 0-.074.027-.098.027-.023.047-.023.07-.023.07 0 .028.023.051.023.051-.023 0-.05 0-.05.024-.024.027-.024.074-.024.101.023.074.05.121.098.149.027 0 .05 0 .05-.028 0 .028.024.075.024.125 0 .047 0 .172-.047.196-.027 0-.05.027-.05 0l-.098-.172c-.075-.121-.149-.223-.223-.223-.027 0-.074.027-.102.05-.023.052-.023.15.028.196.046.051.12.074.148.051l.149.297c.023.074.074.195.097.27.024.074.098.124.2.148 0 0 .046.691.245 2.07.024.05.149.074.2.05.074-.023.172-.05.148-.148-.223-1.378-.371-2.046-.371-2.023.074-.047.148-.098.148-.195v-.32c0-.126 0-.2.024-.32.05 0 .101-.024.125-.075a.289.289 0 0 0 0-.2c-.024.028-.05 0-.098.028m-.176 4.832c.051.074.2.148.422.121.2-.023.297-.121.348-.246.047.05.172.566-.273.617-.446.051-.52-.37-.497-.492m.891-.863c-.023-.024-.047-.051-.098-.051.024-.047.051-.047.051-.098.024-.05.024-.097 0-.195-.027-.05-.074-.05-.125-.074 0-.028.024-.028.024-.074.027-.075 0-.102-.024-.149-.05-.074-.222-.074-.246-.023-.05.097-.176.144-.273.144a.48.48 0 0 1-.325-.047c-.074-.05-.12-.05-.171 0a.298.298 0 0 0-.098.223c0 .098.074.145.074.195.024.075-.05.125-.027.2.027.07.074.097.101.144.024.05 0 .102 0 .176s.075.12.098.144c.023.051 0 .125.023.149.051.05.075.05.149.074.125.027.3.027.496-.047.102-.05.223-.101.273-.223.024-.05 0-.124-.023-.171.047-.028.074-.051.074-.102.098-.098.074-.172.047-.195m-.418.32c-.027.024-.074.024-.101.024 0 .027.027.074.027.074s-.102.027-.102 0c-.023 0-.023-.024-.047-.047-.027 0-.05.023-.101 0-.024 0-.05-.102-.05-.125.026-.024.05 0 .1-.024-.023-.027-.023-.074-.023-.074s.098-.027.098 0c.023.024.023.047.023.074.028 0 .075-.027.102 0 .074 0 .098.075.074.098m2.031-3.82c.024-.223.098-.395.149-.52 0-.023-.051-.074-.051-.074-.023 0-1.09.273-1.98.813-.176.101-.051.496.074.765.394.938.84.813 1.015 1.527.047.25.27 1.137.297 1.258a.524.524 0 0 0 .57.371c-.074-1.16-.199-3.058-.074-4.14m-1.14.761c-.024.125-.149.372-.2.372-.074-.024-.148-.297-.148-.418 0-.075.024-.102.05-.125.024 0 .075.097.075.222h.074c.024-.148.098-.222.125-.199.047 0 .047.074.024.148m.394-.789c.028-.074.028-.097.051-.097.024 0 .05.097.024.222h.074c.05-.125.125-.171.148-.171.027.023.027.074 0 .12-.047.102-.172.32-.246.298-.05.023-.074-.247-.05-.372m.37 1.383c-.046.121-.195.395-.27.367-.1-.023-.124-.343-.1-.464 0-.075.027-.125.073-.125.028 0 .051.097.051.27h.075c.05-.173.124-.22.148-.196.05.023.05.074.023.148m5.032-1.11a7.375 7.375 0 0 0-2.059-.839c-.023 0-.074.05-.047.074.047.098.121.274.149.492.125 1.086 0 2.985-.075 4.168.274.024.47-.125.57-.37.048-.122.223-1.009.298-1.259.148-.59.89-.835 1.09-1.476.097-.297.245-.691.074-.79m-1.536-.296c.024 0 .098.023.149.172h.074c-.027-.121 0-.223.024-.223.023 0 .05.028.05.102.024.097 0 .367-.074.394-.05.024-.2-.199-.25-.297 0-.074 0-.125.027-.148m.247 1.973c-.075.023-.223-.246-.274-.371-.023-.075-.023-.149 0-.172.027-.024.102.05.149.199h.074c0-.149.027-.274.05-.274.024 0 .051.051.075.125.05.149 0 .47-.074.493m.718-.766c-.074 0-.172-.246-.199-.367-.023-.074 0-.125.027-.149.024 0 .098.047.122.196h.074c0-.149.05-.246.074-.246.027 0 .05.05.05.125 0 .148-.073.418-.148.441m-1.957-3.031s0-.2-.172-.246v-.051s.172-.024.27.05v.075c.125.293-.074.418-.074.64-.246-.148-.446-.148-.446-.148l-.125-.32s.051-.024.176-.024.274-.027.371.024m-.816-1.012c-.348 0-.719.023-.942.148-.05-.097-.125-.542-.273-.69-.023-.024-.074-.099-.098-.099-.027-.023-.027-.05 0-.05.024 0 .047-.024.098 0 .05 0 .074.027.098.101h.027v-.101c0-.024.047-.047.098.027.023.023.05.047.05.074 0 .024.024.074 0 .098-.027.023-.05 0-.074 0v.023c.047.051.149.125.246.098.125-.023.172-.098.149-.195 0 0-.024.023-.051.023-.023 0-.074 0-.098-.074-.023-.047-.023-.098 0-.098 0-.023.051-.023.098 0v-.023c-.074-.028-.074-.074-.074-.098 0-.027.027-.074.101-.074.098-.027.125.023.125.047 0 .027 0 .074-.05.097l.023.028c.027 0 .027-.028.027-.028s.024-.023.047-.023c.028 0 .051 0 .074.074.028.098-.023.125-.046.125-.028 0-.051 0-.075-.027.047.101.121.176.27.148.125 0 .2-.074.2-.222 0 0-.024.027-.075.027-.05 0-.074-.027-.074-.102-.024-.07 0-.097.05-.12.024-.024.075 0 .075.023v-.024c-.028-.023-.051-.05-.051-.097 0-.028.05-.051.125-.051.074 0 .121.023.121.05 0 .024-.023.048-.047.098v.024s.047-.024.074-.024c.024 0 .047.051.047.121-.023.051-.047.102-.074.102-.047 0-.047-.027-.074-.027 0 .148.101.222.199.222.125 0 .223-.047.25-.148 0 .027-.027.027-.05.027-.028 0-.075-.027-.052-.125.024-.074.051-.074.075-.074 0 0 .027 0 .05.023l.024.028.027-.028c-.05-.023-.05-.097-.05-.097 0-.024.05-.074.124-.047.075.023.098.047.098.074 0 .024-.023.07-.074.098v.023a.12.12 0 0 1 .098 0c0 .024.027.051 0 .098-.024.074-.075.074-.098.074-.024 0-.024-.023-.05-.023 0 .097.026.171.148.195.101.027.222-.047.25-.098V2.84c-.028.023-.051.023-.075 0-.027-.024-.027-.05 0-.098 0-.027.024-.05.047-.074.05-.05.102-.027.102-.027.023.027.023.05 0 .101h.023a.206.206 0 0 1 .098-.101h.101c.024 0 .024.027 0 .05-.027 0-.074.075-.101.098-.149.172-.223.594-.27.691-.222-.097-.57-.148-.941-.148"/><path fill="#fff" d="M16.473 5.207c.097 0 .172-.125.172-.125h.074s.05.125.148.125c.348.047.621.098.719.148.074-.125.05-.246-.148-.37-.075-.051-.27-.126-.57-.126-.173.2-.372-.046-.595.028.075-.074.176-.172.274-.172l.098.047c.05.027.175-.024.199-.047.023-.027-.098-.692-.098-.692s.297-.171.543-.171c.223 0 .297.148.297.148.102-.469-.496-.445-.914-.445-1.164 0-.867.222-.82.617 0 .098-.172.195 0 .59.027.05.05.125.05.222-.148.098-.199.246-.125.371.149-.074.45-.125.696-.148m.125-1.184c-.051.172-.075.344-.075.344s-.074-.023-.222-.023h-.375c.027-.074.05-.223.226-.223v-.05l-.226-.048c.176-.37.597-.05.672 0m.89 1.454a4.17 4.17 0 0 0-1.66.027c-.098.394-.223 1.23-.023 1.476.047.051.37.2.668.125.074-.05.074-.418.097-.593.028-.246.028-.27.051-.27h.098c.05.024.027.79.125.84.273.098.668-.027.742-.125.176-.2 0-1.234-.098-1.48m-.816.347c-.274 0-.348-.074-.348-.222 0 0 .074.046.348.046.27 0 .344-.046.344-.046 0 .148-.098.222-.344.222m0 7.074c-.867 0-1.883.098-2.281.172-.098-.218-.344-.812-.692-1.207-.05-.05-.199-.195-.222-.246-.028-.023-.051-.097 0-.097.074-.028.148-.028.222-.028.121.028.196.074.223.223l.047.027c-.024-.074-.024-.148.027-.199.024-.023.125-.074.274.05a.413.413 0 0 1 .12.196c.028.074.051.149-.023.2a.289.289 0 0 1-.199 0v.046a.756.756 0 0 0 .621.246c.32-.047.395-.219.371-.418 0 0-.023 0-.023-.023-.028.023-.051.047-.102.074-.05 0-.148 0-.246-.148-.05-.125-.05-.2-.027-.223.027-.023.101-.05.25-.023v-.028c-.176-.047-.2-.144-.2-.219 0-.05.051-.148.25-.175.223-.047.297.05.32.101.024.047 0 .172-.097.246l.024.024c.023-.024.05-.051.074-.051.023-.023.074-.023.097-.023.075 0 .125.023.176.199.047.219-.101.246-.125.246-.05 0-.125-.027-.148-.027l-.024.027c.121.223.32.367.641.344.3-.024.496-.172.496-.493 0 0-.023 0-.023-.023 0 0-.051.074-.149.074-.097 0-.172-.074-.199-.199-.05-.148.027-.223.102-.246a.204.204 0 0 1 .195.05l.027-.027c-.05-.047-.101-.12-.101-.195.027-.074.125-.148.297-.148.175 0 .273.046.296.148.028.047-.023.121-.097.195l.023.028c.028-.028.125-.075.2-.051.074.023.124.098.101.246-.027.125-.102.2-.2.2-.1 0-.148-.075-.148-.075s-.027 0-.027.023c0 .32.223.493.496.493.324.023.52-.098.645-.344 0 0 0-.027-.024-.027-.05.027-.125.027-.148.027-.051 0-.176-.05-.125-.246.05-.176.097-.2.172-.2.027 0 .074.024.101.024.024.027.047.027.074.05l.024-.023c-.098-.074-.125-.199-.098-.246.024-.05.098-.148.32-.101.2.027.25.125.25.175 0 .047-.027.172-.199.22v.027c.149-.051.223-.028.246.023.028.023.028.125-.023.223-.074.148-.2.148-.246.148-.051 0-.074-.05-.102-.074 0 0-.023 0-.023.023-.028.2.05.371.37.418a.63.63 0 0 0 .618-.246v-.047c-.074.024-.148.047-.195 0-.074-.05-.051-.125-.028-.199a.458.458 0 0 1 .125-.195c.125-.125.223-.074.274-.051.023.05.05.125.023.2l.051-.028c.024-.149.098-.195.223-.223a.304.304 0 0 1 .222.028c.051.023.024.074 0 .097-.023.024-.171.172-.222.246-.348.371-.594.989-.696 1.207-.32-.074-1.359-.172-2.226-.172ZM16 16.895c.05 0 .074-.028.125-.075h-.172c0 .047 0 .075.047.075m.027-1.63h-.175c0 .051.027.075.05.075.075 0 .098-.024.125-.074m1.633.52h.05c.126 0 .224-.075.224-.223 0-.149-.125-.2-.223-.2-.246 0-.246.274-.52.32h.149c.172.028.273.028.32.102"/><path fill="#fff" d="M16.672 13.219c-1.215 0-1.957.125-2.23.172 0 .199.074 1.898.124 3.207.075 1.578.914 2.07 2.106 2.07 1.113 0 2.031-.246 2.105-2.07a99.11 99.11 0 0 0 .121-3.207c-.246-.047-.988-.172-2.226-.172m.223.37c.074 0 .097.052.097.075h.074c0-.023.024-.074.102-.074.098 0 .121.074.121.074 0 .121-.172.149-.223.195h-.023c-.05-.046-.223-.074-.223-.195-.05 0-.05-.074.075-.074m-1.165.12h.075l-.051-.245h.023a.29.29 0 0 1 .102.125h.023c0-.05.051-.125.051-.125H16c.027.05.05.125.05.125h.024s.028-.074.102-.125h.023l-.047.2c.075 0 .246.269.246.515.075-.024.446-.024.47-.024-.247-.023-.419-.148-.419-.492h.074c.122.024.196.121.196.172 0 .05-.024.074-.047.098 0 .05.098.125.27.125.374 0 .347-.418.82-.418.172 0 .422.07.422.343 0 .297-.348.32-.422.32.047.051-.028.173.148.173.149 0 .348-.047.422-.047.121 0 .047.144.148.246.075.074.075.097.075.12 0 .024-.028.075-.051.075v-.05h-.024s-.027 0-.05-.048c-.051 0-.051.024-.051.047v.051c0 .05-.047.05-.047.05v.048c-.027 0-.05-.024-.05-.074v-.047c0-.028 0-.028-.024-.028h-.028s0 .075-.046.075h-.051l-.028.027v.023c-.023.075-.023.051-.023.024 0-.074.05-.047.05-.074 0-.024-.027-.024-.027-.024h-.074c-.023.024-.023.024-.023.05 0-.026-.024-.05-.024-.05 0-.05.047-.074.121-.074h.079c.046 0 .097-.047.097-.074-.097 0-.445.125-.742.125-.422 0-.102-.52-.422-.52-.324 0-.398.348-.742.348-.125 0-.223-.028-.25-.028 0 .102 0 .149-.098.149-.074 0-.347.023-.77.023-.023.149-.073.176-.12.176-.028 0-.051-.027-.075-.027.024 0 .075 0 .075-.024l-.028-.023s0-.027.028-.05h-.028c-.046 0-.097.097-.171.097-.028 0-.051-.024-.051-.047-.024 0-.051.023-.051.047 0-.047.027-.098.074-.098.05 0 .05 0 .05-.023v-.028h-.05c-.047 0-.074-.023-.074-.047 0 0-.024 0-.047.024 0-.047.047-.098.074-.098.047 0 .047 0 .098.024v-.024c0-.023-.024-.023-.074-.05-.024 0-.024-.047-.051-.047-.024 0-.047.023-.047.023.024-.05.047-.098.121-.098.125 0 .125.121.274.121.199 0 .52-.023.57-.046-.05-.051-.074-.075-.074-.149s.074-.172.097-.223h-.047c-.027 0-.074 0-.074-.05 0-.047.024-.075.047-.098h.05c0 .023.024.05.126.05.098 0 .121-.05.121-.097 0-.125-.047-.148-.148-.148-.075 0-.075 0-.075.047h-.047a.307.307 0 0 1-.05-.149c-.098-.047-.075-.074.05-.074m.915 1.285h-.024c-.074 0-.074.149-.2.074-.023 0-.023.024 0 .047-.023-.023-.046-.047-.023-.074.024-.023.075-.047.075-.074 0 0 0-.024-.024-.024-.05 0-.074.075-.125.024v-.024s-.023 0-.05.024c0-.047.027-.047.05-.074.051-.024.098-.024.098-.024v-.023c-.024-.028-.074.023-.074-.028-.024 0-.047 0-.047.028 0-.051.047-.075.097-.098.051 0 .149.047.223.07h.172c.05 0 .05-.023.027-.097-.027-.121 0-.223.098-.293.074-.051.148-.051.223-.051.027.023.05.05.05.098 0 .05 0 .074.024.148a.258.258 0 0 0-.172.074c-.027.051.023.121.023.172 0 .05-.023.05-.074.074h-.199v.024c0 .027-.023.074-.074.074-.047.027-.074.05-.121.027.023 0 .047-.027.047-.027-.047-.023 0-.047 0-.047m.25.172c.074 0 .097.047.097.074h.074c0-.027.024-.074.102-.074.098 0 .121.074.121.074 0 .121-.172.149-.223.195h-.023c-.05-.046-.223-.074-.223-.195-.05-.027-.05-.074.075-.074m-1.34.91a.29.29 0 0 1-.098-.074c-.098-.098-.125-.246-.2-.32-.073-.098-.12-.145-.12-.172h-.102c-.023 0-.098 0-.148-.098.023 0 .05.024.05.024 0-.024.024-.024.024-.024.023 0 .023.024.05.024h.024v-.024c0-.05-.05-.05-.074-.05-.074 0-.074-.075-.074-.075s0-.023-.024-.023h-.027a.203.203 0 0 1 .125-.051c.05 0 .101.074.125.074.023 0 .023-.023.023-.023 0-.024-.023-.024-.046-.051l-.028-.024v-.023c-.023-.023-.023-.023-.074-.023.05-.028.074-.028.101-.028.075 0 .122.074.122.125.027 0 .027 0 .027-.027v-.024c0-.023 0-.046.023-.046 0-.028-.023-.028-.05-.028h.05c.024 0 .098.028.098.098 0 .074-.047.125-.047.148 0 .051.223.395.32.469-.05.027-.125.172-.05.246m-.196-.762h.047c.125 0 .125.172.274.172.074 0 .074-.023.125-.023.023 0 .047 0 .047.047 0 .05-.024.05-.122.05-.296.024-.222-.148-.37-.246m.023-1.554c.125 0 .125.172.273.172.074 0 .074-.024.121-.024.028 0 .051 0 .051.05 0 .048-.023.048-.125.048-.297 0-.223-.172-.394-.246.05.023.074 0 .074 0m-.445-.098c.046 0 .097.074.124.074.024 0 .024-.027.024-.027 0-.024-.024-.024-.05-.047l-.024-.023v-.028c0-.023-.028-.023-.051-.023.05-.024.074-.024.101-.024.075 0 .122.075.122.121.027 0 .027 0 .027-.023v-.023c0-.028 0-.051.023-.051 0-.024-.023-.024-.05-.024h.05c.024 0 .098.024.098.098 0 .074-.047.098-.047.149 0 .046.223.394.32.468-.05.074-.125.196-.023.27-.05-.024-.074-.051-.102-.074-.097-.098-.12-.247-.195-.32-.074-.098-.125-.15-.125-.173h-.098c-.027 0-.101 0-.152-.097.027 0 .05.023.05.023 0-.023.024-.023.024-.023.028 0 .028.023.051.023h.027v-.023c0-.051-.05-.051-.078-.051-.074 0-.074-.074-.074-.074s0-.024-.023-.024h-.024c0-.05.024-.074.075-.074m-.126.441c.075 0 .098.051.098.075h.074c0-.024.028-.075.102-.075.098 0 .125.075.125.075 0 .125-.176.148-.227.199h-.023c-.05-.05-.223-.074-.223-.2-.05-.023-.05-.074.075-.074m-.126 1.63c0-.024 0-.075.126-.075.074 0 .097.05.097.074h.074c0-.023.028-.074.102-.074.098 0 .125.074.125.074 0 .125-.176.149-.227.2h-.023c-.098-.051-.274-.075-.274-.2m.2.641c.05 0 .05 0 .05-.023v-.024h-.05c-.051 0-.075-.027-.075-.05 0 0-.023 0-.05.023 0-.047.05-.098.074-.098.05 0 .05 0 .101.024v-.024c0-.023-.027-.023-.074-.05-.027 0-.027-.048-.05-.048-.024 0-.051.024-.051.024.027-.05.05-.098.125-.098.125 0 .125.121.273.121.2 0 .469-.023.52-.047-.024-.027-.075-.05-.075-.125 0-.074.075-.171.098-.222h-.047c-.027 0-.074 0-.074-.047 0-.05.023-.074.047-.102h.05c0 .051.024.051.126.051.097 0 .12-.05.12-.098 0-.124-.046-.124-.148-.124-.074 0-.074 0-.074.05h-.047a.321.321 0 0 1-.05-.148c0-.05.023-.074.148-.074h.074l-.05-.246h.027c.074.05.097.125.097.125h.024c0-.051.05-.125.05-.125h.051c.024.05.047.125.047.125h.028s.023-.075.097-.125h.028l-.051.195c.074 0 .246.273.246.52.074-.024.445-.024.473-.024-.25-.027-.422-.149-.422-.496h.074c.125.027.2.125.2.176 0 .046-.028.074-.052.097 0 .051.098.121.274.121.37 0 .297-.418.793-.418.172 0 .422.075.422.348 0 .293-.301.32-.375.32.05.047-.047.246.125.22.148-.024.347-.099.398-.099.121-.023.074.149.195.247.075.074.102.074.102.101 0 .024 0 .07-.05.098v-.051h-.024s-.028 0-.051-.047c-.05.024-.05.024-.05.047s0 .023.026.05c0 .048-.027.048-.05.075v.047c-.024 0-.051-.024-.075-.047v-.05c0-.024-.023-.024-.023-.024h-.027s0 .074-.047.074h-.051s-.023.023 0 .023v.024l-.05-.047c0-.074.05-.05.05-.074 0-.028-.023-.028-.023-.028-.028 0-.028.028-.051.028h-.028c0 .023-.023.023-.023.047-.023-.024-.023-.024-.023-.047 0-.051.046-.074.097-.098h.074c.051 0 .075-.05.075-.101-.098.027-.446.148-.72.148-.417 0-.097-.543-.417-.543-.324 0-.398.348-.746.348-.121 0-.223-.028-.246-.028 0 .102 0 .149-.102.149-.074 0-.27.027-.715.027-.027.145-.074.172-.125.172-.023 0-.05-.027-.074-.027.024 0 .074 0 .074-.024l-.023-.023s0-.028.023-.051h-.023c-.05 0-.102.098-.176.098-.023 0-.05-.024-.05-.047a.05.05 0 0 0-.047.047c-.149-.047-.126-.098-.051-.098m1.758.148h-.024c-.074 0-.074.149-.2.075-.023 0-.023.023 0 .05-.023-.027-.046-.05-.023-.074.024-.027.075-.05.075-.074 0 0 0-.027-.024-.027-.05 0-.074.074-.125.027v-.027s-.023 0-.05.027c0-.027.027-.05.05-.074.051-.028.098-.028.098-.028v-.023c-.024-.023-.074.023-.074-.023-.024 0-.047 0-.047.023 0-.047.047-.074.097-.098.051 0 .149.051.223.075h.172c.05 0 .05-.024.027-.098-.027-.125 0-.223.098-.297.074-.05.148-.05.223-.05.027.027.05.05.05.097 0 .05 0 .074.024.148a.278.278 0 0 0-.172.075c-.027.05.023.125.023.171 0 .051-.023.051-.074.075h-.199v.027c0 .023-.023.074-.074.074-.047.024-.074.024-.121.024.023 0 .047-.024.047-.024-.047-.027 0-.05 0-.05m.25.199c.074 0 .097.047.097.07h.074c0-.023.024-.07.102-.07.098 0 .121.07.121.07 0 .125-.172.148-.223.2h-.023c-.05-.052-.223-.075-.223-.2-.05-.023-.05-.07.075-.07m-1.215.91-.098-.051c-.102-.098-.125-.246-.2-.32a1.336 1.336 0 0 1-.124-.145h-.098c-.023 0-.098.024-.125-.101.027 0 .027.027.05.027 0-.027.024-.027.024-.027h.028s.023 0 .023-.024c0-.023-.023-.05-.05-.05-.047 0-.075-.047-.075-.075 0 0 0-.023-.023 0h-.028c.028-.047.079-.047.102-.047.05 0 .074 0 .098.047l.027-.023c0-.024-.027-.024-.05-.024l-.024-.027v-.023c-.028-.024-.028-.024-.051-.024.05-.023.05-.05.074-.05.098 0 .125.074.125.124.024 0 .024-.027.024-.027v-.023c0-.024 0-.047.023-.047 0-.028-.023-.028-.047-.028.024 0 .024-.023.047-.023.027 0 .074.023.102.074 0 .074-.028.121-.028.149 0 .046.223.367.324.44-.05.075-.125.224-.05.298m-.223-.738h.05c.122 0 .122.171.27.171.075 0 .075-.023.125-.023.024 0 .051 0 .051.047 0 .05-.027.05-.101.05-.297 0-.223-.171-.395-.245m-.645.418c0-.024 0-.075.126-.075.074 0 .097.051.097.075h.074c0-.024.028-.075.102-.075.098 0 .121.075.121.075 0 .125-.172.148-.223.195h-.023c-.102-.024-.274-.07-.274-.195m2.204.519c-.024.047.027.145.027.195 0 .051-.027.075-.05.075-.024 0-.075.023-.173.05 0 0 .024.024.024.075 0 .046-.098.07-.125.07.027-.024.027-.047.027-.047-.05-.023 0-.05 0-.05h-.027c-.074.027-.024.171-.149.124-.023.024 0 .024 0 .047-.023 0-.047-.047-.047-.074l.075-.07s0-.028-.028 0c-.047 0-.047.07-.097.046v-.023s-.024 0-.051.023c0-.023 0-.046.05-.074.024-.023.075-.023.075-.047-.024-.027-.074.024-.098 0-.027 0-.027.024-.05.047 0-.047.023-.097.074-.12.05-.028.148.023.222 0 .024 0 .075-.028.075-.028.023 0 .023 0 .05-.024.047 0 .024-.023 0-.097-.05-.098.024-.32.098-.371.05-.051.125-.051.2-.051.023.027.023.05.023.101 0 .047 0 .075.027.149-.05 0-.125 0-.152.074m1.316.121v-.05h-.027c-.024 0-.024 0-.047-.024-.028.023-.051.05-.028.05 0 .024 0 .024.028.048 0 .05-.028.074-.028.074v.05c-.023 0-.046 0-.074-.05v-.047c0-.027 0 0-.023 0h-.028c0 .023 0 .074-.023.074h-.05v.047c-.024 0-.024-.023-.048-.047-.027-.05.024-.074.024-.101h-.024c-.027.027-.027.027-.05.027h-.024v.047c-.027-.024-.027-.024-.027-.047 0-.05.027-.102.074-.102h.05c.024 0 .075-.07.052-.097-.102.027-.372.222-.622.222-.347 0-.074-.59-.37-.59-.274 0-.372.344-.669.344-.097 0-.199-.023-.222-.023 0 .097 0 .144-.102.144-.074 0-.172.028-.566.028-.028.148-.051.172-.102.172-.023 0-.047-.024-.047-.024.024 0 .047 0 .047-.027l-.023-.024s0-.023.023-.023h-.023c-.051 0-.098.074-.172.074-.027 0-.05-.027-.05-.05-.024 0-.052.023-.052.05 0-.05.028-.101.075-.101.05 0 .05 0 .05-.024v-.023h-.05c-.024 0-.075-.028-.075-.051 0 0-.023 0-.046.023 0-.047.046-.097.074-.097.047 0 .047 0 .097.027v-.027c0-.024-.023-.024-.074-.047-.023 0-.023-.051-.05-.051-.024 0-.047.023-.047.023 0-.046.046-.097.12-.097.102 0 .102.125.25.125.172 0 .32-.028.372-.051-.028-.05-.075-.074-.075-.148 0-.075.047-.172.075-.223h-.051c-.024 0-.074 0-.074-.047 0-.05.023-.074.05-.102h.047c0 .051.028.051.125.051.098 0 .125-.05.125-.097 0-.125-.05-.149-.148-.149-.074 0-.074 0-.074.051h-.051c-.024-.05-.05-.102-.05-.148 0-.051.026-.075.148-.075h.074l-.024-.246h.024c.05.047.101.121.101.121h.024c0-.047.05-.12.05-.12h.024a.287.287 0 0 1 .027.12h.024s.023-.074.074-.12h.023l-.023.195c.074 0 .223.273.223.52.074-.028.394-.028.422-.028-.223-.024-.399-.145-.399-.492h.074c.125.023.176.125.176.171 0 .051-.027.075-.05.102 0 .047.074.121.245.121.325 0 .348-.371.747-.371.148 0 .343.05.343.324 0 .27-.297.32-.343.32.046.047-.102.27.046.247.149-.051.297-.149.348-.149.125-.027.074.121.2.195.073.051.097.075.097.102-.024.047-.024.098-.047.121m.023-.445h-.023c-.05-.047-.227-.07-.227-.195 0-.024 0-.075.125-.075.075 0 .102.051.102.075h.074c0-.024.024-.075.098-.075.098 0 .125.075.125.075-.05.125-.223.171-.274.195m.098-1.574h-.023c-.051-.051-.223-.075-.223-.2 0-.023 0-.074.125-.074.074 0 .098.05.098.074h.074c0-.023.023-.074.098-.074.101 0 .125.074.125.074-.051.125-.223.149-.274.2m0-1.555h-.023c-.051-.05-.223-.074-.223-.2 0-.023 0-.074.125-.074.074 0 .098.051.098.075h.074c0-.024.023-.075.098-.075.101 0 .125.075.125.075-.024.125-.2.148-.274.199"/><path fill="#fff" d="M17.836 17.14c0-.124-.102-.171-.176-.171-.195 0-.27.246-.52.293h.126c.172 0 .246.027.297.074h.023c.125 0 .25-.074.25-.195m-.176-2.91h.05c.126 0 .247-.075.247-.223 0-.149-.121-.195-.195-.195-.25 0-.274.292-.57.32h.148c.172.023.273.047.32.097m-1.758-.418c.075 0 .098-.027.125-.074h-.175c0 .024.027.075.05.075m5.774-4.563c.097 0 .172.05.172.172 0 .172-.075.246-.149.246s-.246-.047-.246-.223c0-.172.172-.195.223-.195m-.942.05c.075 0 .149.075.172.122.024-.074.098-.098.149-.098.097 0 .148.074.199.196.05.101.125.222.273.25 0 .195-.05.32-.222.32-.078 0-.125-.027-.153-.027-.047.05-.074.101-.195.101-.074 0-.176-.05-.2-.101-.073.05-.097.101-.198.101-.075 0-.149-.074-.196-.125-.05.024-.074.024-.125.024-.125 0-.222-.27-.222-.368 0-.074.047-.148.148-.148.023 0 .074.023.098.023 0-.05.027-.172.148-.172.05 0 .125.024.149.047.027-.07.05-.144.175-.144"/><path fill="#fff" d="M20.684 8.164c-.223 0-.793.274-.793.816 0 .122 0 .27.023.344.027-.023.05-.023.074-.023.028 0 .102.023.125.074 0-.074.024-.176.176-.176.074 0 .098.028.148.051.024-.125.122-.148.196-.148.074 0 .176.05.222.148 0-.098.075-.125.149-.125.148 0 .2.102.273.223 0-.149.223-.223.371-.223h.051c0-.441-.199-.79-.668-.91.098-.738.047-.79.024-.813-.024-.027-.051-.05-.098-.05v-.098c.074-.027.121-.074.121-.149 0-.05-.047-.394-.047-.394 0-.05.024-.074.047-.074.027 0 .348.12.375.148a.16.16 0 0 0 .149-.148c0-.098-.051-.172-.125-.172-.051 0-.325.074-.399.074-.023 0-.074-.05-.047-.074 0 0 .098-.348.121-.395a.16.16 0 0 0-.148-.148c-.098-.024-.172.023-.172.121 0 .05.05.394.05.394 0 .028-.027.075-.073.075-.075-.024-.348-.121-.372-.121a.16.16 0 0 0-.148.148c0 .098.047.172.121.172.05 0 .371-.074.399-.074.046 0 .046.023.046.074 0 0-.097.344-.097.394 0 .075.023.122.097.149v.098c-.023 0-.074 0-.097.023 0 0-.051.05-.074.79"/></svg>